<?xml version="1.0" encoding="UTF-8"?> <svg xmlns="http://www.w3.org/2000/svg" width="350.35" height="81.232" viewBox="0 0 350.35 81.232"><defs><style> .cls-1{fill:#fff} </style></defs><g id="footer-logo" transform="translate(-38.548 -25.984)"><g id="Group_23" data-name="Group 23" transform="translate(38.548 25.984)"><path id="Path_30" d="M38.548 26.008h37.184s4.334-.489 10.065 3.005 60.81 36.835 60.81 36.835z" class="cls-1" data-name="Path 30" transform="translate(-38.548 -25.984)"></path><path id="Path_31" d="M94.772 38.529l44.594 16.078-94.64 28.657 65-32.153s1.847-.667.386-1.712-15.34-10.87-15.34-10.87z" class="cls-1" data-name="Path 31" transform="translate(-32.495 -13.693)"></path></g><g id="Group_25" data-name="Group 25" transform="translate(146.924 55.835)"><path id="Path_32" d="M122.747 46.968h-9.02l1.16-5.613H140.2l-1.212 5.613h-9.02L124.382 72.9h-7.226z" class="cls-1" data-name="Path 32" transform="translate(-73.267 -40.775)"></path><path id="Path_33" d="M143.19 41.355c6.751 0 11.762 2.227 11.762 8.081 0 5.9-3.692 9.436-8.756 10.984l5.327 12.48h-7.594L139.5 61.339h-4.219L132.8 72.9h-7.278l6.909-31.547zm-3.112 14.71c5.116 0 7.753-2.225 7.753-5.66 0-2.663-2.057-3.775-5.747-3.775h-3.641l-2 9.436z" class="cls-1" data-name="Path 33" transform="translate(-61.71 -40.775)"></path><path id="Path_34" d="M182.706 41.062a10.657 10.657 0 0 1 9.6 5.033l-4.9 3.482a5.809 5.809 0 0 0-5.064-2.758c-6.381 0-11.021 6.292-11.021 13.306 0 4.839 2.057 7.984 7.436 7.984a6.984 6.984 0 0 0 3.744-1.065l1.477-6.193h-5.642l1.107-5.419h11.972l-3.164 15.048a18.706 18.706 0 0 1-10.76 3.288c-8.489 0-13.607-4.886-13.607-13.209-.007-10.885 8.016-19.497 18.822-19.497z" class="cls-1" data-name="Path 34" transform="translate(-24.132 -41.062)"></path><path id="Path_35" d="M185.171 41.355h7.229L189.654 53.6h11.76l2.639-12.243h7.224L204.421 72.9h-7.278l3.005-13.5h-11.761l-2.847 13.5h-7.278z" class="cls-1" data-name="Path 35" transform="translate(-10.038 -40.775)"></path><path id="Path_36" d="M147.528 51.613l.872-1.713z" class="cls-1" data-name="Path 36" transform="translate(-40.15 -32.404)"></path><path id="Path_37" d="M166.148 41.355H157.5L139.356 72.9h7.963l4.061-7.935v.042l2.591-5.025.869-1.714 2.215-4.381c1.21-2.461 2.283-4.88 3.455-7.452h.212c.1 3.338.263 6.29.422 9.386l.21 4.161h-5.866l-2.52 4.983h8.652l.422 7.935h7.541z" class="cls-1" data-name="Path 37" transform="translate(-48.157 -40.775)"></path><g id="Group_24" data-name="Group 24" transform="translate(76.495 33.381)"><text id="FORWARDING_INC" fill="#fff" data-name="FORWARDING INC" font-family="SourceSansPro-SemiboldIt, Source Sans Pro" font-size="13px" font-style="italic" font-weight="600" letter-spacing="0.221em" transform="translate(0 13)"><tspan x="0" y="0">FORWARDING</tspan><tspan y="0" font-family="SourceSansPro-SemiboldIt, Skia"> </tspan><tspan y="0">INC</tspan></text><path id="Path_38" d="M191.22 64.952l1.363.545-1.772 3.475-.818-.341z" class="cls-1" data-name="Path 38" transform="translate(-75.04 -51.037)"></path><path id="Rectangle_1" d="M0 0H2.449V2.449H0z" class="cls-1" data-name="Rectangle 1" transform="translate(151.514 13.909)"></path></g><path id="Path_39" d="M214.328 41.334h-3.68v.012H196.3l-1.16 5.613h8.941c.241-.848 1.936-5.271 10.247-5.625z" class="cls-1" data-name="Path 39" transform="translate(6.496 -40.796)"></path><path id="Path_40" d="M200.983 44.175c-.026.091-.042.154-.042.154l.044-.024.028-.131z" class="cls-1" data-name="Path 40" transform="translate(12.182 -38.012)"></path><path id="Path_41" d="M119.791 41.286c-4.894.024-9.016 2.384-10.867 5.737a8.179 8.179 0 0 0-1.049 3.967c0 3.845 1.992 6.054 5.08 7.832l3.245 1.828c2.409 1.392 3.981 2.209 3.981 3.892a3.607 3.607 0 0 1-2.584 3.269 6.894 6.894 0 0 1-2.069.329c.186.014-.548 0-.362 0H94.482l-1.192 5.586h22.425a14.126 14.126 0 0 0 4.464-.8 12.548 12.548 0 0 0 3.56-1.833 11.089 11.089 0 0 0 1.54-1.416 9.473 9.473 0 0 0 1.136-1.574 9.023 9.023 0 0 0 1.206-4.524 8.871 8.871 0 0 0-.441-2.892c-.647-1.916-2.035-3.288-4.324-4.555l-3.356-1.875c-2.673-1.536-4.3-2.306-4.3-3.892 0-1.756 1.18-3.108 3.815-3.312l.869-.03h10.176l1.218-5.757s-11.487 0-11.487.02z" class="cls-1" data-name="Path 41" transform="translate(-93.29 -40.862)"></path><path id="Path_42" d="M167.842 41.355h-7.225l-1.6 7.338 8.541-6z" class="cls-1" data-name="Path 42" transform="translate(-28.891 -40.775)"></path><path id="Path_43" d="M161.21 49.027l-4.874 22.256h7.278l6.145-28.275z" class="cls-1" data-name="Path 43" transform="translate(-31.52 -39.155)"></path><path id="Path_44" d="M232.859 41.334h-18.317l-.972.022c-8.309.352-9.954 4.738-10.2 5.585l-.046.148-1.732 8.192.012.008-3.793 17.6h7.224l4.789-22.211.006-.04.055-.259c.232-.873 1.75-3.332 6.125-3.425h15.622z" class="cls-1" data-name="Path 44" transform="translate(9.115 -40.796)"></path></g></g></svg> 