<?xml version="1.0" encoding="UTF-8"?> <svg xmlns="http://www.w3.org/2000/svg" xmlns:xlink="http://www.w3.org/1999/xlink" width="176.966" height="42.939" viewBox="0 0 176.966 42.939"><defs><linearGradient id="linear-gradient" x2="1" y1=".5" y2=".5" gradientUnits="objectBoundingBox"><stop offset="0" stop-color="#e91b23"></stop><stop offset="1" stop-color="#ad0f15"></stop></linearGradient><linearGradient id="linear-gradient-2" x1=".951" x2="-.001" y1=".5" y2=".5" gradientUnits="objectBoundingBox"><stop offset="0" stop-color="#3c5ca6"></stop><stop offset=".238" stop-color="#3679a9"></stop><stop offset=".559" stop-color="#309bae"></stop><stop offset=".824" stop-color="#2cb0b1"></stop><stop offset="1" stop-color="#2bb8b2"></stop></linearGradient><linearGradient id="linear-gradient-3" x1="0" x2="1" y1=".5" y2=".5" xlink:href="#linear-gradient"></linearGradient><linearGradient id="linear-gradient-4" x1=".085" x2=".912" y1=".5" y2=".5" xlink:href="#linear-gradient-2"></linearGradient><style> .cls-3{fill:#302e2f}.cls-5{fill:#0d0d0d} </style></defs><g id="nav-logo" transform="translate(-38.548 -25.984)"><g id="Group_23"><path id="Path_30" fill="url(#linear-gradient)" d="M38.548 26H57.33a8.786 8.786 0 0 1 5.084 1.518C65.309 29.279 93.13 46.12 93.13 46.12z"></path><path id="Path_31" fill="url(#linear-gradient-2)" d="M70 38.529l22.53 8.121-47.8 14.475 32.83-16.241s.933-.337.195-.865S70 38.529 70 38.529z"></path></g><g id="Group_25"><path id="Path_32" d="M118.283 44.19h-4.556l.586-2.835H127.1l-.612 2.835h-4.556l-2.823 13.1h-3.65z" class="cls-3"></path><path id="Path_33" d="M134.447 41.355c3.41 0 5.941 1.125 5.941 4.082 0 2.981-1.865 4.766-4.423 5.548l2.691 6.305h-3.836l-2.238-5.841h-2.131L129.2 57.29h-3.676l3.49-15.935zm-1.572 7.43c2.584 0 3.916-1.124 3.916-2.859 0-1.345-1.039-1.907-2.9-1.907h-1.839l-1.012 4.766z" class="cls-3"></path><path id="Path_34" d="M173.388 41.062a5.383 5.383 0 0 1 4.848 2.542l-2.477 1.759a2.934 2.934 0 0 0-2.559-1.393c-3.223 0-5.567 3.178-5.567 6.721 0 2.444 1.039 4.033 3.756 4.033a3.528 3.528 0 0 0 1.891-.538l.746-3.128h-2.85l.559-2.737h6.047l-1.6 7.6a9.449 9.449 0 0 1-5.435 1.661c-4.288 0-6.873-2.468-6.873-6.672a9.517 9.517 0 0 1 9.514-9.848z" class="cls-3"></path><path id="Path_35" d="M181.752 41.355h3.648l-1.385 6.184h5.94l1.333-6.184h3.649l-3.462 15.935H187.8l1.518-6.819h-5.941l-1.438 6.819h-3.676z" class="cls-3"></path><path id="Path_36" fill="none" d="M147.528 50.765l.438-.866z"></path><path id="Path_37" d="M152.889 41.355h-4.369l-9.164 15.935h4.022l2.051-4.008v.021l1.309-2.538.439-.866 1.119-2.213c.611-1.243 1.153-2.465 1.745-3.764h.107c.053 1.686.133 3.177.213 4.741l.106 2.1H147.5l-1.273 2.517h4.37l.213 4.008h3.809z" class="cls-5"></path><g id="Group_24"><text id="FORWARDING_INC" fill="#302e2f" font-family="SourceSansPro-SemiboldIt, Source Sans Pro" font-size="7.346px" font-style="italic" font-weight="600" letter-spacing="0.221em" transform="translate(131.929 65.923)"><tspan x="0" y="0">FORWARDING</tspan><tspan y="0" font-family="SourceSansPro-SemiboldIt, Skia"> </tspan><tspan y="0">INC</tspan></text><path id="Path_38" d="M190.613 64.952l.688.275-.895 1.756-.413-.172z" class="cls-3"></path><path id="Rectangle_1" d="M0 0H1.237V1.237H0z" class="cls-3" transform="translate(208.46 64.949)"></path></g><path id="Path_39" fill="url(#linear-gradient-3)" d="M204.831 41.334h-1.859v.006h-7.246l-.586 2.835h4.516c.121-.428.977-2.662 5.175-2.841z"></path><path id="Path_40" d="M200.962 44.175l-.021.078.022-.012.014-.066z" class="cls-5"></path><path id="Path_41" d="M106.676 41.276a6.213 6.213 0 0 0-5.489 2.9 4.131 4.131 0 0 0-.53 2 4.3 4.3 0 0 0 2.566 3.956l1.641.923c1.217.7 2.011 1.116 2.011 1.966a1.822 1.822 0 0 1-1.305 1.651 3.482 3.482 0 0 1-1.045.166c.094.007-.277 0-.183 0H93.89l-.6 2.823h11.327a7.135 7.135 0 0 0 2.255-.4 6.339 6.339 0 0 0 1.8-.926 5.6 5.6 0 0 0 .778-.715 4.785 4.785 0 0 0 .574-.8 4.558 4.558 0 0 0 .609-2.285 4.481 4.481 0 0 0-.223-1.461 4.188 4.188 0 0 0-2.184-2.3l-1.693-.947c-1.35-.776-2.17-1.165-2.17-1.966 0-.887.6-1.57 1.927-1.673l.439-.015h5.14l.615-2.908s-5.808.001-5.808.011z" class="cls-5"></path><path id="Path_42" fill="url(#linear-gradient-4)" d="M163.475 41.355h-3.65l-.807 3.706 4.314-3.033z"></path><path id="Path_43" d="M158.8 46.048l-2.464 11.242h3.676l3.1-14.282z" class="cls-5"></path><path id="Path_44" d="M215.514 41.334h-9.252l-.491.011c-4.2.178-5.028 2.393-5.152 2.821l-.023.075-.875 4.138h.006l-1.916 8.892h3.649l2.419-11.219v-.02l.028-.131c.117-.441.884-1.683 3.094-1.73H214.9z" class="cls-5"></path></g></g></svg> 