<?xml version="1.0" encoding="UTF-8"?> <svg xmlns="http://www.w3.org/2000/svg" width="641.214" height="402.779" viewBox="0 0 641.214 402.779"><defs><style> .cls-2{fill:#d8f3f7}.cls-3{fill:#195d8f}.cls-4{fill:#e84040}.cls-5{fill:#fff}.cls-6{fill:#0d395a}.cls-16{fill:none}.cls-9{fill:#00c1d5}.cls-10{fill:#0e263f}.cls-11{fill:#0f264c}.cls-12{fill:#eea886}.cls-13{fill:#ed906b}.cls-15{fill:#353535}.cls-17{fill:#c1c1c1;mix-blend-mode:multiply;isolation:isolate}.cls-18{fill:#f8bc00} </style></defs><g id="pic-policy" transform="translate(931.93 -1898.98)"><g id="Group_1452" transform="translate(-402.548 1933.148)"><path id="Path_1642" fill="#e9f2f2" d="M-233.2 1983.183h-72.547a6.1 6.1 0 0 0-6.1 6.1v133.288a6.1 6.1 0 0 0 6.1 6.1h99.636a6.1 6.1 0 0 0 6.1-6.1v-107.345z" transform="translate(311.845 -1983.183)"></path><path id="Path_1643" d="M-218.806 1983.183l.054 26.74a5.314 5.314 0 0 0 5.314 5.3h27.82z" class="cls-2" transform="translate(297.451 -1983.183)"></path><g id="Group_1451" transform="translate(7.015 44.794)"><path id="Rectangle_1809" d="M0 0H68.914V6.265H0z" class="cls-3" transform="translate(.444)"></path><path id="Rectangle_1810" d="M0 0H97.802V6.265H0z" class="cls-3" transform="translate(0 13.574)"></path><path id="Rectangle_1811" d="M0 0H97.802V6.265H0z" class="cls-3" transform="translate(0 27.148)"></path><path id="Rectangle_1812" d="M0 0H97.802V6.265H0z" class="cls-3" transform="translate(0 40.722)"></path><path id="Rectangle_1813" d="M0 0H97.802V6.265H0z" class="cls-3" transform="translate(0 54.296)"></path><path id="Rectangle_1814" d="M0 0H97.802V6.265H0z" class="cls-3" transform="translate(0 67.87)"></path></g></g><g id="Group_1455" transform="translate(-845.127 1898.98)"><g id="Group_1453"><path id="Path_1644" d="M-651.889 1912.363c-56.79 20.733-91.718-11.863-93.768-13.844v-.1l-.049.049-.05-.049v.1c-2.05 1.98-36.978 34.577-93.768 13.844 0 0-31.407 145.1 93.768 215.027v.057l.05-.029.049.029v-.057c125.175-69.93 93.768-215.027 93.768-215.027z" class="cls-4" transform="translate(843.031 -1898.422)"></path><path id="Path_1645" d="M-661.152 1933.423c-48.186 17.592-77.823-10.066-79.562-11.746v-.082l-.042.041-.043-.041v.082c-1.739 1.68-31.376 29.338-79.562 11.746 0 0-26.649 123.116 79.562 182.451v.049l.043-.025.042.025v-.049c106.214-59.335 79.562-182.451 79.562-182.451z" class="cls-5" transform="translate(838.081 -1904.246)"></path></g><g id="Group_1454" transform="translate(55.971 72.396)"><path id="Path_1646" d="M-734 2070.155a7.178 7.178 0 0 1-5.077-2.1l-27.085-27.086a7.179 7.179 0 0 1 0-10.154 7.178 7.178 0 0 1 10.154 0l21.486 21.487 44.812-54.554a7.178 7.178 0 0 1 10.1-.99 7.18 7.18 0 0 1 .992 10.1l-49.839 60.672a7.181 7.181 0 0 1-5.2 2.614c-.114.008-.232.011-.343.011z" class="cls-4" transform="translate(768.27 -1995.122)"></path></g></g><rect id="Rectangle_1815" width="316.815" height="229.361" class="cls-6" rx="8.254" transform="translate(-698.856 1990.872)"></rect><path id="Rectangle_1816" d="M0 0H279.688V179.034H0z" class="cls-5" transform="translate(-682.355 2005.723)"></path><path id="Rectangle_1817" d="M0 0H160.058V11.855H0z" class="cls-3" transform="translate(-622.127 2241.308)"></path><path id="Path_1647" d="M-530.2 2280.041h96.53l13.2 21.075H-543.4" class="cls-3" transform="translate(-60.572 -59.808)"></path><path id="Path_1648" fill="#277aa9" d="M-543.4 2301.116h66.828l-13.2-21.075H-530.2" transform="translate(-60.572 -59.808)"></path><path id="Line_1486" fill="none" stroke="#fff" stroke-miterlimit="10" d="M0 0L115.506 0" transform="translate(-602.051 2203.732)"></path><path id="Rectangle_1818" d="M0 0H279.711V13.559H0z" class="cls-3" transform="translate(-682.377 2005.655)"></path><circle id="Ellipse_227" cx="3.39" cy="3.39" r="3.39" class="cls-4" transform="translate(-678.586 2009.712)"></circle><circle id="Ellipse_228" cx="3.39" cy="3.39" r="3.39" class="cls-5" transform="translate(-668.314 2009.712)"></circle><circle id="Ellipse_229" cx="3.39" cy="3.39" r="3.39" class="cls-9" transform="translate(-657.733 2009.712)"></circle><g id="Group_1457" transform="translate(-423.199 2152.312)"><path id="Path_1649" d="M-235.492 2339.872c0 3.213-21.41 5.819-47.819 5.819s-47.819-2.606-47.819-5.819 21.409-5.818 47.819-5.818 47.819 2.604 47.819 5.818z" class="cls-2" transform="translate(349.198 -2196.244)"></path><g id="Group_1456"><path id="Path_1650" d="M-248.555 2246.354s4.135 22.834 3.449 26.148-13.441 11.392-13.636 11.506-1.684-5.03-1.684-5.03l6.977-8-6.472-16.116z" class="cls-3" transform="translate(338.26 -2182.676)"></path><path id="Path_1651" d="M-314.081 2247.165s-4.64 22.071-3.954 25.386 13.5 12.24 13.7 12.356 1.685-5.03 1.685-5.03l-6.976-8 6.472-16.117z" class="cls-3" transform="translate(347.183 -2182.802)"></path><path id="Path_1652" d="M-256.45 2246.036c-.183-4.84-3.379-13.466-7.463-16.051a28.669 28.669 0 0 0-4.722-2.459c-7.5 10.263-27.289 5.77-36.958 2.46a12.39 12.39 0 0 0-1.714 1.336c-.065.056-.129.114-.189.172-3.423 3.236-5.833 9.907-5.989 14 0 0 3.9 6 10.073 7.667a48.765 48.765 0 0 1-.529 10.281c-.382 2.525-1.537 19.53-3.024 26.1-.147.646 10.51 1.209 22.4 1.218 10.636.006 19.745-.886 20.151-1.249-.053.047-2.907-19.27-3.013-21.009a87.992 87.992 0 0 1 .251-15.1c6.707-1.081 10.726-7.366 10.726-7.366z" class="cls-3" transform="translate(346.469 -2179.764)"></path><path id="Path_1653" d="M-294.149 2203.878l1.726 11.132 5.778.384v-8l-6.52-4.95z" class="cls-10" transform="translate(343.477 -2175.882)"></path><path id="Path_1654" d="M-267.489 2194.157c-.8 3.533-.082 8.207.768 11.91 1.268 5.53-1.565 11.778-9.465 8.7-7.787-3.031 1.815-13.919 1.815-13.919z" class="cls-11" transform="translate(341.169 -2174.601)"></path><path id="Path_1655" d="M-289.189 2210.884c.016 2.147-.442 8.042-.591 9.3l-9.83 4.882c7.212 7.813 26.5 9.1 33.122-.113 0 0-9.911-3.956-9.882-3.881a62.619 62.619 0 0 1-.519-9.63z" class="cls-12" transform="translate(344.322 -2177.189)"></path><path id="Path_1656" d="M-287.282 2210.641a12.845 12.845 0 0 1 .016 2.147s3.661 4.329 6.273 4.328 5.948-4.006 5.948-4.006-.057-2.679.063-3.8z" class="cls-13" transform="translate(342.415 -2176.946)"></path><path id="Path_1657" d="M-296.456 2195.66c.3 2.236 2.035 5.1 3.7 4.238a3.691 3.691 0 0 0 2.162-4.1 3.85 3.85 0 0 0-3.247-3.689c-1.917-.382-2.913 1.314-2.615 3.551z" class="cls-13" transform="translate(343.842 -2174.276)"></path><path id="Path_1658" fill="#ffaf99" d="M-295.825 2192.835a1.867 1.867 0 0 1 2.833 1l-.207-1.585a2.534 2.534 0 0 0-1.35-.172 1.735 1.735 0 0 0-1.276.757z" transform="translate(343.736 -2174.274)"></path><path id="Path_1659" d="M-270.165 2188.532a11.275 11.275 0 0 1-11.266 11.281 11.276 11.276 0 0 1-11.28-11.267c0-8.358 5.038-12.382 11.267-12.385s11.274 4.186 11.279 12.371z" class="cls-12" transform="translate(343.254 -2171.817)"></path><path id="Path_1660" d="M-270.165 2190.8c0 6.029.006 11.075-2.291 14.355-1.383 1.975-4.976 5.369-7.581 6.231a7.6 7.6 0 0 1-3.144-.119c-2.585-.915-5.9-4.219-7.224-6.1-2.3-3.277-2.3-8.323-2.308-14.352" class="cls-12" transform="translate(343.254 -2174.081)"></path><path id="Path_1661" d="M-261.917 2245.751l.751 11.426 1.015.465.488 7.809.425-9.278.853-.158-1.58.292z" class="cls-6" transform="translate(338.49 -2182.583)"></path><path id="Path_1662" d="M-297.918 2245.751l-1.057 11.89h-1.684l-1.855 11.057a81.411 81.411 0 0 0 .855-11.273c-.06-1.776-.238-1.5-.238-1.5l2.026.377z" class="cls-6" transform="translate(344.771 -2182.583)"></path><path id="Path_1663" d="M-349.192 2295.814c7.374-3.063 37.777 5.4 59.608 5.4s56.578-8.344 65.15-5.145l-61.492 26.054-61.607-22.02z" class="cls-15" transform="translate(351.993 -2190.225)"></path><path id="Path_1664" d="M-195.922 2304.275l-.808-.064c.27.024.542.047.808.064z" class="cls-16" transform="translate(328.405 -2191.627)"></path><path id="Path_1665" d="M-201.33 2295.043a33.023 33.023 0 0 1-7.584-2.147v7.069c1.394.337 4.656 1.67 6.174 1.956.619.117 2.351.381 4.123.539l-2.4-3.885z" class="cls-16" transform="translate(330.29 -2189.877)"></path><path id="Path_1666" d="M-308.182 2299.62s22.678 5.139 25.754 14.969c0 0-.807-9.321 20.822-14.344 0 .001-23.288 3.255-46.576-.625z" class="cls-17" transform="translate(345.648 -2190.917)"></path><path id="Path_1667" d="M-216.235 2298.8c.944 5.219 1.33 10.593-2.251 12.809-10.527 6.51-69.045 21.689-74.9 22.325a120.356 120.356 0 0 1-17.754.382c-4.572-.458-7.547-5.969-8.076-9.756-.534-3.808 6.779-1.889 10.491-1.359 2.456.353 5.848 2.433 13.622 1.307 10.176-1.47 54.981-30.113 71.307-30.11 3.111.002 6.944.979 7.561 4.402z" class="cls-15" transform="translate(347.36 -2190.109)"></path><path id="Path_1668" d="M-317.733 2327.611s23.186 6.769 24.1 8.445-2.589 3.229-2.589 3.229l3.068-.258 11.915-2.647-32.339-8.77a7.713 7.713 0 0 0-4.155.001z" class="cls-17" transform="translate(347.126 -2195.201)"></path><path id="Path_1669" d="M-273.54 2322.484s7.8 4.113 14.491 4.672c6.171.517 30.785-4.672 30.785-4.672l-35.854 10.315-14.289-7.936z" class="cls-17" transform="translate(341.042 -2194.454)"></path><path id="Path_1670" d="M-351.859 2298.8c-.942 5.219-1.326 10.593 2.254 12.809 10.527 6.51 69.044 21.689 74.9 22.325a120.347 120.347 0 0 0 17.754.382c4.571-.458 7.547-5.969 8.077-9.756.533-3.808-6.779-1.889-10.491-1.359-2.457.353-5.848 2.433-13.624 1.307-10.175-1.47-54.98-30.113-71.306-30.11-3.112.002-6.944.979-7.564 4.402z" class="cls-15" transform="translate(352.505 -2190.109)"></path><path id="Path_1671" d="M-279.176 2179.389c0 3.821-4.113 8.165-10.743 10.395-1.714.686-2.4 5.428-2.342 7.6l-.55-2.874s-3.565-10.607 1.178-16.894 12.457 1.773 12.457 1.773z" class="cls-10" transform="translate(343.469 -2171.671)"></path><path id="Path_1672" d="M-276.837 2175.095a5.616 5.616 0 0 0-1.893 2.913c-.527 2.056-.518 6.554 3.108 8.17 4.394 1.957 6.729 4.581 6.729 6.231v1.545l.646.684s2.1-7.259 1.183-12.915-5.936-8.738-9.773-6.628z" class="cls-11" transform="translate(341.13 -2171.549)"></path><path id="Path_1673" d="M-279.158 2175.366c-.686-1.829-5.99-6.452-13.513-3.235-4.663 2-6.968 9.157-6.375 13.75.374 2.891-5.68 10.269-.154 16.222s-7.828 15.682-6.941 24.292c.653 6.311 7.655 11.265 13.982 10.212 8.463-1.409 11.113-8.167 8.165-17.939-1.838-6.094-11.916-11.353-9.909-18.241 1.586-5.444 1.151-10.755-1.123-13.516" class="cls-11" transform="translate(345.339 -2171.022)"></path><rect id="Rectangle_1819" width="53.556" height="1.428" class="cls-6" rx=".714" transform="translate(34.505 110.33)"></rect><rect id="Rectangle_1820" width="53.556" height="35.689" class="cls-6" rx="3.513" transform="translate(34.505 74.642)"></rect><path id="Path_1674" d="M-275.207 2280.981a5.876 5.876 0 0 1-5.876 5.876 5.876 5.876 0 0 1-5.875-5.876 5.875 5.875 0 0 1 5.875-5.873 5.875 5.875 0 0 1 5.876 5.873z" class="cls-5" transform="translate(342.364 -2187.125)"></path></g></g><g id="Group_1464" transform="translate(-672.937 2029.623)"><g id="Group_1458"><path id="Rectangle_1821" d="M0 0H260.301V24.821H0z" class="cls-2"></path></g><g id="Group_1459" transform="translate(0 113.209)"><path id="Rectangle_1822" d="M0 0H260.301V24.821H0z" class="cls-2"></path></g><g id="Group_1460" transform="translate(74.812 38.746)"><path id="Rectangle_1823" d="M0 0H185.49V15.74H0z" class="cls-2"></path></g><g id="Group_1461" transform="translate(74.812 62.961)"><path id="Rectangle_1824" d="M0 0H185.49V15.74H0z" class="cls-2"></path></g><g id="Group_1462" transform="translate(74.812 87.177)"><path id="Rectangle_1825" d="M0 0H185.49V15.74H0z" class="cls-2"></path></g><g id="Group_1463" transform="translate(0 37.938)"><path id="Rectangle_1826" d="M0 0H60.864V67.401H0z" class="cls-2"></path></g></g><g id="Group_1467" transform="translate(-623.266 1956.398)"><g id="Group_1466" transform="translate(26.264)"><g id="Group_1465"><path id="Path_1675" d="M-485.265 2130.779a49.946 49.946 0 0 1-49.888-49.89v-63.082a49.944 49.944 0 0 1 49.888-49.888 49.944 49.944 0 0 1 49.888 49.888v63.082a49.945 49.945 0 0 1-49.888 49.89zm0-147.782a34.849 34.849 0 0 0-34.809 34.809v63.082a34.849 34.849 0 0 0 34.809 34.811 34.849 34.849 0 0 0 34.809-34.811v-63.082A34.849 34.849 0 0 0-485.265 1983z" class="cls-9" transform="translate(535.153 -1967.918)"></path></g></g><path id="Rectangle_1827" d="M0 0H152.305V121.643H0z" class="cls-9" transform="translate(0 85.451)"></path><path id="Path_1676" d="M-461.094 2170.221l-10.695-40.363a16.578 16.578 0 0 0 8.872-14.678 16.587 16.587 0 0 0-16.587-16.587 16.588 16.588 0 0 0-16.588 16.587 16.579 16.579 0 0 0 8.873 14.678l-10.695 40.363z" class="cls-2" transform="translate(555.656 -1988.134)"></path></g><g id="Group_1468" transform="translate(-777.267 2181.447)"><path id="Path_1677" d="M-743.746 2259.048v-22.439a2.453 2.453 0 0 1 2.453-2.452h33.185a2.452 2.452 0 0 1 2.452 2.452 2.453 2.453 0 0 0 2.453 2.453h50.21a2.453 2.453 0 0 1 2.453 2.453v15.072a2.453 2.453 0 0 1-2.385 2.452l-88.3 2.461a2.454 2.454 0 0 1-2.521-2.452z" class="cls-9" transform="translate(747.69 -2234.156)"></path><path id="Rectangle_1828" d="M0 0H85.127V33.185H0z" class="cls-5" transform="translate(7.695 8.657)"></path><path id="Path_1678" d="M-744.127 2311.615h90.3a2.453 2.453 0 0 0 2.446-2.27l3.963-53.1a2.454 2.454 0 0 0-2.446-2.636H-687.8a2.451 2.451 0 0 0-1.689.675l-4.352 4.134a2.454 2.454 0 0 1-1.689.674h-50.433a2.454 2.454 0 0 0-2.451 2.548l1.831 47.613a2.453 2.453 0 0 0 2.456 2.362z" class="cls-9" transform="translate(748.411 -2237.166)"></path></g><g id="Group_1469" transform="translate(-879.004 1919.251)"><g id="Group_1317"><path id="Path_1356" d="M-847.137 1959.584c0-8.032 3.553-20.255 6.2-22.907 2.6-2.593 14.871-6.2 22.9-6.2-8.025 0-19.841-3.143-22.9-6.194-3.2-3.2-6.2-14.871-6.2-22.907 0 8.238-3.106 19.8-6.593 23.292-3.611 3.608-14.673 5.805-22.5 5.805 8.032 0 19.881 3.183 22.9 6.2s6.193 14.879 6.193 22.911z" class="cls-18" transform="translate(876.23 -1901.374)"></path></g><g id="Group_1317-2" transform="translate(45.534 39.785)"><path id="Path_1356-2" d="M-811.6 1969.978c0-2.972 1.314-7.494 2.293-8.476.961-.959 5.5-2.293 8.471-2.294-2.97 0-7.341-1.163-8.471-2.292-1.184-1.185-2.293-5.5-2.293-8.476 0 3.047-1.149 7.326-2.44 8.618-1.336 1.335-5.428 2.148-8.324 2.148 2.971 0 7.356 1.177 8.471 2.294s2.293 5.506 2.293 8.478z" class="cls-18" transform="translate(822.362 -1948.441)"></path></g></g><g id="Group_1471" transform="translate(-881.06 2136.67)"><g id="Group_1470"><path id="Path_1679" d="M-812.837 2238.667l9.133 3.547 2.269-4.53a26.188 26.188 0 0 0 9.8-.231l2.475 4.438 8.967-3.949-1.6-4.822a26.177 26.177 0 0 0 6.784-7.073l4.875 1.384 3.548-9.133-4.53-2.27a26.2 26.2 0 0 0-.231-9.8l4.438-2.476-3.95-8.967-4.822 1.6a26.185 26.185 0 0 0-7.074-6.783l1.385-4.875-9.133-3.548-2.27 4.531a26.178 26.178 0 0 0-9.8.231l-2.475-4.438-8.967 3.949 1.6 4.823a26.172 26.172 0 0 0-6.784 7.073l-4.874-1.384-3.548 9.133 4.531 2.27a26.149 26.149 0 0 0 .231 9.8l-4.439 2.476 3.95 8.966 4.822-1.6a26.162 26.162 0 0 0 7.074 6.784zm3.366-31.771a13.264 13.264 0 0 1 17.166-7.561 13.265 13.265 0 0 1 7.562 17.166 13.263 13.263 0 0 1-17.166 7.561 13.265 13.265 0 0 1-7.562-17.162z" class="cls-3" transform="translate(864.459 -2181.184)"></path><path id="Path_1680" d="M-859.615 2277.039l7.156 2.779 1.778-3.55a20.52 20.52 0 0 0 7.679-.18l1.939 3.478 7.027-3.095-1.257-3.779a20.521 20.521 0 0 0 5.316-5.542l3.82 1.084 2.779-7.157-3.549-1.779a20.532 20.532 0 0 0-.181-7.678l3.478-1.94-3.1-7.026-3.779 1.256a20.512 20.512 0 0 0-5.543-5.316l1.084-3.82-7.152-2.774-1.779 3.55a20.515 20.515 0 0 0-7.678.18l-1.94-3.478-7.026 3.1 1.256 3.779a20.515 20.515 0 0 0-5.316 5.542l-3.819-1.084-2.78 7.157 3.55 1.778a20.518 20.518 0 0 0 .18 7.678l-3.477 1.94 3.1 7.026 3.778-1.256a20.513 20.513 0 0 0 5.543 5.316zm2.637-24.9a10.394 10.394 0 0 1 13.452-5.925 10.393 10.393 0 0 1 5.925 13.451 10.4 10.4 0 0 1-13.452 5.926 10.4 10.4 0 0 1-5.925-13.447z" class="cls-6" transform="translate(871.201 -2189.045)"></path></g></g><g id="Group_1474" transform="translate(3)"><g id="Group_1450" transform="translate(-934.93 2078.775)"><path id="Path_1640" d="M-931.847 2165.772v-14.826a1.621 1.621 0 0 1 1.62-1.621h21.927a1.621 1.621 0 0 1 1.62 1.621 1.621 1.621 0 0 0 1.621 1.62h33.177a1.62 1.62 0 0 1 1.621 1.621v9.959a1.621 1.621 0 0 1-1.576 1.62l-58.345 1.626a1.621 1.621 0 0 1-1.665-1.62z" class="cls-3" transform="translate(934.453 -2118.36)"></path><path id="Rectangle_1808" d="M0 0H56.248V58.612H0z" class="cls-2" transform="translate(5.084)"></path><path id="Path_1641" d="M-932.1 2200.507h59.667a1.62 1.62 0 0 0 1.616-1.5l2.619-35.083a1.62 1.62 0 0 0-1.616-1.741h-25.064a1.618 1.618 0 0 0-1.116.446l-2.876 2.731a1.617 1.617 0 0 1-1.116.446h-33.324a1.62 1.62 0 0 0-1.619 1.683l1.21 31.461a1.621 1.621 0 0 0 1.619 1.557z" class="cls-3" transform="translate(934.929 -2120.349)"></path></g><g id="Group_1472" transform="translate(-912.609 2085.002)"><path id="Path_1681" d="M-885.15 2131.746c0 6.455-11.31 20.735-11.687 20.735 0 0-11.687-14.28-11.687-20.735a11.687 11.687 0 0 1 11.687-11.687 11.688 11.688 0 0 1 11.687 11.687z" class="cls-9" transform="translate(908.524 -2120.059)"></path><circle id="Ellipse_230" cx="7.163" cy="7.163" r="7.163" class="cls-5" transform="translate(4.524 3.77)"></circle></g></g></g></svg> 