<?xml version="1.0" encoding="UTF-8"?> <svg xmlns="http://www.w3.org/2000/svg" width="675" height="378" viewBox="0 0 675 378"><defs><linearGradient id="linear-gradient" x1=".109" x2=".949" y1=".5" y2=".5" gradientUnits="objectBoundingBox"><stop offset="0" stop-color="#fff"></stop><stop offset=".039" stop-color="#fff"></stop><stop offset=".34" stop-color="#d8f3f7"></stop><stop offset=".542" stop-color="#d8f3f7"></stop><stop offset="1" stop-color="#fff"></stop></linearGradient><linearGradient id="linear-gradient-2" x1=".46" x2=".456" y1=".5" y2="1" gradientUnits="objectBoundingBox"><stop offset="0" stop-color="#fff"></stop><stop offset="1" stop-color="#fff" stop-opacity="0"></stop></linearGradient><clipPath id="clip-path"><path id="Rectangle_1924" fill="#fff" stroke="#707070" d="M0 0H675V378H0z" data-name="Rectangle 1924" transform="translate(398 130)"></path></clipPath><style> .cls-11,.cls-12,.cls-6,.cls-8{stroke-miterlimit:10;fill:none}.cls-11,.cls-6,.cls-8{stroke:#0d395a}.cls-6{stroke-width:4px}.cls-7{fill:#0d395a}.cls-8{stroke-width:3px}.cls-9{fill:#e84040}.cls-10{fill:#195d8f}.cls-11{stroke-width:2px}.cls-12{stroke:#fff}.cls-14,.cls-16{fill:#00c1d5}.cls-16{font-size:208px;font-family:Seravek-BoldItalic,Seravek;font-weight:700;font-style:italic;letter-spacing:.05em} </style></defs><g id="pic-404" clip-path="url(#clip-path)" transform="translate(-398 -130)"><g id="Group_1480" data-name="Group 1480" transform="translate(0 -12)"><ellipse id="Ellipse_231" cx="38" cy="5" fill="#e9f2f2" data-name="Ellipse 231" rx="38" ry="5" transform="translate(811 348)"></ellipse><path id="Union_1" fill="url(#linear-gradient)" stroke="rgba(0,0,0,0)" stroke-miterlimit="10" d="M-13407.1 316.007h-386.9V12.69l13.017-7.028a33.009 33.009 0 0 1 30.813-.3 33.008 33.008 0 0 0 28.764.721l5.584-2.536a33.03 33.03 0 0 1 27.211-.03l4.25 1.919a33 33 0 0 0 27.98-.394l1.582-.766a33.009 33.009 0 0 1 28.5-.156l3.931 1.855a33.018 33.018 0 0 0 26.816.6l8.252-3.451a33.014 33.014 0 0 1 27.155.762l3.15 1.532a33.013 33.013 0 0 0 28.21.3l5.038-2.316a33.007 33.007 0 0 1 28.054.223l4.778 2.29a33 33 0 0 0 26.73.8l1.915-.781 6.479-3.5a33.009 33.009 0 0 1 30.813-.294 33.008 33.008 0 0 0 28.764.718l5.589-2.532A33 33 0 0 1-13363.42.3l4.247 1.915a33.011 33.011 0 0 0 27.983-.39l1.583-.77a33.006 33.006 0 0 1 28.5-.156l3.931 1.855a33.017 33.017 0 0 0 26.816.6l8.253-3.451a33 33 0 0 1 27.15.762l3.15 1.532a33.008 33.008 0 0 0 28.214.3l5.034-2.313a33.006 33.006 0 0 1 28.054.223l4.783 2.29a33.017 33.017 0 0 0 26.726.8l9.943-4.057a33.019 33.019 0 0 1 25.766.357l11.874 5.232a20.543 20.543 0 0 0 16.473.037c3.682-1.6 11.307-5.139 16.2-5.276a35.708 35.708 0 0 1 25.869 10.129V312.79h-325.189v3.224z" data-name="Union 1" transform="translate(14094.492 373)"></path><path id="Rectangle_1829" fill="url(#linear-gradient-2)" d="M0 0H681V312H0z" data-name="Rectangle 1829" transform="rotate(180 515.5 355)"></path><g id="Group_1479" data-name="Group 1479" transform="translate(-25)"><g id="Group_1476" data-name="Group 1476" transform="translate(19 9)"><g id="Group_1126" data-name="Group 1126" transform="translate(837.859 148.453)"><path id="Line_1274" d="M16.015 0L0 0" class="cls-6" data-name="Line 1274" transform="translate(10.294 24.579)"></path><path id="Line_1275" d="M0 0L14.629 19.27" class="cls-6" data-name="Line 1275" transform="translate(10.646 24.692)"></path><path id="Path_1164" d="M651.695 412.6l22.966-45.921 2.746-.05v70.943" class="cls-6" data-name="Path 1164" transform="translate(-651.695 -366.631)"></path><path id="Line_1276" d="M24.844 0L0 19.872" class="cls-6" data-name="Line 1276" transform="translate(.431 24.341)"></path><path id="Line_1277" d="M14.595 0L0 14.527" class="cls-6" data-name="Line 1277" transform="translate(11.425 9.71)"></path></g><g id="Group_1129" data-name="Group 1129" transform="translate(837.381 213.076)"><path id="Rectangle_1593" d="M0 0H25.424V119.033H0z" class="cls-6" data-name="Rectangle 1593" transform="rotate(-180 13.166 59.517)"></path><path id="Line_1290" d="M26.786 0L0 0" class="cls-6" data-name="Line 1290" transform="translate(0 39.233)"></path><path id="Line_1291" d="M26.786 0L0 0" class="cls-6" data-name="Line 1291" transform="translate(0 79.098)"></path><path id="Line_1292" d="M0 0L23.608 37.682" class="cls-6" data-name="Line 1292" transform="translate(2.27 39.1)"></path><path id="Line_1488" d="M0 0L23.608 37.682" class="cls-6" data-name="Line 1488" transform="translate(2.27 1.715)"></path><path id="Line_1293" d="M23.608 0L0 37.682" class="cls-6" data-name="Line 1293" transform="translate(2.27 39.1)"></path><path id="Line_1487" d="M23.608 0L0 37.682" class="cls-6" data-name="Line 1487" transform="translate(2.27 1.715)"></path><path id="Line_1294" d="M0 0L23.608 37.682" class="cls-6" data-name="Line 1294" transform="translate(2.27 81.271)"></path><path id="Line_1295" d="M23.608 0L0 37.682" class="cls-6" data-name="Line 1295" transform="translate(2.27 81.271)"></path></g><path id="Rectangle_1594" d="M0 0H21.792V22.587H0z" class="cls-7" data-name="Rectangle 1594" transform="rotate(-180 455.18 107.131)"></path><path id="Rectangle_1595" d="M0 0H27.006V17.996H0z" class="cls-7" data-name="Rectangle 1595" transform="rotate(-180 432.015 105.984)"></path><path id="Path_1168" d="M665.528 440.023H499.11l10.343-20.105h156.075" class="cls-6" data-name="Path 1168" transform="translate(224.233 -227.005)"></path><path id="Line_1298" d="M0 0L12.088 19.295" class="cls-8" data-name="Line 1298" transform="translate(863.941 193.178)"></path><path id="Line_1299" d="M12.088 0L0 19.295" class="cls-8" data-name="Line 1299" transform="translate(863.941 193.178)"></path><path id="Line_1300" d="M0 0L12.088 19.295" class="cls-8" data-name="Line 1300" transform="translate(824.954 193.178)"></path><path id="Line_1301" d="M12.088 0L0 19.295" class="cls-8" data-name="Line 1301" transform="translate(824.954 193.178)"></path><g id="Group_1130" data-name="Group 1130" transform="translate(811.674 193.178)"><path id="Line_1302" d="M0 0L12.088 19.295" class="cls-8" data-name="Line 1302"></path><path id="Line_1303" d="M12.088 0L0 19.295" class="cls-8" data-name="Line 1303"></path></g><g id="Group_1131" data-name="Group 1131" transform="translate(799.416 193.178)"><path id="Line_1304" d="M0 0L12.088 19.295" class="cls-8" data-name="Line 1304"></path><path id="Line_1305" d="M12.088 0L0 19.295" class="cls-8" data-name="Line 1305"></path></g><g id="Group_1132" data-name="Group 1132" transform="translate(786.988 193.178)"><path id="Line_1306" d="M0 0L12.088 19.295" class="cls-8" data-name="Line 1306"></path><path id="Line_1307" d="M12.088 0L0 19.295" class="cls-8" data-name="Line 1307"></path></g><g id="Group_1133" data-name="Group 1133" transform="translate(774.22 193.178)"><path id="Line_1308" d="M0 0L12.088 19.295" class="cls-8" data-name="Line 1308"></path><path id="Line_1309" d="M12.088 0L0 19.295" class="cls-8" data-name="Line 1309"></path></g><g id="Group_1134" data-name="Group 1134" transform="translate(760.77 193.178)"><path id="Line_1310" d="M0 0L12.088 19.295" class="cls-8" data-name="Line 1310"></path><path id="Line_1311" d="M12.088 0L0 19.295" class="cls-8" data-name="Line 1311"></path></g><path id="Line_1312" d="M0 0L12.088 19.295" class="cls-8" data-name="Line 1312" transform="translate(876.709 193.178)"></path><path id="Line_1313" d="M12.088 0L0 19.295" class="cls-8" data-name="Line 1313" transform="translate(876.709 193.178)"></path><path id="Line_1314" d="M0 0L0 19.919" class="cls-8" data-name="Line 1314" transform="translate(876.652 193.291)"></path><path id="Line_1315" d="M0 0L0 19.919" class="cls-8" data-name="Line 1315" transform="translate(824.321 193.291)"></path><path id="Line_1316" d="M0 0L0 19.919" class="cls-8" data-name="Line 1316" transform="translate(811.445 193.291)"></path><path id="Line_1317" d="M0 0L0 19.919" class="cls-8" data-name="Line 1317" transform="translate(799.421 193.291)"></path><path id="Line_1318" d="M0 0L0 19.919" class="cls-8" data-name="Line 1318" transform="translate(786.652 193.291)"></path><path id="Line_1319" d="M0 0L0 19.919" class="cls-8" data-name="Line 1319" transform="translate(773.543 193.291)"></path><path id="Line_1320" d="M0 0L0 19.919" class="cls-8" data-name="Line 1320" transform="translate(760.323 193.291)"></path><g id="Group_1135" data-name="Group 1135" transform="translate(748.39 193.178)"><path id="Line_1321" d="M0 0L12.088 19.295" class="cls-8" data-name="Line 1321"></path><path id="Line_1322" d="M12.088 0L0 19.295" class="cls-8" data-name="Line 1322"></path></g><path id="Line_1323" d="M0 0L0 19.919" class="cls-8" data-name="Line 1323" transform="translate(747.943 193.291)"></path><g id="Group_1136" data-name="Group 1136" transform="translate(735.379 193.178)"><path id="Line_1324" d="M0 0L12.088 19.295" class="cls-8" data-name="Line 1324"></path><path id="Line_1325" d="M12.088 0L0 19.295" class="cls-8" data-name="Line 1325"></path></g><path id="Line_1326" d="M0 0L0 19.919" class="cls-8" data-name="Line 1326" transform="translate(734.933 193.291)"></path><g id="Group_1138" data-name="Group 1138" transform="translate(836.984 210.356)"><path id="Rectangle_1596" d="M0 0H5.571V1.454H0z" class="cls-9" data-name="Rectangle 1596" transform="rotate(-180 13.927 .727)"></path><path id="Rectangle_1597" d="M0 0H5.571V1.454H0z" class="cls-10" data-name="Rectangle 1597" transform="rotate(-180 11.142 .727)"></path><path id="Rectangle_1598" d="M0 0H5.571V1.454H0z" class="cls-9" data-name="Rectangle 1598" transform="rotate(-180 8.356 .727)"></path><path id="Rectangle_1599" d="M0 0H5.571V1.454H0z" class="cls-9" data-name="Rectangle 1599" transform="rotate(-180 2.785 .727)"></path><path id="Rectangle_1600" d="M0 0H5.571V1.454H0z" class="cls-10" data-name="Rectangle 1600" transform="rotate(-180 5.571 .727)"></path></g><g id="Group_1139" data-name="Group 1139" transform="translate(836.984 194.239)"><path id="Rectangle_1601" d="M0 0H5.571V1.376H0z" class="cls-9" data-name="Rectangle 1601" transform="rotate(-180 13.927 .688)"></path><path id="Rectangle_1602" d="M0 0H5.571V1.376H0z" class="cls-10" data-name="Rectangle 1602" transform="rotate(-180 11.142 .688)"></path><path id="Rectangle_1603" d="M0 0H5.571V1.376H0z" class="cls-9" data-name="Rectangle 1603" transform="rotate(-180 8.356 .688)"></path><path id="Rectangle_1604" d="M0 0H5.571V1.376H0z" class="cls-9" data-name="Rectangle 1604" transform="rotate(-180 2.785 .688)"></path><path id="Rectangle_1605" d="M0 0H5.571V1.376H0z" class="cls-10" data-name="Rectangle 1605" transform="rotate(-180 5.571 .688)"></path></g><g id="Group_1140" data-name="Group 1140" transform="translate(888.502 194.239)"><path id="Rectangle_1606" d="M0 0H2.329V1.376H0z" class="cls-9" data-name="Rectangle 1606" transform="rotate(-180 10.941 .688)"></path><path id="Rectangle_1607" d="M0 0H5.571V1.376H0z" class="cls-10" data-name="Rectangle 1607" transform="rotate(-180 9.777 .688)"></path><path id="Rectangle_1608" d="M0 0H5.571V1.376H0z" class="cls-9" data-name="Rectangle 1608" transform="rotate(-180 6.992 .688)"></path><path id="Rectangle_1609" d="M0 0H2.841V1.376H0z" class="cls-9" data-name="Rectangle 1609" transform="rotate(-180 1.42 .688)"></path><path id="Rectangle_1610" d="M0 0H5.571V1.376H0z" class="cls-10" data-name="Rectangle 1610" transform="rotate(-180 4.206 .688)"></path></g><g id="Group_1141" data-name="Group 1141" transform="translate(888.502 210.356)"><path id="Rectangle_1611" d="M0 0H2.329V1.454H0z" class="cls-9" data-name="Rectangle 1611" transform="rotate(-180 10.941 .727)"></path><path id="Rectangle_1612" d="M0 0H5.571V1.454H0z" class="cls-10" data-name="Rectangle 1612" transform="rotate(-180 9.777 .727)"></path><path id="Rectangle_1613" d="M0 0H5.571V1.454H0z" class="cls-9" data-name="Rectangle 1613" transform="rotate(-180 6.992 .727)"></path><path id="Rectangle_1614" d="M0 0H2.841V1.454H0z" class="cls-9" data-name="Rectangle 1614" transform="rotate(-180 1.42 .727)"></path><path id="Rectangle_1615" d="M0 0H5.571V1.454H0z" class="cls-10" data-name="Rectangle 1615" transform="rotate(-180 4.206 .727)"></path></g><path id="Line_1330" d="M0 0L45.695 44.416" class="cls-11" data-name="Line 1330" transform="translate(864.248 147.745)"></path><path id="Line_1331" d="M26.033 44.141L0 0" class="cls-11" data-name="Line 1331" transform="translate(864.129 148.374)"></path><path id="Line_1332" d="M0 44.381L69.457 0" class="cls-11" data-name="Line 1332" transform="translate(790.948 148.453)"></path><path id="Line_1333" d="M0 45.168L82.035 0" class="cls-11" data-name="Line 1333" transform="translate(778.357 147.823)"></path><path id="Path_1169" d="M639.7 590.462H686l-2.724-10.435H642.42z" class="cls-10" data-name="Path 1169" transform="translate(188.152 -249.787)"></path><path id="Rectangle_1616" d="M0 0H49.712V3.272H0z" class="cls-9" data-name="Rectangle 1616" transform="rotate(-180 437.986 171.75)"></path><path id="Line_1334" d="M0 0L42.337 0" class="cls-12" data-name="Line 1334" transform="translate(829.915 332.392)"></path><path id="Line_1335" d="M45.57 0L0 0" class="cls-12" data-name="Line 1335" transform="translate(828.299 338.294)"></path></g><g id="Group_1478" data-name="Group 1478" transform="translate(17 17)"><g id="Group_1127" data-name="Group 1127" transform="translate(708.892 306.051)"><path id="Rectangle_1591" d="M0 0H60.942V15.386H0z" class="cls-9" data-name="Rectangle 1591" transform="rotate(-180 30.471 7.693)"></path></g><g id="Group_1128" data-name="Group 1128" transform="translate(712.874 305.962)"><path id="Line_1278" d="M0 0L0 15.614" class="cls-12" data-name="Line 1278"></path><path id="Line_1279" d="M0 0L0 15.614" class="cls-12" data-name="Line 1279" transform="translate(4.817)"></path><path id="Line_1280" d="M0 0L0 15.614" class="cls-12" data-name="Line 1280" transform="translate(9.634)"></path><path id="Line_1281" d="M0 0L0 15.614" class="cls-12" data-name="Line 1281" transform="translate(14.451)"></path><path id="Line_1282" d="M0 0L0 15.614" class="cls-12" data-name="Line 1282" transform="translate(19.268)"></path><path id="Line_1283" d="M0 0L0 15.614" class="cls-12" data-name="Line 1283" transform="translate(24.085)"></path><path id="Line_1284" d="M0 0L0 15.614" class="cls-12" data-name="Line 1284" transform="translate(28.901)"></path><path id="Line_1285" d="M0 0L0 15.614" class="cls-12" data-name="Line 1285" transform="translate(33.718)"></path><path id="Line_1286" d="M0 0L0 15.614" class="cls-12" data-name="Line 1286" transform="translate(38.535)"></path><path id="Line_1287" d="M0 0L0 15.614" class="cls-12" data-name="Line 1287" transform="translate(43.352)"></path><path id="Line_1288" d="M0 0L0 15.614" class="cls-12" data-name="Line 1288" transform="translate(48.169)"></path><path id="Line_1289" d="M0 0L0 15.614" class="cls-12" data-name="Line 1289" transform="translate(52.986)"></path></g><path id="Path_1165" d="M539.782 538.176h-63.09l.281-1.347h63.089z" class="cls-9" data-name="Path 1165" transform="translate(230.949 -231.388)"></path><path id="Rectangle_1592" d="M0 0H63.089V1.347H0z" class="cls-9" data-name="Rectangle 1592" transform="translate(707.922 320.09)"></path><path id="Line_1336" d="M0 0L28.963 13.471" class="cls-6" data-name="Line 1336" transform="translate(739.65 292.591)"></path><path id="Line_1337" d="M28.963 0L0 13.471" class="cls-6" data-name="Line 1337" transform="translate(710.351 292.591)"></path><path id="Path_1170" fill="none" stroke="#0d395a" stroke-linecap="round" stroke-linejoin="round" stroke-width="4px" d="M516.683 517.245a6.151 6.151 0 0 1-11.465-3.1 6.027 6.027 0 0 1 6-6.151l-.007-.769v-2.614" data-name="Path 1170" transform="translate(227.889 -227.932)"></path><path id="Line_1350" d="M8.743 0L0 52.882" class="cls-6" data-name="Line 1350" transform="translate(743.385 206.459)"></path><path id="Line_1351" d="M0 0L8.258 54.825" class="cls-6" data-name="Line 1351" transform="translate(726.202 204.941)"></path><path id="Path_1171" d="M519.491 484.237h-17.3L500 488.063l5.647 14.39h10.019l5.465-13.662z" class="cls-10" data-name="Path 1171" transform="translate(228.448 -225.746)"></path><circle id="Ellipse_199" cx="2.021" cy="2.021" r="2.021" class="cls-7" data-name="Ellipse 199" transform="translate(767.378 304.322)"></circle><circle id="Ellipse_200" cx="2.021" cy="2.021" r="2.021" class="cls-7" data-name="Ellipse 200" transform="translate(707.656 304.322)"></circle><g id="Group_1146" data-name="Group 1146" transform="translate(707.642 321.886)"><g id="Group_1144" data-name="Group 1144" transform="translate(1.25 .162)"><path id="Rectangle_1618" d="M0 0H60.942V15.386H0z" class="cls-10" data-name="Rectangle 1618" transform="rotate(-180 30.471 7.693)"></path></g><g id="Group_1145" data-name="Group 1145" transform="translate(5.233 .073)"><path id="Line_1352" d="M0 0L0 15.614" class="cls-12" data-name="Line 1352"></path><path id="Line_1353" d="M0 0L0 15.614" class="cls-12" data-name="Line 1353" transform="translate(4.817)"></path><path id="Line_1354" d="M0 0L0 15.614" class="cls-12" data-name="Line 1354" transform="translate(9.634)"></path><path id="Line_1355" d="M0 0L0 15.614" class="cls-12" data-name="Line 1355" transform="translate(14.451)"></path><path id="Line_1356" d="M0 0L0 15.614" class="cls-12" data-name="Line 1356" transform="translate(19.268)"></path><path id="Line_1357" d="M0 0L0 15.614" class="cls-12" data-name="Line 1357" transform="translate(24.085)"></path><path id="Line_1358" d="M0 0L0 15.614" class="cls-12" data-name="Line 1358" transform="translate(28.901)"></path><path id="Line_1359" d="M0 0L0 15.614" class="cls-12" data-name="Line 1359" transform="translate(33.718)"></path><path id="Line_1360" d="M0 0L0 15.614" class="cls-12" data-name="Line 1360" transform="translate(38.535)"></path><path id="Line_1361" d="M0 0L0 15.614" class="cls-12" data-name="Line 1361" transform="translate(43.352)"></path><path id="Line_1362" d="M0 0L0 15.614" class="cls-12" data-name="Line 1362" transform="translate(48.169)"></path><path id="Line_1363" d="M0 0L0 15.614" class="cls-12" data-name="Line 1363" transform="translate(52.986)"></path></g><path id="Path_1172" d="M539.782 556.6h-63.09l.281-1.347h63.089z" class="cls-10" data-name="Path 1172" transform="translate(-476.692 -555.251)"></path><path id="Rectangle_1619" d="M0 0H63.089V1.347H0z" class="cls-10" data-name="Rectangle 1619" transform="translate(.281 14.208)"></path></g></g><g id="Group_1475" data-name="Group 1475" transform="translate(718.642 167.745)"><g id="Group_1142" data-name="Group 1142" transform="translate(-23.75 199.075)"><path id="Rectangle_1617" d="M0 0H60.942V15.386H0z" class="cls-14" data-name="Rectangle 1617" transform="rotate(-180 30.471 7.693)"></path></g><g id="Group_1143" data-name="Group 1143" transform="translate(-19.768 198.987)"><path id="Line_1338" d="M0 0L0 15.614" class="cls-12" data-name="Line 1338"></path><path id="Line_1339" d="M0 0L0 15.614" class="cls-12" data-name="Line 1339" transform="translate(4.817)"></path><path id="Line_1340" d="M0 0L0 15.614" class="cls-12" data-name="Line 1340" transform="translate(9.634)"></path><path id="Line_1341" d="M0 0L0 15.614" class="cls-12" data-name="Line 1341" transform="translate(14.451)"></path><path id="Line_1342" d="M0 0L0 15.614" class="cls-12" data-name="Line 1342" transform="translate(19.268)"></path><path id="Line_1343" d="M0 0L0 15.614" class="cls-12" data-name="Line 1343" transform="translate(24.085)"></path><path id="Line_1344" d="M0 0L0 15.614" class="cls-12" data-name="Line 1344" transform="translate(28.901)"></path><path id="Line_1345" d="M0 0L0 15.614" class="cls-12" data-name="Line 1345" transform="translate(33.718)"></path><path id="Line_1346" d="M0 0L0 15.614" class="cls-12" data-name="Line 1346" transform="translate(38.535)"></path><path id="Line_1347" d="M0 0L0 15.614" class="cls-12" data-name="Line 1347" transform="translate(43.352)"></path><path id="Line_1348" d="M0 0L0 15.614" class="cls-12" data-name="Line 1348" transform="translate(48.169)"></path><path id="Line_1349" d="M0 0L0 15.614" class="cls-12" data-name="Line 1349" transform="translate(52.986)"></path></g><path id="Rectangle_1620" d="M0 0H63.089V1.347H0z" class="cls-14" data-name="Rectangle 1620" transform="translate(-24.72 199.089)"></path><path id="Rectangle_1621" d="M0 0H63.089V1.347H0z" class="cls-14" data-name="Rectangle 1621" transform="translate(-24.72 213.149)"></path></g><g id="Group_1402" data-name="Group 1402" transform="rotate(166 407.821 273.282)"><path id="Path_1414" d="M62.082 2.493L0 63.588l12.174 12.371 62.083-61.1a8.678 8.678 0 0 0 .1-12.273 8.679 8.679 0 0 0-12.275-.093z" class="cls-9" data-name="Path 1414" transform="rotate(13 95.048 739.742)"></path><path id="Path_1415" d="M40.32 3.232L0 42.91l15.782 16.036L56.1 19.267a11.251 11.251 0 0 0 .128-15.909 11.25 11.25 0 0 0-15.908-.126z" class="cls-7" data-name="Path 1415" transform="rotate(13 89.362 819.653)"></path><g id="Group_1401" data-name="Group 1401" transform="translate(3.397 22.64)"><path id="Path_1416" fill="#e84040" stroke="#e84040" stroke-width="6px" d="M27.259 26.223a91.439 91.439 0 1 0 129.311 1.036 91.542 91.542 0 0 0-129.311-1.036zm119.358 121.285a78.726 78.726 0 1 1 .891-111.332 78.816 78.816 0 0 1-.891 111.332z" data-name="Path 1416"></path></g></g><text id="_4" class="cls-16" data-name="4" transform="translate(940 414)"><tspan x="-56.68" y="0">4</tspan></text><text id="_4-2" class="cls-16" data-name="4" transform="translate(572 414)"><tspan x="-56.68" y="0">4</tspan></text></g></g></g></svg> 