<?xml version="1.0" encoding="UTF-8"?> <svg xmlns="http://www.w3.org/2000/svg" xmlns:xlink="http://www.w3.org/1999/xlink" width="1347" height="871" viewBox="0 0 1347 871"><defs><linearGradient id="p767e6bxqa" x1="1" x2="0" y1=".5" y2=".5" gradientUnits="objectBoundingBox"><stop offset="0" stop-color="#d8f3f7"></stop><stop offset="1" stop-color="#fff"></stop></linearGradient><linearGradient id="0mloit6roc" x1=".049" x2="1.001" y1=".5" y2=".5" xlink:href="#p767e6bxqa"></linearGradient><clipPath id="v2rmenykeb"><path fill="#fff" stroke="#707070" d="M0 0H1347V871H0z" transform="translate(0 2433)"></path></clipPath></defs><g clip-path="url(#v2rmenykeb)" transform="translate(0 -2433)"><g opacity="0.397"><path fill="url(#p767e6bxqa)" d="M1357.522 500.509H890.39s-54.443 6.143-126.445-37.755S0 0 0 0z" transform="matrix(-.998 .07 -.07 -.998 1348.352 3329.724) translate(0 373.193)"></path><path fill="url(#0mloit6roc)" d="M560.225 561.991L0 360.011 1188.944 0 372.322 403.934s-23.2 8.382-4.85 21.514c18.455 13.152 192.753 136.543 192.753 136.543z" transform="matrix(-.998 .07 -.07 -.998 1348.352 3329.724) translate(14.923)"></path></g></g></svg> 