<?xml version="1.0" encoding="UTF-8"?> <svg xmlns="http://www.w3.org/2000/svg" width="220.412" height="190.682" viewBox="0 0 220.412 190.682"><defs><style> .cls-1{fill:#195d8f}.cls-3{fill:#e84040}.cls-4{fill:#fff}.cls-7{fill:#eea886}.cls-8{fill:#353535}.cls-9{fill:#202338}.cls-10{fill:#6069a8}.cls-11{fill:#464240}.cls-13{fill:#d8f3f7}.cls-14{fill:#ffb27d}.cls-16{fill:#0d395a} </style></defs><g id="pic-ptrcise" transform="translate(-6.693 -42)"><g id="Group_448" transform="translate(22.826 42)"><g id="Group_443"><path id="Rectangle_510" d="M0 0H125.928V7.063H0z" class="cls-1" transform="translate(.036)"></path><path id="Rectangle_511" fill="#e9f2f2" d="M0 0H125.964V76.176H0z" transform="translate(0 7.112)"></path><circle id="Ellipse_53" cx="1.506" cy="1.506" r="1.506" class="cls-3" transform="translate(2.491 1.882)"></circle><circle id="Ellipse_54" cx="1.506" cy="1.506" r="1.506" class="cls-4" transform="translate(7.511 1.882)"></circle><circle id="Ellipse_55" cx="1.506" cy="1.506" r="1.506" fill="#00bed1" transform="translate(12.53 1.882)"></circle></g><path id="Path_433" fill="#00c1d5" d="M124.625 109.413l-.05.006a1.332 1.332 0 0 1-1.776-.329c-.029-.037-.1-.038-.159-.055v.01a1.333 1.333 0 0 0-.281-.181 5.887 5.887 0 0 0-3.136.013c-.35.074-.638.2-.784-.317-.1-.364-.41-.382-.531 0s-.36.382-.659.383a8.714 8.714 0 0 0-1.038.041 1.7 1.7 0 0 0-1.284.677c-.074.107-.193.224-.074.356s.24.059.356-.032.192-.3.364-.125c.132.136.015.287-.059.42-.1.182-.478.206-.352.5.11.261.418.238.649.317l.545.185-.01-.01v.2a1.542 1.542 0 0 1-1.1-.136l.01.027a.149.149 0 0 0-.16-.108h.015c-.278-.422-.512-.429-.7.071-.047.124-.069.358-.276.182-.313-.268-.517-.057-.754.108a.79.79 0 0 1-1.217-.374 2.658 2.658 0 0 0-1.453-.793c-.134.026-.3.075-.308.216-.015.2.178.15.3.167s.331-.083.336.178c-1.091-.1-2.17-.313-3.27-.322a3.631 3.631 0 0 0-2.578.947 13.12 13.12 0 0 1-3.624 2.112 2.053 2.053 0 0 0-1.388 2.211 12.437 12.437 0 0 0 .23 2.288c-1.422-.28-2.794-.479-3.784-1.619a1.034 1.034 0 0 1-.323-.725c.119-1.055-.76-1.516-1.28-2.171a2.648 2.648 0 0 1-.52-.854 3.341 3.341 0 0 0-1.442-2.071 1.244 1.244 0 0 0-.673-.422c-1.455-.528-2.111-.508-2.7.833-.174.4-.458.589-.9.271a1 1 0 0 0-.639-.236h.01a.761.761 0 0 0-.175-.141 2.1 2.1 0 0 1-1.505-2.084 1.222 1.222 0 0 0-.575-1.14 5.639 5.639 0 0 1-1.952-1.837 1.2 1.2 0 0 0-1.1-.459 7.818 7.818 0 0 1-1.807-.245c-.48-.117-.766-.045-.762.4 0 .392-.2.448-.51.409a33.783 33.783 0 0 1-4.653-.769 20.738 20.738 0 0 1-3.4-1.536h.007a21.97 21.97 0 0 0-2.743-1.56c-.113-.06-.349-.076-.317-.2.151-.61-.343-.429-.585-.467a25.119 25.119 0 0 1-3.752-.57l.014.017c0-.1-.01-.193-.007-.289a2.046 2.046 0 0 0-1.359-2.282c-.052-.018-.132-.052-.141-.092-.148-.695-.873-.759-1.272-1.176l.006.015a2.287 2.287 0 0 0-1.77-1.016c-.422-.024-.524-.247-.367-.567a1.774 1.774 0 0 0-.277-1.839 6.712 6.712 0 0 1-.905-1.663c-.08-.291-.136-.57.16-.779s.222-.371-.024-.578a1.247 1.247 0 0 1-.517-.935 4.115 4.115 0 0 0-.242-1.783 4.78 4.78 0 0 0-.591-1.349 1.281 1.281 0 0 1-.236-1.3 7.349 7.349 0 0 0 .222-.881.93.93 0 0 0-.185-.926c-.33-.279-.24-.5-.031-.768.152-.2.269-.422.411-.626a3.234 3.234 0 0 0 .623-2.439 2.744 2.744 0 0 1 .361-1.828h-.01a.233.233 0 0 0 .159-.229l-.007.025a.32.32 0 0 0 .2-.271v.006a.606.606 0 0 0 .268-.43.4.4 0 0 0 .231-.355h-.011a.272.272 0 0 0 .154-.235v.02a.647.647 0 0 0 .2-.38l-.014.009c.115-.048.125-.146.119-.252v.018a.607.607 0 0 0 .23-.481v.011a.949.949 0 0 0 .258-.575l-.01.013a.845.845 0 0 0 .239-.581 9.8 9.8 0 0 0 .686-1.755v.026c.113-.109.323-.185.139-.4l-.033.021v-.459l-.013.029.157-.235v.027c.048-.031.131-.057.136-.094.037-.275-.171-.608.2-.8a.773.773 0 0 0-.06-.208 6.027 6.027 0 0 1-.215-1.983c-.006-.463.166-.575.571-.4l-.025-.009a1.962 1.962 0 0 0 .822.482l-.02-.013a.577.577 0 0 0 .5.208h-.01c.312.131.626.446.929-.014.208.022.13.2.169.313.05.147.1.348.268.331.22-.022.113-.245.124-.381a4.294 4.294 0 0 0 .029-.921c-.069-.492.1-.533.534-.43 1.6.378 3.21.719 4.816 1.074q4.581.963 9.2 1.737c.739.117 1.476.247 2.217.35 3.754.517 7.516.965 11.3 1.222q5.563.378 11.136.3c.131 0 .273.028.38-.085.287-.133-.06-.568.314-.659a.788.788 0 0 1 .36.677c.03.287.091.6.464.627.559.046 1.079.536 1.679.142a.339.339 0 0 1 .28.014c.637.315 1.4.3 1.984.763a.874.874 0 0 0 .883.09c.8-.329 1.527.142 2.4.08a1.689 1.689 0 0 1-1.008.545 2.623 2.623 0 0 0-1.372.894 6.667 6.667 0 0 1-.8.889c-.085.078-.282.124-.185.3.077.138.245.127.366.1.239-.062.468-.162.7-.245.208-.073.389-.264.643-.161-.172.505.106.838.619.6a6.445 6.445 0 0 0 2.65-1.53c.129-.162.247-.293.468-.262.106.015.216-.15.307-.009.1.162-.077.222-.149.313-.14.176-.315.33-.286.615a2.45 2.45 0 0 1 1.186.123 1.023 1.023 0 0 0 1.395.522q.331-.1.659-.209c.473-.161.94-.338 1.416-.489.213-.068.464-.163.488.236.021.345.327.354.517.264.691-.33.958-.016 1.055.62 0 .029-.022.063-.034.1a.856.856 0 0 1-.559.1 8.7 8.7 0 0 0-2.966.523 1.86 1.86 0 0 0-1.391 1.233 6.413 6.413 0 0 0-.7 1.483c.461-.107.6-.489.858-.735l.16.1a12.13 12.13 0 0 0-.536 3.983 3.244 3.244 0 0 0 1.044 2.351c.34.424.576.082.831-.115a.577.577 0 0 0 .345-.35 2.679 2.679 0 0 0 .06-3.063.9.9 0 0 1-.191-.633 5.639 5.639 0 0 1 .828-2.894c.275-.187.257-.043.222.179-.028.172-.269.465.1.488.31.019.282-.291.271-.524-.009-.2-.093-.479.161-.554.328-.1.436-.192.187-.487-.026-.03.069-.163.108-.247.854-.373 1.531.263 2.288.425.5.108.276.788.506 1.1l-.043.227-.019.011.02.011c-.028.513.026 1.037-.565 1.344-.218.113-.16.426.012.614s.359.094.5-.057a3.779 3.779 0 0 0 .388-.494c.25-.372.5-.431.824-.071a3.746 3.746 0 0 1 .713 2.267.237.237 0 0 1-.084.2c-.659.326-.61 1.079-.968 1.586-.164.231-.065.394.18.489a2.257 2.257 0 0 0 2.592-.267 9.581 9.581 0 0 0 3.724-2.657l-.006.013c.507-.288.4-.573 0-.858l.007.014c-.152-.417.055-.589.493-.62a12.232 12.232 0 0 0 1.312-.185c.649-.119 1.362-.038 1.89-.566l-.006.009c.6-.4.685-.764.249-1.308-.185-.23-.161-.4.04-.526a2.89 2.89 0 0 0 .917-1.162 1.146 1.146 0 0 1 .876-.691 31.824 31.824 0 0 0 4.333-.948c.608-.121.77-.889 1.409-.97.02 0 .037-.106.037-.161a1.69 1.69 0 0 1 .327-.852.586.586 0 0 0 .1-.486 4.2 4.2 0 0 1 .5-2.837c.092-.221.2-.386.45-.114.215.236.415.054.608-.074.687-.458 1.216-.271 1.463.511.191.6.362 1.217.589 1.808.2.523.989.5 1.116 1.121 0 .007.108-.015.165-.011.433.028.612.274.464.687a1.29 1.29 0 0 1-.962.9 1.627 1.627 0 0 0-.77.409c-.215.191-.274.386-.58.106-.166-.152-.259.085-.232.243.141.827-.494 1.071-1.044 1.283a.754.754 0 0 0-.543.58 10.972 10.972 0 0 0-.251 2.35c0 .132-.031.308.125.354.4.117.559.519.9.7h-.007c.04.188.417.166.3.417-.126.279-.324.109-.512.029a.218.218 0 0 0-.273.16c-.157.584-.7.645-1.147.838a11.693 11.693 0 0 1-1.381.527 2.957 2.957 0 0 0-2.009 1.848c-.045.112-.108.262.055.266.347.006.281.27.3.449a3.113 3.113 0 0 1-.443 2.044c-.179.3-.331.477-.713.246a4.662 4.662 0 0 0-.951-.319c.183.4.3.78.64.947a.981.981 0 0 1 .52 1.051 8.319 8.319 0 0 1-.778 2.573c-.331-.457-.061-.825-.042-1.187.022-.394-.015-.825-.468-.835-.479-.01-.633-.166-.669-.608-.042-.509-.141-1.013-.217-1.542a1.41 1.41 0 0 0-.189 1.84 8.817 8.817 0 0 0 .685 1.423.805.805 0 0 1 .087.647.813.813 0 0 0 .545.888.723.723 0 0 1 .522.433 5.31 5.31 0 0 0 .624 1.1c.266.365.2.56-.148.668-.094.029-.25-.015-.247.168.18.182.454-.108.635.14a.862.862 0 0 1-.889.59c-.245-.006-.425.027-.354.345.046.207-.2.3-.229.464.177.2.433.027.626.2-.143.333-.48.415-.753.567-.3.166-.657.215-.891.495h.008a.984.984 0 0 0-.7.94v-.006a.588.588 0 0 1-.48.413 1.291 1.291 0 0 0-.935.49l.011-.006a.984.984 0 0 0-.509.893 1.572 1.572 0 0 1-.417.754c-.567.781-1.607 1.109-1.955 2.083h.006a2.978 2.978 0 0 0-.874 3 6.647 6.647 0 0 0 2.127 3.807c.121.119.4.206.262.446-.152.274.02.429.144.617.222.338.449.672.66 1.017a5.079 5.079 0 0 1 .9 3.384 1.882 1.882 0 0 0-.025.854c.05.156.007.4-.216.36a1.321 1.321 0 0 0-.824.2c-.362.163-.5.043-.644-.286-.184-.431-.446-.866-.954-.914-.415-.04-.545-.269-.677-.582-.085-.2-.148-.51-.451-.422s-.365-.068-.479-.258c-.166-.28-.347-.552-.541-.814-.3-.4-.847-.744-.237-1.314a.19.19 0 0 0-.064-.3.406.406 0 0 0-.268-.047c-.145.036-.138.154-.092.278.031.083.076.19-.13.206a3.182 3.182 0 0 1-.145-1.615c.006-.865-.121-1.053-.911-1.362a5.663 5.663 0 0 1-.56-.29h.01a2.446 2.446 0 0 0-1.646-1.1c-.543-.089-.665.452-1.018.665z" transform="translate(-37.847 -49.693)"></path><g id="Group_444" transform="translate(67.233 48.211)"><path id="Path_434" d="M135.006 115.494c0 2.5-4.388 8.044-4.534 8.044 0 0-4.534-5.54-4.534-8.044a4.534 4.534 0 1 1 9.068 0z" class="cls-1" transform="translate(-125.938 -110.96)"></path><circle id="Ellipse_56" cx="2.779" cy="2.779" r="2.779" class="cls-4" transform="translate(1.755 1.463)"></circle></g><g id="Group_445" transform="translate(67.233 17.57)"><path id="Path_435" d="M135.006 71.665c0 2.5-4.388 8.044-4.534 8.044 0 0-4.534-5.54-4.534-8.044a4.534 4.534 0 0 1 9.068 0z" class="cls-1" transform="translate(-125.938 -67.132)"></path><circle id="Ellipse_57" cx="2.779" cy="2.779" r="2.779" class="cls-4" transform="translate(1.755 1.462)"></circle></g><g id="Group_446" transform="translate(15.643 26.95)"><path id="Path_436" d="M61.212 85.082c0 2.5-4.387 8.044-4.534 8.044 0 0-4.533-5.54-4.533-8.044a4.533 4.533 0 1 1 9.067 0z" class="cls-3" transform="translate(-52.145 -80.548)"></path><circle id="Ellipse_58" cx="2.779" cy="2.779" r="2.779" class="cls-4" transform="translate(1.755 1.463)"></circle></g><g id="Group_447" transform="translate(20.136 28.222)"><path id="Path_437" d="M72.2 99.652a16.587 16.587 0 0 1-5.522-1.044l.206-.58a15.978 15.978 0 0 0 5.316 1.009q.3 0 .593-.015l.031.615c-.208.01-.416.015-.624.015zm3.722-.617l-.206-.58a9.626 9.626 0 0 0 2.262-1.162 22.215 22.215 0 0 0 2.668-2.213l.424.445a22.757 22.757 0 0 1-2.741 2.275 10.267 10.267 0 0 1-2.407 1.236zm-12.1-1.658a30.639 30.639 0 0 1-5.247-3.347l.394-.473a29.973 29.973 0 0 0 5.129 3.27zm19.415-4.064l-.451-.419c.331-.355.661-.715.993-1.076 1.038-1.13 2.111-2.3 3.254-3.4l.426.443c-1.128 1.084-2.2 2.246-3.227 3.368q-.502.548-.999 1.084zm6.514-6.445l-.377-.486a18.879 18.879 0 0 1 5.441-3.009l.2.582a18.285 18.285 0 0 0-5.267 2.913zm18.969-2.783c-.587-.157-1.171-.3-1.735-.42l.131-.6c.574.124 1.167.268 1.763.428zm-10.78-.862l-.1-.607a22.607 22.607 0 0 1 6.212-.07l-.072.611a22.045 22.045 0 0 0-6.044.067z" class="cls-4" transform="translate(-58.571 -82.367)"></path></g></g><g id="Group_498" transform="translate(101.471 46.984)"><g id="Group_449" transform="translate(3.621 83.491)"><path id="Path_438" d="M158.117 168.919s-2.558 1.137-3.772.622a11.35 11.35 0 0 0-3.681-.618c-.792 0-3.268-.885-3.225.082s4.021 1.644 4.835 1.946-2.435 2.091-2.738 2.885 3.366 6.011 5.436 4.525 3.19-4.453 3.612-4.641a15.2 15.2 0 0 0 1.552-1.022z" class="cls-7" transform="translate(-147.439 -168.552)"></path></g><g id="Group_497"><g id="Group_452" transform="translate(109.86 169.031)"><g id="Group_451"><g id="Group_450"><path id="Path_439" d="M307.121 294.794s4.661 7.9 6.63 9.192c2.67 1.751 1 3.523-.272 3.523s-7.748.467-9.176-1.154-2.135-6.475-3.463-7.746-2.7-6.318.647-7.545c2.957-1.085 5.634 3.73 5.634 3.73z" class="cls-8" transform="translate(-299.4 -290.905)"></path></g></g></g><g id="Group_455" transform="translate(111.721 169.19)"><g id="Group_454"><g id="Group_453"><path id="Path_440" d="M305.9 291.386s5.339 9.254 6.259 10.621-1.732 1.365-3.377.714-5.777-7.285-6.372-8.494a4.455 4.455 0 0 1-.125-3.094z" class="cls-9" transform="translate(-302.062 -291.133)"></path></g></g></g><g id="Group_458" transform="translate(110.154 174.422)"><g id="Group_457"><g id="Group_456"><path id="Path_441" d="M299.821 298.616l1.232 9.488.653.028-.2-6.825z" class="cls-10" transform="translate(-299.821 -298.616)"></path></g></g></g><g id="Group_461" transform="translate(63.619 169.06)"><g id="Group_460"><g id="Group_459"><path id="Path_442" d="M241 294.806s4.661 7.9 6.629 9.192c2.672 1.751 1 3.523-.271 3.523s-7.747.467-9.175-1.154-2.135-6.475-3.463-7.746-2.745-6.449.646-7.545c2.972-.961 5.634 3.73 5.634 3.73z" class="cls-8" transform="translate(-233.259 -290.947)"></path></g></g></g><g id="Group_464" transform="translate(65.499 169.19)"><g id="Group_463"><g id="Group_462"><path id="Path_443" d="M240.069 291.4s5.058 9.235 5.977 10.6-1.732 1.365-3.375.714-5.779-7.285-6.372-8.494a4.46 4.46 0 0 1-.127-3.094z" class="cls-9" transform="translate(-235.948 -291.133)"></path></g></g></g><g id="Group_467" transform="translate(63.932 174.422)"><g id="Group_466"><g id="Group_465"><path id="Path_444" d="M233.707 298.616l1.232 9.488.653.028-.2-6.825z" class="cls-10" transform="translate(-233.707 -298.616)"></path></g></g></g><g id="Group_470" transform="translate(50.678 94.427)"><g id="Group_469"><g id="Group_468"><path id="Path_445" d="M214.749 190.775L256.929 210a8.109 8.109 0 0 1 5.236 6.758c1.646 16.317 13.852 42.2 13.852 42.2 3.916 1.915 3.615.253 3.615.253-2.468-7.922-5.472-40.574-6.544-53.7-.227-2.781-.367-4.685-.4-5.293-.02-.415-.475-.957-1.256-1.59-5.787-4.694-29.6-14.41-29.6-14.41-17.883-.455-27.083 6.557-27.083 6.557z" class="cls-9" transform="translate(-214.749 -184.195)"></path></g></g></g><g id="Group_473" transform="translate(42.558 91.529)"><g id="Group_472"><g id="Group_471"><path id="Path_446" d="M203.3 197.781c1.305 11.4 17.582 10.1 17.582 10.1h19.724s-5.18 11.529-7.181 21.253c-2.122 10.32-7.128 28.58-7.128 28.58s.329.62 3.9.273c0 0 15.484-30.859 21.411-38.617 1.274-1.67 4.929-10.732 5.557-16.137.213-1.82.082-3.224-.6-3.793a49.089 49.089 0 0 0-4.355-2.976c-6.179-3.9-16.908-9.894-22.886-11.238-8.006-1.8-20.67-5.172-20.67-5.172S202 186.38 203.3 197.781z" class="cls-9" transform="translate(-203.133 -180.049)"></path></g></g></g><g id="Group_474" transform="translate(54.242)"><path id="Path_447" d="M221.756 70.572S218.8 64.966 220.242 59s6.978-11.917 15.087-9.186 14.666 9.032 9.8 16.316 4.4 10.574 2.04 14.04-1.465 7.084-.466 7.891 4.221 3.682 3.868 7.084-15.734-9.918-15.734-9.918-8.372-16.827-13.081-14.655z" class="cls-11" transform="translate(-219.847 -49.129)"></path></g><g id="Group_475" transform="translate(48.144 90.341)"><path id="Path_448" fill="#eb4747" d="M243.849 181.09s-1.221 5.933-32.725-1.558c0 0 10.562-3.507 32.725 1.558z" transform="translate(-211.124 -178.349)"></path></g><g id="Group_477" transform="translate(41.384 36.426)"><g id="Group_476"><path id="Path_449" d="M207.857 157.993l-1.465 2.8 34.548 1.007c-1.821-6.1-1.23-14.36-.912-20.63.389-7.657 4.619-12.982 4.168-20.727 2.278.368 2.672.438 4.954.788-3.488-9.942-4.684-14.868-15.524-18.695a20.242 20.242 0 0 0-9.667-1.178c-12.555 1.035-16.341 1.183-22.505 12.558 9.651 1.537 8.062 5 10.99 14.605 1.428 4.682 2.917 9.907 2.152 14.846-.753 4.859-6.739 10.192-6.739 14.626z" class="cls-13" transform="translate(-201.454 -101.232)"></path></g></g><g id="Group_479" transform="translate(63.678 26.501)"><g id="Group_478"><path id="Path_450" d="M237.486 100.672c-5.139-.97-4.045-3.828-4.045-3.828s.238-1.614.331-3.652c.024-.522.038-1.072.036-1.63a21.925 21.925 0 0 0-.143-2.527c-.419-3.448 9.328-1.392 9.328-1.392s-.562 6.979.782 9.069-1.151 4.931-6.289 3.96z" class="cls-14" transform="translate(-233.344 -87.036)"></path></g></g><g id="Group_481" transform="translate(58.02 35.356)"><g id="Group_480"><path id="Path_451" d="M225.25 100.636s10.363 11.966 14.194 14.74c0 0 4.4-3.978 1.688-14.481 0 .005-5.002-2.506-15.882-.259z" class="cls-14" transform="translate(-225.25 -99.701)"></path></g></g><g id="Group_482" transform="translate(55.897 5.562)"><path id="Path_452" d="M224.618 59.015s-5.382 10.369-.043 20.192 15.825-4.279 16.5-5.932 4.275-11.012-2.879-13.854-12.055-3.221-13.578-.406z" class="cls-14" transform="translate(-222.213 -57.085)"></path></g><g id="Group_483" transform="translate(55.695 3.414)"><path id="Path_453" d="M226.32 61.769s-3.7 4.865-4.142 8.461a19.276 19.276 0 0 1 2.694-13.33c4.17-6.531 14.774-.31 16.194 2.3s5.582 4.909-1.409 16.122c0 .001-12.576-8.736-13.337-13.553z" class="cls-11" transform="translate(-221.924 -54.012)"></path></g><g id="Group_484" transform="translate(64.106 28.718)"><path id="Path_454" fill="#a77860" d="M238.542 90.207s-.935 2.041-4.586 3.94c.024-.522.038-1.072.036-1.63a8.726 8.726 0 0 0 4.55-2.31z" transform="translate(-233.956 -90.207)"></path></g><g id="Group_485" transform="translate(0 88.313)"><path id="Path_455" d="M148.37 175.449s-6 4.976-6.094 5.647.221.985.8.544 5.954-4.64 5.954-4.64-6.012 7.1-6.213 7.627c-.119.308.457.949.793.742s6.729-6.892 6.729-6.892-5.6 6.64-5.631 7.137a.651.651 0 0 0 1.1.44c.453-.463 6.026-6.321 6.026-6.321s-3.747 5.1-3.516 5.547c.141.275.615.85 1.537-.5s3.458-4.285 3.458-4.285z" class="cls-7" transform="translate(-142.26 -175.449)"></path></g><g id="Group_487" transform="translate(42.559 91.529)"><g id="Group_486"><path id="Path_456" d="M238.551 207.878h-17.666s-16.276 1.305-17.579-10.1 5.35-17.733 5.35-17.733 8.6 2.29 16.1 4.1a58.1 58.1 0 0 1 13.578-1.184s31.818 10.515 30.861 16.05c.005.007-13.306-7.111-30.644 8.867z" class="cls-1" transform="translate(-203.136 -180.049)"></path></g></g><g id="Group_488" transform="translate(66.475 99.119)"><path id="Path_457" d="M237.344 191.4l33.683-.5-17.007 8.635z" class="cls-16" transform="translate(-237.344 -190.906)"></path></g><g id="Group_489" transform="translate(59.638 92.125)"><path id="Path_458" d="M244.866 184.088a28.816 28.816 0 0 1-16.866.282l-.435-3.468 19.123 1.062z" class="cls-13" transform="translate(-227.565 -180.902)"></path></g><g id="Group_490" transform="translate(66.475 99.615)"><path id="Path_459" d="M254.02 199.754l-16.676-6.46v-1.679l18 6.491z" class="cls-16" transform="translate(-237.344 -191.614)"></path></g><g id="Group_493" transform="translate(11.357 35.545)"><g id="Group_491" transform="translate(62.544 1.005)"><path id="Path_460" d="M250.888 161.775a1.665 1.665 0 0 0 2.315 1.653l1.957-.835a1.393 1.393 0 0 0 .828-1.5c-.814-5.094-2.562-24.926-.008-28.329a12.4 12.4 0 0 0 1.866-3.324c1.685 4.346 3.782 9.944 4.616 12.956l15.914 21.17 5.334 1.354c-6.657-16.043-12.006-24.543-12.006-24.543-1.041-2.8-4.028-11.263-6.672-18.8-1.671-4.759-3.2-9.149-4.029-11.509a5.392 5.392 0 0 0-2.327-2.854c-2.464-1.473-6.572-3.795-10.3-5.6l-.045-.021-.357-.173h-.009c7.083 10.715 4.32 40.975 2.923 60.323.002.003 0 .018 0 .032z" class="cls-1" transform="translate(-247.967 -101.409)"></path></g><g id="Group_492"><path id="Path_461" d="M197.682 101.891c-2.269.35-7.893 5.81-10.88 11.323-3.41 6.29-6.879 13.452-9.481 15.809-4.783 4.333-18.168 19.648-18.8 19.277a41.677 41.677 0 0 0 4.168 4.794c.25.108 22-18.741 24.093-21.613 1.981-2.723 7.279-14.15 8.864-13.9a.013.013 0 0 0 0 .008 84.987 84.987 0 0 1 3.874 10.546c.03.1.062.2.091.3 1.258 4.26 1.142 8.884.461 14.081-.515 3.924-3.443 10.335-5.21 13.457a2.119 2.119 0 0 0 .071 1.632 1.169 1.169 0 0 0 .58.677l6.387 2.366 1.5.556a3.272 3.272 0 0 0 4.379-2.643c1.421-10.923 3.217-22.085 4.649-26.288 6.283-18.448-2.456-32.31-2.456-32.31s-10.299 1.185-12.29 1.928z" class="cls-1" transform="translate(-158.505 -99.972)"></path></g></g><g id="Group_494" transform="translate(83.151 80.4)"><path id="Path_462" d="M261.2 191.485l10.019-27.354 32.3.527-9.549 25.207z" class="cls-16" transform="translate(-261.197 -164.13)"></path></g><g id="Group_495" transform="translate(102.924 89.953)"><path id="Path_463" d="M290.061 180.343c-.985 1.971-.689 4.116.664 4.792s3.248-.371 4.233-2.341.689-4.116-.665-4.792-3.247.371-4.232 2.341z" class="cls-4" transform="translate(-289.479 -177.795)"></path></g><g id="Group_496" transform="translate(67.442 17.597)"><path id="Path_464" d="M240.744 74.519s2.069 3.219.156 6 .482 5.507.9 8.445-7.977 10.751 1.356 14.683 12.306-2.567 9.925-6.145-4.071-6.477-4.273-11.577-1.884-13.05-8.064-11.406z" class="cls-11" transform="translate(-238.727 -74.299)"></path></g></g></g><g id="Group_503" transform="translate(6.693 108.296)"><path id="Rectangle_512" d="M0 0H18.999V19.157H0z" class="cls-1" transform="translate(0 56.997)"></path><path id="Rectangle_513" d="M0 0H18.999V38.829H0z" class="cls-16" transform="translate(27.192 37.325)"></path><path id="Rectangle_514" d="M0 0H18.999V31.269H0z" class="cls-1" transform="translate(54.384 44.924)"></path><path id="Rectangle_515" d="M0 0H18.999V58.421H0z" class="cls-16" transform="translate(81.576 17.772)"></path><path id="Path_465" d="M19.949 182.2a.826.826 0 0 1-.633-.317.852.852 0 0 1 .158-1.108l27.509-19.905 27.117 7.56 26.876-26.836a.784.784 0 1 1 1.108 1.108l-27.513 27.469-27.271-7.6-26.876 19.435a.625.625 0 0 1-.475.194z" class="cls-3" transform="translate(-10.449 -138.19)"></path><g id="Group_499" transform="translate(5.502 39.264)"><circle id="Ellipse_59" cx="3.206" cy="3.206" r="3.206" class="cls-3" transform="translate(.791 .752)"></circle><path id="Path_466" d="M18.561 200.985a4 4 0 1 1 4-4 3.987 3.987 0 0 1-4 4zm0-6.452a2.425 2.425 0 0 0-2.415 2.415 2.414 2.414 0 1 0 2.415-2.415z" class="cls-3" transform="translate(-14.563 -192.989)"></path></g><g id="Group_500" transform="translate(32.694 19.632)"><circle id="Ellipse_60" cx="3.206" cy="3.206" r="3.206" class="cls-3" transform="translate(.792 .752)"></circle><path id="Path_467" d="M57.455 172.9a4 4 0 1 1 4-4 3.987 3.987 0 0 1-4 4zm0-6.452a2.424 2.424 0 0 0-2.414 2.415 2.414 2.414 0 1 0 2.414-2.415z" class="cls-3" transform="translate(-53.457 -164.908)"></path></g><g id="Group_501" transform="translate(59.886 27.271)"><circle id="Ellipse_61" cx="3.206" cy="3.206" r="3.206" class="cls-3" transform="translate(.792 .752)"></circle><path id="Path_468" d="M96.35 183.83a4 4 0 1 1 4-4 3.986 3.986 0 0 1-4 4zm0-6.451a2.424 2.424 0 0 0-2.415 2.414 2.415 2.415 0 0 0 4.83 0 2.424 2.424 0 0 0-2.415-2.414z" class="cls-3" transform="translate(-92.352 -175.835)"></path></g><g id="Group_502" transform="translate(87.078)"><circle id="Ellipse_62" cx="3.206" cy="3.206" r="3.206" class="cls-3" transform="translate(.792 .792)"></circle><path id="Path_469" d="M135.244 144.822a4 4 0 1 1 4-4 3.987 3.987 0 0 1-4 4zm0-6.451a2.424 2.424 0 0 0-2.415 2.415 2.45 2.45 0 0 0 2.415 2.414 2.414 2.414 0 0 0 0-4.829z" class="cls-3" transform="translate(-131.246 -136.827)"></path></g></g></g></svg> 