<?xml version="1.0" encoding="UTF-8"?> <svg xmlns="http://www.w3.org/2000/svg" width="915" height="570" viewBox="0 0 915 570"><defs><linearGradient id="linear-gradient" x1=".5" x2=".5" y1="-.227" y2="1" gradientUnits="objectBoundingBox"><stop offset=".248" stop-color="#d8f3f7"></stop><stop offset="1" stop-color="#fff"></stop></linearGradient><linearGradient id="linear-gradient-3" x1=".5" x2="0" y1=".5" y2=".5" gradientUnits="objectBoundingBox"><stop offset="0" stop-color="#fff"></stop><stop offset="1" stop-color="#fff" stop-opacity="0"></stop></linearGradient><clipPath id="clip-path"><path id="Rectangle_1891" fill="none" stroke="#707070" d="M0 0H915V570H0z" transform="translate(526 1670)"></path></clipPath><style> .cls-15,.cls-17,.cls-8{fill:none}.cls-3{fill:#0d395a}.cls-4{fill:#195d8f}.cls-5{fill:#277aa9}.cls-6{fill:#fff}.cls-7{fill:#e84040}.cls-17,.cls-8{stroke:#fff}.cls-8{stroke-miterlimit:10}.cls-9{fill:#00c1d5}.cls-11{fill:url(#linear-gradient)}.cls-13{fill:#8ae7e4}.cls-15{stroke:#195d8f}.cls-15,.cls-17{stroke-width:2px} </style></defs><g id="pic-ocean" clip-path="url(#clip-path)" transform="translate(-526 -1670)"><g id="Group_1631" transform="translate(0 1413)"><g id="Group_1630" transform="translate(-99.914 33)"><g id="Group_1628" transform="translate(695.103 299.447)"><path id="Path_1904" d="M330.715 811.791H473.6l13.828 23.968h349.581l-8.487 24.89H355.794z" class="cls-3" transform="translate(-267.372 -555.599)"></path><path id="Path_1905" d="M349.112 829.772l12.655 27h425.821l9.344-27z" class="cls-4" transform="translate(-235.782 -524.722)"></path><path id="Rectangle_1867" d="M0 0H61.765V30.422H0z" class="cls-5" transform="rotate(-180 83.078 128.207)"></path><path id="Rectangle_1868" d="M0 0H8.758V20.511H0z" class="cls-6" transform="rotate(-180 79.447 125.556)"></path><path id="Rectangle_1869" d="M0 0H8.758V20.511H0z" class="cls-6" transform="rotate(-180 69.594 125.556)"></path><path id="Rectangle_1870" d="M0 0H8.758V20.511H0z" class="cls-6" transform="rotate(-180 59.742 125.556)"></path><circle id="Ellipse_247" cx="7.661" cy="7.661" r="7.661" class="cls-6" transform="translate(107.283 271.233)"></circle><circle id="Ellipse_248" cx="7.661" cy="7.661" r="7.661" class="cls-6" transform="translate(141.954 271.233)"></circle><circle id="Ellipse_249" cx="7.661" cy="7.661" r="7.661" class="cls-6" transform="translate(176.625 271.233)"></circle><g id="Group_1614" transform="translate(395.564 239.582)"><g id="Group_1612" transform="translate(3.074 .231)"><path id="Rectangle_1871" d="M0 0H158.98V40.139H0z" class="cls-7"></path></g><g id="Group_1613" transform="translate(13.438)"><path id="Line_1577" d="M0 0L0 40.223" class="cls-8" transform="translate(138.226)"></path><path id="Line_1578" d="M0 0L0 40.223" class="cls-8" transform="translate(125.66)"></path><path id="Line_1579" d="M0 0L0 40.223" class="cls-8" transform="translate(113.094)"></path><path id="Line_1580" d="M0 0L0 40.223" class="cls-8" transform="translate(100.528)"></path><path id="Line_1581" d="M0 0L0 40.223" class="cls-8" transform="translate(87.962)"></path><path id="Line_1582" d="M0 0L0 40.223" class="cls-8" transform="translate(75.396)"></path><path id="Line_1583" d="M0 0L0 40.223" class="cls-8" transform="translate(62.83)"></path><path id="Line_1584" d="M0 0L0 40.223" class="cls-8" transform="translate(50.264)"></path><path id="Line_1585" d="M0 0L0 40.223" class="cls-8" transform="translate(37.698)"></path><path id="Line_1586" d="M0 0L0 40.223" class="cls-8" transform="translate(25.132)"></path><path id="Line_1587" d="M0 0L0 40.223" class="cls-8" transform="translate(12.566)"></path><path id="Line_1588" d="M0 0L0 40.223" class="cls-8"></path></g><path id="Rectangle_1872" d="M0 0H164.583V3.514H0z" class="cls-7" transform="rotate(-180 82.291 1.89)"></path><path id="Rectangle_1873" d="M0 0H164.583V3.514H0z" class="cls-7" transform="rotate(-180 82.291 20.23)"></path></g><g id="Group_1617" transform="translate(222.598 154.554)"><g id="Group_1615" transform="translate(3.074 .231)"><path id="Rectangle_1874" d="M0 0H158.98V40.139H0z" class="cls-7"></path></g><g id="Group_1616" transform="translate(13.438)"><path id="Line_1589" d="M0 0L0 40.223" class="cls-8" transform="translate(138.226)"></path><path id="Line_1590" d="M0 0L0 40.223" class="cls-8" transform="translate(125.66)"></path><path id="Line_1591" d="M0 0L0 40.223" class="cls-8" transform="translate(113.094)"></path><path id="Line_1592" d="M0 0L0 40.223" class="cls-8" transform="translate(100.528)"></path><path id="Line_1593" d="M0 0L0 40.223" class="cls-8" transform="translate(87.962)"></path><path id="Line_1594" d="M0 0L0 40.223" class="cls-8" transform="translate(75.396)"></path><path id="Line_1595" d="M0 0L0 40.223" class="cls-8" transform="translate(62.83)"></path><path id="Line_1596" d="M0 0L0 40.223" class="cls-8" transform="translate(50.264)"></path><path id="Line_1597" d="M0 0L0 40.223" class="cls-8" transform="translate(37.698)"></path><path id="Line_1598" d="M0 0L0 40.223" class="cls-8" transform="translate(25.132)"></path><path id="Line_1599" d="M0 0L0 40.223" class="cls-8" transform="translate(12.566)"></path><path id="Line_1600" d="M0 0L0 40.223" class="cls-8"></path></g><path id="Rectangle_1875" d="M0 0H164.583V3.514H0z" class="cls-7" transform="rotate(-180 82.291 1.89)"></path><path id="Rectangle_1876" d="M0 0H164.583V3.514H0z" class="cls-7" transform="rotate(-180 82.291 20.23)"></path></g><g id="Group_1620" transform="translate(222.511 197.796)"><g id="Group_1618" transform="translate(3.074 .231)"><path id="Rectangle_1877" d="M0 0H158.98V40.139H0z" class="cls-9"></path></g><g id="Group_1619" transform="translate(13.438)"><path id="Line_1601" d="M0 0L0 40.223" class="cls-8" transform="translate(138.226)"></path><path id="Line_1602" d="M0 0L0 40.223" class="cls-8" transform="translate(125.66)"></path><path id="Line_1603" d="M0 0L0 40.223" class="cls-8" transform="translate(113.094)"></path><path id="Line_1604" d="M0 0L0 40.223" class="cls-8" transform="translate(100.528)"></path><path id="Line_1605" d="M0 0L0 40.223" class="cls-8" transform="translate(87.962)"></path><path id="Line_1606" d="M0 0L0 40.223" class="cls-8" transform="translate(75.396)"></path><path id="Line_1607" d="M0 0L0 40.223" class="cls-8" transform="translate(62.83)"></path><path id="Line_1608" d="M0 0L0 40.223" class="cls-8" transform="translate(50.264)"></path><path id="Line_1609" d="M0 0L0 40.223" class="cls-8" transform="translate(37.698)"></path><path id="Line_1610" d="M0 0L0 40.223" class="cls-8" transform="translate(25.132)"></path><path id="Line_1611" d="M0 0L0 40.223" class="cls-8" transform="translate(12.566)"></path><path id="Line_1612" d="M0 0L0 40.223" class="cls-8"></path></g><path id="Rectangle_1878" d="M0 0H164.583V3.514H0z" class="cls-9" transform="rotate(-180 82.291 1.89)"></path><path id="Rectangle_1879" d="M0 0H164.583V3.514H0z" class="cls-9" transform="rotate(-180 82.291 20.23)"></path></g><path id="Rectangle_1880" d="M0 0H22.132V14.471H0z" class="cls-5" transform="rotate(-180 72.794 113.378)"></path><path id="Line_1613" fill="none" stroke="#00bdd0" stroke-miterlimit="10" d="M274.519 0L0 0" transform="translate(288.594 292.301)"></path><g id="Group_1621" transform="translate(0 313.382)"><path id="Path_1906" d="M270.406 814.524H-.718V705.4l9.118-2.53a43.131 43.131 0 0 1 21.593-.106 43.368 43.368 0 0 0 20.157.259l3.915-.912a43.583 43.583 0 0 1 19.067-.011l2.977.689a43.482 43.482 0 0 0 19.609-.141l1.109-.276a43.427 43.427 0 0 1 19.968-.056l2.756.667a43.6 43.6 0 0 0 18.791.217l5.782-1.241a43.549 43.549 0 0 1 19.027.274l2.209.551a43.454 43.454 0 0 0 19.769.107l3.529-.833a43.475 43.475 0 0 1 19.66.08l3.349.824a43.584 43.584 0 0 0 18.73.288l6.967-1.458a43.729 43.729 0 0 1 18.055.128l8.324 1.882a27.167 27.167 0 0 0 11.541.013c2.582-.577 7.925-1.849 11.357-1.9 11.349-.162 18.127 3.645 18.127 3.645v108.965z" class="cls-11" transform="translate(33.057 -695.63)"></path><path id="Path_1907" d="M270.406 814.524H-.718V705.4l9.118-2.53a43.131 43.131 0 0 1 21.593-.106 43.368 43.368 0 0 0 20.157.259l3.915-.912a43.583 43.583 0 0 1 19.067-.011l2.977.689a43.482 43.482 0 0 0 19.609-.141l1.109-.276a43.427 43.427 0 0 1 19.968-.056l2.756.667a43.6 43.6 0 0 0 18.791.217l5.782-1.241a43.549 43.549 0 0 1 19.027.274l2.209.551a43.454 43.454 0 0 0 19.769.107l3.529-.833a43.475 43.475 0 0 1 19.66.08l3.349.824a43.584 43.584 0 0 0 18.73.288l6.967-1.458a43.729 43.729 0 0 1 18.055.128l8.324 1.882a27.167 27.167 0 0 0 11.541.013c2.582-.577 7.925-1.849 11.357-1.9 11.349-.162 18.127 3.645 18.127 3.645v108.965z" class="cls-11" transform="translate(307.897 -695.63)"></path><path id="Rectangle_1881" fill="url(#linear-gradient-3)" d="M0 0H94.682V118.352H0z" transform="rotate(180 47.86 59.574)"></path></g><path id="Path_1908" d="M578.151 797.574a14.954 14.954 0 0 1-8.047-2.406 12.055 12.055 0 0 0-13.274 0 14.421 14.421 0 0 1-16.012 0 12.055 12.055 0 0 0-13.274 0 1.254 1.254 0 0 1-1.41-2.075 14.42 14.42 0 0 1 16.01 0 12.054 12.054 0 0 0 13.274 0 14.421 14.421 0 0 1 16.012 0 12.054 12.054 0 0 0 13.274 0 14.421 14.421 0 0 1 16.012 0 1.254 1.254 0 1 1-1.411 2.075 12.055 12.055 0 0 0-13.274 0 14.2 14.2 0 0 1-7.88 2.406z" class="cls-13" transform="translate(-404.267 -429.567)"></path><path id="Path_2004" d="M578.151 797.574a14.954 14.954 0 0 1-8.047-2.406 12.055 12.055 0 0 0-13.274 0 14.421 14.421 0 0 1-16.012 0 12.055 12.055 0 0 0-13.274 0 1.254 1.254 0 0 1-1.41-2.075 14.42 14.42 0 0 1 16.01 0 12.054 12.054 0 0 0 13.274 0 14.421 14.421 0 0 1 16.012 0 12.054 12.054 0 0 0 13.274 0 14.421 14.421 0 0 1 16.012 0 1.254 1.254 0 1 1-1.411 2.075 12.055 12.055 0 0 0-13.274 0 14.2 14.2 0 0 1-7.88 2.406z" class="cls-13" transform="translate(-193.267 -409.567)"></path><path id="Path_1909" fill="#00c1d5" fill-rule="evenodd" stroke="#00c1d5" d="M807.516 295.13L698.33 248.308l-.555-.2-.524.27-139.708 44.061 1.24 2.289 139.186-43.791L806.6 297.561z" transform="translate(-78.318 -247.109)"></path><path id="Path_1910" d="M-38.833.227L213.448 0v12.744l-252.281.227z" class="cls-4" transform="translate(516.864 43.946)"></path><path id="Rectangle_1882" d="M0 0H5V122H0z" class="cls-4" transform="translate(478.312 52.553)"></path><path id="Line_1614" d="M82.977 0L0 25.711" class="cls-15" transform="translate(396.651 173.551)"></path><path id="Line_1615" d="M0 0L79.471 25.711" class="cls-15" transform="translate(480.797 173.551)"></path><circle id="Ellipse_250" cx="3.5" cy="3.5" r="3.5" class="cls-7" transform="translate(476.312 169.553)"></circle><g id="Group_1624" transform="translate(396.271 197.436)"><g id="Group_1622" transform="translate(3.074 .231)"><path id="Rectangle_1883" d="M0 0H158.98V40.139H0z" class="cls-3"></path></g><g id="Group_1623" transform="translate(13.438)"><path id="Line_1616" d="M0 0L0 40.223" class="cls-8" transform="translate(138.226)"></path><path id="Line_1617" d="M0 0L0 40.223" class="cls-8" transform="translate(125.66)"></path><path id="Line_1618" d="M0 0L0 40.223" class="cls-8" transform="translate(113.094)"></path><path id="Line_1619" d="M0 0L0 40.223" class="cls-8" transform="translate(100.528)"></path><path id="Line_1620" d="M0 0L0 40.223" class="cls-8" transform="translate(87.962)"></path><path id="Line_1621" d="M0 0L0 40.223" class="cls-8" transform="translate(75.396)"></path><path id="Line_1622" d="M0 0L0 40.223" class="cls-8" transform="translate(62.83)"></path><path id="Line_1623" d="M0 0L0 40.223" class="cls-8" transform="translate(50.264)"></path><path id="Line_1624" d="M0 0L0 40.223" class="cls-8" transform="translate(37.698)"></path><path id="Line_1625" d="M0 0L0 40.223" class="cls-8" transform="translate(25.132)"></path><path id="Line_1626" d="M0 0L0 40.223" class="cls-8" transform="translate(12.566)"></path><path id="Line_1627" d="M0 0L0 40.223" class="cls-8"></path></g><path id="Rectangle_1884" d="M0 0H164.583V3.514H0z" class="cls-3" transform="rotate(-180 82.291 1.89)"></path><path id="Rectangle_1885" d="M0 0H164.583V3.514H0z" class="cls-3" transform="rotate(-180 82.291 20.23)"></path></g><g id="Group_1627" transform="translate(222.136 239.582)"><g id="Group_1625" transform="translate(3.074 .231)"><path id="Rectangle_1886" d="M0 0H158.98V40.139H0z" class="cls-3"></path></g><g id="Group_1626" transform="translate(13.438)"><path id="Line_1628" d="M0 0L0 40.223" class="cls-8" transform="translate(138.226)"></path><path id="Line_1629" d="M0 0L0 40.223" class="cls-8" transform="translate(125.66)"></path><path id="Line_1630" d="M0 0L0 40.223" class="cls-8" transform="translate(113.094)"></path><path id="Line_1631" d="M0 0L0 40.223" class="cls-8" transform="translate(100.528)"></path><path id="Line_1632" d="M0 0L0 40.223" class="cls-8" transform="translate(87.962)"></path><path id="Line_1633" d="M0 0L0 40.223" class="cls-8" transform="translate(75.396)"></path><path id="Line_1634" d="M0 0L0 40.223" class="cls-8" transform="translate(62.83)"></path><path id="Line_1635" d="M0 0L0 40.223" class="cls-8" transform="translate(50.264)"></path><path id="Line_1636" d="M0 0L0 40.223" class="cls-8" transform="translate(37.698)"></path><path id="Line_1637" d="M0 0L0 40.223" class="cls-8" transform="translate(25.132)"></path><path id="Line_1638" d="M0 0L0 40.223" class="cls-8" transform="translate(12.566)"></path><path id="Line_1639" d="M0 0L0 40.223" class="cls-8"></path></g><path id="Rectangle_1887" d="M0 0H164.583V3.514H0z" class="cls-3" transform="rotate(-180 82.291 1.89)"></path><path id="Rectangle_1888" d="M0 0H164.583V3.514H0z" class="cls-3" transform="rotate(-180 82.291 20.23)"></path></g><path id="Path_1911" d="M6385.82 296.154c.744-.259 12.931-5.053 12.931-5.053l8.758 5.053.042 372.792h-22.533z" class="cls-9" transform="translate(-5778.337 -289.814)"></path><path id="Rectangle_1889" d="M0 0H177V13H0z" class="cls-3" transform="translate(513.312 377.553)"></path><path id="Path_1912" fill="none" stroke="#00c1d5" stroke-width="5px" d="M5946 472.5l154.412-90.178 43.769 15.391 144.382-83.1-29.583-1.48" transform="translate(-5867.817 -302.459)"></path></g><g id="Group_1629" transform="translate(1140.254 234)"><ellipse id="Ellipse_251" cx="38.5" cy="39" class="cls-9" rx="38.5" ry="39" transform="translate(.16)"></ellipse><g id="Rectangle_1890" class="cls-17"><path d="M0 0H39V48H0z" transform="translate(19.16 15)"></path><path fill="none" d="M1 1H38V47H1z" transform="translate(19.16 15)"></path></g><path id="Line_1640" d="M0 0L24.543 0" class="cls-17" transform="translate(26.295 23.958)"></path><path id="Line_1641" d="M0 0L24.543 0" class="cls-17" transform="translate(26.295 36.814)"></path><path id="Line_1642" d="M0 0L24.543 0" class="cls-17" transform="translate(26.295 49.669)"></path><path id="Line_1643" d="M0 0L24.543 0" class="cls-17" transform="translate(26.295 28.633)"></path><path id="Line_1644" d="M0 0L24.543 0" class="cls-17" transform="translate(26.295 41.489)"></path><path id="Line_1645" d="M0 0L24.543 0" class="cls-17" transform="translate(26.295 54.344)"></path></g></g></g></g></svg> 