<?xml version="1.0" encoding="UTF-8"?> <svg xmlns="http://www.w3.org/2000/svg" width="915" height="570" viewBox="0 0 915 570"><defs><clipPath id="clip-path"><path id="Rectangle_1923" fill="none" stroke="#707070" d="M0 0H915V570H0z" data-name="Rectangle 1923" transform="translate(526 1670)"></path></clipPath><style> .cls-13{fill:none}.cls-4{fill:#c5f3f2}.cls-5{fill:#b8eeeb}.cls-7{fill:#e84040}.cls-8{fill:#fff}.cls-11{fill:#00c1d5}.cls-12{fill:#195d8f}.cls-13{stroke:#fff;stroke-miterlimit:10;stroke-width:.94px}.cls-16{fill:#d8f3f7} </style></defs><g id="pic-air" clip-path="url(#clip-path)" transform="translate(-526 -1670)"><g id="Group_1708" data-name="Group 1708" transform="translate(-171.4 1415)"><path id="Path_1979" fill="none" stroke="#195d8f" stroke-dasharray="11 11" stroke-width="3px" d="M0 414.7s239.779-77.17 267.427-229.386c.53-2.917.986-5.894 1.359-8.9C288.411 18.322 530.073 0 530.073 0" data-name="Path 1979" transform="rotate(5.13 -3485.144 10333.374)"></path><g id="Group_1690" data-name="Group 1690" transform="translate(835.188 465.604)"><path id="Path_1980" d="M164.117 399.966s.293-16.806 19.962-14.972c0 0 2.055-14.971 15.852-15.265a13.053 13.053 0 0 1 8.807 4.11 20.287 20.287 0 0 1 4.607-1.92 15.124 15.124 0 0 1 19.141 12.82c.019.2.03.382.03.549a24.463 24.463 0 0 1 3.337.007 13.042 13.042 0 0 1 12.309 13.428c-.016.319-.045.637-.086.949z" class="cls-4" data-name="Path 1980" transform="translate(-164.117 -369.73)"></path><path id="Path_1981" d="M234.358 393.906s1.379-8.958 9.3-9.3c0 0 7.666-.86 10.681 9.3z" class="cls-5" data-name="Path 1981" transform="translate(-138.582 -364.33)"></path></g><g id="Group_1691" data-name="Group 1691" transform="translate(1320.351 688.318)"><path id="Path_1982" d="M33.36 590.916s.28-14.452 19.039-12.875c0 0 1.96-12.875 15.119-13.127a13.066 13.066 0 0 1 8.4 3.535 20.466 20.466 0 0 1 4.394-1.652c8.476-2.183 17.391 3.113 18.256 11.024a4.472 4.472 0 0 1 .029.472 25.879 25.879 0 0 1 3.182.007c6.7.394 21.9 5.5 21.551 11.547q-.023.414-.083.817z" class="cls-5" data-name="Path 1982" transform="translate(-33.36 -564.914)"></path><path id="Path_1983" d="M62.719 589.556s.234-9.865 15.948-8.789c0 0 1.641-8.787 12.665-8.959a12.307 12.307 0 0 1 7.036 2.412 19.688 19.688 0 0 1 3.68-1.128c7.1-1.49 14.568 2.125 15.292 7.525a2.442 2.442 0 0 1 .025.323 26.646 26.646 0 0 1 2.666 0c5.609.269 18.346 3.758 18.052 7.882a5.275 5.275 0 0 1-.069.557z" class="cls-4" data-name="Path 1983" transform="translate(-24.538 -562.843)"></path></g><path id="Path_1984" fill="none" stroke="#0d395a" stroke-linecap="round" stroke-linejoin="round" stroke-width="3px" d="M0 0s14.615 1.643 15.409 12.012c0 0 4.443-7.5 12.871-3.832" data-name="Path 1984" transform="rotate(-28 1966.013 -2283.89)"></path><g id="Group_1692" data-name="Group 1692" transform="translate(1376.094 316)"><path id="Path_1985" d="M183.745 96.031c0 15.965-27.972 51.282-28.9 51.282 0 0-28.9-35.317-28.9-51.282a28.9 28.9 0 0 1 57.807 0z" class="cls-7" data-name="Path 1985" transform="translate(-125.938 -67.132)"></path><circle id="Ellipse_256" cx="17.715" cy="17.715" r="17.715" class="cls-8" data-name="Ellipse 256" transform="translate(11.187 9.321)"></circle></g><g id="Group_1693" data-name="Group 1693" transform="translate(818.021 677.486)"><path id="Path_1986" fill="#0d395a" d="M183.745 96.031c0 15.965-27.972 51.282-28.9 51.282 0 0-28.9-35.317-28.9-51.282a28.9 28.9 0 0 1 57.807 0z" data-name="Path 1986" transform="translate(-125.938 -67.132)"></path><circle id="Ellipse_257" cx="17.715" cy="17.715" r="17.715" class="cls-8" data-name="Ellipse 257" transform="translate(11.187 9.321)"></circle></g><g id="Group_1697" data-name="Group 1697" transform="translate(817.947 456.802)"><g id="Group_1694" data-name="Group 1694" transform="translate(0 86.119)"><path id="Path_1988" d="M148.744 496.993H475.1a98.754 98.754 0 0 0 27.024-3.759c12.893-3.664 33.692-9.8 56.7-17.448H98.643c4.783 13.432 25.729 21.207 50.101 21.207z" class="cls-11" data-name="Path 1988" transform="translate(-97.617 -411.05)"></path><path id="Path_1989" d="M179.575 443.794s-17.805-1.563-32 11.663h30.085v16.965h-47.338c-7.223 5.666-12.041 7.423-12.041 7.423s-20.146 5.577-20.146 22.655a17.73 17.73 0 0 0 1.026 5.973h459.522C590 498.062 599.457 484.84 624.594 471.2v-27.4z" class="cls-12" data-name="Path 1989" transform="translate(-98.135 -443.737)"></path><path id="Path_1990" d="M370.966 443.765h-12.194v27.4c4.4-2.388 8.5-4.791 12.194-7.193z" class="cls-7" data-name="Path 1990" transform="translate(167.688 -443.708)"></path><path id="Path_1991" d="M161.408 449.539h-30.086a43.052 43.052 0 0 0-3.365 3.494A98.275 98.275 0 0 1 114.07 466.5h47.338z" class="cls-8" data-name="Path 1991" transform="translate(-81.883 -437.819)"></path></g><path id="Path_1992" d="M313.1 461.775s63.621 30.751 74.223 33.932 27.57-4.242 27.57-4.242l-29.84-29.676" class="cls-12" data-name="Path 1992" transform="translate(121.109 -339.22)"></path><path id="Path_1993" d="M181.865 468.376s154.381 63.631 167.534 66.26c21.207 4.242 47.185-10.521 47.185-10.521l-69.8-55.739" class="cls-12" data-name="Path 1993" transform="translate(-12.739 -332.488)"></path><g id="Group_1695" data-name="Group 1695" transform="translate(187.681 99.959)"><circle id="Ellipse_258" cx="6.892" cy="6.892" r="6.892" class="cls-8" data-name="Ellipse 258"></circle><circle id="Ellipse_259" cx="6.892" cy="6.892" r="6.892" class="cls-8" data-name="Ellipse 259" transform="translate(25.448)"></circle><circle id="Ellipse_260" cx="6.892" cy="6.892" r="6.892" class="cls-8" data-name="Ellipse 260" transform="translate(50.896)"></circle><circle id="Ellipse_261" cx="6.892" cy="6.892" r="6.892" class="cls-8" data-name="Ellipse 261" transform="translate(76.345)"></circle><circle id="Ellipse_262" cx="6.892" cy="6.892" r="6.892" class="cls-8" data-name="Ellipse 262" transform="translate(101.793)"></circle><circle id="Ellipse_263" cx="6.892" cy="6.892" r="6.892" class="cls-8" data-name="Ellipse 263" transform="translate(127.241)"></circle><circle id="Ellipse_264" cx="6.892" cy="6.892" r="6.892" class="cls-8" data-name="Ellipse 264" transform="translate(152.689)"></circle><circle id="Ellipse_265" cx="6.892" cy="6.892" r="6.892" class="cls-8" data-name="Ellipse 265" transform="translate(178.138)"></circle><circle id="Ellipse_266" cx="6.892" cy="6.892" r="6.892" class="cls-8" data-name="Ellipse 266" transform="translate(203.586)"></circle></g><path id="Rectangle_1917" d="M0 0H15.905V16.965H0z" class="cls-8" data-name="Rectangle 1917" transform="translate(83.767 97.839)"></path><g id="Group_1696" data-name="Group 1696" transform="translate(424.138)"><path id="Path_1994" d="M407.206 401.777s-26.949-7.7-50.049 28.874a129.083 129.083 0 0 1-23.52 27.085c17.43-3.634 40.022-10.013 60.641-20.981z" class="cls-12" data-name="Path 1994" transform="translate(-282.085 -401.101)"></path><path id="Path_1995" d="M359.667 439.734c-22.34 19.864-47.4 31.2-51.552 32.587h92.4l19.8-53.568c-20.626 10.968-43.215 17.347-60.648 20.981z" class="cls-12" data-name="Path 1995" transform="translate(-308.115 -383.099)"></path></g></g><g id="Group_1704" data-name="Group 1704" transform="translate(912.441 701.61)"><g id="Group_1700" data-name="Group 1700"><g id="Group_1698" data-name="Group 1698" transform="translate(.009)"><path id="Rectangle_1918" d="M0 0H37.963V28.472H0z" class="cls-12" data-name="Rectangle 1918"></path><path id="Path_1996" d="M1094.669 651.74v6.327H1083.6v-6.327" class="cls-13" data-name="Path 1996" transform="translate(-1070.415 -651.74)"></path></g><g id="Group_1699" data-name="Group 1699" transform="translate(.009 27.584)"><path id="Rectangle_1919" d="M0 0H37.963V28.472H0z" class="cls-7" data-name="Rectangle 1919"></path><path id="Path_1997" fill="#e84040" stroke="#fff" stroke-miterlimit="10" stroke-width="0.94px" d="M1094.669 651.74v6.327H1083.6v-6.327" data-name="Path 1997" transform="translate(-1070.415 -651.74)"></path></g><path id="Line_1730" d="M0 0L37.963 0" class="cls-13" data-name="Line 1730" transform="translate(0 27.895)"></path></g><g id="Group_1703" data-name="Group 1703" transform="translate(39.042)"><g id="Group_1701" data-name="Group 1701" transform="translate(.009)"><path id="Rectangle_1920" d="M0 0H37.963V28.472H0z" class="cls-12" data-name="Rectangle 1920"></path><path id="Path_1998" d="M1094.669 651.74v6.327H1083.6v-6.327" class="cls-13" data-name="Path 1998" transform="translate(-1070.415 -651.74)"></path></g><g id="Group_1702" data-name="Group 1702" transform="translate(.009 27.584)"><path id="Rectangle_1921" d="M0 0H37.963V28.472H0z" class="cls-12" data-name="Rectangle 1921"></path><path id="Path_1999" fill="#195d8f" stroke="#fff" stroke-miterlimit="10" stroke-width="0.94px" d="M1094.669 651.74v6.327H1083.6v-6.327" data-name="Path 1999" transform="translate(-1070.415 -651.74)"></path></g><path id="Line_1731" d="M0 0L37.963 0" class="cls-13" data-name="Line 1731" transform="translate(0 27.895)"></path></g></g><g id="Group_1707" data-name="Group 1707" transform="translate(1131.269 323.712)"><path id="Path_2000" d="M1160.6 2127.277s-2.975 13.28 12.3 29.624c0 0-31.712-9.193-40.9-29.624z" class="cls-11" data-name="Path 2000" transform="translate(-1101.925 -2065.78)"></path><g id="Group_1705" data-name="Group 1705"><rect id="Rectangle_1922" width="95.424" height="69.724" class="cls-11" data-name="Rectangle 1922" rx="4.831"></rect></g><g id="Group_1706" data-name="Group 1706" transform="translate(21.773 28.804)"><path id="Path_2001" d="M189.577 90.339a5.553 5.553 0 1 0 5.553-5.554 5.553 5.553 0 0 0-5.553 5.554z" class="cls-16" data-name="Path 2001" transform="translate(-148.518 -84.785)"></path><path id="Path_2002" d="M157.31 90.339a5.553 5.553 0 1 0 5.553-5.554 5.553 5.553 0 0 0-5.553 5.554z" class="cls-16" data-name="Path 2002" transform="translate(-136.78 -84.785)"></path><path id="Path_2003" d="M125.042 90.339a5.553 5.553 0 1 0 5.554-5.554 5.553 5.553 0 0 0-5.554 5.554z" class="cls-16" data-name="Path 2003" transform="translate(-125.042 -84.785)"></path></g></g></g></g></svg> 