<?xml version="1.0" encoding="UTF-8"?> <svg xmlns="http://www.w3.org/2000/svg" width="443.549" height="372.758" viewBox="0 0 443.549 372.758"><defs><style> .cls-1{fill:#195d8f}.cls-2{fill:#e84040}.cls-3{fill:#ed975d}.cls-4{fill:#233862}.cls-5{fill:#ffb27d}.cls-6{fill:#0d395a}.cls-7{fill:#2c3a64}.cls-8{fill:#454545}.cls-9{fill:#1b1b1b}.cls-10{fill:#00c1d5} </style></defs><g id="pic-about" transform="translate(-797.599 -183.872)"><g id="Group_1407" data-name="Group 1407" transform="translate(797.599 531.254)"><g id="Group_1406" data-name="Group 1406"><path id="Rectangle_1677" d="M0 0H112.372V25.374H0z" class="cls-1" data-name="Rectangle 1677" transform="translate(34.648 .001)"></path><path id="Rectangle_1678" d="M0 0H112.371V25.376H0z" class="cls-1" data-name="Rectangle 1678"></path></g></g><g id="Group_1410" data-name="Group 1410" transform="translate(963.025 439.669)"><g id="Group_1409" data-name="Group 1409"><g id="Group_1408" data-name="Group 1408"><path id="Rectangle_1679" d="M0 0H83.673V116.954H0z" class="cls-2" data-name="Rectangle 1679" transform="rotate(180 54.736 58.477)"></path><path id="Rectangle_1680" d="M0 0H83.673V116.954H0z" class="cls-2" data-name="Rectangle 1680" transform="rotate(180 41.836 58.477)"></path></g></g></g><g id="Group_1411" data-name="Group 1411" transform="translate(965.049 228.741)"><path id="Path_1423" d="M1765.417 492.977c-1.294-.2-5.191 3.407-5.191 3.407-8.323.962-20.493 3.172-24.872 4.015-3.107.6-11.457-2.249-19.615-5.518-9.7-3.889-19.13-8.376-19.13-8.376-5.384-.274-11.5 9.548-.579 15.792 1.666.954 7.929 2.581 15.14 4.066 9.948 2.05 21.7 3.829 25.7 3.2 4.646-.727 17.8-5.539 25.623-9.223l.02-.01.087-.041a9.575 9.575 0 0 1 3.663-1c1.466.087 4.73-2.6 4.83-3.311s-4.382-2.805-5.676-3.001z" class="cls-3" data-name="Path 1423" transform="translate(-1609.111 -447.161)"></path><path id="Path_1424" d="M1711.5 735.8l-4.582.931s-20.972-23.563-24.208-33.478c-1.732-5.3-12.8-7.589-24.374-10.58-10.071-2.6-20.52-5.741-25.51-11.862-10.725-13.151 6.736-29.311 6.736-29.311s18.566 11.034 34.583 22.434c11.2 7.967 21.145 16.111 22.645 20.792 3.643 11.385 11.365 33.022 14.71 41.074z" class="cls-1" data-name="Path 1424" transform="translate(-1565.359 -566.252)"></path><path id="Path_1425" d="M1897.126 958.162h2.578c.863-.135 1.5-.385 2.387-.5a2.39 2.39 0 0 1 2.087.5.329.329 0 0 1 .024.026h10.95c.276-.393.011-1.3-.248-1.975a1.558 1.558 0 0 0-1.025-.937 11.811 11.811 0 0 1-5.547-2.534c-1.179-1.066-5.7-3.919-5.7-3.919l-.024-.006c-.1 0-.571.147-2.625 1.882-1.062.895-2.872-1.264-2.872-1.264a2.576 2.576 0 0 0-.593.8 2.719 2.719 0 0 0-.235 1.681 10.9 10.9 0 0 1-.785 4.061c-.255.752-.47 1.284-.47 1.284s-.119.624 2.098.901z" class="cls-4" data-name="Path 1425" transform="translate(-1757.116 -780.838)"></path><path id="Path_1426" d="M1674.148 673.937l-15.809 18.739c-10.071-2.6-20.52-5.741-25.51-11.862-10.725-13.151 6.736-29.311 6.736-29.311s18.566 11.034 34.583 22.434z" class="cls-1" data-name="Path 1426" transform="translate(-1565.359 -566.252)"></path><path id="Path_1427" d="M1606.608 678.484s-1.275 4.019-3.349 10.066c-2.623 7.646-6.531 18.532-10.77 28.627-.931 2.218-1.88 4.4-2.833 6.5-3.525 7.769-7.134 14.429-10.311 17.813-5.709 6.084-19.587 45.2-19.587 45.2l-3.458-.957s-4.821-33.4 12.258-52.4a1.208 1.208 0 0 0 .346-.709.009.009 0 0 0 0-.007c.227-2.813 1.04-15.411 2.809-28.177.435-3.132.926-6.272 1.48-9.281.034-.193.071-.383.106-.573 2.6-13.912 5.086-20.1 8.3-23.213l23.613 6.721z" class="cls-1" data-name="Path 1427" transform="translate(-1512.186 -580.587)"></path><path id="Path_1428" d="M1551.106 1078.838h2.578c.863-.136 1.5-.386 2.387-.5a2.389 2.389 0 0 1 2.087.5.348.348 0 0 1 .024.026h10.95c.276-.394.011-1.3-.248-1.975a1.558 1.558 0 0 0-1.025-.937 11.808 11.808 0 0 1-5.547-2.533c-1.18-1.066-5.7-3.919-5.7-3.919l-.024-.006c-.1 0-.571.147-2.626 1.881-1.062.895-2.872-1.264-2.872-1.264a2.584 2.584 0 0 0-.594.805 2.723 2.723 0 0 0-.235 1.681 10.9 10.9 0 0 1-.785 4.06c-.255.751-.471 1.284-.471 1.284s-.117.619 2.101.897z" class="cls-4" data-name="Path 1428" transform="translate(-1507.377 -867.935)"></path><path id="Path_1429" d="M1448.182 529.715s-3.951 9.665-8.506 19.073c-3.832 7.91-8.089 15.637-10.789 17.286-3.806 2.325-14.292 8.884-21.094 13.777 0 0-5.308-.04-6.133.976s-2.728 5.582-2.172 6.044 4.775.248 5.8-.8a9.563 9.563 0 0 1 3.38-1.729l.092-.028.021-.006c8.266-2.543 21.23-7.84 25.156-10.432 3.379-2.231 10.87-11.458 16.846-19.671 4.332-5.953 7.867-11.373 8.457-13.2 3.871-11.97-7.262-15.117-11.058-11.29z" class="cls-5" data-name="Path 1429" transform="translate(-1399.389 -477.241)"></path><path id="Path_1430" d="M1590.46 359.7a19.92 19.92 0 0 0-1.416-1.829 4.436 4.436 0 0 0 1.744-.262c1.387-.573 2.019-4.976 1.811-6.282s-2.134-5.082-4.51-5.459-4.831 2.262-4.831 2.262c.439-1.9 4.458-3 4.458-3-8.279 1.527-7.857 7.048-7.8 7.558-7.579-2.7-12.027 11.571-12.027 11.571l19.63 11.568s.052-3.152 1.925-2.949c2.922.311 5.356-6.861 1.016-13.178z" class="cls-6" data-name="Path 1430" transform="translate(-1521.004 -345.124)"></path><path id="Path_1431" d="M1616.36 464.385c-4.5 2.123-10.481-.935-10.449-.967.386-.386.251-1.543-.1-3.055a22.254 22.254 0 0 0-2.734-6.306c-.322-.547-.643-1.094-1.03-1.673l.515-.193 8.751-3.507s1.416 2.542 2.9 4.858c1.255 1.93 2.574 3.668 3.153 3.6.023-.027 5.814 3.958-1.006 7.243z" class="cls-5" data-name="Path 1431" transform="translate(-1545.654 -419.869)"></path><path id="Path_1432" d="M1613.98 451.807c-.225 3.12-1.287 8.751-5.5 10.81a22.258 22.258 0 0 0-2.734-6.306z" class="cls-3" data-name="Path 1432" transform="translate(-1548.325 -422.122)"></path><path id="Path_1433" d="M1578.72 423.668s11.393-4.491 8.487-11.543-3.392-12.381-10.789-9.812-7.693 5.838-7.3 8.428 6.564 13.913 9.602 12.927z" class="cls-5" data-name="Path 1433" transform="translate(-1521.813 -385.927)"></path><path id="Path_1434" d="M1579.329 408.61c5.26-.743 6.8-2.869 6.8-2.869a14.571 14.571 0 0 1-7.692-6.135s-5.913-1.994-10.294 1.339a2.952 2.952 0 0 0-.554 1.236c-1-.329-2.515-.243-3.386 2.595-1.309 4.264 3.348 8.919 3.348 8.919 1.129-.319-.145-4.119-.323-6.147a9.6 9.6 0 0 1 1.109-4.309c.558.723 6.107 7.7 12.883 7.976a28.582 28.582 0 0 1-6.837-3.671 8.744 8.744 0 0 0 4.946 1.066z" class="cls-7" data-name="Path 1434" transform="translate(-1518.172 -384.019)"></path><path id="Path_1435" d="M1603.139 497.81c-.1-.34-.2-.693-.309-1.055a26.733 26.733 0 0 0 2.875-8.616 17.3 17.3 0 0 0-.547-8.43s-7.9-4.19-11.392-4.724a.2.2 0 0 0-.044-.013c-.041-.006-.088-.01-.14-.013-3.522-.486-11.148 1.071-11.148 1.071a5.518 5.518 0 0 1-2.679 6.527c-4.15 2.61-8.582-.669-8.582-.669-.134.09-.276.189-.422.292s-10.92 7.2-11.9 8.851-5.18 9.8-5.18 9.8 1.332 6.844 16.083 7.416a34.078 34.078 0 0 1 2.443 8.2c1.172 9.29-.188 16.618 1.177 22.041s25.978 2.33 30.435 1.288 3.455-5.8 3.8-10.426c.429-5.809-3.018-26.415-4.47-31.54z" class="cls-2" data-name="Path 1435" transform="translate(-1510.742 -438.764)"></path><path id="Path_1436" d="M1721.481 517.059a26.733 26.733 0 0 1-2.9 8.654c-.386-1.7-1.963-7.946-4.5-10.778a21.807 21.807 0 0 1 7.4 2.124z" class="cls-2" data-name="Path 1436" transform="translate(-1626.517 -467.684)"></path></g><g id="Group_1415" data-name="Group 1415" transform="translate(829.435 286.038)"><path id="Path_1437" d="M1380.4 721.094s4.586-5.557 5.572-6.213 5.318-1.808 5.566-1.577.259.568-.278 1.042-2.585 1.669-2.293 1.8 6.472-2.942 7.363-1.907-.5 5.306-2.886 7.353-9.489 2.921-9.936 3.207c-3.791 2.428-3.108-3.705-3.108-3.705z" class="cls-3" data-name="Path 1437" transform="translate(-1250.034 -668.131)"></path><path id="Path_1438" d="M1090.393 657.119s6.587 7.815 14.976 4.546a25.414 25.414 0 0 0 1.83-7.582c0-.4.008-.78.014-1.145.045-3.623.167-5.656.167-5.656h-.009c-.382-.159-12.824-5.267-12.813-4.843.214 9.798-4.165 14.68-4.165 14.68z" class="cls-5" data-name="Path 1438" transform="translate(-1040.758 -616.987)"></path><path id="Path_1439" d="M1109.83 650.662c1.2 2.224 5.317 6.575 11.406 8.164.045-3.623.167-5.656.167-5.656h-.009c-.344-.094-11.921-3.164-11.564-2.508z" class="cls-3" data-name="Path 1439" transform="translate(-1054.781 -622.875)"></path><path id="Path_1440" d="M1114.045 598.743s-13.993 3.29-15.907-5.455-5.01-14.211 3.843-16.681 11.325.486 12.674 3.249 2.98 17.806-.61 18.887z" class="cls-5" data-name="Path 1440" transform="translate(-1044.817 -568.824)"></path><path id="Path_1441" d="M1080.119 577.885c-.191.122-3.2 1.047-8.9-10.312a9.894 9.894 0 0 1 .582-9.049c2.087-3.409 9.484-6.088 15.631-7.255s7.622 2.292 9.07 5.769c1.519 3.649 5.908 6.653 5.908 6.653-5.3 2.961-11.684-1.274-13.9-.577s-2.993 4.182-3.159 5.3-.421 2.045-3.2 1.047-1.257 3.941-.812 4.886c-.003 0 .375 2.515-1.22 3.538z" class="cls-6" data-name="Path 1441" transform="translate(-1026.319 -551.039)"></path><g id="Group_1412" data-name="Group 1412" transform="translate(0 107.428)"><path id="Path_1442" d="M929.766 1377.3h-8.473c-1.776 0-3.749-1.8-4.244-5.1s-4.145-5.1-4.935-7.8 3.258-6.5 3.258-6.5l.676-.881.7-.919 6.711 1.6s.166 1.62.269 3.682c.072 1.489.111 3.211.027 4.721-.2 3.6 1 7.48 4.152 8.181s1.859 3.016 1.859 3.016z" class="cls-7" data-name="Path 1442" transform="translate(-912.012 -1239.512)"></path><path id="Path_1443" d="M1125.545 1399.948h-22.459a1.988 1.988 0 0 1-.477-.142c-1.5-.773-1.03-6.684-.849-8.51.035-.338.059-.536.059-.536s7.9-6.5 8.984-1.524c.035.155.074.308.116.458 1.371 4.659 7.5 6.775 11.039 7.365 2.706.456 3.407 2.078 3.587 2.889z" class="cls-7" data-name="Path 1443" transform="translate(-1048.808 -1262.077)"></path><path id="Path_1444" d="M1084.6 960.475s-1.2 14.964-2.609 32.951c-1.916 24.435-4.22 54.449-4.448 60.135-.394 9.873-1.975 25.667-1.975 25.667s-3.749 3.752-11.254 2.171a258.363 258.363 0 0 1-8.6-46.4l-.089-1.179c-1.776-24.283-4.54-75.418-4.54-75.418z" class="cls-8" data-name="Path 1444" transform="translate(-1012.393 -952.479)"></path><path id="Path_1445" d="M1084.6 960.475s-1.2 14.964-2.609 32.951l-26.27 41.574-.089-1.179c-1.776-24.283-4.54-75.418-4.54-75.418z" class="cls-9" data-name="Path 1445" transform="translate(-1012.393 -952.479)"></path><path id="Path_1446" d="M987.46 946.89s-21.619 54.194-35.833 79.662-18.657 32.576-18.657 32.576-8.144-3.258-8.885-5.479c0 0 5.436-49.168 14.955-61.153 5.379-6.772 11.7-27.1 11.994-34.2s1.925-21.174 1.925-21.174z" class="cls-8" data-name="Path 1446" transform="translate(-920.726 -937.117)"></path></g><g id="Group_1413" data-name="Group 1413" transform="translate(6.644 40.998)"><path id="Path_1447" d="M946.483 932.867s-.56 6.768-.97 7.807-3.143 4.261-3.46 4.215-.506-.3-.346-.956 1.1-2.682.8-2.63-3.427 5.759-4.672 5.438-2.464-4.379-1.723-7.244 5.773-7.366 5.965-7.828c1.634-3.915 4.406 1.198 4.406 1.198z" class="cls-3" data-name="Path 1447" transform="translate(-935.89 -865.69)"></path><path id="Path_1448" d="M957.9 767.273c2.393.768 2.776.594 2.776.594s11.646-21.2 12.826-23.145 24.728-23.778 24.728-23.778l-6.052-22.566s-26.778 34.683-29.678 39.66c-4.779 8.224-7.58 27.323-7.58 27.323a7 7 0 0 0 2.98 1.912z" class="cls-1" data-name="Path 1448" transform="translate(-949.628 -698.379)"></path></g><path id="Path_1449" d="M1067.872 716.716c-.084 4.635-.353 9.844-.716 15.135l-.067.941c-.232 3.278-.484 6.563-.773 9.767-.116 1.285-.239 2.554-.368 3.8l-.02.168c-.01.467-.067.973-.118 1.435-1.181 12-2.418 21.481-2.648 21.626a1.348 1.348 0 0 1-.921.235c-3.147-.4-12.536.319-20.224-1.354a58.27 58.27 0 0 1-17.99-7.46c-.786-.464-2.576-1.694-2.431-2.613.143-1.01.408-2.47.744-4.305a233.02 233.02 0 0 0 3.866-30.213q.2-3.591.581-7.082a107.473 107.473 0 0 1 3.135-16.914c2.636-9.49 6.509-16.758 11.368-19.6.635-.356 4.051 1.818 7.188 3.831a13.851 13.851 0 0 0 8.915 2.112l2.611 2.888c3.162 3.676 6.528 8.569 7.448 15.525q.1.771.178 1.64a102.006 102.006 0 0 1 .242 10.438z" class="cls-1" data-name="Path 1449" transform="translate(-991.097 -644.293)"></path><path id="Path_1450" d="M1132.088 770.425c-.084 4.635-.353 9.844-.716 15.135l-.067.941c-17.975-11.252-20.745-31.841-20.745-31.841 8.844.388 15.869 2.421 21.283 5.329a102.006 102.006 0 0 1 .245 10.436z" class="cls-1" data-name="Path 1450" transform="translate(-1055.313 -698.002)"></path><g id="Group_1414" data-name="Group 1414" transform="translate(53.646 45.623)"><path id="Path_1451" d="M1184.253 722.9c-.927-2.507-2.368-2.344-2.368-2.344s-26.727 6.661-29.125 6.946-28.781-10.3-28.781-10.3-10.384-4.66-15.249-.405c-4.227 3.7-4.419 8.382-3.43 12.316a11.761 11.761 0 0 0 9.94 8.762c10.763 1.371 32.238 3.951 36.739 3.325 10.021-1.4 32.721-14.5 32.721-14.5a8.412 8.412 0 0 0-.447-3.8z" class="cls-1" data-name="Path 1451" transform="translate(-1104.806 -715.002)"></path></g></g><g id="man" transform="translate(1093.879 183.872)"><g id="Group_1416" data-name="Group 1416" transform="translate(64.819 95.804)"><path id="Path_1452" d="M2302.565 915.2s3.713 3.441 2.988 5.887-4.075 4.075-4.528 7.064-2.265 4.619-3.895 4.619h-7.772s-1.2-2.1 1.7-2.737 3.991-4.146 3.81-7.406a58.328 58.328 0 0 1 .272-7.608l6.158-1.449z" class="cls-7" data-name="Path 1452" transform="translate(-2235.193 -806.335)"></path><path id="Path_1453" d="M2116.428 952.345a14.316 14.316 0 0 1-3.517.407h-17.576c.059-.523.469-2.386 3.342-2.85 3.247-.528 8.872-2.415 10.125-6.568.043-.132.078-.27.109-.407 1-4.437 8.24 1.358 8.24 1.358s.021.177.052.48c.171 1.635.597 6.894-.775 7.58z" class="cls-7" data-name="Path 1453" transform="translate(-2095.335 -826.314)"></path><path id="Path_1454" d="M2110.44 549.607s1.1 13.729 2.394 30.232c1.758 22.418 3.872 49.955 4.081 55.171.362 9.059 1.812 23.548 1.812 23.548s3.44 3.443 10.324 1.991a237.049 237.049 0 0 0 7.888-42.569l.082-1.081c1.63-22.279 4.165-69.193 4.165-69.193z" class="cls-8" data-name="Path 1454" transform="translate(-2106.237 -542.271)"></path><path id="Path_1455" d="M2110.44 549.607s1.1 13.729 2.394 30.232l24.105 38.141.082-1.081c1.63-22.279 4.165-69.193 4.165-69.193z" class="cls-9" data-name="Path 1455" transform="translate(-2106.237 -542.271)"></path><path id="Path_1456" d="M2128.5 537.142s19.834 49.721 32.875 73.086 17.117 29.887 17.117 29.887 7.472-2.989 8.151-5.027c0 0-4.987-45.109-13.721-56.105-4.935-6.214-10.732-24.86-11-31.381s-1.767-19.426-1.767-19.426z" class="cls-8" data-name="Path 1456" transform="translate(-2119.272 -528.176)"></path></g><g id="Group_1417" data-name="Group 1417" transform="translate(0 38.154)"><path id="Path_1457" d="M1875.256 460.448a59.628 59.628 0 0 0-6.286-1.168 12.965 12.965 0 0 0-4.115 1.644c-.042.256.108.466.655.5s2.349-.195 2.235.024-5.3 1.238-5.36 2.282 2.785 2.985 5.187 3.115 7.124-2.66 7.529-2.7c3.434-.293.155-3.697.155-3.697z" class="cls-5" data-name="Path 1457" transform="translate(-1862.384 -420.799)"></path><path id="Path_1458" d="M1898.785 362.007c-.771-2.458-.591-2.849-.591-2.849S1920 347.366 1922 346.17s24.534-25.179 24.534-25.179l23.083 6.354s-35.722 27.212-40.841 30.142c-8.46 4.842-28.051 7.583-28.051 7.583a7.174 7.174 0 0 1-1.94-3.063z" class="cls-1" data-name="Path 1458" transform="translate(-1888.217 -320.991)"></path></g><path id="Path_1459" d="M2048.422 251.248s-8.092 14.239-16 16.1a21.616 21.616 0 0 1 2.255-8.055c-.789-.93-1.481-1.785-2.081-2.55a47.766 47.766 0 0 1-2.938-4.113l2.685-7.217 1.822-4.9a23.517 23.517 0 0 0 2.846 4.1 19.361 19.361 0 0 0 11.411 6.635z" class="cls-5" data-name="Path 1459" transform="translate(-1983.112 -224.753)"></path><path id="Path_1460" d="M2037.009 255.248s.965 7.135-4.415 12.126a47.764 47.764 0 0 1-2.938-4.113l2.685-7.217a15.336 15.336 0 0 1 4.668-.796z" class="cls-3" data-name="Path 1460" transform="translate(-1983.112 -235.386)"></path><path id="Path_1461" d="M1995.452 227.338s12.092-4.714 9.04-12.2-3.546-13.134-11.395-10.441-8.175 6.157-7.764 8.9 6.895 14.774 10.119 13.741z" class="cls-5" data-name="Path 1461" transform="translate(-1951.04 -198.411)"></path><path id="Path_1462" d="M2095.074 347c-4.879 7.013-41.346 16.382-40.914 11.528a52.771 52.771 0 0 0-.005-9.574q-.137-1.56-.388-3.308a76.277 76.277 0 0 0-8.036-24.072q-.553-1.068-1.149-2.154a74.2 74.2 0 0 1-5.056-11.361c-2.527-7.3-3.545-14.288-2.27-18.855a.625.625 0 0 1 .02-.064c7.623-3.525 10.577-17.2 10.577-17.2s26.008 4.669 40.575 39.336c.001.008 10.89 29.624 6.646 35.724z" class="cls-1" data-name="Path 1462" transform="translate(-1988.201 -247.441)"></path><path id="Path_1463" d="M2077.564 425.14q-.137-1.56-.387-3.308a76.281 76.281 0 0 0-8.036-24.072c.842-5.109 2.006-9.357 3.283-11.269 5.187-7.774 8.208-8.989 8.208-8.989s7.779 32.804-3.068 47.638z" class="cls-1" data-name="Path 1463" transform="translate(-2011.61 -323.624)"></path><g id="Group_1418" data-name="Group 1418" transform="translate(9.959 31.323)"><path id="Path_1464" d="M1913.175 520.655s-7.194.378-8.31.78-4.619 3.2-4.58 3.534.3.546 1 .4 2.88-1.084 2.814-.769-6.216 3.45-5.915 4.781 4.564 2.753 7.627 2.058 7.994-5.886 8.491-6.076c4.207-1.605-1.127-4.708-1.127-4.708z" class="cls-1" data-name="Path 1464" transform="translate(-1898.177 -458.267)"></path><path id="Path_1465" d="M1945.219 361.559c-1.441-2.328-.4-3.391-.4-3.391s22.225-17.4 23.967-19.159 9.812-29.75 9.812-29.75 2.778-11.329 9.282-12.578c5.652-1.085 9.558 1.711 12.114 4.989a12.053 12.053 0 0 1 .817 13.555c-5.675 9.562-17.122 28.542-20.465 31.785-7.44 7.217-32.332 17.3-32.332 17.3a8.621 8.621 0 0 1-2.795-2.751z" class="cls-1" data-name="Path 1465" transform="translate(-1931.577 -296.443)"></path></g><path id="Path_1466" d="M1994.537 186.7c.084-.167.331-.346.931-.53a2.514 2.514 0 0 0-1.217-.045 3.2 3.2 0 0 0-2.713-2.25 1.908 1.908 0 0 1 1.215 1.12c-2.121-1.344-6.052-1.735-15.866 1.534-12.934 4.308-6.472 11.817-4.512 12.419s5.569-3.261 8.815-3.789 5 3.994 6.239 4.369.534-.654 1.829-1.684 2.04 1.394 2.012 3.1 2.5 3.316 2.5 3.316l1.482-2.718c1.482-2.718 1.079-12.586-.337-14.362-.125-.164-.25-.323-.378-.48z" class="cls-6" data-name="Path 1466" transform="translate(-1939.35 -183.872)"></path></g><path id="Rectangle_1681" d="M0 0H114.59V150.509H0z" class="cls-10" data-name="Rectangle 1681" transform="translate(1126.558 406.113)"></path><path id="Rectangle_1682" d="M0 0H114.592V150.509H0z" class="cls-10" data-name="Rectangle 1682" transform="translate(1091.224 406.114)"></path></g></svg> 