<?xml version="1.0" encoding="UTF-8"?> <svg xmlns="http://www.w3.org/2000/svg" width="143.191" height="210.719" viewBox="0 0 143.191 210.719"><defs><style> .cls-1{fill:#0d395a}.cls-3{fill:#00c1d5}.cls-4{fill:#fff}.cls-5{fill:#195d8f}.cls-6{fill:#3d94c1}.cls-7{fill:#e84040} </style></defs><g id="pic-app"><rect id="Rectangle_429" width="86.98" height="163.735" class="cls-1" rx="15.433" transform="translate(56.211 46.985)"></rect><g id="Group_285" transform="translate(60.522 51.043)"><path id="Path_280" fill="#e9f2f2" d="M865.353 97.408v137.555a8.478 8.478 0 0 1-8.422 8.484h-61.517a8.477 8.477 0 0 1-8.42-8.484V97.408a8.477 8.477 0 0 1 8.42-8.484h61.516a8.478 8.478 0 0 1 8.423 8.484z" transform="translate(-786.994 -88.924)"></path></g><rect id="Rectangle_430" width="33.326" height="8.214" class="cls-1" rx="4.107" transform="translate(83.039 47.944)"></rect><rect id="Rectangle_431" width="120.937" height="56.532" class="cls-1" rx="3.156" transform="translate(0 103.069)"></rect><g id="Group_303" transform="translate(64.218 64.012)"><g id="Group_287" transform="translate(1.42 .881)"><g id="Group_286"><path id="Rectangle_432" d="M0 0H69.235V32.002H0z" class="cls-3" transform="rotate(-180 34.617 16.001)"></path></g></g><g id="Group_300" transform="translate(5.37 .697)"><g id="Group_288"><path id="Rectangle_433" d="M0 0H1.149V32.475H0z" class="cls-4"></path></g><g id="Group_289" transform="translate(5.473)"><path id="Rectangle_434" d="M0 0H1.149V32.475H0z" class="cls-4"></path></g><g id="Group_290" transform="translate(10.945)"><path id="Rectangle_435" d="M0 0H1.149V32.475H0z" class="cls-4"></path></g><g id="Group_291" transform="translate(16.417)"><path id="Rectangle_436" d="M0 0H1.149V32.475H0z" class="cls-4"></path></g><g id="Group_292" transform="translate(21.89)"><path id="Rectangle_437" d="M0 0H1.149V32.475H0z" class="cls-4"></path></g><g id="Group_293" transform="translate(27.362)"><path id="Rectangle_438" d="M0 0H1.149V32.475H0z" class="cls-4"></path></g><g id="Group_294" transform="translate(32.835)"><path id="Rectangle_439" d="M0 0H1.149V32.475H0z" class="cls-4"></path></g><g id="Group_295" transform="translate(38.307)"><path id="Rectangle_440" d="M0 0H1.149V32.475H0z" class="cls-4"></path></g><g id="Group_296" transform="translate(43.779)"><path id="Rectangle_441" d="M0 0H1.149V32.475H0z" class="cls-4"></path></g><g id="Group_297" transform="translate(49.252)"><path id="Rectangle_442" d="M0 0H1.149V32.475H0z" class="cls-4"></path></g><g id="Group_298" transform="translate(54.725)"><path id="Rectangle_443" d="M0 0H1.149V32.475H0z" class="cls-4"></path></g><g id="Group_299" transform="translate(60.197)"><path id="Rectangle_444" d="M0 0H1.149V32.475H0z" class="cls-4"></path></g></g><g id="Group_301"><path id="Path_281" d="M863.647 108.189h-71.676l.319-1.8h71.675z" class="cls-3" transform="translate(-791.971 -106.392)"></path></g><g id="Group_302" transform="translate(.319 32.018)"><path id="Rectangle_445" d="M0 0H71.675V1.798H0z" class="cls-3"></path></g></g><g id="Group_304" transform="translate(99.004 36.326)"><path id="Path_282" d="M872.306 97.854l-33.479-25.075 1.711-3.678 33.479 25.074z" class="cls-1" transform="translate(-838.827 -69.101)"></path></g><g id="Group_305" transform="translate(66.292 36.326)"><path id="Path_283" d="M796.477 97.854l-1.711-3.678 31.18-25.076 1.711 3.678z" class="cls-1" transform="translate(-794.766 -69.101)"></path></g><g id="Group_306" transform="translate(90.972 18.639)"><path id="Path_284" d="M837.024 67.152a9.026 9.026 0 0 1-9.016-9.016 8.869 8.869 0 0 1 6.813-8.786v-2.045a2.028 2.028 0 1 1 4.056 0l.008 3.825a2.028 2.028 0 0 1-2.028 2.046 4.827 4.827 0 0 0-4.793 4.959 4.96 4.96 0 0 0 9.246 2.5 2.029 2.029 0 0 1 3.5 2.045 9.054 9.054 0 0 1-7.786 4.472z" class="cls-1" transform="translate(-828.008 -45.277)"></path></g><g id="Group_307" transform="translate(87.709)"><path id="Path_285" d="M845.756 20.171H826.1l-2.484 4.346 6.415 16.349h11.379l6.208-15.521z" class="cls-5" transform="translate(-823.613 -20.171)"></path></g><g id="Group_308" transform="translate(131.936 61.263)"><circle id="Ellipse_44" cx="2.296" cy="2.296" r="2.296" class="cls-1"></circle></g><g id="Group_309" transform="translate(64.087 61.263)"><circle id="Ellipse_45" cx="2.296" cy="2.296" r="2.296" class="cls-1"></circle></g><ellipse id="Ellipse_46" cx="11.714" cy="11.532" class="cls-3" rx="11.714" ry="11.532" transform="translate(7.634 108.98)"></ellipse><path id="Rectangle_446" d="M0 0H28.149V3.632H0z" class="cls-4" transform="translate(42.321 112.067)"></path><path id="Rectangle_447" d="M0 0H42.314V3.632H0z" class="cls-4" transform="translate(42.321 120.239)"></path><path id="Rectangle_448" d="M0 0H72.279V3.632H0z" class="cls-4" transform="translate(42.321 138.218)"></path><path id="Rectangle_449" d="M0 0H5.031V3.632H0z" class="cls-6" transform="translate(42.321 148.025)"></path><path id="Rectangle_450" d="M0 0H5.031V3.632H0z" class="cls-6" transform="translate(50.792 148.025)"></path><rect id="Rectangle_451" width="71.916" height="2.724" class="cls-4" rx="1.362" transform="translate(42.321 130.046)"></rect><rect id="Rectangle_452" width="48.09" height="2.724" class="cls-7" rx="1.362" transform="translate(42.321 130.046)"></rect><g id="Group_310" transform="translate(63.679 166.048)"><rect id="Rectangle_453" width="72.289" height="33.792" class="cls-5" rx="2.57"></rect><ellipse id="Ellipse_47" cx="7.002" cy="6.893" class="cls-3" rx="7.002" ry="6.893" transform="translate(4.563 3.533)"></ellipse><path id="Rectangle_454" d="M0 0H16.826V2.171H0z" class="cls-4" transform="translate(25.297 5.379)"></path><path id="Rectangle_455" d="M0 0H25.293V2.171H0z" class="cls-4" transform="translate(25.297 10.264)"></path><path id="Rectangle_456" d="M0 0H43.205V2.171H0z" class="cls-7" transform="translate(25.297 21.011)"></path><path id="Rectangle_457" d="M0 0H11.012V2.171H0z" class="cls-6" transform="translate(25.297 26.873)"></path><rect id="Rectangle_458" width="42.988" height="1.628" class="cls-4" rx=".814" transform="translate(25.297 16.126)"></rect><rect id="Rectangle_459" width="16.175" height="1.628" class="cls-3" rx=".814" transform="translate(25.297 16.126)"></rect></g></g></svg> 