<?xml version="1.0" encoding="UTF-8"?> <svg xmlns="http://www.w3.org/2000/svg" width="228.432" height="156.384" viewBox="0 0 228.432 156.384"><defs><style> .cls-1{fill:#d8f3f7}.cls-2,.cls-9{fill:none;stroke:#fff;stroke-miterlimit:10}.cls-2{stroke-width:2.138px}.cls-3{fill:#00c1d5}.cls-7{fill:#fc9}.cls-8{fill:#0d395a}.cls-9{stroke-width:2.435px} </style></defs><g id="pic-digital"><g id="Group_269" transform="translate(139.553 39.835)"><g id="Group_267" transform="translate(1.366 .335)"><path id="Rectangle_419" d="M0 0H85.853V58.2H0z" class="cls-1" transform="rotate(-180 42.926 29.1)"></path></g><g id="Group_268" transform="translate(6.976)"><path id="Line_338" d="M0 0L0 58.321" class="cls-2"></path><path id="Line_339" d="M0 0L0 58.321" class="cls-2" transform="translate(6.786)"></path><path id="Line_340" d="M0 0L0 58.321" class="cls-2" transform="translate(13.572)"></path><path id="Line_341" d="M0 0L0 58.321" class="cls-2" transform="translate(20.358)"></path><path id="Line_342" d="M0 0L0 58.321" class="cls-2" transform="translate(27.144)"></path><path id="Line_343" d="M0 0L0 58.321" class="cls-2" transform="translate(33.93)"></path><path id="Line_344" d="M0 0L0 58.321" class="cls-2" transform="translate(40.716)"></path><path id="Line_345" d="M0 0L0 58.321" class="cls-2" transform="translate(47.502)"></path><path id="Line_346" d="M0 0L0 58.321" class="cls-2" transform="translate(54.287)"></path><path id="Line_347" d="M0 0L0 58.321" class="cls-2" transform="translate(61.073)"></path><path id="Line_348" d="M0 0L0 58.321" class="cls-2" transform="translate(67.859)"></path><path id="Line_349" d="M0 0L0 58.321" class="cls-2" transform="translate(74.645)"></path></g><path id="Rectangle_420" d="M0 0H88.878V5.095H0z" class="cls-1" transform="translate(0 .387)"></path><path id="Rectangle_421" d="M0 0H88.878V5.095H0z" class="cls-1" transform="translate(0 53.571)"></path></g><g id="Group_272" transform="translate(0 39.835)"><g id="Group_270" transform="translate(1.366 .335)"><path id="Rectangle_422" d="M0 0H85.853V58.2H0z" class="cls-3" transform="rotate(-180 42.926 29.1)"></path></g><g id="Group_271" transform="translate(6.976)"><path id="Line_350" d="M0 0L0 58.321" class="cls-2"></path><path id="Line_351" d="M0 0L0 58.321" class="cls-2" transform="translate(6.786)"></path><path id="Line_352" d="M0 0L0 58.321" class="cls-2" transform="translate(13.572)"></path><path id="Line_353" d="M0 0L0 58.321" class="cls-2" transform="translate(20.358)"></path><path id="Line_354" d="M0 0L0 58.321" class="cls-2" transform="translate(27.144)"></path><path id="Line_355" d="M0 0L0 58.321" class="cls-2" transform="translate(33.93)"></path><path id="Line_356" d="M0 0L0 58.321" class="cls-2" transform="translate(40.716)"></path><path id="Line_357" d="M0 0L0 58.321" class="cls-2" transform="translate(47.502)"></path><path id="Line_358" d="M0 0L0 58.321" class="cls-2" transform="translate(54.287)"></path><path id="Line_359" d="M0 0L0 58.321" class="cls-2" transform="translate(61.073)"></path><path id="Line_360" d="M0 0L0 58.321" class="cls-2" transform="translate(67.859)"></path><path id="Line_361" d="M0 0L0 58.321" class="cls-2" transform="translate(74.645)"></path></g><path id="Rectangle_423" d="M0 0H88.878V5.095H0z" class="cls-3" transform="translate(0 .387)"></path><path id="Rectangle_424" d="M0 0H88.878V5.095H0z" class="cls-3" transform="translate(0 53.571)"></path></g><g id="Group_283" transform="translate(9.752)"><g id="Group_277" transform="translate(20.183 59.245)"><g id="Group_276"><g id="Group_273" transform="translate(82.904 6.016)"><path id="Path_273" fill="#e5b389" d="M535.345 168.161c-1.075-.462-3.845 1.458-8.633 9.028l-5.7 6.1-24.912 12.932 6.089 7.884c1.654-.812 3.324-1.635 5-2.447l20.271-13.711c6.032-10.086 11.967-18.035 7.885-19.786z" transform="translate(-496.1 -168.097)"></path></g><path id="Path_274" fill="#e8b485" d="M506.322 198.858c4.47.971-3.958 10.053-13.789 12.247s-25.5-9.718-20.945-10.106c3.924-.334 29.198-3.343 34.734-2.141z" transform="translate(-406.41 -170.247)"></path><g id="Group_274" transform="translate(85.821 4.39)"><path id="Path_275" fill="#efba89" d="M543.718 166.035c-1.138-.549-3.447.4-5.1 1.752-2.179 1.789-5.189 5.265-10.71 13.2l-27.824 13.43 6.188 8.787c1.822-.8 3.661-1.6 5.5-2.4l22.5-13.813c6.986-10.591 13.761-18.874 9.446-20.956z" transform="translate(-500.085 -165.876)"></path></g><g id="Group_275"><path id="Path_276" d="M498.033 184.022c5.52-7.931 9.734-11.864 11.913-13.654 1.652-1.357 3.961-2.3 5.1-1.752 4.316 2.082-2.46 10.367-9.442 20.952l-22.5 13.813c-10.953 4.726-21.848 9.959-29.049 9.94 0 0-23.315-1.762-35.919.2 0 0-13.311 10.728-24.995 15.2 0 0-14.578-16.59-9.026-23 1.494.109 19.6-8.766 26.411-12.115 5.056-2.468 8.979-6.293 13.213-9.9 3.972-3.4 5.784-5.386 10.652-7.1 3.938-1.368 16.441-4.064 20.3-5.65 7.2-3.008 10.224-5.686 19.838-10.643a5.878 5.878 0 0 1 3.88-.17c2.668 1.385 6.034 4.89-2.521 12.356-2.525 2.225-11.44 6.189-16.316 7.81-11.152 3.7-10 5.765-9.913 5.894 4.55 6.812 18.971 3.486 23.145 4.2z" class="cls-7" transform="translate(-382.852 -159.879)"></path></g></g></g><g id="Group_280" transform="translate(39.987)"><g id="Group_278" transform="translate(1.947)"><path id="Rectangle_425" d="M0 0H122.403V77.299H0z" class="cls-8" transform="rotate(-180 61.202 38.65)"></path></g><g id="Group_279" transform="translate(9.946 2.145)"><path id="Line_362" d="M0 0L0 74.871" class="cls-9"></path><path id="Line_363" d="M0 0L0 74.871" class="cls-9" transform="translate(9.675)"></path><path id="Line_364" d="M0 0L0 74.871" class="cls-9" transform="translate(19.35)"></path><path id="Line_365" d="M0 0L0 74.871" class="cls-9" transform="translate(29.025)"></path><path id="Line_366" d="M0 0L0 74.871" class="cls-9" transform="translate(38.7)"></path><path id="Line_367" d="M0 0L0 74.871" class="cls-9" transform="translate(48.375)"></path><path id="Line_368" d="M0 0L0 74.871" class="cls-9" transform="translate(58.05)"></path><path id="Line_369" d="M0 0L0 74.871" class="cls-9" transform="translate(67.724)"></path><path id="Line_370" d="M0 0L0 74.871" class="cls-9" transform="translate(77.399)"></path><path id="Line_371" d="M0 0L0 74.871" class="cls-9" transform="translate(87.074)"></path><path id="Line_372" d="M0 0L0 74.871" class="cls-9" transform="translate(96.749)"></path><path id="Line_373" d="M0 0L0 74.871" class="cls-9" transform="translate(106.424)"></path></g><path id="Rectangle_426" d="M0 0H126.717V6.768H0z" class="cls-8" transform="translate(0 .069)"></path><path id="Rectangle_427" d="M0 0H126.717V6.768H0z" class="cls-8" transform="translate(0 70.706)"></path></g><g id="Group_281" transform="translate(20.183 59.245)"><path id="Path_277" d="M498.033 184.022c5.52-7.931 9.734-11.864 11.913-13.654 1.652-1.357 3.961-2.3 5.1-1.752 4.316 2.082-2.46 10.367-9.442 20.952l-22.5 13.813c-10.953 4.726-21.848 9.959-29.049 9.94 0 0-23.315-1.762-35.919.2 0 0-13.311 10.728-24.995 15.2 0 0-14.578-16.59-9.026-23 1.494.109 19.6-8.766 26.411-12.115 5.056-2.468 8.979-6.293 13.213-9.9 3.972-3.4 5.784-5.386 10.652-7.1 3.938-1.368 16.441-4.064 20.3-5.65 7.2-3.008 10.224-5.686 19.838-10.643a5.878 5.878 0 0 1 3.88-.17c2.668 1.385 6.034 4.89-2.521 12.356-2.525 2.225-11.44 6.189-16.316 7.81-11.152 3.7-10 5.765-9.913 5.894 4.55 6.812 18.971 3.486 23.145 4.2z" class="cls-7" transform="translate(-382.852 -159.879)"></path></g><g id="Group_282" transform="translate(0 89.904)"><path id="Path_278" fill="#195d8f" d="M390.523 212.565l18.454 28.046 16.4-10.795-18.456-28.056z" transform="translate(-364.724 -201.76)"></path><path id="Path_279" d="M408.959 238.205l-21.031-31.965-32.646 22.127 9.17 41.074z" class="cls-8" transform="translate(-355.282 -202.96)"></path></g><path id="Rectangle_428" fill="#e84040" d="M0 0H65.722V30.514H0z" transform="translate(70.836 23.59)"></path><text id="_2.5_hr" fill="#fff" font-family="Seravek-Bold, Seravek" font-size="16px" font-weight="700" transform="translate(81.11 44.297)"><tspan x="0" y="0">2.5/hr</tspan></text></g></g></svg> 