<?xml version="1.0" encoding="UTF-8"?> <svg xmlns="http://www.w3.org/2000/svg" width="539.637" height="395.029" viewBox="0 0 539.637 395.029"><defs><style> .cls-1{fill:#0f264c}.cls-2{fill:#eea886}.cls-4{fill:#c6f4f3}.cls-5{fill:#195d8f}.cls-7{fill:#0d395a}.cls-8{fill:#fff}.cls-13,.cls-14{fill:none}.cls-13{stroke:#195d8f}.cls-11{fill:#00c1d5}.cls-12{fill:#dedede}.cls-13{stroke-linecap:round;stroke-linejoin:round;stroke-width:3px}.cls-14{stroke:#707070;opacity:.093} </style></defs><g id="pic-po" transform="translate(-715.363 -214)"><g id="Group_1236" data-name="Group 1236" transform="translate(715.363 372.24)"><g id="Group_1074" data-name="Group 1074" transform="translate(137.28)"><path id="Path_1100" d="M872.559 2152.866c-6.062-13.136-34.3-62.813-14.787-77.127 3.5-10.32 36.9-26.624 50.508-10.765 17.869 20.82 34.772 83.986 34.772 83.986l-70.493 3.906" class="cls-1" data-name="Path 1100" transform="translate(-851 -2058.355)"></path><path id="Path_1101" d="M862.426 2093.519c2.811 18 3.617 25.674 13.632 34.106 15.065 12.683 36.555 5.294 39.176-13.18 2.361-16.628-2.634-43.266-21.028-48.8-18.123-5.463-34.592 9.876-31.78 27.874z" class="cls-2" data-name="Path 1101" transform="translate(-849.638 -2057.599)"></path><path id="Path_1102" d="M863.055 2105.978c13.256-1 33.388-27.321 36.655-39.267-5.146-13.708-33.842 5.878-33.842 5.878s-18.932 2.611-2.813 33.389z" class="cls-1" data-name="Path 1102" transform="translate(-850.319 -2057.927)"></path></g><path id="Path_1103" fill="#ff8b7b" d="M914.939 2183.385l1.348.695 1.584.87c1.069.581 2.159 1.223 3.232 1.864 2.145 1.319 4.289 2.69 6.351 4.2a120.272 120.272 0 0 1 12 9.571 139.647 139.647 0 0 1 10.648 11.1c1.59 2.008 3.26 3.973 4.755 6.061l2.24 3.142.53.742s.066.058.033-.009a4.339 4.339 0 0 1-.159-1.021 4.421 4.421 0 0 1 .428-2.168 2.519 2.519 0 0 1 .767-1.069c.249-.153-.165.279-.856.635a27.96 27.96 0 0 1-6.058 2.108 124.618 124.618 0 0 1-15.432 2.587c-5.362.64-10.824 1.081-16.312 1.392-5.476.416-11.05.624-16.5.888l-.631 9.942c5.714.906 11.32 1.444 17.026 1.96 5.693.4 11.416.67 17.222.717a116.824 116.824 0 0 0 17.879-1.16 44.62 44.62 0 0 0 9.985-2.663 20.186 20.186 0 0 0 6.153-3.892 14.538 14.538 0 0 0 3.157-4.485 13.611 13.611 0 0 0 1.063-6.272 15.38 15.38 0 0 0-1.29-5.037 20.787 20.787 0 0 0-.946-1.86l-.612-1.017-2.359-3.871c-1.581-2.579-3.362-5.027-5.134-7.48a123.65 123.65 0 0 0-11.957-13.647 130.439 130.439 0 0 0-13.888-11.72c-2.46-1.783-5.03-3.429-7.653-5.029-1.329-.786-2.645-1.572-4.043-2.3l-2.127-1.083c-.76-.375-1.377-.67-2.426-1.132z" data-name="Path 1103" transform="translate(-707.356 -2045.288)"></path><path id="Path_1104" d="M951.795 2179.442l-18.508 23.09 6.833 7.4 19.542-21.315z" class="cls-4" data-name="Path 1104" transform="translate(-703.632 -2043.511)"></path><path id="Path_1105" d="M925.751 2150.226c19.285 6.2 31.438 34.16 31.438 34.16l-24.089 30.549s-25.472-35.414-24.292-46.229c1.226-11.264 5.32-22.216 16.943-18.48z" class="cls-5" data-name="Path 1105" transform="translate(-706.638 -2047.184)"></path><path id="Path_1106" d="M941.355 2153.861s8.829 1.242-10.432 116.583l-79.89-.339c1.478-32.509 1.6-52.558-13.655-119.352a235.667 235.667 0 0 1 33.944-4.325c23.269-1.022 34.872.021 36.277.155 15.574 1.488 33.756 7.278 33.756 7.278z" class="cls-5" data-name="Path 1106" transform="translate(-715.39 -2047.612)"></path><path id="Path_1107" d="M871.381 2110.006c2.24 11.682 4.432 33.078-3.767 40.832 0 0 3.141 11.854 24.83 11.946 23.848.1 11.447-11.79 11.447-11.79-13-3.164-12.626-12.819-10.32-21.879z" class="cls-2" data-name="Path 1107" transform="translate(-711.683 -2052.023)"></path><g id="Group_1075" data-name="Group 1075" transform="translate(136.566 98.239)"><path id="Union_1" fill="#eea886" stroke="rgba(0,0,0,0)" stroke-miterlimit="10" d="M-5541.715-796.788c11.8 4.8 32.5 8.752 49.81 7.1-17.307 1.649-38.009-2.307-49.81-7.1-5.46-4.193-8.239-7.606-8.214-9.269 5.676-.82 12.476-1.556 19.356-1.848 13.437-.586 24.46-.983 36.283.153 7.4.715 15.277 1.915 21.507 2.989 2.06 2.953 1.053 6.81-6.041 12.4q-1.029.356-2.1.666 1.072-.311 2.1-.666c-5.017 3.957-13.055 8.774-25.315 14.786-17.543-6.249-30.093-13.466-37.576-19.211z" data-name="Union 1" transform="translate(5549.929 808.479)"></path></g><path id="Path_1110" d="M861.438 2109.537a14.268 14.268 0 0 0 6.907 8.428c4.427 2.33 7.689-1.377 7.335-6.1-.318-4.254-3-10.594-7.87-10.969-4.793-.375-7.673 4.204-6.372 8.641z" class="cls-2" data-name="Path 1110" transform="translate(-712.478 -2053.143)"></path><path id="Path_1111" d="M857.447 2176.425c-2.267 5.843-4.724 10.9-7.37 16.183-2.618 5.223-5.537 10.283-8.615 15.266a175.651 175.651 0 0 1-21.276 28.276c-.977 1.119-2.1 2.145-3.148 3.214-1.117 1.083-2.015 2.062-3.313 3.225a33.2 33.2 0 0 1-9.49 6.178 28.023 28.023 0 0 1-11.723 2.233 31.159 31.159 0 0 1-10.935-2.455c-6.568-2.757-11.52-6.97-15.872-11.306a64.986 64.986 0 0 1-5.937-6.924 68.965 68.965 0 0 1-5.072-7.589l8.168-5.7a91.185 91.185 0 0 0 11.573 10.335 38.342 38.342 0 0 0 12.44 6.495c4.081 1.072 7.264.7 10.066-.9a18.174 18.174 0 0 0 4.218-3.417c1.592-1.756 3.464-3.793 5.1-5.77a194.931 194.931 0 0 0 18.086-26.164c2.741-4.6 5.175-9.405 7.655-14.168 2.411-4.722 4.763-9.807 6.721-14.351z" class="cls-2" data-name="Path 1111" transform="translate(-725.526 -2044.781)"></path><path id="Path_1112" d="M818.562 2185.655l21.285 18.906 4.748-8.559-20.245-19.26z" class="cls-4" data-name="Path 1112" transform="translate(-717.696 -2043.841)"></path><path id="Path_1113" d="M839.574 2150.278c-8.014 2.4-20.117 31.467-20.117 31.467l26.182 23.992s15.45-25.76 12.131-36.121c-3.456-10.787-9.05-22.077-18.196-19.338z" class="cls-5" data-name="Path 1113" transform="translate(-717.586 -2047.137)"></path><g id="Group_1078" data-name="Group 1078" transform="translate(136.237 148.413)"><g id="Group_1077" data-name="Group 1077"><path id="Path_1114" d="M861.651 2261.234h145.308c4.052 0 5.3-3.283 5.3-7.338H854.31a7.338 7.338 0 0 0 7.341 7.338z" class="cls-7" data-name="Path 1114" transform="translate(-849.551 -2182.796)"></path><path id="Path_1115" d="M853.743 2253.9h51.507c0 4.055-3.732 7.338-8.335 7.338h-43.39c-4.749-.073-4.53-7.338.218-7.338z" class="cls-7" data-name="Path 1115" transform="translate(-850.07 -2182.796)"></path><g id="Group_1076" data-name="Group 1076" transform="translate(51.942)"><path id="Path_1116" d="M902.792 2263.795h104.317a6.45 6.45 0 0 0 6.335-5.247l14.06-60.333a6.45 6.45 0 0 0-6.337-7.655H916.853a6.451 6.451 0 0 0-6.339 5.248l-14.058 60.33a6.452 6.452 0 0 0 6.336 7.657z" class="cls-7" data-name="Path 1116" transform="translate(-896.34 -2190.56)"></path></g></g></g><g id="Group_1080" data-name="Group 1080" transform="translate(0 142.328)"><path id="Path_1117" d="M764.647 2214.811s-3.2-5.587-2.3-8.481a26.07 26.07 0 0 0 .557-8.563c-.181-1.812 1.263-7.682-.941-7.358s-2.821 9.579-3.322 11.513-5.35-5.083-7.237-5.591-12.964 9.1-9.082 13.485 10.926 6.26 11.455 7.179a34.731 34.731 0 0 0 2.7 3.313z" class="cls-2" data-name="Path 1117" transform="translate(-727.143 -2184.495)"></path><g id="Group_1079" data-name="Group 1079"><path id="Path_1118" d="M754.119 2197.764s-12.775-12.562-14.333-12.621-2.2.735-1.058 1.966 11.99 12.527 11.99 12.527-17.639-12.1-18.892-12.435c-.732-.2-2.065 1.267-1.513 1.988s17.328 13.784 17.328 13.784-16.49-11.259-17.634-11.216a1.5 1.5 0 0 0-.751 2.619c1.164.927 15.861 12.308 15.861 12.308s-12.531-7.384-13.5-6.749c-.6.386-1.8 1.6 1.494 3.4s10.605 6.912 10.605 6.912z" class="cls-2" data-name="Path 1118" transform="translate(-728.711 -2185.139)"></path></g></g><g id="Group_1117" data-name="Group 1117" transform="translate(250.519 178.935)"><path id="Path_1152" d="M953.3 2224c-2.418 4.837-1.692 10.105 1.632 11.766s7.973-.913 10.392-5.749 1.692-10.105-1.632-11.766-7.974.916-10.392 5.749z" class="cls-8" data-name="Path 1152" transform="translate(-951.873 -2217.749)"></path></g></g><path id="Path_1231" fill="none" stroke="#0d395a" stroke-dasharray="11.211 11.211" stroke-miterlimit="10" stroke-width="2.654px" d="M0 0s112.52 99.35 79.355 125.312-46.249-5.246-37.407-28.486c6.735-17.7 55.448-25.461 81.078 16.813 20.073 33.108 10.647 49.346 7.465 60.717" data-name="Path 1231" transform="rotate(91 364.937 822.746)"></path><g id="Group_1239" data-name="Group 1239" transform="translate(1072.518 214)"><g id="Rectangle_1629" fill="#fff" stroke="#195d8f" stroke-width="9px" data-name="Rectangle 1629"><path stroke="none" d="M0 0H182V246H0z" transform="translate(.482 26)"></path><path fill="none" d="M4.5 4.5H177.5V241.5H4.5z" transform="translate(.482 26)"></path></g><g id="Group_1237" data-name="Group 1237" transform="translate(16.473 57.643)"><circle id="Ellipse_212" cx="11.009" cy="11.009" r="11.009" class="cls-11" data-name="Ellipse 212" transform="translate(13.651)"></circle><path id="Rectangle_1630" d="M0 0H68.697V7.046H0z" class="cls-12" data-name="Rectangle 1630" transform="translate(42.715 3.523)"></path><path id="Rectangle_1631" d="M0 0H94.238V5.284H0z" class="cls-12" data-name="Rectangle 1631" transform="translate(42.715 13.211)"></path><path id="Path_1229" d="M5556.329 1102.934l6.1 6.621 10.211-11.084" class="cls-13" data-name="Path 1229" transform="translate(-5536.572 -1096.096)"></path><path id="Path_1230" d="M0 0h148.292" class="cls-14" data-name="Path 1230" transform="translate(0 27.887)"></path></g><g id="Group_1237-2" data-name="Group 1237" transform="translate(16.033 97.156)"><circle id="Ellipse_212-2" cx="11" cy="11" r="11" class="cls-11" data-name="Ellipse 212" transform="translate(13.45 -.156)"></circle><path id="Rectangle_1630-2" d="M0 0H69V7H0z" class="cls-12" data-name="Rectangle 1630" transform="translate(42.45 3.844)"></path><path id="Rectangle_1631-2" d="M0 0H94V6H0z" class="cls-12" data-name="Rectangle 1631" transform="translate(42.45 12.844)"></path><path id="Path_1229-2" d="M5556.329 1102.934l6.1 6.621 10.211-11.084" class="cls-13" data-name="Path 1229" transform="translate(-5536.572 -1096.023)"></path><path id="Path_1230-2" d="M0 0h148.292" class="cls-14" data-name="Path 1230" transform="translate(0 27.959)"></path></g><g id="Group_1237-3" data-name="Group 1237" transform="translate(16.033 136.773)"><ellipse id="Ellipse_212-3" cx="11" cy="10.5" class="cls-11" data-name="Ellipse 212" rx="11" ry="10.5" transform="translate(13.45 .227)"></ellipse><path id="Rectangle_1630-3" d="M0 0H69V6H0z" class="cls-12" data-name="Rectangle 1630" transform="translate(42.45 4.227)"></path><path id="Rectangle_1631-3" d="M0 0H94V6H0z" class="cls-12" data-name="Rectangle 1631" transform="translate(42.45 13.227)"></path><path id="Path_1229-3" d="M5556.329 1102.934l6.1 6.621 10.211-11.084" class="cls-13" data-name="Path 1229" transform="translate(-5536.572 -1096.055)"></path><path id="Path_1230-3" d="M0 0h148.292" class="cls-14" data-name="Path 1230" transform="translate(0 27.928)"></path></g><g id="Group_1237-4" data-name="Group 1237" transform="translate(16.033 176.39)"><ellipse id="Ellipse_212-4" cx="11" cy="11.5" class="cls-11" data-name="Ellipse 212" rx="11" ry="11.5" transform="translate(13.45 -.39)"></ellipse><path id="Rectangle_1630-4" d="M0 0H69V7H0z" class="cls-12" data-name="Rectangle 1630" transform="translate(42.45 3.61)"></path><path id="Rectangle_1631-4" d="M0 0H94V5H0z" class="cls-12" data-name="Rectangle 1631" transform="translate(42.45 13.61)"></path><path id="Path_1230-4" d="M0 0h148.292" class="cls-14" data-name="Path 1230" transform="translate(0 27.896)"></path></g><g id="Group_1237-5" data-name="Group 1237" transform="translate(29.241 216.007)"><ellipse id="Ellipse_212-5" cx="11" cy="11.5" class="cls-11" data-name="Ellipse 212" rx="11" ry="11.5" transform="translate(.242 -.007)"></ellipse><path id="Rectangle_1630-5" d="M0 0H69V5H0z" class="cls-12" data-name="Rectangle 1630" transform="translate(29.242 3.993)"></path><path id="Rectangle_1631-5" d="M0 0H94V5H0z" class="cls-12" data-name="Rectangle 1631" transform="translate(29.242 12.993)"></path></g><g id="Group_1238" data-name="Group 1238" transform="translate(46.22)"><path id="Rectangle_1632" d="M0 0H89V23H0z" class="cls-11" data-name="Rectangle 1632" transform="translate(.263 15)"></path><path id="Rectangle_1633" d="M0 0H89V5H0z" class="cls-5" data-name="Rectangle 1633" transform="translate(.263 35)"></path><ellipse id="Ellipse_213" cx="12.5" cy="13" class="cls-11" data-name="Ellipse 213" rx="12.5" ry="13" transform="translate(32.263)"></ellipse><circle id="Ellipse_214" cx="6" cy="6" r="6" class="cls-8" data-name="Ellipse 214" transform="translate(38.263 8)"></circle></g></g></g></svg> 