<?xml version="1.0" encoding="UTF-8"?> <svg xmlns="http://www.w3.org/2000/svg" width="517.559" height="401.298" viewBox="0 0 517.559 401.298"><defs><style> .cls-11{fill:none}.cls-2{fill:#c5f3f2}.cls-3{fill:#b8eeeb}.cls-5{fill:#e84040}.cls-6{fill:#fff}.cls-9{fill:#00c1d5}.cls-10{fill:#195d8f}.cls-11{stroke:#fff;stroke-miterlimit:10;stroke-width:.94px}.cls-14{fill:#d8f3f7} </style></defs><g id="pic-air" transform="translate(-802.44 -316)"><path id="Path_1322" fill="none" stroke="#195d8f" stroke-dasharray="11 11" stroke-width="3px" d="M5024.252 701.412s196.528-63.25 219.189-188.01c.435-2.391.808-4.831 1.114-7.294 16.085-129.579 214.156-144.6 214.156-144.6" data-name="Path 1322" transform="rotate(5.13 3096.556 -47308.646)"></path><g id="Group_1179" data-name="Group 1179" transform="translate(829.281 438.619)"><path id="Path_1203" d="M164.117 394.512s.24-13.774 16.361-12.271c0 0 1.684-12.271 12.993-12.511a10.7 10.7 0 0 1 7.218 3.368 16.629 16.629 0 0 1 3.776-1.574 12.4 12.4 0 0 1 15.689 10.508c.016.162.025.313.025.45a20.049 20.049 0 0 1 2.735.006A10.69 10.69 0 0 1 233 393.494c-.013.261-.037.522-.07.778z" class="cls-2" data-name="Path 1203" transform="translate(-164.117 -369.73)"></path><path id="Path_1204" d="M234.358 392.225s1.13-7.342 7.625-7.625c0 0 6.283-.705 8.754 7.625z" class="cls-3" data-name="Path 1204" transform="translate(-155.858 -367.983)"></path></g><g id="Group_1180" data-name="Group 1180" transform="translate(1226.932 621.16)"><path id="Path_1205" d="M33.36 586.226s.229-11.845 15.6-10.552c0 0 1.606-10.552 12.392-10.759a10.709 10.709 0 0 1 6.885 2.9 16.774 16.774 0 0 1 3.6-1.354c6.948-1.79 14.254 2.552 14.963 9.036a3.665 3.665 0 0 1 .023.387 21.217 21.217 0 0 1 2.608.005c5.488.323 17.952 4.512 17.664 9.464q-.019.339-.068.669z" class="cls-3" data-name="Path 1205" transform="translate(-33.36 -564.914)"></path><path id="Path_1206" d="M62.719 586.354s.192-8.086 13.071-7.2c0 0 1.345-7.2 10.381-7.343a10.087 10.087 0 0 1 5.767 1.977 16.137 16.137 0 0 1 3.017-.924c5.82-1.221 11.94 1.742 12.534 6.167a2 2 0 0 1 .02.264 21.841 21.841 0 0 1 2.185 0c4.6.221 15.037 3.081 14.8 6.46a4.324 4.324 0 0 1-.056.456z" class="cls-2" data-name="Path 1206" transform="translate(-31.425 -564.46)"></path></g><path id="Path_1323" fill="none" stroke="#0d395a" stroke-linecap="round" stroke-linejoin="round" stroke-width="3px" d="M322.739 526.67s11.979 1.347 12.629 9.846c0 0 3.642-6.148 10.549-3.141" data-name="Path 1323" transform="rotate(-28 902.482 -1222.6)"></path><g id="Group_1234" data-name="Group 1234" transform="translate(1272.62 316)"><path id="Path_435" d="M173.318 90.818c0 13.085-22.926 42.032-23.69 42.032 0 0-23.69-28.947-23.69-42.032a23.69 23.69 0 0 1 47.38 0z" class="cls-5" data-name="Path 435" transform="translate(-125.938 -67.132)"></path><circle id="Ellipse_57" cx="14.519" cy="14.519" r="14.519" class="cls-6" data-name="Ellipse 57" transform="translate(9.169 7.64)"></circle></g><g id="Group_445" data-name="Group 445" transform="translate(815.211 612.282)"><path id="Path_435-2" fill="#0d395a" d="M173.318 90.818c0 13.085-22.926 42.032-23.69 42.032 0 0-23.69-28.947-23.69-42.032a23.69 23.69 0 0 1 47.38 0z" data-name="Path 435" transform="translate(-125.938 -67.132)"></path><circle id="Ellipse_57-2" cx="14.519" cy="14.519" r="14.519" class="cls-6" data-name="Ellipse 57" transform="translate(9.169 7.64)"></circle></g><g id="Group_1184" data-name="Group 1184" transform="translate(815.15 431.405)"><g id="Group_1181" data-name="Group 1181" transform="translate(0 70.585)"><path id="Path_1207" d="M139.707 493.168H407.2a80.94 80.94 0 0 0 22.15-3.081c10.567-3 27.615-8.029 46.471-14.3H98.643c3.92 11.013 21.088 17.381 41.064 17.381z" class="cls-9" data-name="Path 1207" transform="translate(-97.802 -422.727)"></path><path id="Path_1208" d="M164.885 443.784a36.981 36.981 0 0 0-26.229 9.559h24.659v13.9h-38.8c-5.92 4.644-9.869 6.084-9.869 6.084S98.135 477.9 98.135 491.9a14.532 14.532 0 0 0 .841 4.9h376.635c25.664-8.533 33.419-19.37 54.022-30.553v-22.463z" class="cls-10" data-name="Path 1208" transform="translate(-98.135 -443.737)"></path><path id="Path_1209" d="M368.767 443.765h-9.995v22.459c3.609-1.957 6.967-3.927 9.995-5.9z" class="cls-5" data-name="Path 1209" transform="translate(72.726 -443.718)"></path><path id="Path_1210" d="M152.87 449.539h-24.66a35.285 35.285 0 0 0-2.758 2.864 80.549 80.549 0 0 1-11.382 11.041h38.8z" class="cls-6" data-name="Path 1210" transform="translate(-87.689 -439.933)"></path></g><path id="Path_1211" d="M313.1 461.775s52.145 25.2 60.835 27.812 22.6-3.477 22.6-3.477l-24.457-24.323" class="cls-10" data-name="Path 1211" transform="translate(42.787 -361.327)"></path><path id="Path_1212" d="M181.865 468.376S308.4 520.529 319.18 522.685c17.382 3.477 38.674-8.624 38.674-8.624l-57.206-45.685" class="cls-10" data-name="Path 1212" transform="translate(-43.246 -356.999)"></path><g id="Group_1182" data-name="Group 1182" transform="translate(153.828 81.929)"><circle id="Ellipse_204" cx="5.649" cy="5.649" r="5.649" class="cls-6" data-name="Ellipse 204"></circle><circle id="Ellipse_205" cx="5.649" cy="5.649" r="5.649" class="cls-6" data-name="Ellipse 205" transform="translate(20.858)"></circle><circle id="Ellipse_206" cx="5.649" cy="5.649" r="5.649" class="cls-6" data-name="Ellipse 206" transform="translate(41.716)"></circle><circle id="Ellipse_207" cx="5.649" cy="5.649" r="5.649" class="cls-6" data-name="Ellipse 207" transform="translate(62.574)"></circle><circle id="Ellipse_208" cx="5.649" cy="5.649" r="5.649" class="cls-6" data-name="Ellipse 208" transform="translate(83.432)"></circle><circle id="Ellipse_209" cx="5.649" cy="5.649" r="5.649" class="cls-6" data-name="Ellipse 209" transform="translate(104.29)"></circle><circle id="Ellipse_210" cx="5.649" cy="5.649" r="5.649" class="cls-6" data-name="Ellipse 210" transform="translate(125.148)"></circle><circle id="Ellipse_211" cx="5.649" cy="5.649" r="5.649" class="cls-6" data-name="Ellipse 211" transform="translate(146.006)"></circle><circle id="Ellipse_212" cx="5.649" cy="5.649" r="5.649" class="cls-6" data-name="Ellipse 212" transform="translate(166.864)"></circle></g><path id="Rectangle_1663" d="M0 0H13.036V13.905H0z" class="cls-6" data-name="Rectangle 1663" transform="translate(68.658 80.191)"></path><g id="Group_1183" data-name="Group 1183" transform="translate(347.633)"><path id="Path_1213" d="M393.935 401.655s-22.088-6.311-41.021 23.666a105.8 105.8 0 0 1-19.277 22.2c14.286-2.978 32.8-8.207 49.7-17.2z" class="cls-10" data-name="Path 1213" transform="translate(-291.384 -401.101)"></path><path id="Path_1214" d="M350.368 435.949c-18.31 16.281-38.849 25.575-42.253 26.709h75.73l16.226-43.905c-16.9 8.99-35.417 14.218-49.703 17.196z" class="cls-10" data-name="Path 1214" transform="translate(-308.115 -389.53)"></path></g></g><g id="Group_1241" data-name="Group 1241" transform="translate(0 53.436)"><g id="Group_1236" data-name="Group 1236" transform="translate(-175.925 -14.747)"><g id="Group_1157" data-name="Group 1157" transform="translate(1068.531 593.366)"><path id="Rectangle_1638" d="M0 0H31.116V23.337H0z" class="cls-10" data-name="Rectangle 1638"></path><path id="Path_1181" d="M1092.672 651.74v5.186h-9.072v-5.186" class="cls-11" data-name="Path 1181" transform="translate(-1072.792 -651.74)"></path></g><g id="Group_1235" data-name="Group 1235" transform="translate(1068.531 615.975)"><path id="Rectangle_1638-2" d="M0 0H31.116V23.337H0z" class="cls-5" data-name="Rectangle 1638"></path><path id="Path_1181-2" fill="#e84040" stroke="#fff" stroke-miterlimit="10" stroke-width="0.94px" d="M1092.672 651.74v5.186h-9.072v-5.186" data-name="Path 1181" transform="translate(-1072.792 -651.74)"></path></g><path id="Line_1367" d="M0 0L31.116 0" class="cls-11" data-name="Line 1367" transform="translate(1068.524 616.229)"></path></g><g id="Group_1237" data-name="Group 1237" transform="translate(-143.925 -14.747)"><g id="Group_1157-2" data-name="Group 1157" transform="translate(1068.531 593.366)"><path id="Rectangle_1638-3" d="M0 0H31.116V23.337H0z" class="cls-10" data-name="Rectangle 1638"></path><path id="Path_1181-3" d="M1092.672 651.74v5.186h-9.072v-5.186" class="cls-11" data-name="Path 1181" transform="translate(-1072.792 -651.74)"></path></g><g id="Group_1235-2" data-name="Group 1235" transform="translate(1068.531 615.975)"><path id="Rectangle_1638-4" d="M0 0H31.116V23.337H0z" class="cls-10" data-name="Rectangle 1638"></path><path id="Path_1181-4" fill="#195d8f" stroke="#fff" stroke-miterlimit="10" stroke-width="0.94px" d="M1092.672 651.74v5.186h-9.072v-5.186" data-name="Path 1181" transform="translate(-1072.792 -651.74)"></path></g><path id="Line_1367-2" d="M0 0L31.116 0" class="cls-11" data-name="Line 1367" transform="translate(1068.524 616.229)"></path></g></g><g id="Group_1240" data-name="Group 1240" transform="translate(115.833 14.164)"><path id="Path_1324" d="M1155.445 2127.277s-2.438 10.885 10.083 24.281c0 0-25.991-7.535-33.526-24.281z" class="cls-9" data-name="Path 1324" transform="translate(-151.228 -1768.716)"></path><g id="Group_1238" data-name="Group 1238" transform="translate(956.123 308.157)"><rect id="Rectangle_1548" width="78.212" height="57.148" class="cls-9" data-name="Rectangle 1548" rx="4.831"></rect></g><g id="Group_1239" data-name="Group 1239" transform="translate(973.968 331.765)"><path id="Path_287" d="M189.577 89.337a4.551 4.551 0 1 0 4.551-4.552 4.551 4.551 0 0 0-4.551 4.552z" class="cls-14" data-name="Path 287" transform="translate(-155.924 -84.785)"></path><path id="Path_288" d="M157.31 89.337a4.551 4.551 0 1 0 4.551-4.552 4.551 4.551 0 0 0-4.551 4.552z" class="cls-14" data-name="Path 288" transform="translate(-140.483 -84.785)"></path><path id="Path_289" d="M125.042 89.337a4.552 4.552 0 1 0 4.552-4.552 4.551 4.551 0 0 0-4.552 4.552z" class="cls-14" data-name="Path 289" transform="translate(-125.042 -84.785)"></path></g></g></g></svg> 