<?xml version="1.0" encoding="UTF-8"?> <svg xmlns="http://www.w3.org/2000/svg" width="402.15" height="370.424" viewBox="0 0 402.15 370.424"><defs><style> .cls-4{fill:#fff}.cls-2{fill:#00c1d5}.cls-3{fill:#d8f3f7}.cls-5{fill:#0d395a}.cls-6{fill:#ffb27d}.cls-9{fill:#195d8f} </style></defs><g id="pic-career" transform="translate(-881.484 -238.8)"><g id="Group_1456" data-name="Group 1456" transform="translate(610 -961.024)"><path id="Rectangle_1687" fill="#fff" stroke="#00c1d5" stroke-width="4px" d="M0 0H117.432V140.657H0z" data-name="Rectangle 1687" transform="translate(512 1201.824)"></path><path id="Rectangle_1688" d="M0 0H31.424V31.424H0z" class="cls-2" data-name="Rectangle 1688" transform="translate(521.8 1212.689)"></path><path id="Rectangle_1689" d="M0 0H58.514V3.152H0z" class="cls-2" data-name="Rectangle 1689" transform="translate(561.715 1230.546)"></path><path id="Rectangle_1690" d="M0 0H58.514V3.152H0z" class="cls-2" data-name="Rectangle 1690" transform="translate(561.715 1235.648)"></path><path id="Rectangle_1691" d="M0 0H32.076V3.152H0z" class="cls-2" data-name="Rectangle 1691" transform="translate(561.715 1240.749)"></path><path id="Rectangle_1692" d="M0 0H98.33V37.669H0z" class="cls-3" data-name="Rectangle 1692" transform="translate(521.8 1253.19)"></path><path id="Path_1693" d="M570.357 337.225a10.866 10.866 0 1 1-3.182-7.68 10.833 10.833 0 0 1 3.182 7.68z" class="cls-2" data-name="Path 1693" transform="translate(-26.764 975.405)"></path><path id="Path_1694" d="M583.278 337.225h-10.866v-10.863a10.866 10.866 0 0 1 10.866 10.863z" class="cls-3" data-name="Path 1694" transform="translate(-39.685 975.405)"></path><path id="Rectangle_1693" d="M0 0H66.907V3.644H0z" class="cls-3" data-name="Rectangle 1693" transform="translate(553.223 1307.718)"></path><path id="Rectangle_1694" d="M0 0H66.907V3.644H0z" class="cls-3" data-name="Rectangle 1694" transform="translate(553.223 1313.897)"></path><path id="Rectangle_1695" d="M0 0H66.907V3.644H0z" class="cls-3" data-name="Rectangle 1695" transform="translate(553.223 1319.851)"></path><path id="Rectangle_1696" d="M0 0H29.301V3.644H0z" class="cls-2" data-name="Rectangle 1696" transform="translate(553.223 1307.718)"></path><path id="Rectangle_1697" d="M0 0H43.669V3.644H0z" class="cls-2" data-name="Rectangle 1697" transform="translate(553.223 1313.897)"></path><path id="Rectangle_1698" d="M0 0H29.301V3.644H0z" class="cls-2" data-name="Rectangle 1698" transform="translate(553.223 1319.851)"></path><path id="Rectangle_1699" d="M0 0H66.907V3.644H0z" class="cls-3" data-name="Rectangle 1699" transform="translate(553.223 1301.767)"></path><path id="Rectangle_1700" d="M0 0H50.136V3.644H0z" class="cls-2" data-name="Rectangle 1700" transform="translate(553.223 1301.767)"></path><path id="Path_1695" d="M574.435 153.96a4.784 4.784 0 1 0-3.831 0 7.6 7.6 0 0 0-6.8 7.555v2.891h17.435v-2.891a7.6 7.6 0 0 0-6.804-7.555z" class="cls-4" data-name="Path 1695" transform="translate(-35.008 1074.034)"></path></g><g id="Group_1455" data-name="Group 1455" transform="translate(3 -24)"><ellipse id="Ellipse_217" cx="69.806" cy="6.8" class="cls-3" data-name="Ellipse 217" rx="69.806" ry="6.8" transform="translate(918 619.623)"></ellipse><g id="Group_1424" data-name="Group 1424" transform="translate(927.133 317.836)"><path id="Path_1467" d="M350.32 1647.717s0-4.855.692-6.469 3.229-8.187 3.229-8.187h9.917s1.845 6 1.96 7.957 0 6.7 0 6.7z" class="cls-5" data-name="Path 1467" transform="translate(-316.099 -1339.13)"></path><path id="Path_1468" d="M464.947 1647.717s0-4.855-.692-6.469-3.229-8.187-3.229-8.187h-9.916s-1.845 6-1.96 7.957 0 6.7 0 6.7z" class="cls-5" data-name="Path 1468" transform="translate(-367.761 -1339.13)"></path><path id="Path_1469" d="M385.125 1086.326s-.35 10.811-1.733 15.654l-10.951 7.64 41.224 6.169-9.832-13.584s-2.968-14.495-1.411-19.857-17.297 3.978-17.297 3.978z" class="cls-6" data-name="Path 1469" transform="translate(-327.668 -1050.234)"></path><path id="Path_1470" fill="#ed985f" d="M398.908 1095.639s3.259 7.848 9.4 7.674 7.538-7.116 7.538-7.116z" data-name="Path 1470" transform="translate(-341.511 -1058.053)"></path><path id="Path_1471" d="M386.708 1048.073s-1.983-9.9-3.367-12.9-2.537-16.374 12.8-17.066c0 0 5.881.692 9.11-1.268 0 0 0 1.96-.807 2.652a10.194 10.194 0 0 1 9.455 3.344c4.151 4.613-2.767 20.757-2.421 24.562z" class="cls-5" data-name="Path 1471" transform="translate(-332.976 -1016.842)"></path><path id="Path_1472" d="M403.282 1072.851c-4.449-.079-12.638-6-12.638-13.34v-11.449c0-2.679 1.868-4.87 4.151-4.87h16.974c2.283 0 4.151 2.192 4.151 4.87v10.8c.001 7.694-7.535 14.079-12.638 13.989z" class="cls-6" data-name="Path 1472" transform="translate(-337.189 -1030.623)"></path><path id="Path_1473" d="M390.023 1051.332s.023-6.879 5.472-7.937 17.643 3.353 19.372-1.663-23.57-4.93-24.844-1.73 0 11.33 0 11.33z" class="cls-5" data-name="Path 1473" transform="translate(-336.568 -1027.78)"></path><path id="Path_1474" d="M350.725 1311.3s1.735 52.982-.859 83.213.019 72.3.019 72.3a19.619 19.619 0 0 0 17.292 0s9.864-58.4 9.8-72.3c-.067-14.8 10.736-80.9 10.736-80.9z" class="cls-5" data-name="Path 1474" transform="translate(-315.26 -1170.848)"></path><path id="Path_1475" d="M440.1 1466.716a19.609 19.609 0 0 1-17.29 0s-9.863-58.4-9.8-72.3c.028-6.251-1.882-21.656-4.1-37.361-3.034-21.486-6.638-43.54-6.638-43.54l38.423-2.4s-3.169 53.074-.574 83.3-.021 72.301-.021 72.301z" class="cls-5" data-name="Path 1475" transform="translate(-343.268 -1170.748)"></path><path id="Path_1476" fill="#e84040" d="M412.51 1222.849s-16.38 3.172-31.324 3.172a151.544 151.544 0 0 1-19.238-1.47c-6.234-.827-10.7-1.7-10.7-1.7s-3.321.291-1.36-16.082c1.491-12.461 1.024-23.711.692-35.286-.038-1.287-.01-2.81.069-4.5.637-13.5 4.719-37.791 7.828-39.095a56.958 56.958 0 0 1 12.8-2.557c0 .159 4.743 7.092 10.372 7.87 3.5-1.384 6.244-2.563 10.07-7.645a109.646 109.646 0 0 1 15.781 3.044s.588 2.574 2.809 47.227c.879 17.683 6.916 47.081 2.201 47.022z" data-name="Path 1476" transform="translate(-315.547 -1073.58)"></path><path id="Path_1477" d="M420.284 1424.6c.028-6.251-1.882-21.656-4.1-37.361 2.3-9.382 7.9-18.411 7.9-18.411 7.097 19.893-3.8 55.772-3.8 55.772z" class="cls-5" data-name="Path 1477" transform="translate(-350.547 -1200.934)"></path><path id="Path_1478" d="M298.467 1183.531c-.391.325.972 3.7 2.978 8.1 4.131 9.039 10.99 22.389 10.99 22.389a39.589 39.589 0 0 1-2.082 6.1c-11.541-9.067-18.982-16.781-23.732-22.7-6.676-8.32-8.046-13.09-8.046-13.09 25.7-52.306 43.78-54.234 43.78-54.234l-2.136 34.567s-20.561 17.879-21.752 18.868z" class="cls-2" data-name="Path 1478" transform="translate(-278.576 -1076.075)"></path><path id="Path_1479" d="M467.9 1237.343c-3.831 7.666-18.275 7.389-18.275 7.389-2.652-20.366-3.24-117.835-3.24-117.835a99.223 99.223 0 0 1 11.38 2.338c4.691 9.071 6.352 26.059 6.76 38.03a94.728 94.728 0 0 1-.187 13.12c-.366 1.911.1 11.021.8 21.413 1.091 16.212 2.762 35.545 2.762 35.545z" class="cls-2" data-name="Path 1479" transform="translate(-366.341 -1074.402)"></path><path id="Path_1480" d="M363.431 1126.338s-.968 97.734-3.619 118.1c0 0-14.441.277-18.273-7.386 0 0 5.932-60.148 5-65.042-.652-3.411 1.04-31.445 7.284-43.491a66.022 66.022 0 0 1 9.608-2.181z" class="cls-2" data-name="Path 1480" transform="translate(-311.506 -1074.109)"></path><path id="Path_1481" d="M345.661 1303.566s6.227-5.766 8.764-2.537 3 8.3 1.038 7.957-6-2.191-6.573-1.268-3.16 2.686-3.944 1.285.715-5.437.715-5.437z" class="cls-6" data-name="Path 1481" transform="translate(-313.169 -1164.961)"></path><path id="Path_1482" d="M321.259 1281.495a39.591 39.591 0 0 1-2.082 6.1c-11.541-9.067-18.982-16.781-23.732-22.7 3.581-.266 8.808-1.546 14.823-5.787 4.132 9.037 10.991 22.387 10.991 22.387z" class="cls-6" data-name="Path 1482" transform="translate(-287.399 -1143.548)"></path><path id="Path_1483" d="M510.561 1184.893s-1.37 4.77-8.046 13.09c-4.749 5.916-12.191 13.63-23.731 22.7a39.617 39.617 0 0 1-2.083-6.1s6.86-13.349 10.99-22.389c2.007-4.4 3.369-7.776 2.979-8.1-.924-.768-13.485-11.682-19.089-16.55l-2.664-2.318-1.284-34.054s17.232 1.415 42.928 53.721z" class="cls-2" data-name="Path 1483" transform="translate(-377.455 -1076.638)"></path><path id="Path_1484" d="M477.431 1303.566s-6.227-5.766-8.764-2.537-3 8.3-1.038 7.957 6-2.191 6.573-1.268 3.16 2.686 3.944 1.285-.715-5.437-.715-5.437z" class="cls-6" data-name="Path 1484" transform="translate(-376.818 -1164.961)"></path><path id="Path_1485" d="M486.641 1281.495a39.586 39.586 0 0 0 2.082 6.1c11.541-9.067 18.982-16.781 23.732-22.7-3.581-.266-8.808-1.546-14.823-5.787-4.132 9.037-10.991 22.387-10.991 22.387z" class="cls-6" data-name="Path 1485" transform="translate(-387.396 -1143.548)"></path></g><g id="Group_1402" data-name="Group 1402" transform="translate(878.484 278)"><path id="Path_1414" d="M669.232 405.38l-115.5-113.661 22.651-23.019 115.5 113.661a16.145 16.145 0 0 1 .183 22.832 16.146 16.146 0 0 1-22.834.187z" class="cls-9" data-name="Path 1414" transform="translate(-385.011 -89.503)"></path><path id="Path_1415" d="M656.713 399.789L581.7 325.973l29.36-29.832 75.008 73.817a20.93 20.93 0 0 1 .238 29.6 20.929 20.929 0 0 1-29.593.231z" class="cls-5" data-name="Path 1415" transform="translate(-379.257 -83.859)"></path><g id="Group_1401" data-name="Group 1401"><path id="Path_1416" d="M447.136 311.542a111.816 111.816 0 1 1 158.127-1.266 111.943 111.943 0 0 1-158.127 1.266zM593.091 163.23a96.27 96.27 0 1 0 1.09 136.142 96.379 96.379 0 0 0-1.09-136.142z" class="cls-9" data-name="Path 1416" transform="translate(-413.802 -120.082)"></path></g></g></g><g id="Group_1461" data-name="Group 1461" transform="translate(1016.672 192.537)"><g id="Group_1459" data-name="Group 1459" transform="translate(212.868 75.254)"><path id="Path_1696" d="M258.589 77.778a26.47 26.47 0 0 0-22.524 40.376l-5.1 10.477 10.035-4.61a26.469 26.469 0 1 0 17.593-46.243z" class="cls-9" data-name="Path 1696" transform="translate(-230.966 -77.778)"></path><g id="Group_1458" data-name="Group 1458" transform="translate(14.429 13.277)"><circle id="Ellipse_221" cx="13.194" cy="13.194" r="13.194" class="cls-9" data-name="Ellipse 221"></circle><g id="Group_1457" data-name="Group 1457" transform="translate(4.706 8.072)"><path id="Path_1697" d="M273.018 132.862l-4.077-7.7a1.38 1.38 0 0 1 .573-1.865 1.38 1.38 0 0 1 1.865.573l2.458 4.641 9.537-8.213a1.38 1.38 0 0 1 1.946.145 1.38 1.38 0 0 1-.145 1.946z" class="cls-4" data-name="Path 1697" transform="translate(-268.78 -119.966)"></path></g></g></g></g></g></svg> 