<?xml version="1.0" encoding="UTF-8"?> <svg xmlns="http://www.w3.org/2000/svg" width="1184.107" height="450.556" viewBox="0 0 1184.107 450.556"><defs><clipPath id="clip-path"><path id="Path_1274" fill="none" d="M59.124 140.365l-5.8-19.618h43.893l-4.989 19.618z" data-name="Path 1274" transform="translate(-53.322 -120.747)"></path></clipPath><style> .cls-11,.cls-13,.cls-14,.cls-16,.cls-20,.cls-26{fill:none}.cls-11,.cls-14,.cls-20,.cls-26,.cls-9{stroke-miterlimit:10}.cls-11,.cls-14,.cls-16,.cls-20,.cls-26,.cls-9{stroke:#fff}.cls-4,.cls-9{fill:#195d8f}.cls-5{fill:#0d395a}.cls-6{fill:#00c1d5}.cls-7{fill:#fff}.cls-8{fill:#e84040}.cls-9{stroke-width:2.28px}.cls-11{stroke-width:1.093px}.cls-13{stroke:#c7efcd;stroke-linejoin:round;stroke-width:.5px}.cls-13,.cls-16{stroke-linecap:round}.cls-14{stroke-width:.7px}.cls-18{fill:#8ae7e4}.cls-19{fill:#277aa9}.cls-22{fill:#ffb27d}.cls-23{fill:#353535}.cls-26{stroke-width:1.761px} </style></defs><g id="pic-whyuse-2" transform="translate(97.099 -978.066)"><g id="Group_1324" data-name="Group 1324" transform="translate(.211 1066.194)"><path id="Path_1228" fill="none" stroke="#d8f3f7" stroke-miterlimit="10" stroke-width="55.7px" d="M-28.9 481l583.358 2.578c41.511 0 75.163 28.063 75.163 62.68s-33.652 62.68-75.163 62.68H317.436c-41.511 0-75.163 28.063-75.163 62.68s33.652 62.68 75.163 62.68h740" data-name="Path 1228" transform="translate(28.9 -481)"></path></g><path id="Path_1228-2" fill="none" stroke="#fff" stroke-dasharray="20 20" stroke-miterlimit="10" stroke-width="3px" d="M-122.192 485.642h680.04c41.475 0 75.1 28.063 75.1 62.68S599.323 611 557.848 611l-235.9-2.064c-41.475 0-75.1 28.063-75.1 62.68s33.622 62.68 75.1 62.68h739.967" data-name="Path 1228" transform="translate(25.092 585.194)"></path><g id="Group_647" data-name="Group 647" transform="translate(651.796 1247.868)"><path id="Path_634" d="M840.2 765.63h25.713l10.387 18.693 19.779 7.871v20.661H840.2z" class="cls-4" data-name="Path 634" transform="translate(-724.495 -742.524)"></path><path id="Path_635" d="M840.2 827.558h169.11l2.472-6.4H840.2z" class="cls-5" data-name="Path 635" transform="translate(-840.201 -750.831)"></path><path id="Rectangle_683" d="M0 0H115.706V7.871H0z" class="cls-5" data-name="Rectangle 683" transform="translate(0 63.937)"></path><path id="Rectangle_684" d="M0 0H27.196V5.411H0z" class="cls-6" data-name="Rectangle 684" transform="translate(115.706 17.695)"></path><path id="Path_636" d="M890.8 784.858l-27.369-.155V769.81h18.995z" class="cls-7" data-name="Path 636" transform="translate(-739.066 -743.149)"></path><path id="Rectangle_685" d="M0 0H9.395V3.444H0z" class="cls-8" data-name="Rectangle 685" transform="translate(162.434 54.344)"></path><ellipse id="Ellipse_88" cx="10.116" cy="10.064" class="cls-9" data-name="Ellipse 88" rx="10.116" ry="10.064" transform="translate(10.137 69.102)"></ellipse><ellipse id="Ellipse_89" cx="10.116" cy="10.064" class="cls-9" data-name="Ellipse 89" rx="10.116" ry="10.064" transform="translate(35.355 69.102)"></ellipse><ellipse id="Ellipse_90" cx="10.116" cy="10.064" class="cls-9" data-name="Ellipse 90" rx="10.116" ry="10.064" transform="translate(132.765 69.102)"></ellipse><path id="Rectangle_686" d="M0 0H8.9V3.444H0z" class="cls-6" data-name="Rectangle 686" transform="translate(124.607 48.687)"></path><path id="Line_797" fill="none" stroke="#277aa9" stroke-miterlimit="10" stroke-width="1.093px" d="M0 0L0 43.476" data-name="Line 797" transform="translate(124.359 26.856)"></path><path id="Rectangle_687" d="M0 0H52.195V31.044H0z" class="cls-8" data-name="Rectangle 687" transform="translate(58.193 32.301)"></path><path id="Rectangle_688" d="M0 0H52.195V31.044H0z" class="cls-6" data-name="Rectangle 688" transform="translate(58.193)"></path><g id="Group_643" data-name="Group 643" transform="translate(61.208 .106)"><path id="Line_798" d="M0 0L0 30.606" class="cls-11" data-name="Line 798" transform="translate(45.956)"></path><path id="Line_799" d="M0 0L0 30.606" class="cls-11" data-name="Line 799" transform="translate(38.297)"></path><path id="Line_800" d="M0 0L0 30.606" class="cls-11" data-name="Line 800" transform="translate(30.638)"></path><path id="Line_801" d="M0 0L0 30.606" class="cls-11" data-name="Line 801" transform="translate(22.978)"></path><path id="Line_802" d="M0 0L0 30.606" class="cls-11" data-name="Line 802" transform="translate(15.319)"></path><path id="Line_803" d="M0 0L0 30.606" class="cls-11" data-name="Line 803" transform="translate(7.659)"></path><path id="Line_804" d="M0 0L0 30.606" class="cls-11" data-name="Line 804"></path></g><g id="Group_644" data-name="Group 644" transform="translate(61.208 32.919)"><path id="Line_805" d="M0 0L0 30.606" class="cls-11" data-name="Line 805" transform="translate(45.956)"></path><path id="Line_806" d="M0 0L0 30.606" class="cls-11" data-name="Line 806" transform="translate(38.297)"></path><path id="Line_807" d="M0 0L0 30.606" class="cls-11" data-name="Line 807" transform="translate(30.638)"></path><path id="Line_808" d="M0 0L0 30.606" class="cls-11" data-name="Line 808" transform="translate(22.978)"></path><path id="Line_809" d="M0 0L0 30.606" class="cls-11" data-name="Line 809" transform="translate(15.319)"></path><path id="Line_810" d="M0 0L0 30.606" class="cls-11" data-name="Line 810" transform="translate(7.659)"></path><path id="Line_811" d="M0 0L0 30.606" class="cls-11" data-name="Line 811"></path></g><path id="Rectangle_689" d="M0 0H52.195V31.044H0z" class="cls-8" data-name="Rectangle 689" transform="translate(4.339)"></path><g id="Group_645" data-name="Group 645" transform="translate(7.355 .106)"><path id="Line_812" d="M0 0L0 30.606" class="cls-11" data-name="Line 812" transform="translate(45.956)"></path><path id="Line_813" d="M0 0L0 30.606" class="cls-11" data-name="Line 813" transform="translate(38.297)"></path><path id="Line_814" d="M0 0L0 30.606" class="cls-11" data-name="Line 814" transform="translate(30.638)"></path><path id="Line_815" d="M0 0L0 30.606" class="cls-11" data-name="Line 815" transform="translate(22.978)"></path><path id="Line_816" d="M0 0L0 30.606" class="cls-11" data-name="Line 816" transform="translate(15.319)"></path><path id="Line_817" d="M0 0L0 30.606" class="cls-11" data-name="Line 817" transform="translate(7.659)"></path><path id="Line_818" d="M0 0L0 30.606" class="cls-11" data-name="Line 818"></path></g><path id="Rectangle_690" d="M0 0H52.195V31.044H0z" class="cls-5" data-name="Rectangle 690" transform="translate(4.782 32.301)"></path><g id="Group_646" data-name="Group 646" transform="translate(7.798 32.406)"><path id="Line_819" d="M0 0L0 30.606" class="cls-11" data-name="Line 819" transform="translate(45.956)"></path><path id="Line_820" d="M0 0L0 30.606" class="cls-11" data-name="Line 820" transform="translate(38.297)"></path><path id="Line_821" d="M0 0L0 30.606" class="cls-11" data-name="Line 821" transform="translate(30.638)"></path><path id="Line_822" d="M0 0L0 30.606" class="cls-11" data-name="Line 822" transform="translate(22.978)"></path><path id="Line_823" d="M0 0L0 30.606" class="cls-11" data-name="Line 823" transform="translate(15.319)"></path><path id="Line_824" d="M0 0L0 30.606" class="cls-11" data-name="Line 824" transform="translate(7.659)"></path><path id="Line_825" d="M0 0L0 30.606" class="cls-11" data-name="Line 825"></path></g></g><g id="Group_600" data-name="Group 600" transform="rotate(-9 6343.771 -794.081)"><g id="Group_597" data-name="Group 597" transform="translate(4.185 37.088)"><path id="Path_526" d="M262.37 484.156h-130.3a39.857 39.857 0 0 1-10.79-1.484c-5.148-1.446-13.452-3.866-22.637-6.886h183.73c-1.909 5.301-10.273 8.37-20.003 8.37z" class="cls-6" data-name="Path 526" transform="translate(-68.078 -450.237)"></path><path id="Path_527" d="M275.554 443.759a18.111 18.111 0 0 1 12.758 4.6h-11.994v6.7h18.873a19.9 19.9 0 0 0 4.8 2.93s8.032 2.2 8.032 8.941a6.934 6.934 0 0 1-.409 2.357h-183.2c-12.484-4.109-16.256-9.327-26.277-14.712v-10.816z" class="cls-4" data-name="Path 527" transform="translate(-93.322 -443.737)"></path><path id="Path_528" d="M358.772 443.765h4.813v10.815c-1.738-.942-3.355-1.891-4.813-2.839z" class="cls-8" data-name="Path 528" transform="translate(-358.772 -443.742)"></path><path id="Path_529" d="M114.07 449.539h11.874a17 17 0 0 1 1.328 1.379 38.787 38.787 0 0 0 5.481 5.316H114.07z" class="cls-7" data-name="Path 529" transform="translate(69.244 -444.914)"></path></g><path id="Path_530" d="M353.276 461.775s-25.109 12.136-29.293 13.392-10.881-1.674-10.881-1.674l11.777-11.712" class="cls-4" data-name="Path 530" transform="translate(-307.871 -410.339)"></path><path id="Path_531" d="M266.608 468.376s-60.929 25.113-66.12 26.151c-8.37 1.674-18.622-4.152-18.622-4.152l27.546-22" class="cls-4" data-name="Path 531" transform="translate(-115.538 -410.536)"></path><g id="Group_598" data-name="Group 598" transform="translate(57.831 41.676)"><circle id="Ellipse_74" cx="2.72" cy="2.72" r="2.72" class="cls-7" data-name="Ellipse 74" transform="translate(80.349)"></circle><circle id="Ellipse_75" cx="2.72" cy="2.72" r="2.72" class="cls-7" data-name="Ellipse 75" transform="translate(70.305)"></circle><circle id="Ellipse_76" cx="2.72" cy="2.72" r="2.72" class="cls-7" data-name="Ellipse 76" transform="translate(60.262)"></circle><circle id="Ellipse_77" cx="2.72" cy="2.72" r="2.72" class="cls-7" data-name="Ellipse 77" transform="translate(50.218)"></circle><circle id="Ellipse_78" cx="2.72" cy="2.72" r="2.72" class="cls-7" data-name="Ellipse 78" transform="translate(40.174)"></circle><circle id="Ellipse_79" cx="2.72" cy="2.72" r="2.72" class="cls-7" data-name="Ellipse 79" transform="translate(30.131)"></circle><circle id="Ellipse_80" cx="2.72" cy="2.72" r="2.72" class="cls-7" data-name="Ellipse 80" transform="translate(20.087)"></circle><circle id="Ellipse_81" cx="2.72" cy="2.72" r="2.72" class="cls-7" data-name="Ellipse 81" transform="translate(10.044)"></circle><circle id="Ellipse_82" cx="2.72" cy="2.72" r="2.72" class="cls-7" data-name="Ellipse 82"></circle></g><path id="Rectangle_629" d="M0 0H6.277V6.696H0z" class="cls-7" data-name="Rectangle 629" transform="translate(179.548 40.829)"></path><g id="Group_599" data-name="Group 599"><path id="Path_532" d="M333.637 401.368s10.636-3.039 19.753 11.4a50.944 50.944 0 0 0 9.283 10.69 92.067 92.067 0 0 1-23.933-8.28z" class="cls-4" data-name="Path 532" transform="translate(-333.637 -401.101)"></path><path id="Path_533" d="M332.048 427.033a75.433 75.433 0 0 0 20.346 12.861h-36.466l-7.813-21.141a92.065 92.065 0 0 0 23.933 8.28z" class="cls-4" data-name="Path 533" transform="translate(-303.013 -404.681)"></path></g></g><g id="Group_1334" data-name="Group 1334" transform="translate(88 18.135)"><g id="Group_1333" data-name="Group 1333" transform="translate(368 1130.212)"><path id="Rectangle_1639" d="M0 0H18.743V83.148H0z" class="cls-5" data-name="Rectangle 1639" transform="translate(14.756 60.44)"></path><path id="Path_1266" d="M102.586 175.39h-33.1l7.18 8.687h18.74z" class="cls-5" data-name="Path 1266" transform="translate(-61.906 -123.637)"></path><path id="Path_1267" d="M59.124 140.365l-5.8-19.618h43.893l-4.989 19.618z" class="cls-6" data-name="Path 1267" transform="translate(-51.548 -88.612)"></path><path id="Rectangle_1640" d="M0 0H37.968V3.113H0z" class="cls-5" data-name="Rectangle 1640" transform="translate(4.368 29.023)"></path><path id="Path_1268" d="M109.305 52.346l1.54-21.106 1.861 21.106z" class="cls-5" data-name="Path 1268" transform="translate(-87.432 -31.24)"></path><path id="Path_1269" d="M48.381 97.943h47.376l-5.04-7.917H52.749z" class="cls-4" data-name="Path 1269" transform="translate(-48.381 -68.921)"></path><g id="Group_1332" data-name="Group 1332" transform="translate(1.774 32.135)"><g id="Group_1331" clip-path="url(#clip-path)" data-name="Group 1331"><g id="Group_1330" data-name="Group 1330" transform="translate(7.204)"><g id="Group_1328" data-name="Group 1328"><path id="Line_1243" d="M0 0L3.293 19.618" class="cls-13" data-name="Line 1243"></path><path id="Line_1244" d="M0 0L1.498 19.618" class="cls-13" data-name="Line 1244" transform="translate(10.308)"></path><path id="Line_1245" d="M1.733 0L0 19.618" class="cls-13" data-name="Line 1245" transform="translate(18.523)"></path><path id="Line_1246" d="M3.887 0L0 19.618" class="cls-13" data-name="Line 1246" transform="translate(25.599)"></path></g><g id="Group_1329" data-name="Group 1329" transform="translate(.246)"><path id="Line_1247" d="M0 0L3.293 19.618" class="cls-14" data-name="Line 1247"></path><path id="Line_1248" d="M0 0L1.498 19.618" class="cls-14" data-name="Line 1248" transform="translate(10.308)"></path><path id="Line_1249" d="M1.733 0L0 19.618" class="cls-14" data-name="Line 1249" transform="translate(18.523)"></path><path id="Line_1250" d="M3.887 0L0 19.618" class="cls-14" data-name="Line 1250" transform="translate(25.6)"></path></g></g></g></g></g><g id="Path_1275" fill="#0d395a" stroke="none" data-name="Path 1275"><path d="M90.766 65.828c-3.966 0-8.833-1.005-14.468-2.169-7.404-1.529-15.796-3.262-24.83-3.262-9.034 0-17.427 1.733-24.831 3.262-5.635 1.164-10.502 2.169-14.468 2.169-3.683 0-6.158-.894-7.789-2.811-1.938-2.279-2.88-6.162-2.88-11.87 0-6.713 1.317-13.073 3.915-18.904 2.487-5.584 6.077-10.537 10.67-14.72C25.305 9.125 37.87 4.5 51.468 4.5c13.597 0 26.163 4.625 35.383 13.023 4.592 4.183 8.182 9.136 10.67 14.72 2.597 5.83 3.914 12.191 3.914 18.904 0 5.707-.942 9.59-2.88 11.869-1.631 1.918-4.106 2.811-7.789 2.812z" transform="translate(396.778 1188.96)"></path><path fill="#00c1d5" d="M51.468 6c-13.223 0-25.43 4.486-34.373 12.632-4.438 4.043-7.907 8.827-10.31 14.221C4.273 38.491 3 44.646 3 51.147c0 5.263.849 8.93 2.523 10.898 1.342 1.579 3.392 2.283 6.646 2.283 3.813 0 8.61-.991 14.164-2.138 7.475-1.543 15.948-3.293 25.135-3.293 9.188 0 17.66 1.75 25.135 3.293 5.554 1.147 10.35 2.138 14.163 2.138 3.254 0 5.303-.705 6.646-2.284 1.674-1.968 2.523-5.635 2.523-10.897 0-6.501-1.273-12.656-3.785-18.294-2.402-5.394-5.871-10.178-10.31-14.22C76.899 10.485 64.69 6 51.469 6m0-3c28.424 0 51.467 19.722 51.467 48.147 0 12.669-4.578 16.18-12.169 16.18-9.44 0-23.542-5.43-39.298-5.43-15.755 0-29.858 5.43-39.299 5.43C4.577 67.328 0 63.818 0 51.148 0 22.722 23.043 3 51.468 3z" transform="translate(396.778 1188.96)"></path></g><path id="Line_1251" d="M0 0L0 28.778" class="cls-16" data-name="Line 1251" transform="translate(417.254 1205.795)"></path><path id="Line_1251-2" d="M0 0L0 28.778" class="cls-16" data-name="Line 1251" transform="translate(432.75 1198.047)"></path><path id="Line_1251-3" d="M0 0L0 28.778" class="cls-16" data-name="Line 1251" transform="translate(448.245 1195.834)"></path><path id="Line_1251-4" d="M0 0L0 28.778" class="cls-16" data-name="Line 1251" transform="translate(463.741 1198.047)"></path><path id="Line_1251-5" d="M0 0L0 28.778" class="cls-16" data-name="Line 1251" transform="translate(479.237 1205.795)"></path><path id="Rectangle_1641" d="M0 0H113V59H0z" class="cls-4" data-name="Rectangle 1641" transform="translate(396 1214.865)"></path><text id="AIRPORT" fill="#fff" font-family="Seravek-Medium, Seravek" font-size="19px" font-weight="500" letter-spacing="0.05em" transform="translate(409 1249.865)"><tspan x="0" y="0">AIRPORT</tspan></text></g><g id="Group_616" data-name="Group 616" transform="translate(886.258 1224.381)"><path id="Path_569" d="M1411.131 695.831c6.695 0 12.123-11.864 12.123-26.5s-5.428-26.5-12.123-26.5" class="cls-6" data-name="Path 569" transform="translate(-1399.008 -642.836)"></path><path id="Path_570" d="M1410.439 642.836c-6.7 0-12.123 11.864-12.123 26.5s5.427 26.5 12.123 26.5" class="cls-6" data-name="Path 570" transform="translate(-1398.316 -642.836)"></path><path id="Path_571" d="M1412.513 699.827c-.031-4.182-.135-8.365-.242-12.549-.13-4.182-.259-8.365-.464-12.549l-.31-6.274c-.137-2.092-.243-4.183-.41-6.275-.167 2.092-.273 4.183-.41 6.275l-.31 6.274c-.205 4.183-.335 8.366-.464 12.549-.081 3.189-.162 6.378-.209 9.567q-.021 1.491-.033 2.982l-.042 6.275c.021 2.092.008 4.183.059 6.275h2.819c.05-2.092.038-4.183.059-6.275z" class="cls-4" data-name="Path 571" transform="translate(-1398.926 -643.881)"></path><path id="Path_572" d="M1410.869 672.1c1.121-.461 2.264-.873 3.394-1.312 1.146-.406 2.279-.838 3.435-1.222-1.053.612-2.128 1.176-3.19 1.765-1.077.557-2.144 1.14-3.23 1.675z" class="cls-4" data-name="Path 572" transform="translate(-1398.994 -644.28)"></path><path id="Path_573" d="M1410.869 690.223c1.121-.461 2.264-.873 3.394-1.311 1.146-.407 2.279-.839 3.435-1.223-1.053.612-2.128 1.176-3.19 1.765-1.077.557-2.144 1.141-3.23 1.675z" class="cls-4" data-name="Path 573" transform="translate(-1398.994 -645.259)"></path><path id="Path_574" d="M1411.045 680.9c1.568-.691 3.157-1.335 4.735-2 1.593-.638 3.174-1.3 4.777-1.916-1.5.842-3.017 1.636-4.524 2.454-1.523.788-3.033 1.6-4.565 2.366z" class="cls-4" data-name="Path 574" transform="translate(-1399.004 -644.68)"></path><path id="Path_575" d="M1410.513 673.006c-1.088-.535-2.153-1.118-3.231-1.675-1.062-.589-2.137-1.153-3.19-1.765 1.156.384 2.289.816 3.435 1.222 1.13.439 2.273.851 3.394 1.312z" class="cls-4" data-name="Path 575" transform="translate(-1398.628 -644.28)"></path><path id="Path_576" d="M1410.382 691.13c-1.087-.534-2.153-1.118-3.23-1.675-1.063-.589-2.138-1.153-3.19-1.765 1.155.384 2.289.816 3.434 1.223 1.131.438 2.273.85 3.394 1.311z" class="cls-4" data-name="Path 576" transform="translate(-1398.621 -645.259)"></path><path id="Path_577" d="M1410.04 681.8c-1.533-.765-3.043-1.578-4.565-2.366-1.508-.818-3.027-1.612-4.524-2.454 1.6.615 3.183 1.278 4.776 1.916 1.578.669 3.168 1.313 4.736 2z" class="cls-4" data-name="Path 577" transform="translate(-1398.458 -644.68)"></path></g><g id="Group_1359" data-name="Group 1359" transform="translate(925.258 1223.381)"><path id="Path_569-2" d="M1411.131 695.831c6.695 0 12.123-11.864 12.123-26.5s-5.428-26.5-12.123-26.5" class="cls-6" data-name="Path 569" transform="translate(-1399.008 -642.836)"></path><path id="Path_570-2" d="M1410.439 642.836c-6.7 0-12.123 11.864-12.123 26.5s5.427 26.5 12.123 26.5" class="cls-6" data-name="Path 570" transform="translate(-1398.316 -642.836)"></path><path id="Path_571-2" d="M1412.513 699.827c-.031-4.182-.135-8.365-.242-12.549-.13-4.182-.259-8.365-.464-12.549l-.31-6.274c-.137-2.092-.243-4.183-.41-6.275-.167 2.092-.273 4.183-.41 6.275l-.31 6.274c-.205 4.183-.335 8.366-.464 12.549-.081 3.189-.162 6.378-.209 9.567q-.021 1.491-.033 2.982l-.042 6.275c.021 2.092.008 4.183.059 6.275h2.819c.05-2.092.038-4.183.059-6.275z" class="cls-4" data-name="Path 571" transform="translate(-1398.926 -643.881)"></path><path id="Path_572-2" d="M1410.869 672.1c1.121-.461 2.264-.873 3.394-1.312 1.146-.406 2.279-.838 3.435-1.222-1.053.612-2.128 1.176-3.19 1.765-1.077.557-2.144 1.14-3.23 1.675z" class="cls-4" data-name="Path 572" transform="translate(-1398.994 -644.28)"></path><path id="Path_573-2" d="M1410.869 690.223c1.121-.461 2.264-.873 3.394-1.311 1.146-.407 2.279-.839 3.435-1.223-1.053.612-2.128 1.176-3.19 1.765-1.077.557-2.144 1.141-3.23 1.675z" class="cls-4" data-name="Path 573" transform="translate(-1398.994 -645.259)"></path><path id="Path_574-2" d="M1411.045 680.9c1.568-.691 3.157-1.335 4.735-2 1.593-.638 3.174-1.3 4.777-1.916-1.5.842-3.017 1.636-4.524 2.454-1.523.788-3.033 1.6-4.565 2.366z" class="cls-4" data-name="Path 574" transform="translate(-1399.004 -644.68)"></path><path id="Path_575-2" d="M1410.513 673.006c-1.088-.535-2.153-1.118-3.231-1.675-1.062-.589-2.137-1.153-3.19-1.765 1.156.384 2.289.816 3.435 1.222 1.13.439 2.273.851 3.394 1.312z" class="cls-4" data-name="Path 575" transform="translate(-1398.628 -644.28)"></path><path id="Path_576-2" d="M1410.382 691.13c-1.087-.534-2.153-1.118-3.23-1.675-1.063-.589-2.138-1.153-3.19-1.765 1.155.384 2.289.816 3.434 1.223 1.131.438 2.273.85 3.394 1.311z" class="cls-4" data-name="Path 576" transform="translate(-1398.621 -645.259)"></path><path id="Path_577-2" d="M1410.04 681.8c-1.533-.765-3.043-1.578-4.565-2.366-1.508-.818-3.027-1.612-4.524-2.454 1.6.615 3.183 1.278 4.776 1.916 1.578.669 3.168 1.313 4.736 2z" class="cls-4" data-name="Path 577" transform="translate(-1398.458 -644.68)"></path></g><g id="Group_1360" data-name="Group 1360" transform="translate(431.258 1223.381)"><path id="Path_569-3" d="M1411.131 695.831c6.695 0 12.123-11.864 12.123-26.5s-5.428-26.5-12.123-26.5" class="cls-6" data-name="Path 569" transform="translate(-1399.008 -642.836)"></path><path id="Path_570-3" d="M1410.439 642.836c-6.7 0-12.123 11.864-12.123 26.5s5.427 26.5 12.123 26.5" class="cls-6" data-name="Path 570" transform="translate(-1398.316 -642.836)"></path><path id="Path_571-3" d="M1412.513 699.827c-.031-4.182-.135-8.365-.242-12.549-.13-4.182-.259-8.365-.464-12.549l-.31-6.274c-.137-2.092-.243-4.183-.41-6.275-.167 2.092-.273 4.183-.41 6.275l-.31 6.274c-.205 4.183-.335 8.366-.464 12.549-.081 3.189-.162 6.378-.209 9.567q-.021 1.491-.033 2.982l-.042 6.275c.021 2.092.008 4.183.059 6.275h2.819c.05-2.092.038-4.183.059-6.275z" class="cls-4" data-name="Path 571" transform="translate(-1398.926 -643.881)"></path><path id="Path_572-3" d="M1410.869 672.1c1.121-.461 2.264-.873 3.394-1.312 1.146-.406 2.279-.838 3.435-1.222-1.053.612-2.128 1.176-3.19 1.765-1.077.557-2.144 1.14-3.23 1.675z" class="cls-4" data-name="Path 572" transform="translate(-1398.994 -644.28)"></path><path id="Path_573-3" d="M1410.869 690.223c1.121-.461 2.264-.873 3.394-1.311 1.146-.407 2.279-.839 3.435-1.223-1.053.612-2.128 1.176-3.19 1.765-1.077.557-2.144 1.141-3.23 1.675z" class="cls-4" data-name="Path 573" transform="translate(-1398.994 -645.259)"></path><path id="Path_574-3" d="M1411.045 680.9c1.568-.691 3.157-1.335 4.735-2 1.593-.638 3.174-1.3 4.777-1.916-1.5.842-3.017 1.636-4.524 2.454-1.523.788-3.033 1.6-4.565 2.366z" class="cls-4" data-name="Path 574" transform="translate(-1399.004 -644.68)"></path><path id="Path_575-3" d="M1410.513 673.006c-1.088-.535-2.153-1.118-3.231-1.675-1.062-.589-2.137-1.153-3.19-1.765 1.156.384 2.289.816 3.435 1.222 1.13.439 2.273.851 3.394 1.312z" class="cls-4" data-name="Path 575" transform="translate(-1398.628 -644.28)"></path><path id="Path_576-3" d="M1410.382 691.13c-1.087-.534-2.153-1.118-3.23-1.675-1.063-.589-2.138-1.153-3.19-1.765 1.155.384 2.289.816 3.434 1.223 1.131.438 2.273.85 3.394 1.311z" class="cls-4" data-name="Path 576" transform="translate(-1398.621 -645.259)"></path><path id="Path_577-3" d="M1410.04 681.8c-1.533-.765-3.043-1.578-4.565-2.366-1.508-.818-3.027-1.612-4.524-2.454 1.6.615 3.183 1.278 4.776 1.916 1.578.669 3.168 1.313 4.736 2z" class="cls-4" data-name="Path 577" transform="translate(-1398.458 -644.68)"></path></g><path id="Path_1289" d="M570.808 796.61a12.865 12.865 0 0 1-6.924-2.07 10.371 10.371 0 0 0-11.42 0 12.408 12.408 0 0 1-13.775 0 10.371 10.371 0 0 0-11.42 0 1.079 1.079 0 0 1-1.213-1.785 12.406 12.406 0 0 1 13.775 0 10.371 10.371 0 0 0 11.42 0 12.407 12.407 0 0 1 13.776 0 10.371 10.371 0 0 0 11.42 0 12.407 12.407 0 0 1 13.776 0 1.079 1.079 0 1 1-1.214 1.785 10.371 10.371 0 0 0-11.42 0 12.219 12.219 0 0 1-6.781 2.07z" class="cls-18" data-name="Path 1289" transform="translate(159.08 591.561)"></path><path id="Path_598" d="M334.741 763.28a12.865 12.865 0 0 1-6.924-2.07 10.371 10.371 0 0 0-11.42 0 12.408 12.408 0 0 1-13.776 0 10.371 10.371 0 0 0-11.42 0 1.079 1.079 0 0 1-1.213-1.785 12.406 12.406 0 0 1 13.775 0 10.371 10.371 0 0 0 11.42 0 12.407 12.407 0 0 1 13.776 0 10.371 10.371 0 0 0 11.42 0 12.407 12.407 0 0 1 13.776 0 1.079 1.079 0 0 1-1.213 1.785 10.372 10.372 0 0 0-11.421 0 12.219 12.219 0 0 1-6.78 2.07z" class="cls-18" data-name="Path 598" transform="translate(-190.17 593.361)"></path><path id="Path_1288" d="M334.741 763.28a12.865 12.865 0 0 1-6.924-2.07 10.371 10.371 0 0 0-11.42 0 12.408 12.408 0 0 1-13.776 0 10.371 10.371 0 0 0-11.42 0 1.079 1.079 0 0 1-1.213-1.785 12.406 12.406 0 0 1 13.775 0 10.371 10.371 0 0 0 11.42 0 12.407 12.407 0 0 1 13.776 0 10.371 10.371 0 0 0 11.42 0 12.407 12.407 0 0 1 13.776 0 1.079 1.079 0 0 1-1.213 1.785 10.372 10.372 0 0 0-11.421 0 12.219 12.219 0 0 1-6.78 2.07z" class="cls-18" data-name="Path 1288" transform="translate(-104.17 411.361)"></path><path id="Path_1291" d="M334.741 763.28a12.865 12.865 0 0 1-6.924-2.07 10.371 10.371 0 0 0-11.42 0 12.408 12.408 0 0 1-13.776 0 10.371 10.371 0 0 0-11.42 0 1.079 1.079 0 0 1-1.213-1.785 12.406 12.406 0 0 1 13.775 0 10.371 10.371 0 0 0 11.42 0 12.407 12.407 0 0 1 13.776 0 10.371 10.371 0 0 0 11.42 0 12.407 12.407 0 0 1 13.776 0 1.079 1.079 0 0 1-1.213 1.785 10.372 10.372 0 0 0-11.421 0 12.219 12.219 0 0 1-6.78 2.07z" class="cls-18" data-name="Path 1291" transform="translate(108.83 360.361)"></path><g id="Group_637" data-name="Group 637" transform="translate(138.319 1381.754)"><path id="Path_631" d="M330.715 811.791h49.748l4.814 8.345h121.708l-2.955 8.664H339.447z" class="cls-5" data-name="Path 631" transform="translate(-330.715 -791.335)"></path><path id="Path_632" d="M349.112 829.772l4.406 9.4h148.253l3.253-9.4z" class="cls-5" data-name="Path 632" transform="translate(-331.709 -792.306)"></path><g id="Group_636" data-name="Group 636" transform="translate(14.291)"><path id="Rectangle_663" d="M0 0H21.504V10.591H0z" class="cls-19" data-name="Rectangle 663" transform="rotate(-180 10.752 10.267)"></path><path id="Rectangle_664" d="M0 0H3.049V7.141H0z" class="cls-7" data-name="Rectangle 664" transform="rotate(-180 9.488 9.344)"></path><path id="Rectangle_665" d="M0 0H3.049V7.141H0z" class="cls-7" data-name="Rectangle 665" transform="rotate(-180 6.058 9.344)"></path><path id="Rectangle_666" d="M0 0H3.049V7.141H0z" class="cls-7" data-name="Rectangle 666" transform="rotate(-180 2.628 9.344)"></path><circle id="Ellipse_85" cx="2.667" cy="2.667" r="2.667" class="cls-7" data-name="Ellipse 85" transform="translate(1.007 25.693)"></circle><circle id="Ellipse_86" cx="2.667" cy="2.667" r="2.667" class="cls-7" data-name="Ellipse 86" transform="translate(13.078 25.693)"></circle><circle id="Ellipse_87" cx="2.667" cy="2.667" r="2.667" class="cls-7" data-name="Ellipse 87" transform="translate(25.149 25.693)"></circle><g id="Group_629" data-name="Group 629" transform="translate(101.374 14.773)"><g id="Group_627" data-name="Group 627" transform="translate(1.07 .08)"><path id="Rectangle_667" d="M0 0H55.35V13.975H0z" class="cls-8" data-name="Rectangle 667"></path></g><g id="Group_628" data-name="Group 628" transform="translate(4.679)"><path id="Line_760" d="M0 0L0 14.004" class="cls-20" data-name="Line 760" transform="translate(48.125)"></path><path id="Line_761" d="M0 0L0 14.004" class="cls-20" data-name="Line 761" transform="translate(43.75)"></path><path id="Line_762" d="M0 0L0 14.004" class="cls-20" data-name="Line 762" transform="translate(39.375)"></path><path id="Line_763" d="M0 0L0 14.004" class="cls-20" data-name="Line 763" transform="translate(35)"></path><path id="Line_764" d="M0 0L0 14.004" class="cls-20" data-name="Line 764" transform="translate(30.625)"></path><path id="Line_765" d="M0 0L0 14.004" class="cls-20" data-name="Line 765" transform="translate(26.25)"></path><path id="Line_766" d="M0 0L0 14.004" class="cls-20" data-name="Line 766" transform="translate(21.875)"></path><path id="Line_767" d="M0 0L0 14.004" class="cls-20" data-name="Line 767" transform="translate(17.5)"></path><path id="Line_768" d="M0 0L0 14.004" class="cls-20" data-name="Line 768" transform="translate(13.125)"></path><path id="Line_769" d="M0 0L0 14.004" class="cls-20" data-name="Line 769" transform="translate(8.75)"></path><path id="Line_770" d="M0 0L0 14.004" class="cls-20" data-name="Line 770" transform="translate(4.375)"></path><path id="Line_771" d="M0 0L0 14.004" class="cls-20" data-name="Line 771"></path></g><path id="Rectangle_668" d="M0 0H57.301V1.224H0z" class="cls-8" data-name="Rectangle 668" transform="rotate(-180 28.65 .658)"></path><path id="Rectangle_669" d="M0 0H57.301V1.224H0z" class="cls-8" data-name="Rectangle 669" transform="rotate(-180 28.65 7.043)"></path></g><g id="Group_632" data-name="Group 632" transform="translate(41.124 14.773)"><g id="Group_630" data-name="Group 630" transform="translate(1.07 .08)"><path id="Rectangle_670" d="M0 0H55.35V13.975H0z" class="cls-6" data-name="Rectangle 670"></path></g><g id="Group_631" data-name="Group 631" transform="translate(4.679)"><path id="Line_772" d="M0 0L0 14.004" class="cls-20" data-name="Line 772" transform="translate(48.125)"></path><path id="Line_773" d="M0 0L0 14.004" class="cls-20" data-name="Line 773" transform="translate(43.75)"></path><path id="Line_774" d="M0 0L0 14.004" class="cls-20" data-name="Line 774" transform="translate(39.375)"></path><path id="Line_775" d="M0 0L0 14.004" class="cls-20" data-name="Line 775" transform="translate(35)"></path><path id="Line_776" d="M0 0L0 14.004" class="cls-20" data-name="Line 776" transform="translate(30.625)"></path><path id="Line_777" d="M0 0L0 14.004" class="cls-20" data-name="Line 777" transform="translate(26.25)"></path><path id="Line_778" d="M0 0L0 14.004" class="cls-20" data-name="Line 778" transform="translate(21.875)"></path><path id="Line_779" d="M0 0L0 14.004" class="cls-20" data-name="Line 779" transform="translate(17.5)"></path><path id="Line_780" d="M0 0L0 14.004" class="cls-20" data-name="Line 780" transform="translate(13.125)"></path><path id="Line_781" d="M0 0L0 14.004" class="cls-20" data-name="Line 781" transform="translate(8.75)"></path><path id="Line_782" d="M0 0L0 14.004" class="cls-20" data-name="Line 782" transform="translate(4.375)"></path><path id="Line_783" d="M0 0L0 14.004" class="cls-20" data-name="Line 783"></path></g><path id="Rectangle_671" d="M0 0H57.301V1.224H0z" class="cls-6" data-name="Rectangle 671" transform="rotate(-180 28.65 .658)"></path><path id="Rectangle_672" d="M0 0H57.301V1.224H0z" class="cls-6" data-name="Rectangle 672" transform="rotate(-180 28.65 7.043)"></path></g><g id="Group_635" data-name="Group 635" transform="translate(71.917)"><g id="Group_633" data-name="Group 633" transform="translate(1.07 .08)"><path id="Rectangle_673" d="M0 0H55.35V13.975H0z" class="cls-5" data-name="Rectangle 673"></path></g><g id="Group_634" data-name="Group 634" transform="translate(4.679)"><path id="Line_784" d="M0 0L0 14.004" class="cls-20" data-name="Line 784" transform="translate(48.125)"></path><path id="Line_785" d="M0 0L0 14.004" class="cls-20" data-name="Line 785" transform="translate(43.75)"></path><path id="Line_786" d="M0 0L0 14.004" class="cls-20" data-name="Line 786" transform="translate(39.375)"></path><path id="Line_787" d="M0 0L0 14.004" class="cls-20" data-name="Line 787" transform="translate(35)"></path><path id="Line_788" d="M0 0L0 14.004" class="cls-20" data-name="Line 788" transform="translate(30.625)"></path><path id="Line_789" d="M0 0L0 14.004" class="cls-20" data-name="Line 789" transform="translate(26.25)"></path><path id="Line_790" d="M0 0L0 14.004" class="cls-20" data-name="Line 790" transform="translate(21.875)"></path><path id="Line_791" d="M0 0L0 14.004" class="cls-20" data-name="Line 791" transform="translate(17.5)"></path><path id="Line_792" d="M0 0L0 14.004" class="cls-20" data-name="Line 792" transform="translate(13.125)"></path><path id="Line_793" d="M0 0L0 14.004" class="cls-20" data-name="Line 793" transform="translate(8.75)"></path><path id="Line_794" d="M0 0L0 14.004" class="cls-20" data-name="Line 794" transform="translate(4.375)"></path><path id="Line_795" d="M0 0L0 14.004" class="cls-20" data-name="Line 795"></path></g><path id="Rectangle_674" d="M0 0H57.301V1.224H0z" class="cls-5" data-name="Rectangle 674" transform="rotate(-180 28.65 .658)"></path><path id="Rectangle_675" d="M0 0H57.301V1.224H0z" class="cls-5" data-name="Rectangle 675" transform="rotate(-180 28.65 7.043)"></path></g><path id="Rectangle_676" d="M0 0H7.705V5.038H0z" class="cls-19" data-name="Rectangle 676" transform="rotate(-180 7.171 5.104)"></path><path id="Line_796" fill="none" stroke="#00bdd0" stroke-miterlimit="10" d="M95.576 0L0 0" data-name="Line 796" transform="translate(64.132 33.028)"></path></g></g><g id="Group_988" data-name="Group 988" transform="translate(31 1017.801)"><g id="Group_985" data-name="Group 985"><g id="Group_984" data-name="Group 984" transform="translate(39.243 41.747)"><path id="Rectangle_1451" d="M0 0H2.436V47.674H0z" class="cls-5" data-name="Rectangle 1451" transform="translate(6.389 1.762)"></path><path id="Path_944" d="M1070.331 708.861h6.058a1.9 1.9 0 0 0 1.789-1.989 1.9 1.9 0 0 0-1.789-1.989h-6.058a1.9 1.9 0 0 0-1.789 1.989 1.9 1.9 0 0 0 1.789 1.989z" class="cls-4" data-name="Path 944" transform="translate(-1068.542 -704.884)"></path><path id="Path_945" d="M1047.971 743.734c.3.029 13.137 8.469 13.137 8.469v12.315h-13.359z" class="cls-5" data-name="Path 945" transform="translate(-1039.146 -718.135)"></path><g id="Group_982" data-name="Group 982" transform="translate(76.429 45.982)"><path id="Path_946" d="M950.878 778.7a3.65 3.65 0 1 0-3.629 4.035 3.848 3.848 0 0 0 3.629-4.035z" class="cls-4" data-name="Path 946" transform="translate(-943.619 -774.668)"></path><path id="Path_947" d="M950.453 779.482a2.286 2.286 0 1 0-2.273 2.527 2.41 2.41 0 0 0 2.273-2.527z" class="cls-4" data-name="Path 947" transform="translate(-944.55 -775.448)"></path></g><path id="Rectangle_1452" d="M0 0H78.823V3.627H0z" class="cls-5" data-name="Rectangle 1452" transform="translate(6.389 45.809)"></path><g id="Group_983" data-name="Group 983" transform="translate(3.041 41.194)"><path id="Path_948" d="M1071.722 773.83c0-3.55-2.589-6.428-5.782-6.428s-5.783 2.878-5.783 6.428 2.589 6.428 5.783 6.428 5.782-2.878 5.782-6.428z" class="cls-4" data-name="Path 948" transform="translate(-1060.156 -767.402)"></path><path id="Path_949" d="M1071.045 775.074a3.642 3.642 0 1 0-3.622 4.026 3.841 3.841 0 0 0 3.622-4.026z" class="cls-4" data-name="Path 949" transform="translate(-1061.64 -768.645)"></path></g></g><path id="Path_950" d="M1074.47 701.4s2.786 1.231 2.933 1.806.148 2.789-.59 2.789-1.513-1.887-1.845-1.928-1.254-.287-1.365-.738.867-1.929.867-1.929z" class="cls-22" data-name="Path 950" transform="translate(-1031.596 -661.948)"></path><path id="Path_951" d="M1099.507 691.1c.4-.932.008-1.286.008-1.286s-8.135-5.59-8.787-6.175-4.417-10.727-4.417-10.727-1.359-4.125-3.6-4.323a3.974 3.974 0 0 0-3.892 2.372 4.957 4.957 0 0 0 .232 5.107c2.269 3.343 6.833 9.971 8.08 11.046 2.775 2.393 11.534 5.132 11.534 5.132a3.167 3.167 0 0 0 .842-1.146z" class="cls-6" data-name="Path 951" transform="translate(-1056.547 -650.753)"></path><path id="Path_952" d="M1114.386 783.428h-7.8a.7.7 0 0 1-.165-.053c-.52-.29-.358-2.506-.3-3.19.012-.127.021-.2.021-.2s2.742-2.437 3.119-.571c.012.058.026.115.04.171.476 1.746 2.6 2.539 3.833 2.761a1.394 1.394 0 0 1 1.252 1.082z" class="cls-23" data-name="Path 952" transform="translate(-1087.743 -688.317)"></path><path id="Path_953" d="M1103.7 660.856s1.855 3.362 4.9 2.6a10.42 10.42 0 0 0 1.023-2.787c.021-.151.043-.3.064-.436.2-1.38.352-2.149.352-2.149-.123-.083-4.129-2.752-4.147-2.589-.437 3.751-2.192 5.361-2.192 5.361z" class="cls-22" data-name="Path 953" transform="translate(-1082.001 -646.289)"></path><path id="Path_954" fill="#ed975d" d="M1103.7 656.946a7.193 7.193 0 0 0 3.49 3.775c.2-1.38.352-2.149.352-2.149-.117-.056-3.931-1.897-3.842-1.626z" data-name="Path 954" transform="translate(-1079.502 -646.777)"></path><path id="Path_955" d="M1105.334 654.661s-4.974.446-5.177-3-.98-5.712 2.187-6.143 3.863.84 4.182 1.973.098 6.965-1.192 7.17z" class="cls-22" data-name="Path 955" transform="translate(-1076.381 -642.859)"></path><path id="Path_956" d="M1099.309 651.265c-.072.036-1.154.214-2.52-4.45a4.156 4.156 0 0 1 .671-3.419c.893-1.18 3.572-1.775 5.743-1.865s2.5 1.316 2.814 2.726a7.313 7.313 0 0 0 1.682 2.88c-1.974.823-3.945-1.162-4.74-1.024s-1.245 1.423-1.36 1.84-.251.756-1.154.215-.637 1.431-.533 1.817c-.001.001-.002.983-.603 1.28z" class="cls-23" data-name="Path 956" transform="translate(-1075.492 -641.528)"></path><path id="Path_957" d="M1146.609 781.69h-2.941c-.617 0-1.3-.687-1.474-1.943s-1.439-1.943-1.714-2.972 1.131-2.477 1.131-2.477l.235-.335.244-.35 2.33.61s.057.617.094 1.4c.025.567.039 1.223.01 1.8-.069 1.372.346 2.849 1.442 3.116s.643 1.151.643 1.151z" class="cls-23" data-name="Path 957" transform="translate(-1140.444 -686.579)"></path><path id="Path_958" d="M1120.34 709.6s-.416 5.775-.906 12.718c-.665 9.431-1.465 21.014-1.544 23.208-.137 3.811-.686 9.906-.686 9.906a4.015 4.015 0 0 1-3.907.838 109.6 109.6 0 0 1-2.985-17.907l-.031-.455c-.617-9.372-1.576-29.107-1.576-29.107z" class="cls-23" data-name="Path 958" transform="translate(-1095.269 -664.472)"></path><path id="Path_959" fill="#1c1c1c" d="M1121.407 710.739s.82 2.078-.679 8.839c-1.1 4.961-7.247 18.782-7.247 18.782l-.031-.455c-.617-9.372-1.576-29.107-1.576-29.107z" data-name="Path 959" transform="translate(-1098.437 -664.472)"></path><path id="Path_960" d="M1133.676 708.031s-7.856 21.986-12.792 31.815-6.478 12.572-6.478 12.572-2.828-1.257-3.084-2.115c0 0 1.887-18.976 5.192-23.6 1.868-2.613 4.062-10.458 4.164-13.2s.669-8.172.669-8.172z" class="cls-23" data-name="Path 960" transform="translate(-1110.156 -663.289)"></path><path id="Path_961" d="M1113.072 694.1c-1.06-.333-11.866-5.04-11.655-5.721.732-2.368 1.489-6.368 2.393-11.232q.255-1.358.567-2.669a44.72 44.72 0 0 1 1.956-6.273c1.4-3.469 3.669-5.822 5.485-6.626.236-.1.733.732 1.7 1.682a3.9 3.9 0 0 0 2.864.933l.833 1.641a14.5 14.5 0 0 1 1.325 5.044s-5.373 23.249-5.468 23.221z" class="cls-6" data-name="Path 961" transform="translate(-1089.153 -648.364)"></path><path id="Path_962" d="M1119.616 675.5l-3.234-.387-8.006 10.8a4.052 4.052 0 0 1-4.753 1.479l-2.209 7.64L1115 699.9z" class="cls-23" data-name="Path 962" transform="translate(-1090.223 -652.981)"></path><path id="Path_963" d="M1106.716 665.7c-.471-.99-2.083-3.831-2.083-3.831l.563-.291c.32.045 2.022 2.87 2.552 3.929.638 1.275 2.267 5.264 2.267 5.264l-1.326-.28s-1.419-3.623-1.973-4.791z" class="cls-23" data-name="Path 963" transform="translate(-1082.53 -648.368)"></path><path id="Path_964" d="M1080.307 703.126s2.785 1.231 2.933 1.8.148 2.79-.59 2.79-1.513-1.887-1.845-1.928-1.255-.287-1.366-.739.868-1.923.868-1.923z" class="cls-22" data-name="Path 964" transform="translate(-1040.893 -662.538)"></path><path id="Path_965" d="M1105.5 693.417c.4-.931.009-1.286.009-1.286s-8.135-5.59-8.787-6.175-4.417-10.728-4.417-10.728-1.359-4.125-3.6-4.322a3.973 3.973 0 0 0-3.893 2.371 4.96 4.96 0 0 0 .232 5.107c2.269 3.343 6.833 9.972 8.08 11.047 2.775 2.392 11.535 5.132 11.535 5.132a3.177 3.177 0 0 0 .841-1.146z" class="cls-6" data-name="Path 965" transform="translate(-1066.098 -651.543)"></path></g><g id="Group_986" data-name="Group 986" transform="translate(61.8 47.718)"><path id="Rectangle_1453" d="M0 0H58.326V38.76H0z" class="cls-8" data-name="Rectangle 1453"></path></g><g id="Group_987" data-name="Group 987" transform="translate(65.17 47.85)"><path id="Line_1134" d="M0 0L0 38.214" class="cls-26" data-name="Line 1134" transform="translate(51.355)"></path><path id="Line_1135" d="M0 0L0 38.214" class="cls-26" data-name="Line 1135" transform="translate(42.796)"></path><path id="Line_1136" d="M0 0L0 38.214" class="cls-26" data-name="Line 1136" transform="translate(34.237)"></path><path id="Line_1137" d="M0 0L0 38.214" class="cls-26" data-name="Line 1137" transform="translate(25.678)"></path><path id="Line_1138" d="M0 0L0 38.214" class="cls-26" data-name="Line 1138" transform="translate(17.118)"></path><path id="Line_1139" d="M0 0L0 38.214" class="cls-26" data-name="Line 1139" transform="translate(8.559)"></path><path id="Line_1140" d="M0 0L0 38.214" class="cls-26" data-name="Line 1140"></path></g></g></g></svg> 