<?xml version="1.0" encoding="UTF-8"?> <svg xmlns="http://www.w3.org/2000/svg" width="915" height="570" viewBox="0 0 915 570"><defs><clipPath id="clip-path"><path id="Rectangle_1832" fill="#fff" stroke="#707070" d="M0 0H915V570H0z" transform="translate(526 1670)"></path></clipPath><style> .cls-13{fill:#fff}.cls-3{fill:#195d8f}.cls-4{fill:#277aaa}.cls-5{fill:#d8f3f7}.cls-10,.cls-14,.cls-15,.cls-6{fill:none;stroke-miterlimit:10;stroke:#fff}.cls-6{stroke-width:.867px}.cls-7{fill:#00c1d5}.cls-8{fill:#0d395a}.cls-9{fill:#e84040}.cls-10{stroke-width:.488px}.cls-14{stroke-width:1.761px}.cls-15{stroke-width:.489px}.cls-16{fill:#ffb27d}.cls-17{fill:#ed975d}.cls-18{fill:#353535}.cls-21{fill:#d3eded}.cls-22{fill:#c6f4f3} </style></defs><g id="pic-land" clip-path="url(#clip-path)" transform="translate(-526 -1670)"><g id="Group_1311"><g id="Group_993" transform="translate(-53.37 1367.686)"><g id="Group_953" transform="translate(1059.242 349.315)"><path id="Rectangle_1430" d="M0 0H12.483V162.817H0z" class="cls-3"></path><path id="Rectangle_1431" d="M0 0H12.117V162.817H0z" class="cls-3" transform="translate(147.722)"></path><path id="Rectangle_1432" d="M0 0H147.356V3.819H0z" class="cls-4" transform="translate(12.483)"></path><path id="Rectangle_1433" d="M0 0H147.356V4.237H0z" class="cls-4" transform="translate(12.483 77.171)"></path><path id="Rectangle_1434" d="M0 0H147.356V5.046H0z" class="cls-4" transform="translate(12.483 141.895)"></path><g id="Group_940" transform="translate(12.343 46.176)"><g id="Group_938"><path id="Rectangle_1435" d="M0 0H51.324V30.683H0z" class="cls-5"></path></g><g id="Group_939" transform="translate(3.169 .104)"><path id="Line_1057" d="M0 0L0 30.25" class="cls-6"></path><path id="Line_1058" d="M0 0L0 30.25" class="cls-6" transform="translate(7.532)"></path><path id="Line_1059" d="M0 0L0 30.25" class="cls-6" transform="translate(15.063)"></path><path id="Line_1060" d="M0 0L0 30.25" class="cls-6" transform="translate(22.595)"></path><path id="Line_1061" d="M0 0L0 30.25" class="cls-6" transform="translate(30.126)"></path><path id="Line_1062" d="M0 0L0 30.25" class="cls-6" transform="translate(37.658)"></path><path id="Line_1063" d="M0 0L0 30.25" class="cls-6" transform="translate(45.189)"></path></g></g><g id="Group_943" transform="translate(66.662 46.176)"><g id="Group_941"><path id="Rectangle_1436" d="M0 0H51.324V30.683H0z" class="cls-7"></path></g><g id="Group_942" transform="translate(3.169 .104)"><path id="Line_1064" d="M0 0L0 30.25" class="cls-6"></path><path id="Line_1065" d="M0 0L0 30.25" class="cls-6" transform="translate(7.532)"></path><path id="Line_1066" d="M0 0L0 30.25" class="cls-6" transform="translate(15.063)"></path><path id="Line_1067" d="M0 0L0 30.25" class="cls-6" transform="translate(22.595)"></path><path id="Line_1068" d="M0 0L0 30.25" class="cls-6" transform="translate(30.126)"></path><path id="Line_1069" d="M0 0L0 30.25" class="cls-6" transform="translate(37.658)"></path><path id="Line_1070" d="M0 0L0 30.25" class="cls-6" transform="translate(45.189)"></path></g></g><g id="Group_946" transform="translate(41.638 110.091)"><g id="Group_944"><path id="Rectangle_1437" d="M0 0H51.324V30.683H0z" class="cls-5"></path></g><g id="Group_945" transform="translate(3.169 .104)"><path id="Line_1071" d="M0 0L0 30.25" class="cls-6"></path><path id="Line_1072" d="M0 0L0 30.25" class="cls-6" transform="translate(7.532)"></path><path id="Line_1073" d="M0 0L0 30.25" class="cls-6" transform="translate(15.063)"></path><path id="Line_1074" d="M0 0L0 30.25" class="cls-6" transform="translate(22.595)"></path><path id="Line_1075" d="M0 0L0 30.25" class="cls-6" transform="translate(30.126)"></path><path id="Line_1076" d="M0 0L0 30.25" class="cls-6" transform="translate(37.658)"></path><path id="Line_1077" d="M0 0L0 30.25" class="cls-6" transform="translate(45.189)"></path></g></g><g id="Group_949" transform="translate(95.957 110.091)"><g id="Group_947"><path id="Rectangle_1438" d="M0 0H51.324V30.683H0z" class="cls-8"></path></g><g id="Group_948" transform="translate(3.169 .104)"><path id="Line_1078" d="M0 0L0 30.25" class="cls-6"></path><path id="Line_1079" d="M0 0L0 30.25" class="cls-6" transform="translate(7.532)"></path><path id="Line_1080" d="M0 0L0 30.25" class="cls-6" transform="translate(15.063)"></path><path id="Line_1081" d="M0 0L0 30.25" class="cls-6" transform="translate(22.595)"></path><path id="Line_1082" d="M0 0L0 30.25" class="cls-6" transform="translate(30.126)"></path><path id="Line_1083" d="M0 0L0 30.25" class="cls-6" transform="translate(37.658)"></path><path id="Line_1084" d="M0 0L0 30.25" class="cls-6" transform="translate(45.189)"></path></g></g><g id="Group_952" transform="translate(50.058 29.127)"><g id="Group_950"><path id="Rectangle_1439" d="M0 0H28.888V17.27H0z" class="cls-9"></path></g><g id="Group_951" transform="translate(1.784 .059)"><path id="Line_1085" d="M0 0L0 17.026" class="cls-10"></path><path id="Line_1086" d="M0 0L0 17.026" class="cls-10" transform="translate(4.239)"></path><path id="Line_1087" d="M0 0L0 17.026" class="cls-10" transform="translate(8.478)"></path><path id="Line_1088" d="M0 0L0 17.026" class="cls-10" transform="translate(12.718)"></path><path id="Line_1089" d="M0 0L0 17.026" class="cls-10" transform="translate(16.957)"></path><path id="Line_1090" d="M0 0L0 17.026" class="cls-10" transform="translate(21.196)"></path><path id="Line_1091" d="M0 0L0 17.026" class="cls-10" transform="translate(25.435)"></path></g></g></g><path id="Path_921" fill="none" stroke="#d8f3f7" stroke-miterlimit="10" stroke-width="55.772px" d="M1468.7 545h-183.2a65.759 65.759 0 0 0-65.759 65.759v87.38a65.759 65.759 0 0 1-65.759 65.758h-125.649" transform="translate(25.606 11.627)"></path><path id="Path_922" fill="none" stroke="#fff" stroke-dasharray="20 20" stroke-miterlimit="10" stroke-width="3px" d="M1466.353 545H1283.68a65.759 65.759 0 0 0-65.759 65.759v87.38a65.759 65.759 0 0 1-65.759 65.758h-93.3" transform="translate(27.42 11.627)"></path><g id="Group_976" transform="translate(631.939 601.065)"><g id="Group_954" transform="translate(.494 46.384)"><path id="Path_923" d="M742.058 630.729h-51.352l-20.738 37.526-39.5 15.8v41.477h111.59z" class="cls-3" transform="translate(-630.466 -630.729)"></path></g><g id="Group_955" transform="translate(.494 141.188)"><path id="Path_924" d="M1073.867 733.054H636.855l-6.389-12.838h443.4z" class="cls-8" transform="translate(-630.466 -720.216)"></path></g><g id="Group_956" transform="translate(113.358 128.35)"><path id="Rectangle_1440" d="M0 0H330.538V15.801H0z" class="cls-8" transform="rotate(-180 165.269 7.9)"></path></g><g id="Group_957" transform="translate(57.771 35.521)"><path id="Rectangle_1441" d="M0 0H54.315V10.863H0z" class="cls-7" transform="rotate(-180 27.157 5.431)"></path></g><g id="Group_958" transform="translate(40.143 53.52)"><path id="Path_925" d="M667.892 667.673l54.661-.312v-29.9h-37.936z" class="cls-13" transform="translate(-667.892 -637.465)"></path></g><g id="Group_959" transform="translate(0 109.093)"><path id="Rectangle_1442" d="M0 0H18.763V6.913H0z" class="cls-9" transform="rotate(-180 9.382 3.456)"></path></g><g id="Group_960" transform="translate(118.117 135.92)"><circle id="Ellipse_142" cx="20.203" cy="20.203" r="20.203" class="cls-3" transform="translate(2.798 2.799)"></circle><path id="Path_926" d="M764.5 761.247a23 23 0 1 1 23-23 23.028 23.028 0 0 1-23 23zm0-40.406a17.4 17.4 0 1 0 17.4 17.405 17.425 17.425 0 0 0-17.4-17.405z" class="cls-13" transform="translate(-741.493 -715.244)"></path></g><g id="Group_961" transform="translate(400.494 135.92)"><circle id="Ellipse_143" cx="20.203" cy="20.203" r="20.203" class="cls-3" transform="translate(2.798 2.799)"></circle><path id="Path_927" d="M1031.035 761.247a23 23 0 1 1 23-23 23.028 23.028 0 0 1-23 23zm0-40.406a17.4 17.4 0 1 0 17.4 17.405 17.425 17.425 0 0 0-17.4-17.405z" class="cls-13" transform="translate(-1008.033 -715.244)"></path></g><g id="Group_962" transform="translate(350.129 135.92)"><circle id="Ellipse_144" cx="20.203" cy="20.203" r="20.203" class="cls-3" transform="translate(2.798 2.799)"></circle><path id="Path_928" d="M983.5 761.247a23 23 0 1 1 23-23 23.028 23.028 0 0 1-23 23zm0-40.406a17.4 17.4 0 1 0 17.405 17.405 17.425 17.425 0 0 0-17.405-17.405z" class="cls-13" transform="translate(-960.493 -715.244)"></path></g><g id="Group_963" transform="translate(34.81 135.92)"><circle id="Ellipse_145" cx="20.203" cy="20.203" r="20.203" class="cls-3" transform="translate(2.799 2.799)"></circle><path id="Path_929" d="M685.86 761.247a23 23 0 1 1 23-23 23.028 23.028 0 0 1-23 23zm0-40.406a17.4 17.4 0 1 0 17.405 17.405 17.425 17.425 0 0 0-17.405-17.405z" class="cls-13" transform="translate(-662.858 -715.244)"></path></g><g id="Group_964" transform="translate(76.534 97.736)"><path id="Rectangle_1443" d="M0 0H17.776V6.913H0z" class="cls-7" transform="rotate(-180 8.888 3.456)"></path></g><g id="Group_965" transform="translate(93.87 53.913)"><path id="Rectangle_1444" d="M0 0H1.866V87.275H0z" class="cls-4"></path></g><g id="Group_966" transform="translate(122.707 64.842)"><path id="Rectangle_1445" d="M0 0H104.242V62.318H0z" class="cls-9"></path></g><g id="Group_967" transform="translate(122.707)"><path id="Rectangle_1446" d="M0 0H104.242V62.318H0z" class="cls-7"></path></g><g id="Group_968" transform="translate(129.144 .212)"><path id="Line_1092" d="M0 0L0 61.44" class="cls-14"></path><path id="Line_1093" d="M0 0L0 61.44" class="cls-14" transform="translate(15.297)"></path><path id="Line_1094" d="M0 0L0 61.44" class="cls-14" transform="translate(30.594)"></path><path id="Line_1095" d="M0 0L0 61.44" class="cls-14" transform="translate(45.891)"></path><path id="Line_1096" d="M0 0L0 61.44" class="cls-14" transform="translate(61.188)"></path><path id="Line_1097" d="M0 0L0 61.44" class="cls-14" transform="translate(76.485)"></path><path id="Line_1098" d="M0 0L0 61.44" class="cls-14" transform="translate(91.782)"></path></g><g id="Group_969" transform="translate(129.144 66.083)"><path id="Line_1099" d="M0 0L0 61.44" class="cls-14"></path><path id="Line_1100" d="M0 0L0 61.44" class="cls-14" transform="translate(15.297)"></path><path id="Line_1101" d="M0 0L0 61.44" class="cls-14" transform="translate(30.594)"></path><path id="Line_1102" d="M0 0L0 61.44" class="cls-14" transform="translate(45.891)"></path><path id="Line_1103" d="M0 0L0 61.44" class="cls-14" transform="translate(61.188)"></path><path id="Line_1104" d="M0 0L0 61.44" class="cls-14" transform="translate(76.485)"></path><path id="Line_1105" d="M0 0L0 61.44" class="cls-14" transform="translate(91.782)"></path></g><g id="Group_970" transform="translate(230.262)"><path id="Rectangle_1447" d="M0 0H104.242V62.318H0z" class="cls-9"></path></g><g id="Group_971" transform="translate(236.699 .212)"><path id="Line_1106" d="M0 0L0 61.44" class="cls-14"></path><path id="Line_1107" d="M0 0L0 61.44" class="cls-14" transform="translate(15.297)"></path><path id="Line_1108" d="M0 0L0 61.44" class="cls-14" transform="translate(30.594)"></path><path id="Line_1109" d="M0 0L0 61.44" class="cls-14" transform="translate(45.891)"></path><path id="Line_1110" d="M0 0L0 61.44" class="cls-14" transform="translate(61.188)"></path><path id="Line_1111" d="M0 0L0 61.44" class="cls-14" transform="translate(76.485)"></path><path id="Line_1112" d="M0 0L0 61.44" class="cls-14" transform="translate(91.782)"></path></g><g id="Group_972" transform="translate(229.378 64.842)"><path id="Rectangle_1448" d="M0 0H104.242V62.318H0z" class="cls-8"></path></g><g id="Group_973" transform="translate(235.814 65.054)"><path id="Line_1113" d="M0 0L0 61.44" class="cls-14"></path><path id="Line_1114" d="M0 0L0 61.44" class="cls-14" transform="translate(15.297)"></path><path id="Line_1115" d="M0 0L0 61.44" class="cls-14" transform="translate(30.594)"></path><path id="Line_1116" d="M0 0L0 61.44" class="cls-14" transform="translate(45.891)"></path><path id="Line_1117" d="M0 0L0 61.44" class="cls-14" transform="translate(61.188)"></path><path id="Line_1118" d="M0 0L0 61.44" class="cls-14" transform="translate(76.485)"></path><path id="Line_1119" d="M0 0L0 61.44" class="cls-14" transform="translate(91.782)"></path></g><g id="Group_974" transform="translate(335.319 64.842)"><path id="Rectangle_1449" d="M0 0H104.242V62.318H0z" class="cls-3"></path></g><g id="Group_975" transform="translate(341.756 65.054)"><path id="Line_1120" d="M0 0L0 61.44" class="cls-14"></path><path id="Line_1121" d="M0 0L0 61.44" class="cls-14" transform="translate(15.297)"></path><path id="Line_1122" d="M0 0L0 61.44" class="cls-14" transform="translate(30.594)"></path><path id="Line_1123" d="M0 0L0 61.44" class="cls-14" transform="translate(45.891)"></path><path id="Line_1124" d="M0 0L0 61.44" class="cls-14" transform="translate(61.188)"></path><path id="Line_1125" d="M0 0L0 61.44" class="cls-14" transform="translate(76.485)"></path><path id="Line_1126" d="M0 0L0 61.44" class="cls-14" transform="translate(91.782)"></path></g></g><g id="Group_981" transform="translate(1046.291 421.089)"><g id="Group_979" transform="translate(39.373 27.65)"><g id="Group_977"><path id="Rectangle_1450" d="M0 0H28.916V17.287H0z" class="cls-8" transform="rotate(-180 14.458 8.643)"></path></g><g id="Group_978" transform="translate(1.671 .059)"><path id="Line_1127" d="M0 0L0 17.043" class="cls-15" transform="translate(25.46)"></path><path id="Line_1128" d="M0 0L0 17.043" class="cls-15" transform="translate(21.217)"></path><path id="Line_1129" d="M0 0L0 17.043" class="cls-15" transform="translate(16.973)"></path><path id="Line_1130" d="M0 0L0 17.043" class="cls-15" transform="translate(12.73)"></path><path id="Line_1131" d="M0 0L0 17.043" class="cls-15" transform="translate(8.487)"></path><path id="Line_1132" d="M0 0L0 17.043" class="cls-15" transform="translate(4.243)"></path><path id="Line_1133" d="M0 0L0 17.043" class="cls-15"></path></g></g><g id="Group_980"><path id="Path_930" d="M1072.816 459.734c.63-.41 2.059-1.309 2.124-1.094a.937.937 0 0 1-.216.675 6.021 6.021 0 0 1 3.724.012 1.515 1.515 0 0 1 .969.693.669.669 0 0 1-.273 1.034c-1.056.6-.743.229-2.212 1.108s-3.234 1.049-4.259.353l-1.4-.289-.085-2.322s.812-.066 1.628-.17z" class="cls-16" transform="translate(-1018.139 -414.595)"></path><path id="Path_931" d="M1038.354 437.534s3.99 3.261 7.843.861a12.817 12.817 0 0 0 .2-3.926l-.1-.569c-.315-1.8-.443-2.818-.443-2.818-.2-.043-6.844-1.419-6.8-1.21 1.015 4.835-.7 7.662-.7 7.662z" class="cls-16" transform="translate(-1020.09 -416.304)"></path><path id="Path_932" d="M1039.8 430.861a9.812 9.812 0 0 0 6.41 2.985c-.315-1.8-.443-2.818-.443-2.818-.179-.014-6.201-.46-5.967-.167z" class="cls-17" transform="translate(-1020.004 -416.25)"></path><path id="Path_933" d="M1047.209 431.221s-6.628 2.93-8.388-1.225-3.8-6.576.354-8.623 5.657-.811 6.582.432 3.131 8.548 1.452 9.416z" class="cls-16" transform="translate(-1020.186 -416.872)"></path><path id="Path_934" d="M1039.487 431.324c-.084.078-1.49.816-5.37-4.282a4.987 4.987 0 0 1-.553-4.537c.717-1.883 4.135-3.9 7.072-5.047s3.99.428 5.03 2.016a9.457 9.457 0 0 0 3.545 2.747c-2.351 1.96-5.907.454-6.939 1.005s-1.094 2.35-1.072 2.919-.019 1.053-1.49.817-.257 2.07.052 2.5c-.001-.004.42 1.207-.275 1.862z" class="cls-8" transform="translate(-1020.393 -417.064)"></path><path id="Path_935" d="M1030.065 535.592h-4.272c-.9 0-1.89-.9-2.14-2.538s-2.089-2.537-2.487-3.881 1.642-3.235 1.642-3.235l.341-.439.355-.457 3.384.8s.084.805.136 1.832a23.462 23.462 0 0 1 .014 2.349c-.1 1.791.5 3.721 2.093 4.069s.934 1.5.934 1.5z" class="cls-18" transform="translate(-1021.114 -410.648)"></path><path id="Path_936" d="M1058.309 535.346h-11.322a1 1 0 0 1-.24-.07c-.756-.378-.519-3.273-.428-4.167.017-.165.03-.263.03-.263s3.981-3.184 4.529-.746c.017.076.037.15.058.225.691 2.281 3.781 3.317 5.565 3.606a1.944 1.944 0 0 1 1.808 1.415z" class="cls-18" transform="translate(-1019.623 -410.402)"></path><path id="Path_937" d="M1056.423 473.43s-.6 7.543-1.316 16.612c-.965 12.318-2.127 27.448-2.242 30.315-.2 4.977-1 12.94-1 12.94s-1.89 1.891-5.673 1.093a130.238 130.238 0 0 1-4.329-23.39l-.045-.594c-.9-12.242-2.288-38.02-2.288-38.02z" class="cls-18" transform="translate(-1020.02 -413.777)"></path><path id="Path_938" fill="#1d1e1e" d="M1054.171 472.926s.391 4.707-1.786 13.538c-1.6 6.48-10.522 24.534-10.522 24.534l-.045-.594c-.9-12.242-2.288-38.02-2.288-38.02z" transform="translate(-1020.02 -413.777)"></path><path id="Path_939" d="M1055.17 473.094s-11.407 28.72-18.574 41.559-9.406 16.422-9.406 16.422-4.105-1.642-4.478-2.762c0 0 2.741-24.787 7.539-30.829 2.712-3.414 5.9-13.66 6.046-17.243s.971-10.675.971-10.675z" class="cls-18" transform="translate(-1021.019 -413.944)"></path><path id="Path_940" d="M1055.043 474.6c-1.6.1-18.436-.54-18.44-1.481a145.394 145.394 0 0 0-1.553-15q-.235-1.8-.37-3.564a54.143 54.143 0 0 1-.019-8.671c.425-4.947 2.526-8.936 4.669-10.8.282-.235 1.319.552 3.061 1.259 1.608.652 2.882.184 4.328-.219l1.848 1.626a17.442 17.442 0 0 1 3.989 5.586s2.629 31.257 2.487 31.264z" class="cls-7" transform="translate(-1020.319 -415.995)"></path><path id="Path_941" d="M1052.485 442.88l-4.6 1.069-6.33 17.143a6.268 6.268 0 0 1-5.88 4.1l.555 8.463 20.422 1.531z" class="cls-18" transform="translate(-1020.249 -415.53)"></path><path id="Path_942" d="M1074.446 462.009c.145-1.339-.541-1.589-.541-1.589s-13.557-3-14.7-3.412-10.673-11.119-10.673-11.119-3.637-4.437-6.789-3.61a5.857 5.857 0 0 0-4.316 4.786 5.927 5.927 0 0 0 2.516 6.188c4.548 3.038 13.658 9.029 15.83 9.759 4.834 1.622 18.022.812 18.022.812a4.243 4.243 0 0 0 .651-1.815z" class="cls-7" transform="translate(-1020.153 -415.572)"></path><path id="Path_943" d="M1042.953 439.446c-1.071-.995-4.5-3.728-4.5-3.728l.646-.627c.458-.1 4.007 2.573 5.189 3.625 1.423 1.267 5.373 5.407 5.373 5.407l-1.938.288s-3.51-3.793-4.77-4.965z" class="cls-18" transform="translate(-1020.084 -415.993)"></path></g></g><g id="Group_988" transform="translate(961.468 658.89)"><g id="Group_985"><g id="Group_984" transform="translate(0 67.12)"><path id="Rectangle_1451" d="M0 0H4.353V76.651H0z" class="cls-8" transform="translate(136.52 2.833)"></path><path id="Path_944" d="M1082.567 711.279h-10.827a3.2 3.2 0 0 1-3.2-3.2 3.2 3.2 0 0 1 3.2-3.2h10.827a3.2 3.2 0 0 1 3.2 3.2 3.2 3.2 0 0 1-3.2 3.2z" class="cls-3" transform="translate(-933.473 -704.884)"></path><path id="Path_945" d="M1071.228 743.734c-.528.047-23.479 13.617-23.479 13.617v19.8h23.875z" class="cls-8" transform="translate(-934.708 -702.576)"></path><g id="Group_982" transform="translate(2.724 73.93)"><path id="Path_946" d="M943.619 781.154a6.486 6.486 0 1 1 6.486 6.487 6.486 6.486 0 0 1-6.486-6.487z" class="cls-3" transform="translate(-943.619 -774.668)"></path><path id="Path_947" d="M945.906 781.018a4.063 4.063 0 1 1 4.063 4.063 4.063 4.063 0 0 1-4.063-4.063z" class="cls-3" transform="translate(-943.483 -774.532)"></path></g><path id="Rectangle_1452" d="M0 0H140.873V5.832H0z" class="cls-8" transform="translate(0 73.652)"></path><g id="Group_983" transform="translate(126.185 66.233)"><path id="Path_948" d="M1060.156 777.738a10.335 10.335 0 1 1 10.335 10.335 10.336 10.336 0 0 1-10.335-10.335z" class="cls-3" transform="translate(-1060.156 -767.402)"></path><path id="Path_949" d="M1063.8 777.521a6.474 6.474 0 1 1 6.473 6.473 6.474 6.474 0 0 1-6.473-6.473z" class="cls-3" transform="translate(-1059.939 -767.185)"></path></g></g><path id="Path_950" d="M1078.974 701.4s-4.978 1.979-5.242 2.9-.264 4.484 1.055 4.484 2.7-3.034 3.3-3.1 2.242-.461 2.44-1.187-1.553-3.097-1.553-3.097z" class="cls-16" transform="translate(-933.173 -637.971)"></path><path id="Path_951" d="M1078.545 704.793c-.712-1.5-.015-2.067-.015-2.067s14.538-8.987 15.7-9.929 7.894-17.247 7.894-17.247 2.428-6.633 6.427-6.95a7.208 7.208 0 0 1 6.956 3.813 7.3 7.3 0 0 1-.414 8.212c-4.054 5.375-12.212 16.032-14.441 17.76-4.959 3.847-20.614 8.252-20.614 8.252a5.211 5.211 0 0 1-1.493-1.844z" class="cls-7" transform="translate(-932.897 -639.921)"></path><path id="Path_952" d="M1106.053 786.3h13.937a1.334 1.334 0 0 0 .3-.086c.93-.466.64-4.029.528-5.129-.021-.2-.037-.324-.037-.324s-4.9-3.919-5.575-.917c-.021.093-.046.185-.072.276-.851 2.807-4.654 4.083-6.85 4.439a2.392 2.392 0 0 0-2.231 1.741z" class="cls-18" transform="translate(-931.244 -633.377)"></path><path id="Path_953" d="M1115.034 664.119s-3.315 5.406-8.766 4.18a15.766 15.766 0 0 1-1.827-4.481c-.038-.243-.077-.478-.115-.7-.364-2.219-.628-3.455-.628-3.455.22-.133 7.379-4.424 7.412-4.162.784 6.029 3.924 8.618 3.924 8.618z" class="cls-16" transform="translate(-931.384 -640.698)"></path><path id="Path_954" d="M1110.564 656.962a12.068 12.068 0 0 1-6.238 6.069c-.364-2.219-.628-3.455-.628-3.455.208-.089 7.025-3.049 6.866-2.614z" class="cls-17" transform="translate(-931.384 -640.613)"></path><path id="Path_955" d="M1102.289 660.271s8.89.717 9.252-4.826 1.752-9.184-3.908-9.877-6.9 1.351-7.474 3.172-.175 11.202 2.13 11.531z" class="cls-16" transform="translate(-931.608 -641.296)"></path><path id="Path_956" d="M1111.662 657.184c.128.057 2.062.344 4.5-7.154a6.136 6.136 0 0 0-1.2-5.5c-1.6-1.9-6.384-2.854-10.264-3s-4.463 2.116-5.029 4.383a11.639 11.639 0 0 1-3.006 4.631c3.527 1.323 7.05-1.868 8.472-1.646s2.225 2.287 2.43 2.958.448 1.215 2.062.345 1.138 2.3.953 2.922c.006.004.008 1.582 1.082 2.061z" class="cls-18" transform="translate(-931.802 -641.528)"></path><path id="Path_957" d="M1140.61 786.6h5.257c1.1 0 2.328-1.1 2.634-3.124s2.572-3.124 3.063-4.778-2.021-3.982-2.021-3.982l-.421-.539-.437-.563-4.165.98s-.1.992-.167 2.254a28.833 28.833 0 0 0-.017 2.89c.123 2.207-.618 4.581-2.577 5.01s-1.149 1.852-1.149 1.852z" class="cls-18" transform="translate(-929.201 -633.68)"></path><path id="Path_958" d="M1108.7 710.084s.744 9.286 1.619 20.448c1.189 15.162 2.619 33.786 2.76 37.314.245 6.128 1.226 15.927 1.226 15.927s2.327 2.328 6.983 1.346a160.3 160.3 0 0 0 5.335-28.792l.055-.731c1.1-15.068 2.817-46.8 2.817-46.8z" class="cls-18" transform="translate(-931.086 -637.531)"></path><path id="Path_959" fill="#1c1c1c" d="M1112.273 711.918s-1.465 3.341 1.214 14.212c1.966 7.976 12.951 30.2 12.951 30.2l.055-.731c1.1-15.068 2.817-46.8 2.817-46.8z" transform="translate(-930.898 -637.531)"></path><path id="Path_960" d="M1111.322 709.673s14.04 35.348 22.861 51.153 11.577 20.214 11.577 20.214 5.053-2.021 5.512-3.4c0 0-3.373-30.509-9.279-37.947-3.338-4.2-7.259-16.814-7.442-21.224s-1.2-13.139-1.2-13.139z" class="cls-18" transform="translate(-930.931 -637.737)"></path><path id="Path_961" d="M1111.2 713.87c1.894-.535 21.208-8.1 20.83-9.2-1.308-3.808-2.661-10.238-4.277-18.059q-.456-2.183-1.014-4.291a66.726 66.726 0 0 0-3.5-10.086c-2.5-5.577-6.558-9.361-9.8-10.654-.423-.159-1.309 1.177-3.047 2.7-1.605 1.409-3.275 1.383-5.118 1.5l-1.49 2.639a21.491 21.491 0 0 0-2.369 8.11s9.612 37.388 9.785 37.341z" class="cls-7" transform="translate(-931.52 -640.337)"></path><path id="Path_962" d="M1101.414 675.731l5.779-.623 14.308 17.357a7.715 7.715 0 0 0 8.494 2.377l3.948 12.283-24.275 7.837z" class="cls-18" transform="translate(-931.52 -639.533)"></path><path id="Path_963" d="M1110.529 668.209c.841-1.591 3.723-6.159 3.723-6.159l-1.005-.467c-.572.073-3.614 4.615-4.561 6.317-1.14 2.05-4.052 8.463-4.052 8.463l2.369-.45s2.535-5.832 3.526-7.704z" class="cls-18" transform="translate(-931.328 -640.336)"></path><path id="Path_964" d="M1084.811 703.126s-4.978 1.979-5.242 2.9-.264 4.486 1.055 4.486 2.7-3.034 3.3-3.1 2.243-.462 2.441-1.188-1.554-3.098-1.554-3.098z" class="cls-16" transform="translate(-932.826 -637.868)"></path><path id="Path_965" d="M1084.542 707.108c-.712-1.5-.016-2.067-.016-2.067s14.538-8.987 15.7-9.928 7.894-17.248 7.894-17.248 2.428-6.632 6.426-6.949a7.208 7.208 0 0 1 6.957 3.812 7.3 7.3 0 0 1-.414 8.211c-4.054 5.376-12.213 16.032-14.441 17.761-4.96 3.846-20.615 8.252-20.615 8.252a5.224 5.224 0 0 1-1.491-1.844z" class="cls-7" transform="translate(-932.541 -639.783)"></path></g><g id="Group_986" transform="translate(7.734 76.721)"><path id="Rectangle_1453" d="M0 0H104.242V62.318H0z" class="cls-7"></path></g><g id="Group_987" transform="translate(14.171 76.933)"><path id="Line_1134" d="M0 0L0 61.44" class="cls-14"></path><path id="Line_1135" d="M0 0L0 61.44" class="cls-14" transform="translate(15.297)"></path><path id="Line_1136" d="M0 0L0 61.44" class="cls-14" transform="translate(30.594)"></path><path id="Line_1137" d="M0 0L0 61.44" class="cls-14" transform="translate(45.891)"></path><path id="Line_1138" d="M0 0L0 61.44" class="cls-14" transform="translate(61.188)"></path><path id="Line_1139" d="M0 0L0 61.44" class="cls-14" transform="translate(76.485)"></path><path id="Line_1140" d="M0 0L0 61.44" class="cls-14" transform="translate(91.783)"></path></g></g><g id="Group_989" transform="translate(1205.727 547.092)"><path id="Path_966" d="M1184.787 593.613c-7.279 0-13.179-12.9-13.179-28.807s5.9-28.807 13.179-28.807" class="cls-21" transform="translate(-1171.608 -536)"></path><path id="Path_967" d="M1184.048 536c7.279 0 13.179 12.9 13.179 28.807s-5.9 28.807-13.179 28.807" class="cls-7" transform="translate(-1170.869 -536)"></path><path id="Path_968" d="M1182.55 595.706c.033-4.547.146-9.1.263-13.642.141-4.548.282-9.1.505-13.642l.336-6.822c.15-2.273.265-4.547.446-6.822.181 2.275.3 4.548.446 6.822l.337 6.822c.223 4.547.365 9.094.5 13.642.089 3.466.176 6.933.228 10.4q.024 1.621.036 3.243l.046 6.822c-.022 2.273-.009 4.547-.063 6.821h-3.065c-.055-2.273-.041-4.547-.065-6.821z" class="cls-3" transform="translate(-1170.961 -534.884)"></path><path id="Path_969" d="M1184.718 564.7c-1.218-.5-2.46-.95-3.69-1.426-1.245-.443-2.478-.912-3.733-1.33 1.144.665 2.312 1.279 3.467 1.919 1.172.606 2.33 1.241 3.512 1.822z" class="cls-3" transform="translate(-1171.27 -534.458)"></path><path id="Path_970" d="M1184.718 582.3c-1.218-.5-2.46-.949-3.69-1.426-1.245-.442-2.478-.912-3.733-1.33 1.144.665 2.312 1.279 3.467 1.919 1.172.607 2.33 1.241 3.512 1.822z" class="cls-3" transform="translate(-1171.27 -533.413)"></path><path id="Path_971" d="M1184.712 573.409c-1.7-.751-3.432-1.45-5.148-2.178-1.732-.693-3.45-1.413-5.193-2.082 1.627.914 3.279 1.777 4.918 2.668 1.655.856 3.3 1.74 4.963 2.571z" class="cls-3" transform="translate(-1171.444 -534.03)"></path><path id="Path_972" d="M1184.317 565.688c1.182-.582 2.34-1.216 3.511-1.822 1.156-.64 2.324-1.253 3.469-1.919-1.257.417-2.489.887-3.734 1.33-1.229.476-2.471.925-3.69 1.426z" class="cls-3" transform="translate(-1170.88 -534.458)"></path><path id="Path_973" d="M1184.444 583.282c1.181-.582 2.34-1.215 3.511-1.822 1.156-.64 2.324-1.253 3.468-1.919-1.256.417-2.489.888-3.734 1.33-1.229.477-2.472.925-3.69 1.426z" class="cls-3" transform="translate(-1170.872 -533.413)"></path><path id="Path_974" d="M1184.63 574.388c1.665-.832 3.307-1.715 4.962-2.571 1.639-.891 3.292-1.753 4.919-2.668-1.743.669-3.462 1.389-5.193 2.082-1.715.728-3.444 1.427-5.148 2.178z" class="cls-3" transform="translate(-1170.862 -534.03)"></path></g><g id="Group_990" transform="translate(1402.778 510.012)"><path id="Path_975" d="M1370.787 558.613c-7.279 0-13.179-12.9-13.179-28.807s5.9-28.807 13.179-28.807" class="cls-21" transform="translate(-1357.608 -501)"></path><path id="Path_976" d="M1370.048 501c7.279 0 13.179 12.9 13.179 28.807s-5.9 28.807-13.179 28.807" class="cls-7" transform="translate(-1356.869 -501)"></path><path id="Path_977" d="M1368.55 560.706c.033-4.547.146-9.1.263-13.642.141-4.548.282-9.1.505-13.642l.336-6.822c.15-2.273.265-4.547.446-6.822.181 2.275.3 4.548.446 6.822l.337 6.822c.223 4.547.365 9.094.5 13.642.089 3.466.176 6.933.228 10.4q.024 1.621.036 3.243l.046 6.822c-.022 2.273-.009 4.547-.063 6.821h-3.065c-.055-2.273-.041-4.547-.065-6.821z" class="cls-3" transform="translate(-1356.961 -499.884)"></path><path id="Path_978" d="M1370.718 529.7c-1.218-.5-2.46-.95-3.69-1.426-1.245-.443-2.478-.912-3.733-1.33 1.144.665 2.312 1.279 3.467 1.919 1.172.606 2.33 1.241 3.512 1.822z" class="cls-3" transform="translate(-1357.27 -499.458)"></path><path id="Path_979" d="M1370.718 547.3c-1.218-.5-2.46-.949-3.69-1.426-1.245-.442-2.478-.912-3.733-1.33 1.144.665 2.312 1.279 3.467 1.919 1.172.607 2.33 1.241 3.512 1.822z" class="cls-3" transform="translate(-1357.27 -498.413)"></path><path id="Path_980" d="M1370.712 538.409c-1.7-.751-3.432-1.45-5.148-2.178-1.732-.693-3.45-1.413-5.193-2.082 1.627.914 3.279 1.777 4.918 2.668 1.655.856 3.3 1.74 4.964 2.571z" class="cls-3" transform="translate(-1357.444 -499.03)"></path><path id="Path_981" d="M1370.317 530.688c1.182-.582 2.34-1.216 3.511-1.822 1.156-.64 2.324-1.253 3.469-1.919-1.256.417-2.489.887-3.734 1.33-1.229.476-2.471.925-3.69 1.426z" class="cls-3" transform="translate(-1356.879 -499.458)"></path><path id="Path_982" d="M1370.444 548.282c1.181-.582 2.34-1.215 3.511-1.822 1.156-.64 2.324-1.253 3.468-1.919-1.256.417-2.489.888-3.734 1.33-1.229.477-2.472.925-3.69 1.426z" class="cls-3" transform="translate(-1356.872 -498.413)"></path><path id="Path_983" d="M1370.63 539.388c1.665-.832 3.307-1.715 4.962-2.571 1.639-.891 3.292-1.753 4.919-2.668-1.743.669-3.462 1.389-5.193 2.082-1.715.728-3.444 1.427-5.148 2.178z" class="cls-3" transform="translate(-1356.862 -499.03)"></path></g><g id="Group_991" transform="translate(597.37 584.945)"><path id="Path_984" d="M597.37 595.223s.228-13.057 15.51-11.632c0 0 1.6-11.632 12.317-11.86a10.142 10.142 0 0 1 6.843 3.193 15.763 15.763 0 0 1 3.58-1.492 11.751 11.751 0 0 1 14.872 9.961c.015.154.023.3.023.427a18.994 18.994 0 0 1 2.592.005 10.133 10.133 0 0 1 9.563 10.433c-.013.248-.035.495-.067.737z" class="cls-22" transform="translate(-597.37 -571.73)"></path><path id="Path_985" fill="#b9efec" d="M667.611 593.827s1.071-6.96 7.228-7.228c0 0 5.956-.669 8.3 7.228z" transform="translate(-593.197 -570.847)"></path></g><g id="Group_992" transform="translate(859.563 504.758)"><path id="Path_986" d="M844.858 519.533s.228-13.057 15.51-11.632c0 0 1.6-11.632 12.317-11.86a10.144 10.144 0 0 1 6.843 3.193 15.763 15.763 0 0 1 3.58-1.492 11.751 11.751 0 0 1 14.872 9.961c.015.153.023.3.023.427a19.007 19.007 0 0 1 2.592.005 10.133 10.133 0 0 1 9.563 10.433c-.013.248-.035.495-.068.737z" class="cls-22" transform="translate(-844.858 -496.04)"></path></g></g></g></g></svg> 