<?xml version="1.0" encoding="UTF-8"?> <svg xmlns="http://www.w3.org/2000/svg" width="238.128" height="199.26" viewBox="0 0 238.128 199.26"><defs><style> .cls-7{fill:none}.cls-2{fill:#195d8f}.cls-4{fill:#e84040}.cls-5{fill:#fff}.cls-7{stroke:#fff}.cls-8{fill:#00c1d5}.cls-10{fill:#0d395a} </style></defs><g id="pic-inventory" transform="translate(-1033.211 -917.415)"><path id="Path_1360" fill="none" stroke="#0d395a" stroke-dasharray="6 6" stroke-miterlimit="10" stroke-width="2px" d="M167.048 0l-42.157 12.465c-12.2 3.608-16.3 12.725-8.727 19.438 8.532 7.569 2.12 17.859-12.678 20.343L72.141 57.51c-12.8 2.15-19.738 10.324-15 17.678l.783 1.216c4.109 6.379-.537 13.565-10.793 16.695L0 107.484" transform="rotate(5.13 -10443.508 12702.449)"></path><g id="Group_1340" transform="translate(1081.066 992.091)"><path id="Rectangle_510" d="M0 0H165.476V9.281H0z" class="cls-2" transform="translate(.049)"></path><path id="Rectangle_511" fill="#e9f2f2" d="M0 0H165.524V100.099H0z" transform="translate(0 9.345)"></path><circle id="Ellipse_53" cx="1.979" cy="1.979" r="1.979" class="cls-4" transform="translate(3.275 2.473)"></circle><circle id="Ellipse_54" cx="1.979" cy="1.979" r="1.979" class="cls-5" transform="translate(9.871 2.473)"></circle><circle id="Ellipse_55" cx="1.979" cy="1.979" r="1.979" fill="#00bed1" transform="translate(16.465 2.473)"></circle><g id="Group_1339" transform="translate(5.739 19.054)"><path id="Line_1469" d="M0 0L153.087 0" class="cls-7"></path><path id="Line_1472" d="M0 0L153.087 0" class="cls-7" transform="translate(0 31.537)"></path><path id="Line_1474" d="M0 0L153.087 0" class="cls-7" transform="translate(0 63.075)"></path><path id="Line_1480" d="M0 0L153.087 0" class="cls-7" transform="translate(0 78.843)"></path><path id="Line_1470" d="M0 0L153.087 0" class="cls-7" transform="translate(0 15.769)"></path><path id="Line_1471" d="M0 0L153.087 0" class="cls-7" transform="translate(0 47.306)"></path><path id="Line_1475" d="M0 0L79.548 0" class="cls-7" transform="rotate(-90 39.774 39.774)"></path><path id="Path_1359" d="M0 0h79.548" class="cls-7" transform="rotate(-90 69.997 9.551)"></path><path id="Line_1477" d="M0 0L79.548 0" class="cls-7" transform="rotate(-90 100.878 -21.33)"></path><path id="Line_1481" d="M0 0L79.548 0" class="cls-7" transform="rotate(-90 115.989 -36.441)"></path><path id="Line_1478" d="M0 0L79.548 0" class="cls-7" transform="rotate(-90 54.886 24.662)"></path><path id="Line_1479" d="M0 0L79.548 0" class="cls-7" transform="rotate(-90 85.766 -6.218)"></path></g><path id="Rectangle_1783" d="M0 0H26V13H0z" class="cls-8" transform="translate(99.935 52.4)"></path><path id="Rectangle_1784" d="M0 0H25V12H0z" class="cls-2" transform="translate(38.935 68.4)"></path><path id="Rectangle_1790" d="M0 0H26V11H0z" class="cls-8" transform="translate(7.935 84.4)"></path><path id="Rectangle_1785" d="M0 0H26V12H0z" class="cls-2" transform="translate(7.935 21.4)"></path><path id="Rectangle_1786" d="M0 0H26V11H0z" class="cls-8" transform="translate(99.935 84.4)"></path><path id="Rectangle_1787" fill="#d8f3f7" d="M0 0H27V12H0z" transform="translate(128.935 36.4)"></path><path id="Rectangle_1788" d="M0 0H28V12H0z" class="cls-10" transform="translate(66.935 21.4)"></path><path id="Rectangle_1789" d="M0 0H28V11H0z" class="cls-10" transform="translate(66.935 84.4)"></path></g><g id="Group_445" transform="translate(1033.211 1018.547)"><path id="Path_435" d="M167.326 87.823c0 11.43-20.027 36.716-20.694 36.716 0 0-20.694-25.286-20.694-36.716a20.694 20.694 0 0 1 41.388 0z" class="cls-10" transform="translate(-125.938 -67.132)"></path><circle id="Ellipse_57" cx="12.683" cy="12.683" r="12.683" class="cls-5" transform="translate(8.01 6.674)"></circle></g><g id="Group_1341" transform="translate(1211.613 917.415)"><path id="Path_435-2" d="M167.326 87.823c0 11.43-20.027 36.716-20.694 36.716 0 0-20.694-25.286-20.694-36.716a20.694 20.694 0 0 1 41.388 0z" class="cls-4" transform="translate(-125.938 -67.132)"></path><circle id="Ellipse_57-2" cx="12.683" cy="12.683" r="12.683" class="cls-5" transform="translate(8.01 6.674)"></circle></g><g id="Group_1352" transform="rotate(14.98 -3407.831 5179.58)"><g id="Group_1351"><g id="Group_1350"><g id="Group_1349"><g id="Group_1348"><path id="Path_1282" fill="#ffe760" d="M829.233 671.915a23.655 23.655 0 1 0 23.656 23.656 23.68 23.68 0 0 0-23.656-23.656z" transform="translate(-805.583 -671.915)"></path></g><path id="Path_1283" fill="#ffcc27" d="M850.2 698.409a17.558 17.558 0 1 1-17.562-17.557 17.56 17.56 0 0 1 17.562 17.557z" transform="translate(-808.826 -674.967)"></path></g></g></g><path id="Path_1284" d="M845.152 696.073v-.709a3.2 3.2 0 0 0-.736-2.132 2.261 2.261 0 0 0-1.823-.914h-4.132v-2.873h-1.787v2.873h-4.131a2.266 2.266 0 0 0-1.825.912 3.222 3.222 0 0 0-.736 2.134v4.155a3.211 3.211 0 0 0 .736 2.134 2.264 2.264 0 0 0 1.825.915h10.051c.44 0 .773.429.773 1v4.181c0 .57-.333 1-.773 1h-10.051c-.44 0-.776-.426-.776-1v-.707h-1.785v.707a3.227 3.227 0 0 0 .736 2.137 2.267 2.267 0 0 0 1.825.913h4.131v2.872h1.787V710.8h4.132a2.266 2.266 0 0 0 1.823-.913 3.214 3.214 0 0 0 .736-2.137v-4.181a3.212 3.212 0 0 0-.736-2.136 2.26 2.26 0 0 0-1.823-.913h-10.05c-.44 0-.776-.427-.776-1v-4.155c0-.566.336-.994.776-.994h10.051c.44 0 .773.428.773.994v.709z" class="cls-5" transform="translate(-813.914 -677.901)"></path></g></g></svg> 