<?xml version="1.0" encoding="UTF-8"?> <svg xmlns="http://www.w3.org/2000/svg" width="1440" height="371" viewBox="0 0 1440 371"><defs><clipPath id="clip-path"><path id="Rectangle_1926" fill="#fff" stroke="#707070" d="M0 0H1440V371H0z" data-name="Rectangle 1926" transform="translate(0 3574)"></path></clipPath><style> .cls-12{fill:none}.cls-10,.cls-12{stroke-miterlimit:10;stroke:#fff}.cls-10,.cls-5{fill:#195d8f}.cls-6{fill:#0d395a}.cls-7{fill:#00c1d5}.cls-9{fill:#e84040}.cls-10{stroke-width:2.28px}.cls-12{stroke-width:1.093px} </style></defs><g id="pic-other" clip-path="url(#clip-path)" transform="translate(0 -3574)"><g id="Group_1464" data-name="Group 1464" transform="translate(-194 1801)"><g id="Group_1324" data-name="Group 1324" transform="translate(77.211 1843.194)"><path id="Path_1228" fill="none" stroke="#d8f3f7" stroke-miterlimit="10" stroke-width="55.7px" d="M-28.9 481l583.358 2.578c41.511 0 75.163 28.063 75.163 62.68s-33.652 62.68-75.163 62.68H317.436c-41.511 0-75.163 28.063-75.163 62.68s33.652 62.68 75.163 62.68h1209.977" data-name="Path 1228" transform="translate(28.9 -481)"></path></g><path id="Path_1228-2" fill="none" stroke="#fff" stroke-dasharray="20 20" stroke-miterlimit="10" stroke-width="3px" d="M-122.192 485.642h680.04c41.475 0 75.1 28.063 75.1 62.68S599.323 611 557.848 611l-235.9-2.064c-41.475 0-75.1 28.063-75.1 62.68s33.622 62.68 75.1 62.68h1206.588" data-name="Path 1228" transform="translate(102.092 1362.194)"></path></g><g id="Group_1465" data-name="Group 1465" transform="translate(342.796 3812.868)"><path id="Path_634" d="M840.2 765.63h25.713l10.387 18.693 19.779 7.871v20.661H840.2z" class="cls-5" data-name="Path 634" transform="translate(-724.495 -742.524)"></path><path id="Path_635" d="M840.2 827.558h169.11l2.472-6.4H840.2z" class="cls-6" data-name="Path 635" transform="translate(-840.201 -750.831)"></path><path id="Rectangle_683" d="M0 0H115.706V7.871H0z" class="cls-6" data-name="Rectangle 683" transform="translate(0 63.937)"></path><path id="Rectangle_684" d="M0 0H27.196V5.411H0z" class="cls-7" data-name="Rectangle 684" transform="translate(115.706 17.695)"></path><path id="Path_636" fill="#fff" d="M890.8 784.858l-27.369-.155V769.81h18.995z" data-name="Path 636" transform="translate(-739.066 -743.149)"></path><path id="Rectangle_685" d="M0 0H9.395V3.444H0z" class="cls-9" data-name="Rectangle 685" transform="translate(162.434 54.344)"></path><ellipse id="Ellipse_88" cx="10.116" cy="10.064" class="cls-10" data-name="Ellipse 88" rx="10.116" ry="10.064" transform="translate(10.137 69.102)"></ellipse><ellipse id="Ellipse_89" cx="10.116" cy="10.064" class="cls-10" data-name="Ellipse 89" rx="10.116" ry="10.064" transform="translate(35.355 69.102)"></ellipse><ellipse id="Ellipse_90" cx="10.116" cy="10.064" class="cls-10" data-name="Ellipse 90" rx="10.116" ry="10.064" transform="translate(132.765 69.102)"></ellipse><path id="Rectangle_686" d="M0 0H8.9V3.444H0z" class="cls-7" data-name="Rectangle 686" transform="translate(124.607 48.687)"></path><path id="Line_797" fill="none" stroke="#277aa9" stroke-miterlimit="10" stroke-width="1.093px" d="M0 0L0 43.476" data-name="Line 797" transform="translate(124.359 26.856)"></path><path id="Rectangle_687" d="M0 0H52.195V31.044H0z" class="cls-9" data-name="Rectangle 687" transform="translate(58.193 32.301)"></path><path id="Rectangle_688" d="M0 0H52.195V31.044H0z" class="cls-7" data-name="Rectangle 688" transform="translate(58.193)"></path><g id="Group_643" data-name="Group 643" transform="translate(61.208 .106)"><path id="Line_798" d="M0 0L0 30.606" class="cls-12" data-name="Line 798" transform="translate(45.956)"></path><path id="Line_799" d="M0 0L0 30.606" class="cls-12" data-name="Line 799" transform="translate(38.297)"></path><path id="Line_800" d="M0 0L0 30.606" class="cls-12" data-name="Line 800" transform="translate(30.638)"></path><path id="Line_801" d="M0 0L0 30.606" class="cls-12" data-name="Line 801" transform="translate(22.978)"></path><path id="Line_802" d="M0 0L0 30.606" class="cls-12" data-name="Line 802" transform="translate(15.319)"></path><path id="Line_803" d="M0 0L0 30.606" class="cls-12" data-name="Line 803" transform="translate(7.659)"></path><path id="Line_804" d="M0 0L0 30.606" class="cls-12" data-name="Line 804"></path></g><g id="Group_644" data-name="Group 644" transform="translate(61.208 32.919)"><path id="Line_805" d="M0 0L0 30.606" class="cls-12" data-name="Line 805" transform="translate(45.956)"></path><path id="Line_806" d="M0 0L0 30.606" class="cls-12" data-name="Line 806" transform="translate(38.297)"></path><path id="Line_807" d="M0 0L0 30.606" class="cls-12" data-name="Line 807" transform="translate(30.638)"></path><path id="Line_808" d="M0 0L0 30.606" class="cls-12" data-name="Line 808" transform="translate(22.978)"></path><path id="Line_809" d="M0 0L0 30.606" class="cls-12" data-name="Line 809" transform="translate(15.319)"></path><path id="Line_810" d="M0 0L0 30.606" class="cls-12" data-name="Line 810" transform="translate(7.659)"></path><path id="Line_811" d="M0 0L0 30.606" class="cls-12" data-name="Line 811"></path></g><path id="Rectangle_689" d="M0 0H52.195V31.044H0z" class="cls-9" data-name="Rectangle 689" transform="translate(4.339)"></path><g id="Group_645" data-name="Group 645" transform="translate(7.355 .106)"><path id="Line_812" d="M0 0L0 30.606" class="cls-12" data-name="Line 812" transform="translate(45.956)"></path><path id="Line_813" d="M0 0L0 30.606" class="cls-12" data-name="Line 813" transform="translate(38.297)"></path><path id="Line_814" d="M0 0L0 30.606" class="cls-12" data-name="Line 814" transform="translate(30.638)"></path><path id="Line_815" d="M0 0L0 30.606" class="cls-12" data-name="Line 815" transform="translate(22.978)"></path><path id="Line_816" d="M0 0L0 30.606" class="cls-12" data-name="Line 816" transform="translate(15.319)"></path><path id="Line_817" d="M0 0L0 30.606" class="cls-12" data-name="Line 817" transform="translate(7.659)"></path><path id="Line_818" d="M0 0L0 30.606" class="cls-12" data-name="Line 818"></path></g><path id="Rectangle_690" d="M0 0H52.195V31.044H0z" class="cls-6" data-name="Rectangle 690" transform="translate(4.782 32.301)"></path><g id="Group_646" data-name="Group 646" transform="translate(7.798 32.406)"><path id="Line_819" d="M0 0L0 30.606" class="cls-12" data-name="Line 819" transform="translate(45.956)"></path><path id="Line_820" d="M0 0L0 30.606" class="cls-12" data-name="Line 820" transform="translate(38.297)"></path><path id="Line_821" d="M0 0L0 30.606" class="cls-12" data-name="Line 821" transform="translate(30.638)"></path><path id="Line_822" d="M0 0L0 30.606" class="cls-12" data-name="Line 822" transform="translate(22.978)"></path><path id="Line_823" d="M0 0L0 30.606" class="cls-12" data-name="Line 823" transform="translate(15.319)"></path><path id="Line_824" d="M0 0L0 30.606" class="cls-12" data-name="Line 824" transform="translate(7.659)"></path><path id="Line_825" d="M0 0L0 30.606" class="cls-12" data-name="Line 825"></path></g></g><g id="Group_1466" data-name="Group 1466" transform="translate(568.258 3803.381)"><path id="Path_569" d="M1411.131 695.831c6.695 0 12.123-11.864 12.123-26.5s-5.428-26.5-12.123-26.5" class="cls-7" data-name="Path 569" transform="translate(-1399.008 -642.836)"></path><path id="Path_570" d="M1410.439 642.836c-6.7 0-12.123 11.864-12.123 26.5s5.427 26.5 12.123 26.5" class="cls-7" data-name="Path 570" transform="translate(-1398.316 -642.836)"></path><path id="Path_571" d="M1412.513 699.827c-.031-4.182-.135-8.365-.242-12.549-.13-4.182-.259-8.365-.464-12.549l-.31-6.274c-.137-2.092-.243-4.183-.41-6.275-.167 2.092-.273 4.183-.41 6.275l-.31 6.274c-.205 4.183-.335 8.366-.464 12.549-.081 3.189-.162 6.378-.209 9.567q-.021 1.491-.033 2.982l-.042 6.275c.021 2.092.008 4.183.059 6.275h2.819c.05-2.092.038-4.183.059-6.275z" class="cls-5" data-name="Path 571" transform="translate(-1398.926 -643.881)"></path><path id="Path_572" d="M1410.869 672.1c1.121-.461 2.264-.873 3.394-1.312 1.146-.406 2.279-.838 3.435-1.222-1.053.612-2.128 1.176-3.19 1.765-1.077.557-2.144 1.14-3.23 1.675z" class="cls-5" data-name="Path 572" transform="translate(-1398.994 -644.28)"></path><path id="Path_573" d="M1410.869 690.223c1.121-.461 2.264-.873 3.394-1.311 1.146-.407 2.279-.839 3.435-1.223-1.053.612-2.128 1.176-3.19 1.765-1.077.557-2.144 1.141-3.23 1.675z" class="cls-5" data-name="Path 573" transform="translate(-1398.994 -645.259)"></path><path id="Path_574" d="M1411.045 680.9c1.568-.691 3.157-1.335 4.735-2 1.593-.638 3.174-1.3 4.777-1.916-1.5.842-3.017 1.636-4.524 2.454-1.523.788-3.033 1.6-4.565 2.366z" class="cls-5" data-name="Path 574" transform="translate(-1399.004 -644.68)"></path><path id="Path_575" d="M1410.513 673.006c-1.088-.535-2.153-1.118-3.231-1.675-1.062-.589-2.137-1.153-3.19-1.765 1.156.384 2.289.816 3.435 1.222 1.13.439 2.273.851 3.394 1.312z" class="cls-5" data-name="Path 575" transform="translate(-1398.628 -644.28)"></path><path id="Path_576" d="M1410.382 691.13c-1.087-.534-2.153-1.118-3.23-1.675-1.063-.589-2.138-1.153-3.19-1.765 1.155.384 2.289.816 3.434 1.223 1.131.438 2.273.85 3.394 1.311z" class="cls-5" data-name="Path 576" transform="translate(-1398.621 -645.259)"></path><path id="Path_577" d="M1410.04 681.8c-1.533-.765-3.043-1.578-4.565-2.366-1.508-.818-3.027-1.612-4.524-2.454 1.6.615 3.183 1.278 4.776 1.916 1.578.669 3.168 1.313 4.736 2z" class="cls-5" data-name="Path 577" transform="translate(-1398.458 -644.68)"></path></g><g id="Group_1469" data-name="Group 1469" transform="translate(646.258 3803.381)"><path id="Path_569-2" d="M1411.131 695.831c6.695 0 12.123-11.864 12.123-26.5s-5.428-26.5-12.123-26.5" class="cls-7" data-name="Path 569" transform="translate(-1399.008 -642.836)"></path><path id="Path_570-2" d="M1410.439 642.836c-6.7 0-12.123 11.864-12.123 26.5s5.427 26.5 12.123 26.5" class="cls-7" data-name="Path 570" transform="translate(-1398.316 -642.836)"></path><path id="Path_571-2" d="M1412.513 699.827c-.031-4.182-.135-8.365-.242-12.549-.13-4.182-.259-8.365-.464-12.549l-.31-6.274c-.137-2.092-.243-4.183-.41-6.275-.167 2.092-.273 4.183-.41 6.275l-.31 6.274c-.205 4.183-.335 8.366-.464 12.549-.081 3.189-.162 6.378-.209 9.567q-.021 1.491-.033 2.982l-.042 6.275c.021 2.092.008 4.183.059 6.275h2.819c.05-2.092.038-4.183.059-6.275z" class="cls-5" data-name="Path 571" transform="translate(-1398.926 -643.881)"></path><path id="Path_572-2" d="M1410.869 672.1c1.121-.461 2.264-.873 3.394-1.312 1.146-.406 2.279-.838 3.435-1.222-1.053.612-2.128 1.176-3.19 1.765-1.077.557-2.144 1.14-3.23 1.675z" class="cls-5" data-name="Path 572" transform="translate(-1398.994 -644.28)"></path><path id="Path_573-2" d="M1410.869 690.223c1.121-.461 2.264-.873 3.394-1.311 1.146-.407 2.279-.839 3.435-1.223-1.053.612-2.128 1.176-3.19 1.765-1.077.557-2.144 1.141-3.23 1.675z" class="cls-5" data-name="Path 573" transform="translate(-1398.994 -645.259)"></path><path id="Path_574-2" d="M1411.045 680.9c1.568-.691 3.157-1.335 4.735-2 1.593-.638 3.174-1.3 4.777-1.916-1.5.842-3.017 1.636-4.524 2.454-1.523.788-3.033 1.6-4.565 2.366z" class="cls-5" data-name="Path 574" transform="translate(-1399.004 -644.68)"></path><path id="Path_575-2" d="M1410.513 673.006c-1.088-.535-2.153-1.118-3.231-1.675-1.062-.589-2.137-1.153-3.19-1.765 1.156.384 2.289.816 3.435 1.222 1.13.439 2.273.851 3.394 1.312z" class="cls-5" data-name="Path 575" transform="translate(-1398.628 -644.28)"></path><path id="Path_576-2" d="M1410.382 691.13c-1.087-.534-2.153-1.118-3.23-1.675-1.063-.589-2.138-1.153-3.19-1.765 1.155.384 2.289.816 3.434 1.223 1.131.438 2.273.85 3.394 1.311z" class="cls-5" data-name="Path 576" transform="translate(-1398.621 -645.259)"></path><path id="Path_577-2" d="M1410.04 681.8c-1.533-.765-3.043-1.578-4.565-2.366-1.508-.818-3.027-1.612-4.524-2.454 1.6.615 3.183 1.278 4.776 1.916 1.578.669 3.168 1.313 4.736 2z" class="cls-5" data-name="Path 577" transform="translate(-1398.458 -644.68)"></path></g><g id="Group_1467" data-name="Group 1467" transform="translate(607.258 3802.381)"><path id="Path_569-3" d="M1411.131 695.831c6.695 0 12.123-11.864 12.123-26.5s-5.428-26.5-12.123-26.5" class="cls-7" data-name="Path 569" transform="translate(-1399.008 -642.836)"></path><path id="Path_570-3" d="M1410.439 642.836c-6.7 0-12.123 11.864-12.123 26.5s5.427 26.5 12.123 26.5" class="cls-7" data-name="Path 570" transform="translate(-1398.316 -642.836)"></path><path id="Path_571-3" d="M1412.513 699.827c-.031-4.182-.135-8.365-.242-12.549-.13-4.182-.259-8.365-.464-12.549l-.31-6.274c-.137-2.092-.243-4.183-.41-6.275-.167 2.092-.273 4.183-.41 6.275l-.31 6.274c-.205 4.183-.335 8.366-.464 12.549-.081 3.189-.162 6.378-.209 9.567q-.021 1.491-.033 2.982l-.042 6.275c.021 2.092.008 4.183.059 6.275h2.819c.05-2.092.038-4.183.059-6.275z" class="cls-5" data-name="Path 571" transform="translate(-1398.926 -643.881)"></path><path id="Path_572-3" d="M1410.869 672.1c1.121-.461 2.264-.873 3.394-1.312 1.146-.406 2.279-.838 3.435-1.222-1.053.612-2.128 1.176-3.19 1.765-1.077.557-2.144 1.14-3.23 1.675z" class="cls-5" data-name="Path 572" transform="translate(-1398.994 -644.28)"></path><path id="Path_573-3" d="M1410.869 690.223c1.121-.461 2.264-.873 3.394-1.311 1.146-.407 2.279-.839 3.435-1.223-1.053.612-2.128 1.176-3.19 1.765-1.077.557-2.144 1.141-3.23 1.675z" class="cls-5" data-name="Path 573" transform="translate(-1398.994 -645.259)"></path><path id="Path_574-3" d="M1411.045 680.9c1.568-.691 3.157-1.335 4.735-2 1.593-.638 3.174-1.3 4.777-1.916-1.5.842-3.017 1.636-4.524 2.454-1.523.788-3.033 1.6-4.565 2.366z" class="cls-5" data-name="Path 574" transform="translate(-1399.004 -644.68)"></path><path id="Path_575-3" d="M1410.513 673.006c-1.088-.535-2.153-1.118-3.231-1.675-1.062-.589-2.137-1.153-3.19-1.765 1.156.384 2.289.816 3.435 1.222 1.13.439 2.273.851 3.394 1.312z" class="cls-5" data-name="Path 575" transform="translate(-1398.628 -644.28)"></path><path id="Path_576-3" d="M1410.382 691.13c-1.087-.534-2.153-1.118-3.23-1.675-1.063-.589-2.138-1.153-3.19-1.765 1.155.384 2.289.816 3.434 1.223 1.131.438 2.273.85 3.394 1.311z" class="cls-5" data-name="Path 576" transform="translate(-1398.621 -645.259)"></path><path id="Path_577-3" d="M1410.04 681.8c-1.533-.765-3.043-1.578-4.565-2.366-1.508-.818-3.027-1.612-4.524-2.454 1.6.615 3.183 1.278 4.776 1.916 1.578.669 3.168 1.313 4.736 2z" class="cls-5" data-name="Path 577" transform="translate(-1398.458 -644.68)"></path></g></g></svg> 