<?xml version="1.0" encoding="UTF-8"?> <svg xmlns="http://www.w3.org/2000/svg" width="874" height="544" viewBox="0 0 874 544"><defs><linearGradient id="linear-gradient" x1=".5" x2=".5" y1="-.227" y2="1" gradientUnits="objectBoundingBox"><stop offset=".248" stop-color="#d8f3f7"></stop><stop offset="1" stop-color="#fff"></stop></linearGradient><linearGradient id="linear-gradient-3" x1=".5" x2="0" y1=".5" y2=".5" gradientUnits="objectBoundingBox"><stop offset="0" stop-color="#fff"></stop><stop offset="1" stop-color="#fff" stop-opacity="0"></stop></linearGradient><clipPath id="clip-path"><path id="Rectangle_1891" fill="none" stroke="#707070" d="M0 0H874V544H0z" data-name="Rectangle 1891" transform="translate(526 1670)"></path></clipPath><style> .cls-15,.cls-17,.cls-8{fill:none}.cls-3{fill:#0d395a}.cls-4{fill:#195d8f}.cls-5{fill:#277aa9}.cls-6{fill:#fff}.cls-7{fill:#e84040}.cls-17,.cls-8{stroke:#fff}.cls-8{stroke-miterlimit:10}.cls-9{fill:#00c1d5}.cls-11{fill:url(#linear-gradient)}.cls-13{fill:#8ae7e4}.cls-15{stroke:#195d8f}.cls-15,.cls-17{stroke-width:2px} </style></defs><g id="pic-ocean" clip-path="url(#clip-path)" transform="translate(-526 -1670)"><g id="Group_1631" data-name="Group 1631" transform="translate(592.067 1679.549)"><g id="Group_1630" data-name="Group 1630"><g id="Group_1628" data-name="Group 1628" transform="translate(0 63.449)"><path id="Path_1904" d="M330.715 811.791h136.442l13.2 22.887h333.8l-8.1 23.767h-451.4z" class="cls-3" data-name="Path 1904" transform="translate(-270.23 -568.113)"></path><path id="Path_1905" d="M349.112 829.772l12.088 25.782h406.6l8.922-25.782z" class="cls-4" data-name="Path 1905" transform="translate(-240.896 -539.441)"></path><path id="Rectangle_1867" d="M0 0H58.978V29.049H0z" class="cls-5" data-name="Rectangle 1867" transform="rotate(-180 79.33 121.945)"></path><path id="Rectangle_1868" d="M0 0H8.363V19.586H0z" class="cls-6" data-name="Rectangle 1868" transform="rotate(-180 75.862 119.414)"></path><path id="Rectangle_1869" d="M0 0H8.363V19.586H0z" class="cls-6" data-name="Rectangle 1869" transform="rotate(-180 66.454 119.414)"></path><path id="Rectangle_1870" d="M0 0H8.363V19.586H0z" class="cls-6" data-name="Rectangle 1870" transform="rotate(-180 57.046 119.414)"></path><circle id="Ellipse_247" cx="7.315" cy="7.315" r="7.315" class="cls-6" data-name="Ellipse 247" transform="translate(102.443 258.04)"></circle><circle id="Ellipse_248" cx="7.315" cy="7.315" r="7.315" class="cls-6" data-name="Ellipse 248" transform="translate(135.549 258.04)"></circle><circle id="Ellipse_249" cx="7.315" cy="7.315" r="7.315" class="cls-6" data-name="Ellipse 249" transform="translate(168.656 258.04)"></circle><g id="Group_1614" data-name="Group 1614" transform="translate(377.716 227.817)"><g id="Group_1612" data-name="Group 1612" transform="translate(2.935 .221)"><path id="Rectangle_1871" d="M0 0H151.807V38.328H0z" class="cls-7" data-name="Rectangle 1871"></path></g><g id="Group_1613" data-name="Group 1613" transform="translate(12.832)"><path id="Line_1577" d="M0 0L0 38.408" class="cls-8" data-name="Line 1577" transform="translate(131.989)"></path><path id="Line_1578" d="M0 0L0 38.408" class="cls-8" data-name="Line 1578" transform="translate(119.99)"></path><path id="Line_1579" d="M0 0L0 38.408" class="cls-8" data-name="Line 1579" transform="translate(107.991)"></path><path id="Line_1580" d="M0 0L0 38.408" class="cls-8" data-name="Line 1580" transform="translate(95.992)"></path><path id="Line_1581" d="M0 0L0 38.408" class="cls-8" data-name="Line 1581" transform="translate(83.993)"></path><path id="Line_1582" d="M0 0L0 38.408" class="cls-8" data-name="Line 1582" transform="translate(71.994)"></path><path id="Line_1583" d="M0 0L0 38.408" class="cls-8" data-name="Line 1583" transform="translate(59.995)"></path><path id="Line_1584" d="M0 0L0 38.408" class="cls-8" data-name="Line 1584" transform="translate(47.996)"></path><path id="Line_1585" d="M0 0L0 38.408" class="cls-8" data-name="Line 1585" transform="translate(35.997)"></path><path id="Line_1586" d="M0 0L0 38.408" class="cls-8" data-name="Line 1586" transform="translate(23.998)"></path><path id="Line_1587" d="M0 0L0 38.408" class="cls-8" data-name="Line 1587" transform="translate(11.999)"></path><path id="Line_1588" d="M0 0L0 38.408" class="cls-8" data-name="Line 1588"></path></g><path id="Rectangle_1872" d="M0 0H157.157V3.356H0z" class="cls-7" data-name="Rectangle 1872" transform="rotate(-180 78.579 1.805)"></path><path id="Rectangle_1873" d="M0 0H157.157V3.356H0z" class="cls-7" data-name="Rectangle 1873" transform="rotate(-180 78.579 19.317)"></path></g><g id="Group_1617" data-name="Group 1617" transform="translate(212.554 146.626)"><g id="Group_1615" data-name="Group 1615" transform="translate(2.935 .221)"><path id="Rectangle_1874" d="M0 0H151.807V38.328H0z" class="cls-7" data-name="Rectangle 1874"></path></g><g id="Group_1616" data-name="Group 1616" transform="translate(12.832)"><path id="Line_1589" d="M0 0L0 38.408" class="cls-8" data-name="Line 1589" transform="translate(131.989)"></path><path id="Line_1590" d="M0 0L0 38.408" class="cls-8" data-name="Line 1590" transform="translate(119.99)"></path><path id="Line_1591" d="M0 0L0 38.408" class="cls-8" data-name="Line 1591" transform="translate(107.991)"></path><path id="Line_1592" d="M0 0L0 38.408" class="cls-8" data-name="Line 1592" transform="translate(95.992)"></path><path id="Line_1593" d="M0 0L0 38.408" class="cls-8" data-name="Line 1593" transform="translate(83.993)"></path><path id="Line_1594" d="M0 0L0 38.408" class="cls-8" data-name="Line 1594" transform="translate(71.994)"></path><path id="Line_1595" d="M0 0L0 38.408" class="cls-8" data-name="Line 1595" transform="translate(59.995)"></path><path id="Line_1596" d="M0 0L0 38.408" class="cls-8" data-name="Line 1596" transform="translate(47.996)"></path><path id="Line_1597" d="M0 0L0 38.408" class="cls-8" data-name="Line 1597" transform="translate(35.997)"></path><path id="Line_1598" d="M0 0L0 38.408" class="cls-8" data-name="Line 1598" transform="translate(23.998)"></path><path id="Line_1599" d="M0 0L0 38.408" class="cls-8" data-name="Line 1599" transform="translate(11.999)"></path><path id="Line_1600" d="M0 0L0 38.408" class="cls-8" data-name="Line 1600"></path></g><path id="Rectangle_1875" d="M0 0H157.157V3.356H0z" class="cls-7" data-name="Rectangle 1875" transform="rotate(-180 78.579 1.805)"></path><path id="Rectangle_1876" d="M0 0H157.157V3.356H0z" class="cls-7" data-name="Rectangle 1876" transform="rotate(-180 78.579 19.317)"></path></g><g id="Group_1620" data-name="Group 1620" transform="translate(212.471 187.916)"><g id="Group_1618" data-name="Group 1618" transform="translate(2.935 .221)"><path id="Rectangle_1877" d="M0 0H151.807V38.328H0z" class="cls-9" data-name="Rectangle 1877"></path></g><g id="Group_1619" data-name="Group 1619" transform="translate(12.832)"><path id="Line_1601" d="M0 0L0 38.408" class="cls-8" data-name="Line 1601" transform="translate(131.989)"></path><path id="Line_1602" d="M0 0L0 38.408" class="cls-8" data-name="Line 1602" transform="translate(119.99)"></path><path id="Line_1603" d="M0 0L0 38.408" class="cls-8" data-name="Line 1603" transform="translate(107.991)"></path><path id="Line_1604" d="M0 0L0 38.408" class="cls-8" data-name="Line 1604" transform="translate(95.992)"></path><path id="Line_1605" d="M0 0L0 38.408" class="cls-8" data-name="Line 1605" transform="translate(83.993)"></path><path id="Line_1606" d="M0 0L0 38.408" class="cls-8" data-name="Line 1606" transform="translate(71.994)"></path><path id="Line_1607" d="M0 0L0 38.408" class="cls-8" data-name="Line 1607" transform="translate(59.995)"></path><path id="Line_1608" d="M0 0L0 38.408" class="cls-8" data-name="Line 1608" transform="translate(47.996)"></path><path id="Line_1609" d="M0 0L0 38.408" class="cls-8" data-name="Line 1609" transform="translate(35.997)"></path><path id="Line_1610" d="M0 0L0 38.408" class="cls-8" data-name="Line 1610" transform="translate(23.998)"></path><path id="Line_1611" d="M0 0L0 38.408" class="cls-8" data-name="Line 1611" transform="translate(11.999)"></path><path id="Line_1612" d="M0 0L0 38.408" class="cls-8" data-name="Line 1612"></path></g><path id="Rectangle_1878" d="M0 0H157.157V3.356H0z" class="cls-9" data-name="Rectangle 1878" transform="rotate(-180 78.579 1.805)"></path><path id="Rectangle_1879" d="M0 0H157.157V3.356H0z" class="cls-9" data-name="Rectangle 1879" transform="rotate(-180 78.579 19.317)"></path></g><path id="Rectangle_1880" d="M0 0H21.133V13.818H0z" class="cls-5" data-name="Rectangle 1880" transform="rotate(-180 69.51 107.785)"></path><path id="Line_1613" fill="none" stroke="#00bdd0" stroke-miterlimit="10" d="M262.132 0L0 0" data-name="Line 1613" transform="translate(275.572 278.157)"></path><g id="Group_1621" data-name="Group 1621" transform="translate(0 298.287)"><path id="Path_1906" d="M258.173 809.4H-.718V705.2l8.708-2.415a41.184 41.184 0 0 1 20.618-.1 41.411 41.411 0 0 0 19.247.247l3.739-.871a41.616 41.616 0 0 1 18.207-.01l2.842.658a41.52 41.52 0 0 0 18.724-.135l1.059-.264a41.469 41.469 0 0 1 19.067-.053l2.632.637a41.631 41.631 0 0 0 17.943.207l5.522-1.185a41.583 41.583 0 0 1 18.169.262l2.109.526a41.494 41.494 0 0 0 18.877.1l3.369-.8a41.513 41.513 0 0 1 18.773.077l3.2.787a41.616 41.616 0 0 0 17.885.275l6.653-1.393a41.754 41.754 0 0 1 17.24.122l7.948 1.8a25.942 25.942 0 0 0 11.02.013c2.465-.551 7.567-1.766 10.844-1.812 10.837-.155 17.309 3.48 17.309 3.48V809.4z" class="cls-11" data-name="Path 1906" transform="translate(31.598 -695.868)"></path><path id="Path_1907" d="M258.173 809.4H-.718V705.2l8.708-2.415a41.184 41.184 0 0 1 20.618-.1 41.411 41.411 0 0 0 19.247.247l3.739-.871a41.616 41.616 0 0 1 18.207-.01l2.842.658a41.52 41.52 0 0 0 18.724-.135l1.059-.264a41.469 41.469 0 0 1 19.067-.053l2.632.637a41.631 41.631 0 0 0 17.943.207l5.522-1.185a41.583 41.583 0 0 1 18.169.262l2.109.526a41.494 41.494 0 0 0 18.877.1l3.369-.8a41.513 41.513 0 0 1 18.773.077l3.2.787a41.616 41.616 0 0 0 17.885.275l6.653-1.393a41.754 41.754 0 0 1 17.24.122l7.948 1.8a25.942 25.942 0 0 0 11.02.013c2.465-.551 7.567-1.766 10.844-1.812 10.837-.155 17.309 3.48 17.309 3.48V809.4z" class="cls-11" data-name="Path 1907" transform="translate(294.037 -695.868)"></path><path id="Rectangle_1881" fill="url(#linear-gradient-3)" d="M0 0H90.41V113.012H0z" data-name="Rectangle 1881" transform="rotate(180 45.7 56.886)"></path></g><path id="Path_1908" d="M575.779 797.263a14.279 14.279 0 0 1-7.684-2.3 11.511 11.511 0 0 0-12.675 0 13.771 13.771 0 0 1-15.289 0 11.511 11.511 0 0 0-12.675 0 1.2 1.2 0 0 1-1.346-1.981 13.769 13.769 0 0 1 15.288 0 11.51 11.51 0 0 0 12.675 0 13.771 13.771 0 0 1 15.289 0 11.51 11.51 0 0 0 12.675 0 13.771 13.771 0 0 1 15.289 0 1.2 1.2 0 1 1-1.347 1.981 11.511 11.511 0 0 0-12.675 0 13.561 13.561 0 0 1-7.525 2.3z" class="cls-13" data-name="Path 1908" transform="translate(-409.74 -446.815)"></path><path id="Path_2004" d="M575.779 797.263a14.279 14.279 0 0 1-7.684-2.3 11.511 11.511 0 0 0-12.675 0 13.771 13.771 0 0 1-15.289 0 11.511 11.511 0 0 0-12.675 0 1.2 1.2 0 0 1-1.346-1.981 13.769 13.769 0 0 1 15.288 0 11.51 11.51 0 0 0 12.675 0 13.771 13.771 0 0 1 15.289 0 11.51 11.51 0 0 0 12.675 0 13.771 13.771 0 0 1 15.289 0 1.2 1.2 0 1 1-1.347 1.981 11.511 11.511 0 0 0-12.675 0 13.561 13.561 0 0 1-7.525 2.3z" class="cls-13" data-name="Path 2004" transform="translate(-208.261 -427.717)"></path><path id="Path_1909" fill="#00c1d5" fill-rule="evenodd" stroke="#00c1d5" d="M796.237 293.009L691.978 248.3l-.529-.19-.5.258-133.406 42.071 1.184 2.186 132.906-41.815 103.729 44.52z" data-name="Path 1909" transform="translate(-99.94 -248.109)"></path><path id="Path_1910" d="M-38.833.216L202.065 0v12.169l-240.9.216z" class="cls-4" data-name="Path 1910" transform="translate(495.295 41.008)"></path><path id="Rectangle_1882" d="M0 0H4.774V116.495H0z" class="cls-4" data-name="Rectangle 1882" transform="translate(456.731 49.227)"></path><path id="Line_1614" d="M79.233 0L0 24.551" class="cls-15" data-name="Line 1614" transform="translate(378.754 164.765)"></path><path id="Line_1615" d="M0 0L75.885 24.551" class="cls-15" data-name="Line 1615" transform="translate(459.103 164.765)"></path><circle id="Ellipse_250" cx="3.342" cy="3.342" r="3.342" class="cls-7" data-name="Ellipse 250" transform="translate(454.821 160.948)"></circle><g id="Group_1624" data-name="Group 1624" transform="translate(378.391 187.573)"><g id="Group_1622" data-name="Group 1622" transform="translate(2.935 .221)"><path id="Rectangle_1883" d="M0 0H151.807V38.328H0z" class="cls-3" data-name="Rectangle 1883"></path></g><g id="Group_1623" data-name="Group 1623" transform="translate(12.832)"><path id="Line_1616" d="M0 0L0 38.408" class="cls-8" data-name="Line 1616" transform="translate(131.989)"></path><path id="Line_1617" d="M0 0L0 38.408" class="cls-8" data-name="Line 1617" transform="translate(119.99)"></path><path id="Line_1618" d="M0 0L0 38.408" class="cls-8" data-name="Line 1618" transform="translate(107.991)"></path><path id="Line_1619" d="M0 0L0 38.408" class="cls-8" data-name="Line 1619" transform="translate(95.992)"></path><path id="Line_1620" d="M0 0L0 38.408" class="cls-8" data-name="Line 1620" transform="translate(83.993)"></path><path id="Line_1621" d="M0 0L0 38.408" class="cls-8" data-name="Line 1621" transform="translate(71.994)"></path><path id="Line_1622" d="M0 0L0 38.408" class="cls-8" data-name="Line 1622" transform="translate(59.995)"></path><path id="Line_1623" d="M0 0L0 38.408" class="cls-8" data-name="Line 1623" transform="translate(47.996)"></path><path id="Line_1624" d="M0 0L0 38.408" class="cls-8" data-name="Line 1624" transform="translate(35.997)"></path><path id="Line_1625" d="M0 0L0 38.408" class="cls-8" data-name="Line 1625" transform="translate(23.998)"></path><path id="Line_1626" d="M0 0L0 38.408" class="cls-8" data-name="Line 1626" transform="translate(11.999)"></path><path id="Line_1627" d="M0 0L0 38.408" class="cls-8" data-name="Line 1627"></path></g><path id="Rectangle_1884" d="M0 0H157.157V3.356H0z" class="cls-3" data-name="Rectangle 1884" transform="rotate(-180 78.579 1.805)"></path><path id="Rectangle_1885" d="M0 0H157.157V3.356H0z" class="cls-3" data-name="Rectangle 1885" transform="rotate(-180 78.579 19.317)"></path></g><g id="Group_1627" data-name="Group 1627" transform="translate(212.113 227.817)"><g id="Group_1625" data-name="Group 1625" transform="translate(2.935 .221)"><path id="Rectangle_1886" d="M0 0H151.807V38.328H0z" class="cls-3" data-name="Rectangle 1886"></path></g><g id="Group_1626" data-name="Group 1626" transform="translate(12.832)"><path id="Line_1628" d="M0 0L0 38.408" class="cls-8" data-name="Line 1628" transform="translate(131.989)"></path><path id="Line_1629" d="M0 0L0 38.408" class="cls-8" data-name="Line 1629" transform="translate(119.99)"></path><path id="Line_1630" d="M0 0L0 38.408" class="cls-8" data-name="Line 1630" transform="translate(107.991)"></path><path id="Line_1631" d="M0 0L0 38.408" class="cls-8" data-name="Line 1631" transform="translate(95.992)"></path><path id="Line_1632" d="M0 0L0 38.408" class="cls-8" data-name="Line 1632" transform="translate(83.993)"></path><path id="Line_1633" d="M0 0L0 38.408" class="cls-8" data-name="Line 1633" transform="translate(71.994)"></path><path id="Line_1634" d="M0 0L0 38.408" class="cls-8" data-name="Line 1634" transform="translate(59.995)"></path><path id="Line_1635" d="M0 0L0 38.408" class="cls-8" data-name="Line 1635" transform="translate(47.996)"></path><path id="Line_1636" d="M0 0L0 38.408" class="cls-8" data-name="Line 1636" transform="translate(35.997)"></path><path id="Line_1637" d="M0 0L0 38.408" class="cls-8" data-name="Line 1637" transform="translate(23.998)"></path><path id="Line_1638" d="M0 0L0 38.408" class="cls-8" data-name="Line 1638" transform="translate(11.999)"></path><path id="Line_1639" d="M0 0L0 38.408" class="cls-8" data-name="Line 1639"></path></g><path id="Rectangle_1887" d="M0 0H157.157V3.356H0z" class="cls-3" data-name="Rectangle 1887" transform="rotate(-180 78.579 1.805)"></path><path id="Rectangle_1888" d="M0 0H157.157V3.356H0z" class="cls-3" data-name="Rectangle 1888" transform="rotate(-180 78.579 19.317)"></path></g><path id="Path_1911" d="M6385.784 295.926c.71-.248 12.347-4.825 12.347-4.825l8.363 4.825.04 355.972h-21.516z" class="cls-9" data-name="Path 1911" transform="translate(-5805.711 -290.827)"></path><path id="Rectangle_1889" d="M0 0H169.014V12.413H0z" class="cls-3" data-name="Rectangle 1889" transform="translate(490.151 359.563)"></path><path id="Path_1912" fill="none" stroke="#00c1d5" stroke-width="5px" d="M5946 465.313l147.445-86.113 41.794 14.7 137.867-79.351-28.249-1.413" data-name="Path 1912" transform="translate(-5871.345 -303.896)"></path></g><g id="Group_1629" data-name="Group 1629" transform="translate(425.219)"><ellipse id="Ellipse_251" cx="36.763" cy="37.24" class="cls-9" data-name="Ellipse 251" rx="36.763" ry="37.24"></ellipse><g id="Rectangle_1890" class="cls-17" data-name="Rectangle 1890"><path d="M0 0H37.24V45.834H0z" transform="translate(18.143 14.323)"></path><path fill="none" d="M1 1H36.24V44.834H1z" transform="translate(18.143 14.323)"></path></g><path id="Line_1640" d="M0 0L23.435 0" class="cls-17" data-name="Line 1640" transform="translate(24.956 22.877)"></path><path id="Line_1641" d="M0 0L23.435 0" class="cls-17" data-name="Line 1641" transform="translate(24.956 35.153)"></path><path id="Line_1642" d="M0 0L23.435 0" class="cls-17" data-name="Line 1642" transform="translate(24.956 47.428)"></path><path id="Line_1643" d="M0 0L23.435 0" class="cls-17" data-name="Line 1643" transform="translate(24.956 27.341)"></path><path id="Line_1644" d="M0 0L23.435 0" class="cls-17" data-name="Line 1644" transform="translate(24.956 39.617)"></path><path id="Line_1645" d="M0 0L23.435 0" class="cls-17" data-name="Line 1645" transform="translate(24.956 51.892)"></path></g></g></g></g></svg> 