<?xml version="1.0" encoding="UTF-8"?> <!-- Generator: Adobe Illustrator 24.1.0, SVG Export Plug-In . SVG Version: 6.00 Build 0) --> <svg xmlns="http://www.w3.org/2000/svg" xmlns:xlink="http://www.w3.org/1999/xlink" version="1.1" id="圖層_1" x="0px" y="0px" viewBox="0 0 1086.8 450.6" style="enable-background:new 0 0 1086.8 450.6;" xml:space="preserve"> <style type="text/css"> .st0{fill:none;stroke:#D8F3F7;stroke-width:55.7;stroke-miterlimit:10;} .st1{fill:none;stroke:#FFFFFF;stroke-width:3;stroke-miterlimit:10;stroke-dasharray:20,20;} .st2{fill:#195D8F;} .st3{fill:#0D395A;} .st4{fill:#00C1D5;} .st5{fill:#FFFFFF;} .st6{fill:#E84040;} .st7{fill:#195D8F;stroke:#FFFFFF;stroke-width:2.28;stroke-miterlimit:10;} .st8{fill:none;stroke:#277AA9;stroke-width:1.093;stroke-miterlimit:10;} .st9{fill:none;stroke:#FFFFFF;stroke-width:1.093;stroke-miterlimit:10;} .st10{clip-path:url(#SVGID_2_);} .st11{fill:none;stroke:#C7EFCD;stroke-width:0.5;stroke-linecap:round;stroke-linejoin:round;} .st12{fill:none;stroke:#FFFFFF;stroke-width:0.7;stroke-miterlimit:10;} .st13{fill:none;stroke:#FFFFFF;stroke-linecap:round;} .st14{font-family:'Seravek-Medium';} .st15{font-size:19px;} .st16{fill:#8AE7E4;} .st17{fill:#277AA9;} .st18{fill:none;stroke:#FFFFFF;stroke-miterlimit:10;} .st19{fill:none;stroke:#00BDD0;stroke-miterlimit:10;} .st20{fill:#FFB27D;} .st21{fill:#353535;} .st22{fill:#ED975D;} .st23{fill:#1C1C1C;} .st24{fill:none;stroke:#FFFFFF;stroke-width:1.761;stroke-miterlimit:10;} </style> <g id="pic-whyuse-2" transform="translate(97.099 -978.066)"> <g id="Group_1324" transform="translate(.211 1066.194)"> <path id="Path_1228" class="st0" d="M-97.3,0L486,2.6c41.5,0,75.2,28.1,75.2,62.7s-33.7,62.7-75.2,62.7H249 c-41.5,0-75.2,28.1-75.2,62.7s33.7,62.7,75.2,62.7h740"></path> </g> <path id="Path_1228-2" class="st1" d="M-194.4,1070.8h680c41.5,0,75.1,28.1,75.1,62.7c0,34.6-33.6,62.7-75.1,62.7l-235.9-2.1 c-41.5,0-75.1,28.1-75.1,62.7c0,34.6,33.6,62.7,75.1,62.7h740"></path> <g id="Group_647" transform="translate(651.796 1247.868)"> <path id="Path_634" class="st2" d="M18.4,23.1h25.7l10.4,18.7l19.8,7.9v20.7H18.4V23.1z"></path> <path id="Path_635" class="st3" d="M-97.3,76.7H71.8l2.5-6.4H-97.3V76.7z"></path> <path id="Rectangle_683" class="st3" d="M-97.3,63.9H18.4v7.9H-97.3V63.9z"></path> <path id="Rectangle_684" class="st4" d="M18.4,17.7h27.2v5.4H18.4V17.7z"></path> <path id="Path_636" class="st5" d="M54.4,41.7l-27.4-0.2V26.7h19L54.4,41.7z"></path> <path id="Rectangle_685" class="st6" d="M65.1,54.3h9.4v3.4h-9.4V54.3z"></path> <ellipse id="Ellipse_88" class="st7" cx="-77.1" cy="79.2" rx="10.1" ry="10.1"></ellipse> <ellipse id="Ellipse_89" class="st7" cx="-51.8" cy="79.2" rx="10.1" ry="10.1"></ellipse> <ellipse id="Ellipse_90" class="st7" cx="45.6" cy="79.2" rx="10.1" ry="10.1"></ellipse> <path id="Rectangle_686" class="st4" d="M27.3,48.7h8.9v3.4h-8.9V48.7z"></path> <path id="Line_797" class="st8" d="M27,26.9v43.5"></path> <path id="Rectangle_687" class="st6" d="M-39.1,32.3h52.2v31h-52.2V32.3z"></path> <path id="Rectangle_688" class="st4" d="M-39.1,0h52.2v31h-52.2V0z"></path> <g id="Group_643" transform="translate(61.208 .106)"> <path id="Line_798" class="st9" d="M-51.4,0v30.6"></path> <path id="Line_799" class="st9" d="M-59,0v30.6"></path> <path id="Line_800" class="st9" d="M-66.7,0v30.6"></path> <path id="Line_801" class="st9" d="M-74.3,0v30.6"></path> <path id="Line_802" class="st9" d="M-82,0v30.6"></path> <path id="Line_803" class="st9" d="M-89.7,0v30.6"></path> <path id="Line_804" class="st9" d="M-97.3,0v30.6"></path> </g> <g id="Group_644" transform="translate(61.208 32.919)"> <path id="Line_805" class="st9" d="M-51.4,0v30.6"></path> <path id="Line_806" class="st9" d="M-59,0v30.6"></path> <path id="Line_807" class="st9" d="M-66.7,0v30.6"></path> <path id="Line_808" class="st9" d="M-74.3,0v30.6"></path> <path id="Line_809" class="st9" d="M-82,0v30.6"></path> <path id="Line_810" class="st9" d="M-89.7,0v30.6"></path> <path id="Line_811" class="st9" d="M-97.3,0v30.6"></path> </g> <path id="Rectangle_689" class="st6" d="M-93,0h52.2v31H-93V0z"></path> <g id="Group_645" transform="translate(7.355 .106)"> <path id="Line_812" class="st9" d="M-51.4,0v30.6"></path> <path id="Line_813" class="st9" d="M-59,0v30.6"></path> <path id="Line_814" class="st9" d="M-66.7,0v30.6"></path> <path id="Line_815" class="st9" d="M-74.3,0v30.6"></path> <path id="Line_816" class="st9" d="M-82,0v30.6"></path> <path id="Line_817" class="st9" d="M-89.7,0v30.6"></path> <path id="Line_818" class="st9" d="M-97.3,0v30.6"></path> </g> <path id="Rectangle_690" class="st3" d="M-92.5,32.3h52.2v31h-52.2V32.3z"></path> <g id="Group_646" transform="translate(7.798 32.406)"> <path id="Line_819" class="st9" d="M-51.4,0v30.6"></path> <path id="Line_820" class="st9" d="M-59,0v30.6"></path> <path id="Line_821" class="st9" d="M-66.7,0v30.6"></path> <path id="Line_822" class="st9" d="M-74.3,0v30.6"></path> <path id="Line_823" class="st9" d="M-82,0v30.6"></path> <path id="Line_824" class="st9" d="M-89.7,0v30.6"></path> <path id="Line_825" class="st9" d="M-97.3,0v30.6"></path> </g> </g> <g id="Group_600" transform="rotate(-9 6343.771 -794.081)"> <g id="Group_597" transform="translate(4.185 37.088)"> <path id="Path_526" class="st4" d="M98.2,18.7l-130.3,0c-3.6,0-7.3-0.5-10.8-1.5c-5.1-1.4-13.5-3.9-22.6-6.9l183.7,0 C116.3,15.6,107.9,18.7,98.2,18.7z"></path> <path id="Path_527" class="st2" d="M86.1-15.2c4.7-0.2,9.3,1.5,12.8,4.6l-12,0l0,6.7l18.9,0c1.5,1.2,3.1,2.2,4.8,2.9 c0,0,8,2.2,8,8.9c0,0.8-0.1,1.6-0.4,2.4l-183.2,0C-77.5,6.2-81.3,1-91.3-4.4l0-10.8L86.1-15.2z"></path> <path id="Path_528" class="st6" d="M-96.1-15.2l4.8,0l0,10.8c-1.7-0.9-3.4-1.9-4.8-2.8V-15.2z"></path> <path id="Path_529" class="st5" d="M87.2-10.6l11.9,0c0.5,0.4,0.9,0.9,1.3,1.4c1.6,1.9,3.5,3.7,5.5,5.3l-18.7,0L87.2-10.6z"></path> </g> <path id="Path_530" class="st2" d="M-50.7,36.2c0,0-25.1,12.1-29.3,13.4s-10.9-1.7-10.9-1.7l11.8-11.7"></path> <path id="Path_531" class="st2" d="M55,42.6c0,0-60.9,25.1-66.1,26.2c-8.4,1.7-18.6-4.2-18.6-4.2l27.5-22"></path> <g id="Group_598" transform="translate(57.831 41.676)"> <circle id="Ellipse_74" class="st5" cx="-13" cy="-12.5" r="2.7"></circle> <circle id="Ellipse_75" class="st5" cx="-23.1" cy="-12.5" r="2.7"></circle> <circle id="Ellipse_76" class="st5" cx="-33.1" cy="-12.5" r="2.7"></circle> <circle id="Ellipse_77" class="st5" cx="-43.2" cy="-12.5" r="2.7"></circle> <circle id="Ellipse_78" class="st5" cx="-53.2" cy="-12.5" r="2.7"></circle> <circle id="Ellipse_79" class="st5" cx="-63.3" cy="-12.5" r="2.7"></circle> <circle id="Ellipse_80" class="st5" cx="-73.3" cy="-12.5" r="2.7"></circle> <circle id="Ellipse_81" class="st5" cx="-83.3" cy="-12.5" r="2.7"></circle> <circle id="Ellipse_82" class="st5" cx="-93.4" cy="-12.5" r="2.7"></circle> </g> <path id="Rectangle_629" class="st5" d="M83.4,25.6l6.3,0v6.7h-6.3V25.6z"></path> <g id="Group_599"> <path id="Path_532" class="st2" d="M-96.1-15c0,0,10.6-3,19.8,11.4c2.6,4,5.7,7.6,9.3,10.7C-75.4,5.5-83.5,2.7-91-1.1L-96.1-15z"></path> <path id="Path_533" class="st2" d="M-67.1,7.1c6,5.3,12.9,9.7,20.3,12.9l-36.5,0L-91-1.2C-83.5,2.7-75.4,5.5-67.1,7.1L-67.1,7.1z "></path> </g> </g> <g id="Group_1334" transform="translate(88 18.135)"> <g id="Group_1333" transform="translate(368 1130.212)"> <path id="Rectangle_1639" class="st3" d="M-82.6,60.4h18.7v83.1h-18.7V60.4z"></path> <path id="Path_1266" class="st3" d="M-56.6,51.8h-33.1l7.2,8.7h18.7L-56.6,51.8z"></path> <path id="Path_1267" class="st4" d="M-89.7,51.8l-5.8-19.6h43.9l-5,19.6H-89.7z"></path> <path id="Rectangle_1640" class="st3" d="M-92.9,29h38v3.1h-38V29z"></path> <path id="Path_1268" class="st3" d="M-75.4,21.1L-73.9,0l1.9,21.1H-75.4z"></path> <path id="Path_1269" class="st2" d="M-97.3,29h47.4l-5-7.9h-38L-97.3,29z"></path> <g id="Group_1332" transform="translate(1.774 32.135)"> <g> <defs> <polygon id="SVGID_1_" points="-91.5,19.6 -97.3,0 -53.4,0 -58.4,19.6 "></polygon> </defs> <clipPath id="SVGID_2_"> <use xlink:href="#SVGID_1_" style="overflow:visible;"></use> </clipPath> <g id="Group_1331" class="st10"> <g id="Group_1330" transform="translate(7.204)"> <g id="Group_1328"> <path id="Line_1243" class="st11" d="M-97.3,0l3.3,19.6"></path> <path id="Line_1244" class="st11" d="M-87,0l1.5,19.6"></path> <path id="Line_1245" class="st11" d="M-77.1,0l-1.7,19.6"></path> <path id="Line_1246" class="st11" d="M-67.8,0l-3.9,19.6"></path> </g> <g id="Group_1329" transform="translate(.246)"> <path id="Line_1247" class="st12" d="M-97.3,0l3.3,19.6"></path> <path id="Line_1248" class="st12" d="M-87,0l1.5,19.6"></path> <path id="Line_1249" class="st12" d="M-77.1,0l-1.7,19.6"></path> <path id="Line_1250" class="st12" d="M-67.8,0l-3.9,19.6"></path> </g> </g> </g> </g> </g> </g> <g id="Path_1275"> <path class="st3" d="M390.2,1254.8c-4,0-8.8-1-14.5-2.2c-7.4-1.5-15.8-3.3-24.8-3.3c-9,0-17.4,1.7-24.8,3.3 c-5.6,1.2-10.5,2.2-14.5,2.2c-3.7,0-6.2-0.9-7.8-2.8c-1.9-2.3-2.9-6.2-2.9-11.9c0-6.7,1.3-13.1,3.9-18.9 c2.5-5.6,6.1-10.5,10.7-14.7c9.2-8.4,21.8-13,35.4-13c13.6,0,26.2,4.6,35.4,13c4.6,4.2,8.2,9.1,10.7,14.7 c2.6,5.8,3.9,12.2,3.9,18.9c0,5.7-0.9,9.6-2.9,11.9C396.4,1253.9,393.9,1254.8,390.2,1254.8z"></path> <path class="st4" d="M350.9,1195c-13.2,0-25.4,4.5-34.4,12.6c-4.4,4-7.9,8.8-10.3,14.2c-2.5,5.6-3.8,11.8-3.8,18.3 c0,5.3,0.8,8.9,2.5,10.9c1.3,1.6,3.4,2.3,6.6,2.3c3.8,0,8.6-1,14.2-2.1c7.5-1.5,15.9-3.3,25.1-3.3c9.2,0,17.7,1.8,25.1,3.3 c5.6,1.1,10.4,2.1,14.2,2.1c3.3,0,5.3-0.7,6.6-2.3c1.7-2,2.5-5.6,2.5-10.9c0-6.5-1.3-12.7-3.8-18.3c-2.4-5.4-5.9-10.2-10.3-14.2 C376.4,1199.4,364.2,1195,350.9,1195 M350.9,1192c28.4,0,51.5,19.7,51.5,48.1c0,12.7-4.6,16.2-12.2,16.2 c-9.4,0-23.5-5.4-39.3-5.4c-15.8,0-29.9,5.4-39.3,5.4c-7.6,0-12.2-3.5-12.2-16.2C299.5,1211.7,322.5,1192,350.9,1192L350.9,1192z "></path> </g> <path id="Line_1251" class="st13" d="M319.9,1205.8v28.8"></path> <path id="Line_1251-2" class="st13" d="M335.4,1198v28.8"></path> <path id="Line_1251-3" class="st13" d="M350.9,1195.8v28.8"></path> <path id="Line_1251-4" class="st13" d="M366.4,1198v28.8"></path> <path id="Line_1251-5" class="st13" d="M381.9,1205.8v28.8"></path> <path id="Rectangle_1641" class="st2" d="M298.7,1214.9h113v59h-113V1214.9z"></path> <text transform="matrix(1 0 0 1 311.689 1249.865)" class="st5 st14 st15">AIRPORT</text> </g> <g id="Group_616" transform="translate(886.258 1224.381)"> <path id="Path_569" class="st4" d="M-85.2,53c6.7,0,12.1-11.9,12.1-26.5S-78.5,0-85.2,0"></path> <path id="Path_570" class="st4" d="M-85.2,0c-6.7,0-12.1,11.9-12.1,26.5S-91.9,53-85.2,53"></path> <path id="Path_571" class="st2" d="M-83.7,55.9c0-4.2-0.1-8.4-0.2-12.5c-0.1-4.2-0.3-8.4-0.5-12.5l-0.3-6.3 c-0.1-2.1-0.2-4.2-0.4-6.3c-0.2,2.1-0.3,4.2-0.4,6.3l-0.3,6.3c-0.2,4.2-0.3,8.4-0.5,12.5c-0.1,3.2-0.2,6.4-0.2,9.6c0,1,0,2,0,3 l0,6.3c0,2.1,0,4.2,0.1,6.3h2.8c0.1-2.1,0-4.2,0.1-6.3L-83.7,55.9z"></path> <path id="Path_572" class="st2" d="M-85.4,27.8c1.1-0.5,2.3-0.9,3.4-1.3c1.1-0.4,2.3-0.8,3.4-1.2c-1.1,0.6-2.1,1.2-3.2,1.8 c-1.1,0.6-2.1,1.1-3.2,1.7L-85.4,27.8z"></path> <path id="Path_573" class="st2" d="M-85.4,45c1.1-0.5,2.3-0.9,3.4-1.3c1.1-0.4,2.3-0.8,3.4-1.2c-1.1,0.6-2.1,1.2-3.2,1.8 c-1.1,0.6-2.1,1.1-3.2,1.7L-85.4,45z"></path> <path id="Path_574" class="st2" d="M-85.3,36.2c1.6-0.7,3.2-1.3,4.7-2c1.6-0.6,3.2-1.3,4.8-1.9c-1.5,0.8-3,1.6-4.5,2.5 c-1.5,0.8-3,1.6-4.6,2.4L-85.3,36.2z"></path> <path id="Path_575" class="st2" d="M-85.4,28.7c-1.1-0.5-2.2-1.1-3.2-1.7c-1.1-0.6-2.1-1.2-3.2-1.8c1.2,0.4,2.3,0.8,3.4,1.2 c1.1,0.4,2.3,0.9,3.4,1.3L-85.4,28.7z"></path> <path id="Path_576" class="st2" d="M-85.6,45.9c-1.1-0.5-2.2-1.1-3.2-1.7c-1.1-0.6-2.1-1.2-3.2-1.8c1.2,0.4,2.3,0.8,3.4,1.2 c1.1,0.4,2.3,0.8,3.4,1.3L-85.6,45.9z"></path> <path id="Path_577" class="st2" d="M-85.7,37.1c-1.5-0.8-3-1.6-4.6-2.4c-1.5-0.8-3-1.6-4.5-2.5c1.6,0.6,3.2,1.3,4.8,1.9 c1.6,0.7,3.2,1.3,4.7,2L-85.7,37.1z"></path> </g> <g id="Group_1359" transform="translate(925.258 1223.381)"> <path id="Path_569-2" class="st4" d="M-85.2,53c6.7,0,12.1-11.9,12.1-26.5S-78.5,0-85.2,0"></path> <path id="Path_570-2" class="st4" d="M-85.2,0c-6.7,0-12.1,11.9-12.1,26.5S-91.9,53-85.2,53"></path> <path id="Path_571-2" class="st2" d="M-83.7,55.9c0-4.2-0.1-8.4-0.2-12.5c-0.1-4.2-0.3-8.4-0.5-12.5l-0.3-6.3 c-0.1-2.1-0.2-4.2-0.4-6.3c-0.2,2.1-0.3,4.2-0.4,6.3l-0.3,6.3c-0.2,4.2-0.3,8.4-0.5,12.5c-0.1,3.2-0.2,6.4-0.2,9.6c0,1,0,2,0,3 l0,6.3c0,2.1,0,4.2,0.1,6.3h2.8c0.1-2.1,0-4.2,0.1-6.3L-83.7,55.9z"></path> <path id="Path_572-2" class="st2" d="M-85.4,27.8c1.1-0.5,2.3-0.9,3.4-1.3c1.1-0.4,2.3-0.8,3.4-1.2c-1.1,0.6-2.1,1.2-3.2,1.8 c-1.1,0.6-2.1,1.1-3.2,1.7L-85.4,27.8z"></path> <path id="Path_573-2" class="st2" d="M-85.4,45c1.1-0.5,2.3-0.9,3.4-1.3c1.1-0.4,2.3-0.8,3.4-1.2c-1.1,0.6-2.1,1.2-3.2,1.8 c-1.1,0.6-2.1,1.1-3.2,1.7L-85.4,45z"></path> <path id="Path_574-2" class="st2" d="M-85.3,36.2c1.6-0.7,3.2-1.3,4.7-2c1.6-0.6,3.2-1.3,4.8-1.9c-1.5,0.8-3,1.6-4.5,2.5 c-1.5,0.8-3,1.6-4.6,2.4L-85.3,36.2z"></path> <path id="Path_575-2" class="st2" d="M-85.4,28.7c-1.1-0.5-2.2-1.1-3.2-1.7c-1.1-0.6-2.1-1.2-3.2-1.8c1.2,0.4,2.3,0.8,3.4,1.2 c1.1,0.4,2.3,0.9,3.4,1.3L-85.4,28.7z"></path> <path id="Path_576-2" class="st2" d="M-85.6,45.9c-1.1-0.5-2.2-1.1-3.2-1.7c-1.1-0.6-2.1-1.2-3.2-1.8c1.2,0.4,2.3,0.8,3.4,1.2 c1.1,0.4,2.3,0.8,3.4,1.3L-85.6,45.9z"></path> <path id="Path_577-2" class="st2" d="M-85.7,37.1c-1.5-0.8-3-1.6-4.6-2.4c-1.5-0.8-3-1.6-4.5-2.5c1.6,0.6,3.2,1.3,4.8,1.9 c1.6,0.7,3.2,1.3,4.7,2L-85.7,37.1z"></path> </g> <g id="Group_1360" transform="translate(431.258 1223.381)"> <path id="Path_569-3" class="st4" d="M-85.2,53c6.7,0,12.1-11.9,12.1-26.5S-78.5,0-85.2,0"></path> <path id="Path_570-3" class="st4" d="M-85.2,0c-6.7,0-12.1,11.9-12.1,26.5S-91.9,53-85.2,53"></path> <path id="Path_571-3" class="st2" d="M-83.7,55.9c0-4.2-0.1-8.4-0.2-12.5c-0.1-4.2-0.3-8.4-0.5-12.5l-0.3-6.3 c-0.1-2.1-0.2-4.2-0.4-6.3c-0.2,2.1-0.3,4.2-0.4,6.3l-0.3,6.3c-0.2,4.2-0.3,8.4-0.5,12.5c-0.1,3.2-0.2,6.4-0.2,9.6c0,1,0,2,0,3 l0,6.3c0,2.1,0,4.2,0.1,6.3h2.8c0.1-2.1,0-4.2,0.1-6.3L-83.7,55.9z"></path> <path id="Path_572-3" class="st2" d="M-85.4,27.8c1.1-0.5,2.3-0.9,3.4-1.3c1.1-0.4,2.3-0.8,3.4-1.2c-1.1,0.6-2.1,1.2-3.2,1.8 c-1.1,0.6-2.1,1.1-3.2,1.7L-85.4,27.8z"></path> <path id="Path_573-3" class="st2" d="M-85.4,45c1.1-0.5,2.3-0.9,3.4-1.3c1.1-0.4,2.3-0.8,3.4-1.2c-1.1,0.6-2.1,1.2-3.2,1.8 c-1.1,0.6-2.1,1.1-3.2,1.7L-85.4,45z"></path> <path id="Path_574-3" class="st2" d="M-85.3,36.2c1.6-0.7,3.2-1.3,4.7-2c1.6-0.6,3.2-1.3,4.8-1.9c-1.5,0.8-3,1.6-4.5,2.5 c-1.5,0.8-3,1.6-4.6,2.4L-85.3,36.2z"></path> <path id="Path_575-3" class="st2" d="M-85.4,28.7c-1.1-0.5-2.2-1.1-3.2-1.7c-1.1-0.6-2.1-1.2-3.2-1.8c1.2,0.4,2.3,0.8,3.4,1.2 c1.1,0.4,2.3,0.9,3.4,1.3L-85.4,28.7z"></path> <path id="Path_576-3" class="st2" d="M-85.6,45.9c-1.1-0.5-2.2-1.1-3.2-1.7c-1.1-0.6-2.1-1.2-3.2-1.8c1.2,0.4,2.3,0.8,3.4,1.2 c1.1,0.4,2.3,0.8,3.4,1.3L-85.6,45.9z"></path> <path id="Path_577-3" class="st2" d="M-85.7,37.1c-1.5-0.8-3-1.6-4.6-2.4c-1.5-0.8-3-1.6-4.5-2.5c1.6,0.6,3.2,1.3,4.8,1.9 c1.6,0.7,3.2,1.3,4.7,2L-85.7,37.1z"></path> </g> <path id="Path_1289" class="st16" d="M632.6,1388.2c-2.5,0-4.9-0.7-6.9-2.1c-3.5-2.3-8-2.3-11.4,0c-4.2,2.8-9.6,2.8-13.8,0 c-3.5-2.3-8-2.3-11.4,0c-0.5,0.3-1.2,0.2-1.5-0.3c-0.3-0.5-0.2-1.2,0.3-1.5c4.2-2.8,9.6-2.8,13.8,0c3.5,2.3,8,2.3,11.4,0 c4.2-2.8,9.6-2.8,13.8,0c3.5,2.3,8,2.3,11.4,0c4.2-2.8,9.6-2.8,13.8,0c0.5,0.3,0.6,1,0.3,1.5c-0.3,0.5-1,0.6-1.5,0.3 c-3.5-2.3-8-2.3-11.4,0C637.4,1387.4,635,1388.2,632.6,1388.2z"></path> <path id="Path_598" class="st16" d="M47.3,1356.6c-2.5,0-4.9-0.7-6.9-2.1c-3.5-2.3-8-2.3-11.4,0c-4.2,2.8-9.6,2.8-13.8,0 c-3.5-2.3-8-2.3-11.4,0c-0.5,0.3-1.2,0.2-1.5-0.3s-0.2-1.2,0.3-1.5l0,0c4.2-2.8,9.6-2.8,13.8,0c3.5,2.3,8,2.3,11.4,0 c4.2-2.8,9.6-2.8,13.8,0c3.5,2.3,8,2.3,11.4,0c4.2-2.8,9.6-2.8,13.8,0c0.5,0.3,0.6,1,0.3,1.5s-1,0.6-1.5,0.3l0,0 c-3.5-2.3-8-2.3-11.4,0C52,1355.9,49.7,1356.6,47.3,1356.6L47.3,1356.6z"></path> <path id="Path_1288" class="st16" d="M133.3,1174.6c-2.5,0-4.9-0.7-6.9-2.1c-3.5-2.3-8-2.3-11.4,0c-4.2,2.8-9.6,2.8-13.8,0 c-3.5-2.3-8-2.3-11.4,0c-0.5,0.3-1.2,0.2-1.5-0.3s-0.2-1.2,0.3-1.5l0,0c4.2-2.8,9.6-2.8,13.8,0c3.5,2.3,8,2.3,11.4,0 c4.2-2.8,9.6-2.8,13.8,0c3.5,2.3,8,2.3,11.4,0c4.2-2.8,9.6-2.8,13.8,0c0.5,0.3,0.6,1,0.3,1.5s-1,0.6-1.5,0.3l0,0 c-3.5-2.3-8-2.3-11.4,0C138,1173.9,135.7,1174.6,133.3,1174.6L133.3,1174.6z"></path> <path id="Path_1291" class="st16" d="M346.3,1123.6c-2.5,0-4.9-0.7-6.9-2.1c-3.5-2.3-8-2.3-11.4,0c-4.2,2.8-9.6,2.8-13.8,0 c-3.5-2.3-8-2.3-11.4,0c-0.5,0.3-1.2,0.2-1.5-0.3s-0.2-1.2,0.3-1.5l0,0c4.2-2.8,9.6-2.8,13.8,0c3.5,2.3,8,2.3,11.4,0 c4.2-2.8,9.6-2.8,13.8,0c3.5,2.3,8,2.3,11.4,0c4.2-2.8,9.6-2.8,13.8,0c0.5,0.3,0.6,1,0.3,1.5s-1,0.6-1.5,0.3l0,0 c-3.5-2.3-8-2.3-11.4,0C351,1122.9,348.7,1123.6,346.3,1123.6L346.3,1123.6z"></path> <g id="Group_637" transform="translate(138.319 1381.754)"> <path id="Path_631" class="st3" d="M-97.3,20.5h49.7l4.8,8.3H79l-3,8.7H-88.6L-97.3,20.5z"></path> <path id="Path_632" class="st3" d="M-79.9,37.5l4.4,9.4H72.8l3.3-9.4H-79.9z"></path> <g id="Group_636" transform="translate(14.291)"> <path id="Rectangle_663" class="st17" d="M-75.8,20.5h-21.5V9.9h21.5V20.5z"></path> <path id="Rectangle_664" class="st5" d="M-78.3,18.7h-3v-7.1h3V18.7z"></path> <path id="Rectangle_665" class="st5" d="M-85.2,18.7h-3v-7.1h3V18.7z"></path> <path id="Rectangle_666" class="st5" d="M-92.1,18.7h-3v-7.1h3V18.7z"></path> <circle id="Ellipse_85" class="st5" cx="-93.6" cy="28.4" r="2.7"></circle> <circle id="Ellipse_86" class="st5" cx="-81.6" cy="28.4" r="2.7"></circle> <circle id="Ellipse_87" class="st5" cx="-69.5" cy="28.4" r="2.7"></circle> <g id="Group_629" transform="translate(101.374 14.773)"> <g id="Group_627" transform="translate(1.07 .08)"> <path id="Rectangle_667" class="st6" d="M-97.3,0H-42v14h-55.4V0z"></path> </g> <g id="Group_628" transform="translate(4.679)"> <path id="Line_760" class="st18" d="M-49.2,0v14"></path> <path id="Line_761" class="st18" d="M-53.6,0v14"></path> <path id="Line_762" class="st18" d="M-57.9,0v14"></path> <path id="Line_763" class="st18" d="M-62.3,0v14"></path> <path id="Line_764" class="st18" d="M-66.7,0v14"></path> <path id="Line_765" class="st18" d="M-71.1,0v14"></path> <path id="Line_766" class="st18" d="M-75.4,0v14"></path> <path id="Line_767" class="st18" d="M-79.8,0v14"></path> <path id="Line_768" class="st18" d="M-84.2,0v14"></path> <path id="Line_769" class="st18" d="M-88.6,0v14"></path> <path id="Line_770" class="st18" d="M-92.9,0v14"></path> <path id="Line_771" class="st18" d="M-97.3,0v14"></path> </g> <path id="Rectangle_668" class="st6" d="M-40,1.3h-57.3V0.1H-40V1.3z"></path> <path id="Rectangle_669" class="st6" d="M-40,14.1h-57.3v-1.2H-40V14.1z"></path> </g> <g id="Group_632" transform="translate(41.124 14.773)"> <g id="Group_630" transform="translate(1.07 .08)"> <path id="Rectangle_670" class="st4" d="M-97.3,0H-42v14h-55.4V0z"></path> </g> <g id="Group_631" transform="translate(4.679)"> <path id="Line_772" class="st18" d="M-49.2,0v14"></path> <path id="Line_773" class="st18" d="M-53.6,0v14"></path> <path id="Line_774" class="st18" d="M-57.9,0v14"></path> <path id="Line_775" class="st18" d="M-62.3,0v14"></path> <path id="Line_776" class="st18" d="M-66.7,0v14"></path> <path id="Line_777" class="st18" d="M-71.1,0v14"></path> <path id="Line_778" class="st18" d="M-75.4,0v14"></path> <path id="Line_779" class="st18" d="M-79.8,0v14"></path> <path id="Line_780" class="st18" d="M-84.2,0v14"></path> <path id="Line_781" class="st18" d="M-88.6,0v14"></path> <path id="Line_782" class="st18" d="M-92.9,0v14"></path> <path id="Line_783" class="st18" d="M-97.3,0v14"></path> </g> <path id="Rectangle_671" class="st4" d="M-40,1.3h-57.3V0.1H-40V1.3z"></path> <path id="Rectangle_672" class="st4" d="M-40,14.1h-57.3v-1.2H-40V14.1z"></path> </g> <g id="Group_635" transform="translate(71.917)"> <g id="Group_633" transform="translate(1.07 .08)"> <path id="Rectangle_673" class="st3" d="M-97.3,0H-42v14h-55.4V0z"></path> </g> <g id="Group_634" transform="translate(4.679)"> <path id="Line_784" class="st18" d="M-49.2,0v14"></path> <path id="Line_785" class="st18" d="M-53.6,0v14"></path> <path id="Line_786" class="st18" d="M-57.9,0v14"></path> <path id="Line_787" class="st18" d="M-62.3,0v14"></path> <path id="Line_788" class="st18" d="M-66.7,0v14"></path> <path id="Line_789" class="st18" d="M-71.1,0v14"></path> <path id="Line_790" class="st18" d="M-75.4,0v14"></path> <path id="Line_791" class="st18" d="M-79.8,0v14"></path> <path id="Line_792" class="st18" d="M-84.2,0v14"></path> <path id="Line_793" class="st18" d="M-88.6,0v14"></path> <path id="Line_794" class="st18" d="M-92.9,0v14"></path> <path id="Line_795" class="st18" d="M-97.3,0v14"></path> </g> <path id="Rectangle_674" class="st3" d="M-40,1.3h-57.3V0.1H-40V1.3z"></path> <path id="Rectangle_675" class="st3" d="M-40,14.1h-57.3v-1.2H-40V14.1z"></path> </g> <path id="Rectangle_676" class="st17" d="M-83,10.2h-7.7v-5h7.7V10.2z"></path> <path id="Line_796" class="st19" d="M62.4,33h-95.6"></path> </g> </g> <g id="Group_988" transform="translate(31 1017.801)"> <g id="Group_985"> <g id="Group_984" transform="translate(39.243 41.747)"> <path id="Rectangle_1451" class="st3" d="M-90.9,1.8h2.4v47.7h-2.4V1.8z"></path> <path id="Path_944" class="st2" d="M-95.5,4h6.1c1-0.1,1.8-0.9,1.8-2c0.1-1-0.7-1.9-1.8-2h-6.1c-1,0.1-1.8,0.9-1.8,2 C-97.4,3-96.6,3.9-95.5,4z"></path> <path id="Path_945" class="st3" d="M-88.5,25.6c0.3,0,13.1,8.5,13.1,8.5v12.3h-13.4L-88.5,25.6z"></path> <g id="Group_982" transform="translate(76.429 45.982)"> <path id="Path_946" class="st2" d="M-90.1,4c-0.2-2-2-3.5-4-3.2c-2,0.2-3.5,2-3.2,4c0.2,1.9,1.8,3.3,3.6,3.3 C-91.6,7.9-89.9,6.1-90.1,4z"></path> <path id="Path_947" class="st2" d="M-91.4,4c-0.1-1.3-1.3-2.2-2.5-2c-1.3,0.1-2.2,1.3-2,2.5c0.1,1.2,1.1,2,2.3,2 C-92.4,6.5-91.3,5.4-91.4,4z"></path> </g> <path id="Rectangle_1452" class="st3" d="M-90.9,45.8h78.8v3.6h-78.8V45.8z"></path> <g id="Group_983" transform="translate(3.041 41.194)"> <path id="Path_948" class="st2" d="M-85.7,6.4c0-3.5-2.6-6.4-5.8-6.4s-5.8,2.9-5.8,6.4s2.6,6.4,5.8,6.4S-85.7,10-85.7,6.4z"></path> <path id="Path_949" class="st2" d="M-87.9,6.4c-0.2-2-2-3.4-4-3.2c-2,0.2-3.4,2-3.2,4c0.2,1.9,1.8,3.3,3.6,3.3 C-89.4,10.3-87.8,8.5-87.9,6.4z"></path> </g> </g> <path id="Path_950" class="st20" d="M-54.4,39.5c0,0,2.8,1.2,2.9,1.8s0.1,2.8-0.6,2.8s-1.5-1.9-1.8-1.9s-1.3-0.3-1.4-0.7 S-54.4,39.5-54.4,39.5L-54.4,39.5z"></path> <path id="Path_951" class="st4" d="M-54.4,40.3c0.4-0.9,0-1.3,0-1.3s-8.1-5.6-8.8-6.2s-4.4-10.7-4.4-10.7s-1.4-4.1-3.6-4.3 c-1.7-0.1-3.2,0.8-3.9,2.4c-0.9,1.6-0.8,3.6,0.2,5.1c2.3,3.3,6.8,10,8.1,11c2.8,2.4,11.5,5.1,11.5,5.1 C-54.8,41.2-54.5,40.8-54.4,40.3L-54.4,40.3z"></path> <path id="Path_952" class="st21" d="M-70.7,95.1h-7.8c-0.1,0-0.1,0-0.2-0.1c-0.5-0.3-0.4-2.5-0.3-3.2c0-0.1,0-0.2,0-0.2 s2.7-2.4,3.1-0.6c0,0.1,0,0.1,0,0.2c0.5,1.7,2.6,2.5,3.8,2.8C-71.3,94.1-70.8,94.5-70.7,95.1L-70.7,95.1z"></path> <path id="Path_953" class="st20" d="M-75.6,14.6c0,0,1.9,3.4,4.9,2.6c0.5-0.9,0.8-1.8,1-2.8c0-0.2,0-0.3,0.1-0.4 c0.2-1.4,0.4-2.1,0.4-2.1c-0.1-0.1-4.1-2.8-4.1-2.6C-73.9,13-75.6,14.6-75.6,14.6L-75.6,14.6z"></path> <path id="Path_954" class="st22" d="M-73.1,10.2c0.7,1.6,1.9,3,3.5,3.8c0.2-1.4,0.4-2.1,0.4-2.1C-69.4,11.7-73.2,9.9-73.1,10.2 L-73.1,10.2z"></path> <path id="Path_955" class="st20" d="M-68.4,11.8c0,0-5,0.4-5.2-3s-1-5.7,2.2-6.1s3.9,0.8,4.2,2S-67.1,11.6-68.4,11.8z"></path> <path id="Path_956" class="st21" d="M-73.5,9.7c-0.1,0-1.2,0.2-2.5-4.5c-0.3-1.2,0-2.4,0.7-3.4c0.9-1.2,3.6-1.8,5.7-1.9 s2.5,1.3,2.8,2.7c0.3,1.1,0.9,2.1,1.7,2.9c-2,0.8-3.9-1.2-4.7-1s-1.2,1.4-1.4,1.8s-0.3,0.8-1.2,0.2s-0.6,1.4-0.5,1.8 C-72.9,8.5-72.9,9.4-73.5,9.7L-73.5,9.7z"></path> <path id="Path_957" class="st21" d="M-91.1,95.1h-2.9c-0.6,0-1.3-0.7-1.5-1.9s-1.4-1.9-1.7-3s1.1-2.5,1.1-2.5l0.2-0.3l0.2-0.3 l2.3,0.6c0,0,0.1,0.6,0.1,1.4c0,0.6,0,1.2,0,1.8c-0.1,1.4,0.3,2.8,1.4,3.1S-91.1,95.1-91.1,95.1L-91.1,95.1z"></path> <path id="Path_958" class="st21" d="M-72.2,45.1c0,0-0.4,5.8-0.9,12.7c-0.7,9.4-1.5,21-1.5,23.2c-0.1,3.8-0.7,9.9-0.7,9.9 c-1.1,1-2.5,1.3-3.9,0.8c-1.5-5.9-2.5-11.9-3-17.9l0-0.5c-0.6-9.4-1.6-29.1-1.6-29.1L-72.2,45.1z"></path> <path id="Path_959" class="st23" d="M-74.3,46.3c0,0,0.8,2.1-0.7,8.8c-1.1,5-7.2,18.8-7.2,18.8l0-0.5c-0.6-9.4-1.6-29.1-1.6-29.1 L-74.3,46.3z"></path> <path id="Path_960" class="st21" d="M-73.8,44.7c0,0-7.9,22-12.8,31.8s-6.5,12.6-6.5,12.6s-2.8-1.3-3.1-2.1c0,0,1.9-19,5.2-23.6 c1.9-2.6,4.1-10.5,4.2-13.2s0.7-8.2,0.7-8.2L-73.8,44.7z"></path> <path id="Path_961" class="st4" d="M-73.4,45.7c-1.1-0.3-11.9-5-11.7-5.7c0.7-2.4,1.5-6.4,2.4-11.2c0.2-0.9,0.4-1.8,0.6-2.7 c0.5-2.1,1.2-4.2,2-6.3c1.4-3.5,3.7-5.8,5.5-6.6c0.2-0.1,0.7,0.7,1.7,1.7c0.8,0.7,1.8,1,2.9,0.9l0.8,1.6c0.7,1.6,1.2,3.3,1.3,5 C-67.9,22.5-73.3,45.8-73.4,45.7L-73.4,45.7z"></path> <path id="Path_962" class="st21" d="M-67.9,22.5l-3.2-0.4l-8,10.8c-1.1,1.5-3,2.1-4.8,1.5l-2.2,7.6l13.6,4.9L-67.9,22.5z"></path> <path id="Path_963" class="st21" d="M-73.1,17.3c-0.5-1-2.1-3.8-2.1-3.8l0.6-0.3c0.3,0,2,2.9,2.6,3.9c0.6,1.3,2.3,5.3,2.3,5.3 l-1.3-0.3C-71.2,22.1-72.6,18.5-73.1,17.3L-73.1,17.3z"></path> <path id="Path_964" class="st20" d="M-57.9,40.6c0,0,2.8,1.2,2.9,1.8s0.1,2.8-0.6,2.8s-1.5-1.9-1.8-1.9s-1.3-0.3-1.4-0.7 S-57.9,40.6-57.9,40.6L-57.9,40.6z"></path> <path id="Path_965" class="st4" d="M-57.9,41.9c0.4-0.9,0-1.3,0-1.3s-8.1-5.6-8.8-6.2s-4.4-10.7-4.4-10.7s-1.4-4.1-3.6-4.3 c-1.7-0.1-3.2,0.8-3.9,2.4c-0.9,1.6-0.8,3.6,0.2,5.1c2.3,3.3,6.8,10,8.1,11c2.8,2.4,11.5,5.1,11.5,5.1 C-58.4,42.7-58.1,42.3-57.9,41.9L-57.9,41.9z"></path> </g> <g id="Group_986" transform="translate(61.8 47.718)"> <path id="Rectangle_1453" class="st6" d="M-97.3,0H-39v38.8h-58.3V0z"></path> </g> <g id="Group_987" transform="translate(65.17 47.85)"> <path id="Line_1134" class="st24" d="M-46,0v38.2"></path> <path id="Line_1135" class="st24" d="M-54.5,0v38.2"></path> <path id="Line_1136" class="st24" d="M-63.1,0v38.2"></path> <path id="Line_1137" class="st24" d="M-71.6,0v38.2"></path> <path id="Line_1138" class="st24" d="M-80.2,0v38.2"></path> <path id="Line_1139" class="st24" d="M-88.8,0v38.2"></path> <path id="Line_1140" class="st24" d="M-97.3,0v38.2"></path> </g> </g> </g> </svg> 