<?xml version="1.0" encoding="UTF-8"?> <!-- Generator: Adobe Illustrator 24.1.0, SVG Export Plug-In . SVG Version: 6.00 Build 0) --> <svg xmlns="http://www.w3.org/2000/svg" xmlns:xlink="http://www.w3.org/1999/xlink" version="1.1" id="圖層_1" x="0px" y="0px" viewBox="0 0 191 210.7" style="enable-background:new 0 0 191 210.7;" xml:space="preserve"> <style type="text/css"> .st0{fill:#0D395A;} .st1{fill:#E9F2F2;} .st2{fill:#00C1D5;} .st3{fill:#FFFFFF;} .st4{fill:#195D8F;} .st5{fill:#3D94C1;} .st6{fill:#E84040;} </style> <g id="pic-app"> <path id="Rectangle_429" class="st0" d="M71.6,47h56.1c8.5,0,15.4,6.9,15.4,15.4v132.9c0,8.5-6.9,15.4-15.4,15.4H71.6 c-8.5,0-15.4-6.9-15.4-15.4V62.4C56.2,53.9,63.1,47,71.6,47z"></path> <g id="Group_285" transform="translate(60.522 51.043)"> <path id="Path_280" class="st1" d="M78.4,8.5V146c0,4.7-3.8,8.5-8.4,8.5H8.4c-4.7,0-8.4-3.8-8.4-8.5V8.5C0,3.8,3.8,0,8.4,0h61.5 C74.6,0,78.4,3.8,78.4,8.5z"></path> </g> <path id="Rectangle_430" class="st0" d="M87.1,47.9h25.1c2.3,0,4.1,1.8,4.1,4.1l0,0c0,2.3-1.8,4.1-4.1,4.1H87.1 c-2.3,0-4.1-1.8-4.1-4.1l0,0C83,49.8,84.9,47.9,87.1,47.9z"></path> <path id="Rectangle_431" class="st0" d="M3.2,103.1h114.6c1.7,0,3.2,1.4,3.2,3.2v50.2c0,1.7-1.4,3.2-3.2,3.2H3.2 c-1.7,0-3.2-1.4-3.2-3.2v-50.2C0,104.5,1.4,103.1,3.2,103.1z"></path> <g id="Group_303" transform="translate(64.218 64.012)"> <g id="Group_287" transform="translate(1.42 .881)"> <g id="Group_286"> <path id="Rectangle_432" class="st2" d="M69.2,32H0V0h69.2V32z"></path> </g> </g> <g id="Group_300" transform="translate(5.37 .697)"> <g id="Group_288"> <path id="Rectangle_433" class="st3" d="M0,0h1.1v32.5H0V0z"></path> </g> <g id="Group_289" transform="translate(5.473)"> <path id="Rectangle_434" class="st3" d="M0,0h1.1v32.5H0V0z"></path> </g> <g id="Group_290" transform="translate(10.945)"> <path id="Rectangle_435" class="st3" d="M0,0h1.1v32.5H0V0z"></path> </g> <g id="Group_291" transform="translate(16.417)"> <path id="Rectangle_436" class="st3" d="M0,0h1.1v32.5H0V0z"></path> </g> <g id="Group_292" transform="translate(21.89)"> <path id="Rectangle_437" class="st3" d="M0,0h1.1v32.5H0V0z"></path> </g> <g id="Group_293" transform="translate(27.362)"> <path id="Rectangle_438" class="st3" d="M0,0h1.1v32.5H0V0z"></path> </g> <g id="Group_294" transform="translate(32.835)"> <path id="Rectangle_439" class="st3" d="M0,0h1.1v32.5H0V0z"></path> </g> <g id="Group_295" transform="translate(38.307)"> <path id="Rectangle_440" class="st3" d="M0,0h1.1v32.5H0V0z"></path> </g> <g id="Group_296" transform="translate(43.779)"> <path id="Rectangle_441" class="st3" d="M0,0h1.1v32.5H0V0z"></path> </g> <g id="Group_297" transform="translate(49.252)"> <path id="Rectangle_442" class="st3" d="M0,0h1.1v32.5H0V0z"></path> </g> <g id="Group_298" transform="translate(54.725)"> <path id="Rectangle_443" class="st3" d="M0,0h1.1v32.5H0V0z"></path> </g> <g id="Group_299" transform="translate(60.197)"> <path id="Rectangle_444" class="st3" d="M0,0h1.1v32.5H0V0z"></path> </g> </g> <g id="Group_301"> <path id="Path_281" class="st2" d="M71.7,1.8H0L0.3,0H72L71.7,1.8z"></path> </g> <g id="Group_302" transform="translate(.319 32.018)"> <path id="Rectangle_445" class="st2" d="M0,0h71.7v1.8H0V0z"></path> </g> </g> <g id="Group_304" transform="translate(99.004 36.326)"> <path id="Path_282" class="st0" d="M33.5,28.8L0,3.7L1.7,0l33.5,25.1L33.5,28.8z"></path> </g> <g id="Group_305" transform="translate(66.292 36.326)"> <path id="Path_283" class="st0" d="M1.7,28.8L0,25.1L31.2,0l1.7,3.7L1.7,28.8z"></path> </g> <g id="Group_306" transform="translate(90.972 18.639)"> <path id="Path_284" class="st0" d="M9,21.9c-5,0-9-4-9-9C-0.1,8.7,2.8,5,6.8,4.1V2c0-1.1,0.9-2,2-2s2,0.9,2,2l0,3.8 c0,1.1-0.9,2-2,2c0,0,0,0,0,0c-2.7,0-4.8,2.2-4.8,4.9c0,0,0,0.1,0,0.1c0,2.7,2.2,5,5,5c1.8,0,3.4-0.9,4.3-2.5 c0.6-0.9,1.9-1.2,2.8-0.6c0.9,0.6,1.2,1.7,0.7,2.6C15.2,20.2,12.2,21.9,9,21.9L9,21.9z"></path> </g> <g id="Group_307" transform="translate(87.709)"> <path id="Path_285" class="st4" d="M22.1,0H2.5L0,4.3l6.4,16.3h11.4L24,5.2L22.1,0z"></path> </g> <g id="Group_308" transform="translate(131.936 61.263)"> <circle id="Ellipse_44" class="st0" cx="2.3" cy="2.3" r="2.3"></circle> </g> <g id="Group_309" transform="translate(64.087 61.263)"> <circle id="Ellipse_45" class="st0" cx="2.3" cy="2.3" r="2.3"></circle> </g> <ellipse id="Ellipse_46" class="st2" cx="19.3" cy="120.5" rx="11.7" ry="11.5"></ellipse> <path id="Rectangle_446" class="st3" d="M42.3,112.1h28.1v3.6H42.3V112.1z"></path> <path id="Rectangle_447" class="st3" d="M42.3,120.2h42.3v3.6H42.3V120.2z"></path> <path id="Rectangle_448" class="st3" d="M42.3,138.2h72.3v3.6H42.3V138.2z"></path> <path id="Rectangle_449" class="st5" d="M42.3,148h5v3.6h-5V148z"></path> <path id="Rectangle_450" class="st5" d="M50.8,148h5v3.6h-5V148z"></path> <path id="Rectangle_451" class="st3" d="M43.7,130h69.2c0.8,0,1.4,0.6,1.4,1.4l0,0c0,0.8-0.6,1.4-1.4,1.4H43.7 c-0.8,0-1.4-0.6-1.4-1.4l0,0C42.3,130.7,42.9,130,43.7,130z"></path> <path id="Rectangle_452" class="st6" d="M43.7,130H89c0.8,0,1.4,0.6,1.4,1.4l0,0c0,0.8-0.6,1.4-1.4,1.4H43.7 c-0.8,0-1.4-0.6-1.4-1.4l0,0C42.3,130.7,42.9,130,43.7,130z"></path> <g id="Group_310" transform="translate(63.679 166.048)"> <path id="Rectangle_453" class="st4" d="M2.6,0h67.1c1.4,0,2.6,1.2,2.6,2.6v28.7c0,1.4-1.2,2.6-2.6,2.6H2.6 c-1.4,0-2.6-1.2-2.6-2.6V2.6C0,1.2,1.2,0,2.6,0z"></path> <ellipse id="Ellipse_47" class="st2" cx="11.6" cy="10.4" rx="7" ry="6.9"></ellipse> <path id="Rectangle_454" class="st3" d="M25.3,5.4h16.8v2.2H25.3V5.4z"></path> <path id="Rectangle_455" class="st3" d="M25.3,10.3h25.3v2.2H25.3V10.3z"></path> <path id="Rectangle_456" class="st6" d="M25.3,21h43.2v2.2H25.3V21z"></path> <path id="Rectangle_457" class="st5" d="M25.3,26.9h11V29h-11V26.9z"></path> <path id="Rectangle_458" class="st3" d="M26.1,16.1h41.4c0.4,0,0.8,0.4,0.8,0.8l0,0c0,0.4-0.4,0.8-0.8,0.8H26.1 c-0.4,0-0.8-0.4-0.8-0.8l0,0C25.3,16.5,25.7,16.1,26.1,16.1z"></path> <path id="Rectangle_459" class="st2" d="M26.1,16.1h14.5c0.4,0,0.8,0.4,0.8,0.8l0,0c0,0.4-0.4,0.8-0.8,0.8H26.1 c-0.4,0-0.8-0.4-0.8-0.8l0,0C25.3,16.5,25.7,16.1,26.1,16.1z"></path> </g> </g> </svg> 