<?xml version="1.0" encoding="UTF-8"?> <svg xmlns="http://www.w3.org/2000/svg" width="229.544" height="180.193" viewBox="0 0 229.544 180.193"><defs><style> .cls-1{fill:#d8f3f7}.cls-2{fill:#3d94c1}.cls-4{fill:#fff}.cls-6{fill:#195d8f}.cls-7{fill:#0d395a}.cls-8{fill:#e84040} </style></defs><g id="pic-data" transform="translate(-825 -928.811)"><g id="Group_1332" transform="translate(941.752 961.693)"><g id="Group_318" transform="translate(0 -1.171)"><path id="Path_291" d="M82.805 208.987S79.29 224.683 97.348 244c0 0-37.484-10.867-48.351-35.015z" class="cls-1" transform="translate(-13.447 -149.72)"></path><g id="Group_317"><rect id="Rectangle_462" width="112.792" height="68.99" class="cls-1" rx="5.198" transform="rotate(-180 56.396 34.495)"></rect></g></g><g id="Group_1335" transform="translate(22.202 26.02)"><path id="Path_287" d="M189.577 92.071a7.285 7.285 0 1 0 7.285-7.286 7.285 7.285 0 0 0-7.285 7.286z" class="cls-2" transform="translate(-135.711 -84.785)"></path><path id="Path_288" d="M157.31 92.071a7.285 7.285 0 1 0 7.285-7.286 7.285 7.285 0 0 0-7.285 7.286z" class="cls-2" transform="translate(-130.376 -84.785)"></path><path id="Path_289" d="M125.042 92.071a7.286 7.286 0 1 0 7.286-7.286 7.285 7.285 0 0 0-7.286 7.286z" class="cls-2" transform="translate(-125.042 -84.785)"></path></g></g><g id="Group_1333" transform="translate(825 1019.948)"><circle id="Ellipse_225" cx="37.5" cy="37.5" r="37.5" fill="#00c1d5" transform="translate(0 .207)"></circle><ellipse id="Ellipse_226" cx="31" cy="30.5" class="cls-4" rx="31" ry="30.5" transform="translate(7 7.207)"></ellipse><text id="_100_" fill="#00c1d5" font-family="Seravek-BoldItalic, Seravek" font-size="17px" font-style="italic" font-weight="700" letter-spacing="0.05em" transform="translate(15 43.207)"><tspan x="0" y="0">100%</tspan></text></g><g id="Group_1334" transform="translate(914.846 1045.968)"><path id="Rectangle_512" d="M0 0H15.718V15.849H0z" class="cls-6" transform="translate(0 47.155)"></path><path id="Rectangle_513" d="M0 0H15.718V32.124H0z" class="cls-7" transform="translate(22.497 30.88)"></path><path id="Rectangle_514" d="M0 0H15.718V25.87H0z" class="cls-6" transform="translate(44.994 37.167)"></path><path id="Rectangle_515" d="M0 0H15.718V48.334H0z" class="cls-7" transform="translate(67.491 14.703)"></path><path id="Path_465" d="M19.816 175.151a.683.683 0 0 1-.524-.262.7.7 0 0 1 .131-.917L42.182 157.5l22.431 6.254 22.235-22.2a.648.648 0 1 1 .917.917L65.006 165.2l-22.563-6.287-22.235 16.074a.517.517 0 0 1-.392.164z" class="cls-8" transform="translate(-11.956 -138.737)"></path><g id="Group_499" transform="translate(4.552 32.484)"><circle id="Ellipse_59" cx="2.652" cy="2.652" r="2.652" class="cls-8" transform="translate(.655 .622)"></circle><path id="Path_466" d="M17.87 199.6a3.308 3.308 0 1 1 3.307-3.308 3.3 3.3 0 0 1-3.307 3.308zm0-5.338a2.006 2.006 0 0 0-2 2 2 2 0 1 0 2-2z" class="cls-8" transform="translate(-14.563 -192.989)"></path></g><g id="Group_500" transform="translate(27.049 16.242)"><circle id="Ellipse_60" cx="2.652" cy="2.652" r="2.652" class="cls-8" transform="translate(.655 .622)"></circle><path id="Path_467" d="M56.764 171.523a3.308 3.308 0 1 1 3.308-3.308 3.3 3.3 0 0 1-3.308 3.308zm0-5.338a2.005 2.005 0 0 0-2 2 2 2 0 1 0 2-2z" class="cls-8" transform="translate(-53.457 -164.908)"></path></g><g id="Group_501" transform="translate(49.546 22.562)"><circle id="Ellipse_61" cx="2.652" cy="2.652" r="2.652" class="cls-8" transform="translate(.655 .622)"></circle><path id="Path_468" d="M95.659 182.45a3.307 3.307 0 1 1 3.307-3.307 3.3 3.3 0 0 1-3.307 3.307zm0-5.338a2.006 2.006 0 0 0-2 2 2 2 0 1 0 4 0 2.006 2.006 0 0 0-2-2z" class="cls-8" transform="translate(-92.352 -175.835)"></path></g><g id="Group_502" transform="translate(72.043)"><circle id="Ellipse_62" cx="2.652" cy="2.652" r="2.652" class="cls-8" transform="translate(.655 .655)"></circle><path id="Path_469" d="M134.554 143.442a3.307 3.307 0 1 1 3.307-3.307 3.3 3.3 0 0 1-3.307 3.307zm0-5.338a2.006 2.006 0 0 0-2 2 2.027 2.027 0 0 0 2 2 2 2 0 0 0 0-4z" class="cls-8" transform="translate(-131.246 -136.827)"></path></g></g><g id="Group_1335-2" transform="translate(858.288 922.415)"><g id="Group_1337" transform="translate(0 6.397)"><path id="Path_291-2" d="M63.539 208.987S67.055 224.683 49 244c0 0 37.484-10.867 48.35-35.015z" class="cls-6" transform="translate(-20.107 -150.102)"></path><g id="Group_317-2"><rect id="Rectangle_462-2" width="112.791" height="68.609" class="cls-6" rx="5.198"></rect></g></g><g id="Group_1336" transform="translate(11.118 18.13)"><path id="Rectangle_1774" d="M0 0H58V5H0z" class="cls-4" transform="translate(-.406 -.39)"></path><path id="Rectangle_1775" d="M0 0H91V5H0z" class="cls-4" transform="translate(-.406 9.61)"></path><path id="Rectangle_1776" d="M0 0H91V5H0z" class="cls-4" transform="translate(-.406 18.61)"></path><path id="Rectangle_1777" d="M0 0H91V4H0z" class="cls-4" transform="translate(-.406 29.61)"></path><path id="Rectangle_1778" d="M0 0H91V5H0z" class="cls-4" transform="translate(-.406 38.61)"></path></g></g></g></svg> 