<?xml version="1.0" encoding="UTF-8"?> <svg xmlns="http://www.w3.org/2000/svg" width="227.785" height="191.057" viewBox="0 0 227.785 191.057"><defs><style> .cls-1{fill:#e9f2f2}.cls-2{fill:#3d94c1}.cls-3{fill:#00c1d5}.cls-4{fill:#195d8f}.cls-6{fill:#fff}.cls-7{fill:#e84040} </style></defs><g id="pic-smooth"><g id="Group_314" transform="translate(67.022)"><path id="Path_286" d="M170.011 128.593s-9.37 9.789-12.482 31.185c0 0-1.945-18.284-15.35-31.185z" class="cls-1" transform="translate(-112.911 -70.125)"></path><g id="Group_313"><rect id="Rectangle_460" width="92.857" height="66.472" class="cls-1" rx="5.198" transform="rotate(-180 46.428 33.236)"></rect><g id="Group_312" transform="translate(16.942 26.958)"><path id="Path_287" d="M189.577 91.063a6.278 6.278 0 1 0 6.278-6.278 6.277 6.277 0 0 0-6.278 6.278z" class="cls-2" transform="translate(-143.16 -84.785)"></path><path id="Path_288" d="M157.31 91.063a6.278 6.278 0 1 0 6.278-6.278 6.277 6.277 0 0 0-6.278 6.278z" class="cls-2" transform="translate(-134.101 -84.785)"></path><path id="Path_289" d="M125.042 91.063a6.278 6.278 0 1 0 6.278-6.278 6.278 6.278 0 0 0-6.278 6.278z" class="cls-2" transform="translate(-125.042 -84.785)"></path></g></g></g><g id="Group_316" transform="translate(134.928 57.824)"><path id="Path_290" d="M240.94 208.987s2.894 12.922-11.972 28.826c0 0 30.858-8.946 39.8-28.826z" class="cls-3" transform="translate(-205.183 -150.519)"></path><g id="Group_315"><rect id="Rectangle_461" width="92.857" height="66.472" class="cls-3" rx="5.198"></rect></g></g><g id="Group_318" transform="translate(0 57.824)"><path id="Path_291" d="M76.83 208.987s-2.894 12.922 11.97 28.826c0 0-30.859-8.946-39.805-28.826z" class="cls-4" transform="translate(-19.73 -150.519)"></path><g id="Group_317"><rect id="Rectangle_462" width="92.857" height="66.472" class="cls-4" rx="5.198" transform="rotate(-180 46.428 33.236)"></rect></g></g><circle id="Ellipse_48" cx="33.242" cy="33.242" r="33.242" fill="#0d395a" transform="translate(80.931 124.572)"></circle><g id="Group_319" transform="translate(93.822 142.945)"><path id="Path_292" d="M155.176 282.016a3.442 3.442 0 0 1-2.434-1.008l-12.985-12.986a3.442 3.442 0 1 1 4.867-4.867l10.3 10.3 21.485-26.155a3.443 3.443 0 0 1 5.32 4.37l-23.893 29.087a3.444 3.444 0 0 1-2.492 1.253q-.084.006-.168.006z" class="cls-6" transform="translate(-138.749 -246.044)"></path></g><g id="Group_320" transform="translate(144.942 71.524)"><path id="Path_293" d="M228 187.307l-8.531-7.312-7.348 5.678-2.3-2.975 9.768-7.549 7.808 6.693 12.534-16.712 10.84 14.07 13.439-24.573 6.99 6.99 13.457-14.873 2.788 2.522-16.109 17.8-6.235-6.236-13.793 25.222-11.335-14.716z" class="cls-6" transform="translate(-209.821 -146.745)"></path></g><path id="Rectangle_463" d="M0 0H37.346V44.348H0z" class="cls-6" transform="translate(21.666 69.284)"></path><path id="Rectangle_464" d="M0 0H10.893V2.334H0z" class="cls-7" transform="translate(26.14 73.368)"></path><path id="Rectangle_465" d="M0 0H27.621V2.334H0z" class="cls-3" transform="translate(26.334 79.009)"></path><path id="Rectangle_466" d="M0 0H27.621V2.334H0z" class="cls-7" transform="translate(26.334 84.066)"></path><path id="Rectangle_467" d="M0 0H27.621V2.334H0z" class="cls-7" transform="translate(26.334 89.513)"></path><path id="Rectangle_468" d="M0 0H27.621V2.334H0z" class="cls-3" transform="translate(26.334 95.348)"></path><path id="Rectangle_469" d="M0 0H27.621V2.334H0z" class="cls-4" transform="translate(26.334 100.405)"></path><path id="Rectangle_470" d="M0 0H27.621V2.334H0z" class="cls-4" transform="translate(26.334 105.851)"></path><path id="Rectangle_471" fill="#f0fafc" d="M0 0H31.449V37.346H0z" transform="translate(39.233 80.176)"></path><path id="Rectangle_472" d="M0 0H24.119V2.334H0z" class="cls-7" transform="translate(43.062 90.874)"></path><path id="Rectangle_473" d="M0 0H24.119V2.334H0z" class="cls-4" transform="translate(43.062 83.677)"></path><path id="Rectangle_474" d="M0 0H24.119V2.334H0z" class="cls-4" transform="translate(43.062 98.071)"></path><path id="Rectangle_475" d="M0 0H24.119V2.334H0z" class="cls-4" transform="translate(43.062 105.268)"></path><path id="Rectangle_476" d="M0 0H24.119V2.334H0z" class="cls-4" transform="translate(43.062 112.465)"></path></g></svg> 