<svg xmlns="http://www.w3.org/2000/svg" width="1440.35" height="673" viewBox="0 0 1440.35 673">
    <defs>
        <linearGradient id="linear-gradient" x1=".206" x2="1.019" y1=".5" y2=".5" gradientUnits="objectBoundingBox">
            <stop offset=".248" stop-color="#d8f3f7"/>
            <stop offset="1" stop-color="#fff"/>
        </linearGradient>
        <linearGradient id="linear-gradient-2" x1=".46" x2=".456" y1=".5" y2="1" gradientUnits="objectBoundingBox">
            <stop offset="0" stop-color="#fff"/>
            <stop offset="1" stop-color="#fff" stop-opacity="0"/>
        </linearGradient>
        <clipPath id="clip-path">
            <path id="Rectangle_1928" fill="#fff" stroke="#707070" d="M0 0H1440V673H0z" transform="translate(0 303)"/>
        </clipPath>
        <clipPath id="clip-path-2">
            <path id="Path_1153" fill="none" d="M895.482 445.517l451.841 53.372v250.457h91.043v472.78l-739.793-1.132V745.231h99.933l3.981-143.722 85.5-3z"/>
        </clipPath>
        <style>
            .cls-39{fill:#fff}.cls-11,.cls-12,.cls-14,.cls-16,.cls-17,.cls-19,.cls-21,.cls-22,.cls-27,.cls-29,.cls-31,.cls-33,.cls-42,.cls-49,.cls-6,.cls-7,.cls-9{fill:none}.cls-11,.cls-12,.cls-14,.cls-16,.cls-17,.cls-19,.cls-21,.cls-22,.cls-27,.cls-29,.cls-31,.cls-33,.cls-42,.cls-44,.cls-6,.cls-7,.cls-9{stroke-miterlimit:10}.cls-6{stroke:#f3f3f3}.cls-7{stroke:#f2f2f2}.cls-9{stroke:#f0f0f0}.cls-11{stroke:#eee}.cls-12{stroke:#ededed}.cls-14{stroke:#ebebeb}.cls-16{stroke:#e9e9e9}.cls-17{stroke:#e8e8e8}.cls-19{stroke:#e6e6e6}.cls-21{stroke:#e4e4e4}.cls-22{stroke:#e3e3e3}.cls-26{fill:#8ae7e4}.cls-27,.cls-31,.cls-33,.cls-49{stroke:#0d395a}.cls-27{stroke-width:4px}.cls-28{fill:#e84040}.cls-29,.cls-42{stroke:#fff}.cls-30{fill:#0d395a}.cls-31,.cls-49{stroke-width:3px}.cls-32,.cls-44{fill:#195d8f}.cls-33,.cls-44{stroke-width:2px}.cls-49{stroke-linecap:round;stroke-linejoin:round}.cls-35{fill:#00c1d5}.cls-38{fill:#e8f1f1}.cls-42{stroke-width:.94px}.cls-44{stroke:#baedf0}.cls-46{fill:#d2ecec}.cls-47{fill:#c5f3f2}.cls-48{fill:#b8eeeb}.cls-50{fill:#353535}.cls-51{fill:#ec965d}.cls-52{fill:#ffb17d}.cls-54{fill:#233862}.cls-58{fill:#277aa9}
        </style>
    </defs>
    <g id="kv-bg" transform="translate(11.225 -355.852)">
        <g id="kv-bg-2" clip-path="url(#clip-path)" transform="translate(-11.225 52.852)">
            <g id="wave_load">
                <g id="Group_1122" transform="translate(.719 -52.517)">
                    <g id="Group_1121">
                        <g id="Group_1120" clip-path="url(#clip-path-2)">
                            <g id="Group_1119">
                                <path id="Line_1241" fill="none" stroke="#f4f4f4" stroke-miterlimit="10" d="M714.978 0L0 873.234" transform="translate(192 328.892)"/>
                                <path id="Line_1242" d="M707.427 0L0 866.333" class="cls-6" transform="translate(231.172 340.345)"/>
                                <path id="Line_1243" d="M699.876 0L0 859.433" class="cls-6" transform="translate(270.345 351.797)"/>
                                <path id="Line_1244" d="M692.325 0L0 852.532" class="cls-7" transform="translate(309.517 363.249)"/>
                                <path id="Line_1245" d="M684.774 0L0 845.632" class="cls-7" transform="translate(348.69 374.701)"/>
                                <path id="Line_1246" fill="none" stroke="#f1f1f1" stroke-miterlimit="10" d="M677.223 0L0 838.731" transform="translate(387.862 386.154)"/>
                                <path id="Line_1247" d="M669.672 0L0 831.83" class="cls-9" transform="translate(427.034 397.606)"/>
                                <path id="Line_1248" d="M662.121 0L0 824.93" class="cls-9" transform="translate(466.207 409.058)"/>
                                <path id="Line_1249" fill="none" stroke="#efefef" stroke-miterlimit="10" d="M654.57 0L0 818.029" transform="translate(505.379 420.51)"/>
                                <path id="Line_1250" d="M647.019 0L0 811.129" class="cls-11" transform="translate(544.552 431.963)"/>
                                <path id="Line_1251" d="M639.468 0L0 804.228" class="cls-11" transform="translate(583.724 443.415)"/>
                                <path id="Line_1252" d="M631.917 0L0 797.328" class="cls-12" transform="translate(622.897 454.867)"/>
                                <path id="Line_1253" d="M624.366 0L0 790.427" class="cls-12" transform="translate(662.069 466.32)"/>
                                <path id="Line_1254" fill="none" stroke="#ececec" stroke-miterlimit="10" d="M616.815 0L0 783.527" transform="translate(701.241 477.772)"/>
                                <path id="Line_1255" d="M609.264 0L0 776.626" class="cls-14" transform="translate(740.414 489.224)"/>
                                <path id="Line_1256" d="M601.713 0L0 769.726" class="cls-14" transform="translate(779.586 500.676)"/>
                                <path id="Line_1257" fill="none" stroke="#eaeaea" stroke-miterlimit="10" d="M594.162 0L0 762.825" transform="translate(818.759 512.129)"/>
                                <path id="Line_1258" d="M586.611 0L0 755.924" class="cls-16" transform="translate(857.931 523.581)"/>
                                <path id="Line_1259" d="M579.06 0L0 749.024" class="cls-16" transform="translate(897.103 535.033)"/>
                                <path id="Line_1260" d="M571.51 0L0 742.123" class="cls-17" transform="translate(936.276 546.485)"/>
                                <path id="Line_1261" d="M563.959 0L0 735.223" class="cls-17" transform="translate(975.448 557.938)"/>
                                <path id="Line_1262" fill="none" stroke="#e7e7e7" stroke-miterlimit="10" d="M556.408 0L0 728.322" transform="translate(1014.621 569.39)"/>
                                <path id="Line_1263" d="M548.857 0L0 721.422" class="cls-19" transform="translate(1053.793 580.842)"/>
                                <path id="Line_1264" d="M541.306 0L0 714.521" class="cls-19" transform="translate(1092.966 592.294)"/>
                                <path id="Line_1265" fill="none" stroke="#e5e5e5" stroke-miterlimit="10" d="M533.755 0L0 707.621" transform="translate(1132.138 603.747)"/>
                                <path id="Line_1266" d="M526.204 0L0 700.72" class="cls-21" transform="translate(1171.31 615.199)"/>
                                <path id="Line_1267" d="M518.653 0L0 693.82" class="cls-21" transform="translate(1210.483 626.651)"/>
                                <path id="Line_1268" d="M511.102 0L0 686.919" class="cls-22" transform="translate(1249.655 638.104)"/>
                                <path id="Line_1269" d="M503.551 0L0 680.018" class="cls-22" transform="translate(1288.828 649.556)"/>
                                <path id="Line_1270" fill="none" stroke="#e2e2e2" stroke-miterlimit="10" d="M496 0L0 673.118" transform="translate(1328 661.008)"/>
                            </g>
                        </g>
                    </g>
                    <path id="Path_1154" fill="url(#linear-gradient)" d="M648.153 1230.126H-.718V721.807l21.826-11.779a55.394 55.394 0 0 1 51.677-.5 55.4 55.4 0 0 0 48.24 1.208l9.37-4.248a55.4 55.4 0 0 1 45.633-.05l7.124 3.211a55.4 55.4 0 0 0 46.929-.649l2.654-1.287a55.4 55.4 0 0 1 47.789-.261l6.6 3.109a55.4 55.4 0 0 0 44.972 1.009l13.839-5.781a55.4 55.4 0 0 1 45.537 1.278l5.287 2.566a55.393 55.393 0 0 0 47.313.5l8.445-3.88a55.392 55.392 0 0 1 47.052.374l8.015 3.838a55.39 55.39 0 0 0 44.825 1.339l16.674-6.793a55.4 55.4 0 0 1 43.21.6l19.921 8.766a34.468 34.468 0 0 0 27.62.062c6.179-2.686 18.966-8.613 27.18-8.842a59.9 59.9 0 0 1 43.383 16.977v507.564z"/>
                </g>
                <path id="Rectangle_482" fill="url(#linear-gradient-2)" d="M0 0H1440V471H0z" transform="rotate(180 720 623)"/>
            </g>
            <g id="wave">
                <path id="Path_1161" d="M572.5 796.832a13.347 13.347 0 0 1-7.182-2.147 10.758 10.758 0 0 0-11.847 0 12.871 12.871 0 0 1-14.29 0 10.758 10.758 0 0 0-11.847 0 1.119 1.119 0 0 1-1.258-1.852 12.869 12.869 0 0 1 14.289 0 10.759 10.759 0 0 0 11.847 0 12.871 12.871 0 0 1 14.29 0 10.759 10.759 0 0 0 11.847 0 12.871 12.871 0 0 1 14.29 0 1.12 1.12 0 1 1-1.259 1.852 10.758 10.758 0 0 0-11.847 0 12.676 12.676 0 0 1-7.033 2.147z" class="cls-26" transform="translate(2.037 -60.967)"/>
                <path id="Path_1279" d="M336.432 763.5a13.346 13.346 0 0 1-7.182-2.147 10.758 10.758 0 0 0-11.847 0 12.871 12.871 0 0 1-14.29 0 10.758 10.758 0 0 0-11.847 0 1.119 1.119 0 0 1-1.258-1.852 12.87 12.87 0 0 1 14.289 0 10.758 10.758 0 0 0 11.847 0 12.871 12.871 0 0 1 14.29 0 10.758 10.758 0 0 0 11.847 0 12.871 12.871 0 0 1 14.29 0 1.119 1.119 0 0 1-1.258 1.852 10.76 10.76 0 0 0-11.848 0 12.676 12.676 0 0 1-7.033 2.147z" class="cls-26" transform="translate(6.443 -60.345)"/>
                <path id="Path_1281" d="M468.639 870.328a13.349 13.349 0 0 1-7.182-2.147 10.758 10.758 0 0 0-11.847 0 12.87 12.87 0 0 1-14.289 0 10.758 10.758 0 0 0-11.847 0 1.119 1.119 0 1 1-1.259-1.851 12.868 12.868 0 0 1 14.29 0 10.762 10.762 0 0 0 11.847 0 12.868 12.868 0 0 1 14.29 0 10.762 10.762 0 0 0 11.847 0 12.866 12.866 0 0 1 14.289 0 1.119 1.119 0 1 1-1.258 1.851 10.758 10.758 0 0 0-11.847 0 12.681 12.681 0 0 1-7.034 2.147z" class="cls-26" transform="translate(3.977 -62.339)"/>
                <path id="Path_1282" d="M165.752 814.349a11.977 11.977 0 0 1 6.45 1.928 9.669 9.669 0 0 0 10.642 0 11.558 11.558 0 0 1 12.835 0 9.667 9.667 0 0 0 10.641 0 1.005 1.005 0 1 1 1.13 1.662 11.558 11.558 0 0 1-12.835 0 9.663 9.663 0 0 0-10.641 0 11.56 11.56 0 0 1-12.836 0 9.663 9.663 0 0 0-10.641 0 11.56 11.56 0 0 1-12.836 0 1.005 1.005 0 1 1 1.131-1.662 9.667 9.667 0 0 0 10.641 0 11.378 11.378 0 0 1 6.319-1.928z" class="cls-26" transform="translate(9.1 -61.409)"/>
            </g>
        </g>
        <g id="Group_1147" transform="translate(468.418 365.597)">
            <g id="Group_1126" transform="translate(171.736 .833)">
                <path id="Line_1274" d="M18.836 0L0 0" class="cls-27" transform="translate(12.107 28.908)"/>
                <path id="Line_1275" d="M0 0L17.206 22.664" class="cls-27" transform="translate(12.521 29.042)"/>
                <path id="Path_1164" d="M651.695 420.7l27.012-54.01 3.23-.059v83.44" class="cls-27" transform="translate(-651.695 -366.631)"/>
                <path id="Line_1276" d="M29.22 0L0 23.373" class="cls-27" transform="translate(.507 28.63)"/>
                <path id="Line_1277" d="M17.166 0L0 17.086" class="cls-27" transform="translate(13.438 11.42)"/>
            </g>
            <g id="Group_1127" transform="translate(1.374 168.525)">
                <path id="Rectangle_1591" d="M0 0H66.992V16.914H0z" class="cls-28" transform="rotate(-180 33.496 8.457)"/>
            </g>
            <g id="Group_1128" transform="translate(5.752 168.428)">
                <path id="Line_1278" d="M0 0L0 17.164" class="cls-29"/>
                <path id="Line_1279" d="M0 0L0 17.164" class="cls-29" transform="translate(5.295)"/>
                <path id="Line_1280" d="M0 0L0 17.164" class="cls-29" transform="translate(10.59)"/>
                <path id="Line_1281" d="M0 0L0 17.164" class="cls-29" transform="translate(15.885)"/>
                <path id="Line_1282" d="M0 0L0 17.164" class="cls-29" transform="translate(21.18)"/>
                <path id="Line_1283" d="M0 0L0 17.164" class="cls-29" transform="translate(26.476)"/>
                <path id="Line_1284" d="M0 0L0 17.164" class="cls-29" transform="translate(31.771)"/>
                <path id="Line_1285" d="M0 0L0 17.164" class="cls-29" transform="translate(37.066)"/>
                <path id="Line_1286" d="M0 0L0 17.164" class="cls-29" transform="translate(42.361)"/>
                <path id="Line_1287" d="M0 0L0 17.164" class="cls-29" transform="translate(47.656)"/>
                <path id="Line_1288" d="M0 0L0 17.164" class="cls-29" transform="translate(52.951)"/>
                <path id="Line_1289" d="M0 0L0 17.164" class="cls-29" transform="translate(58.246)"/>
            </g>
            <path id="Path_1165" d="M546.045 538.309h-69.353l.309-1.481h69.353z" class="cls-28" transform="translate(-476.692 -368.974)"/>
            <path id="Rectangle_1592" d="M0 0H69.353V1.481H0z" class="cls-28" transform="translate(.308 183.958)"/>
            <g id="Group_1129" transform="translate(171.175 76.84)">
                <path id="Rectangle_1593" d="M0 0H29.902V143.93H0z" class="cls-27" transform="rotate(-180 15.485 71.965)"/>
                <path id="Line_1290" d="M31.504 0L0 0" class="cls-27" transform="translate(0 46.904)"/>
                <path id="Line_1291" d="M31.504 0L0 0" class="cls-27" transform="translate(0 90.689)"/>
                <path id="Line_1292" d="M0 0L27.766 44.32" class="cls-27" transform="translate(2.67 47.438)"/>
                <path id="Line_1293" d="M27.766 0L0 44.32" class="cls-27" transform="translate(2.67 47.438)"/>
                <path id="Line_1294" d="M0 0L27.766 44.32" class="cls-27" transform="translate(2.67 89.621)"/>
                <path id="Line_1295" d="M27.766 0L0 44.32" class="cls-27" transform="translate(2.67 89.621)"/>
                <path id="Line_1296" d="M0 0L27.766 44.32" class="cls-27" transform="translate(2.67 .982)"/>
                <path id="Line_1297" d="M27.766 0L0 44.32" class="cls-27" transform="translate(2.67 .982)"/>
            </g>
            <path id="Rectangle_1594" d="M0 0H25.631V26.566H0z" class="cls-30" transform="rotate(-180 128.505 39.118)"/>
            <path id="Rectangle_1595" d="M0 0H31.763V21.166H0z" class="cls-30" transform="rotate(-180 101.26 37.768)"/>
            <path id="Path_1168" d="M709.892 443.565H499.11l13.1-23.647h197.682" class="cls-27" transform="translate(-477.111 -366.792)"/>
            <path id="Line_1298" d="M0 0L14.218 22.694" class="cls-31" transform="translate(202.412 53.436)"/>
            <path id="Line_1299" d="M14.218 0L0 22.694" class="cls-31" transform="translate(202.412 53.436)"/>
            <path id="Line_1300" d="M0 0L14.218 22.694" class="cls-31" transform="translate(156.557 53.436)"/>
            <path id="Line_1301" d="M14.218 0L0 22.694" class="cls-31" transform="translate(156.557 53.436)"/>
            <g id="Group_1130" transform="translate(140.939 53.436)">
                <path id="Line_1302" d="M0 0L14.218 22.694" class="cls-31"/>
                <path id="Line_1303" d="M14.218 0L0 22.694" class="cls-31"/>
            </g>
            <g id="Group_1131" transform="translate(126.521 53.436)">
                <path id="Line_1304" d="M0 0L14.218 22.694" class="cls-31"/>
                <path id="Line_1305" d="M14.218 0L0 22.694" class="cls-31"/>
            </g>
            <g id="Group_1132" transform="translate(111.904 53.436)">
                <path id="Line_1306" d="M0 0L14.218 22.694" class="cls-31"/>
                <path id="Line_1307" d="M14.218 0L0 22.694" class="cls-31"/>
            </g>
            <g id="Group_1133" transform="translate(96.886 53.436)">
                <path id="Line_1308" d="M0 0L14.218 22.694" class="cls-31"/>
                <path id="Line_1309" d="M14.218 0L0 22.694" class="cls-31"/>
            </g>
            <g id="Group_1134" transform="translate(81.067 53.436)">
                <path id="Line_1310" d="M0 0L14.218 22.694" class="cls-31"/>
                <path id="Line_1311" d="M14.218 0L0 22.694" class="cls-31"/>
            </g>
            <path id="Line_1312" d="M0 0L14.218 22.694" class="cls-31" transform="translate(217.43 53.436)"/>
            <path id="Line_1313" d="M14.218 0L0 22.694" class="cls-31" transform="translate(217.43 53.436)"/>
            <path id="Line_1314" d="M0 0L0 23.428" class="cls-31" transform="translate(217.363 53.57)"/>
            <path id="Line_1315" d="M0 0L0 23.428" class="cls-31" transform="translate(155.814 53.57)"/>
            <path id="Line_1316" d="M0 0L0 23.428" class="cls-31" transform="translate(140.669 53.57)"/>
            <path id="Line_1317" d="M0 0L0 23.428" class="cls-31" transform="translate(126.527 53.57)"/>
            <path id="Line_1318" d="M0 0L0 23.428" class="cls-31" transform="translate(111.509 53.57)"/>
            <path id="Line_1319" d="M0 0L0 23.428" class="cls-31" transform="translate(96.09 53.57)"/>
            <path id="Line_1320" d="M0 0L0 23.428" class="cls-31" transform="translate(80.542 53.57)"/>
            <g id="Group_1135" transform="translate(66.506 53.436)">
                <path id="Line_1321" d="M0 0L14.218 22.694" class="cls-31"/>
                <path id="Line_1322" d="M14.218 0L0 22.694" class="cls-31"/>
            </g>
            <path id="Line_1323" d="M0 0L0 23.428" class="cls-31" transform="translate(65.98 53.57)"/>
            <g id="Group_1136" transform="translate(51.204 53.436)">
                <path id="Line_1324" d="M0 0L14.218 22.694" class="cls-31"/>
                <path id="Line_1325" d="M14.218 0L0 22.694" class="cls-31"/>
            </g>
            <path id="Line_1326" d="M0 0L0 23.428" class="cls-31" transform="translate(50.678 53.57)"/>
            <g id="Group_1137" transform="translate(36.148 53.436)">
                <path id="Line_1327" d="M0 0L14.218 22.694" class="cls-31"/>
                <path id="Line_1328" d="M14.218 0L0 22.694" class="cls-31"/>
            </g>
            <path id="Line_1329" d="M0 0L0 23.428" class="cls-31" transform="translate(35.623 53.57)"/>
            <g id="Group_1138" transform="translate(170.707 73.641)">
                <path id="Rectangle_1596" d="M0 0H6.552V1.71H0z" class="cls-28" transform="rotate(-180 16.38 .855)"/>
                <path id="Rectangle_1597" d="M0 0H6.552V1.71H0z" class="cls-32" transform="rotate(-180 13.104 .855)"/>
                <path id="Rectangle_1598" d="M0 0H6.552V1.71H0z" class="cls-28" transform="rotate(-180 9.828 .855)"/>
                <path id="Rectangle_1599" d="M0 0H6.552V1.71H0z" class="cls-28" transform="rotate(-180 3.276 .855)"/>
                <path id="Rectangle_1600" d="M0 0H6.552V1.71H0z" class="cls-32" transform="rotate(-180 6.552 .855)"/>
            </g>
            <g id="Group_1139" transform="translate(170.707 54.684)">
                <path id="Rectangle_1601" d="M0 0H6.552V1.618H0z" class="cls-28" transform="rotate(-180 16.38 .809)"/>
                <path id="Rectangle_1602" d="M0 0H6.552V1.618H0z" class="cls-32" transform="rotate(-180 13.104 .809)"/>
                <path id="Rectangle_1603" d="M0 0H6.552V1.618H0z" class="cls-28" transform="rotate(-180 9.828 .809)"/>
                <path id="Rectangle_1604" d="M0 0H6.552V1.618H0z" class="cls-28" transform="rotate(-180 3.276 .809)"/>
                <path id="Rectangle_1605" d="M0 0H6.552V1.618H0z" class="cls-32" transform="rotate(-180 6.552 .809)"/>
            </g>
            <g id="Group_1140" transform="translate(231.3 54.684)">
                <path id="Rectangle_1606" d="M0 0H2.74V1.618H0z" class="cls-28" transform="rotate(-180 12.869 .809)"/>
                <path id="Rectangle_1607" d="M0 0H6.552V1.618H0z" class="cls-32" transform="rotate(-180 11.499 .809)"/>
                <path id="Rectangle_1608" d="M0 0H6.552V1.618H0z" class="cls-28" transform="rotate(-180 8.223 .809)"/>
                <path id="Rectangle_1609" d="M0 0H3.342V1.618H0z" class="cls-28" transform="rotate(-180 1.671 .809)"/>
                <path id="Rectangle_1610" d="M0 0H6.552V1.618H0z" class="cls-32" transform="rotate(-180 4.947 .809)"/>
            </g>
            <g id="Group_1141" transform="translate(231.3 73.641)">
                <path id="Rectangle_1611" d="M0 0H2.74V1.71H0z" class="cls-28" transform="rotate(-180 12.869 .855)"/>
                <path id="Rectangle_1612" d="M0 0H6.552V1.71H0z" class="cls-32" transform="rotate(-180 11.499 .855)"/>
                <path id="Rectangle_1613" d="M0 0H6.552V1.71H0z" class="cls-28" transform="rotate(-180 8.223 .855)"/>
                <path id="Rectangle_1614" d="M0 0H3.342V1.71H0z" class="cls-28" transform="rotate(-180 1.671 .855)"/>
                <path id="Rectangle_1615" d="M0 0H6.552V1.71H0z" class="cls-32" transform="rotate(-180 4.947 .855)"/>
            </g>
            <path id="Line_1330" d="M0 0L53.745 52.241" class="cls-33" transform="translate(202.774)"/>
            <path id="Line_1331" d="M30.619 51.917L0 0" class="cls-33" transform="translate(202.635 .74)"/>
            <path id="Line_1332" d="M0 52.2L81.693 0" class="cls-33" transform="translate(116.562 .833)"/>
            <path id="Line_1333" d="M0 53.125L96.486 0" class="cls-33" transform="translate(101.753 .093)"/>
            <path id="Path_1169" d="M639.7 592.3h54.465l-3.2-12.273H642.9z" class="cls-32" transform="translate(-479.735 -369.781)"/>
            <path id="Rectangle_1616" d="M0 0H58.47V3.849H0z" class="cls-28" transform="rotate(-180 108.281 112.921)"/>
            <path id="Line_1334" d="M0 0L49.795 0" class="cls-29" transform="translate(162.393 212.778)"/>
            <path id="Line_1335" d="M53.597 0L0 0" class="cls-29" transform="translate(160.492 219.719)"/>
            <path id="Line_1336" d="M0 0L31.838 14.808" class="cls-27" transform="translate(35.186 153.729)"/>
            <path id="Line_1337" d="M31.838 0L0 14.808" class="cls-27" transform="translate(2.978 153.729)"/>
            <path id="Path_1170" fill="none" stroke="#0d395a" stroke-linecap="round" stroke-linejoin="round" stroke-width="4px" d="M517.821 518.5a6.761 6.761 0 0 1-12.6-3.4 6.625 6.625 0 0 1 6.6-6.761l-.008-.845v-2.873" transform="translate(-477.225 -368.373)"/>
            <g id="Group_1142" transform="translate(1.374 203.449)">
                <path id="Rectangle_1617" d="M0 0H66.992V16.914H0z" class="cls-35" transform="rotate(-180 33.496 8.457)"/>
            </g>
            <g id="Group_1143" transform="translate(5.752 203.351)">
                <path id="Line_1338" d="M0 0L0 17.164" class="cls-29"/>
                <path id="Line_1339" d="M0 0L0 17.164" class="cls-29" transform="translate(5.295)"/>
                <path id="Line_1340" d="M0 0L0 17.164" class="cls-29" transform="translate(10.59)"/>
                <path id="Line_1341" d="M0 0L0 17.164" class="cls-29" transform="translate(15.885)"/>
                <path id="Line_1342" d="M0 0L0 17.164" class="cls-29" transform="translate(21.18)"/>
                <path id="Line_1343" d="M0 0L0 17.164" class="cls-29" transform="translate(26.476)"/>
                <path id="Line_1344" d="M0 0L0 17.164" class="cls-29" transform="translate(31.771)"/>
                <path id="Line_1345" d="M0 0L0 17.164" class="cls-29" transform="translate(37.066)"/>
                <path id="Line_1346" d="M0 0L0 17.164" class="cls-29" transform="translate(42.361)"/>
                <path id="Line_1347" d="M0 0L0 17.164" class="cls-29" transform="translate(47.656)"/>
                <path id="Line_1348" d="M0 0L0 17.164" class="cls-29" transform="translate(52.951)"/>
                <path id="Line_1349" d="M0 0L0 17.164" class="cls-29" transform="translate(58.246)"/>
            </g>
            <path id="Line_1350" d="M9.611 0L0 38.98" class="cls-27" transform="translate(39.293 78.199)"/>
            <path id="Line_1351" d="M0 0L9.077 41.116" class="cls-27" transform="translate(20.403 76.53)"/>
            <path id="Path_1171" d="M521.426 484.237H502.4l-2.4 4.2 6.207 15.819h11.013l6.007-15.018z" class="cls-32" transform="translate(-477.127 -367.993)"/>
            <circle id="Ellipse_199" cx="2.221" cy="2.221" r="2.221" class="cls-30" transform="translate(65.667 166.625)"/>
            <circle id="Ellipse_200" cx="2.221" cy="2.221" r="2.221" class="cls-30" transform="translate(.016 166.625)"/>
            <g id="Group_1146" transform="translate(0 185.933)">
                <g id="Group_1144" transform="translate(1.374 .178)">
                    <path id="Rectangle_1618" d="M0 0H66.992V16.914H0z" class="cls-32" transform="rotate(-180 33.496 8.457)"/>
                </g>
                <g id="Group_1145" transform="translate(5.752 .081)">
                    <path id="Line_1352" d="M0 0L0 17.164" class="cls-29"/>
                    <path id="Line_1353" d="M0 0L0 17.164" class="cls-29" transform="translate(5.295)"/>
                    <path id="Line_1354" d="M0 0L0 17.164" class="cls-29" transform="translate(10.59)"/>
                    <path id="Line_1355" d="M0 0L0 17.164" class="cls-29" transform="translate(15.885)"/>
                    <path id="Line_1356" d="M0 0L0 17.164" class="cls-29" transform="translate(21.18)"/>
                    <path id="Line_1357" d="M0 0L0 17.164" class="cls-29" transform="translate(26.476)"/>
                    <path id="Line_1358" d="M0 0L0 17.164" class="cls-29" transform="translate(31.771)"/>
                    <path id="Line_1359" d="M0 0L0 17.164" class="cls-29" transform="translate(37.066)"/>
                    <path id="Line_1360" d="M0 0L0 17.164" class="cls-29" transform="translate(42.361)"/>
                    <path id="Line_1361" d="M0 0L0 17.164" class="cls-29" transform="translate(47.656)"/>
                    <path id="Line_1362" d="M0 0L0 17.164" class="cls-29" transform="translate(52.951)"/>
                    <path id="Line_1363" d="M0 0L0 17.164" class="cls-29" transform="translate(58.246)"/>
                </g>
                <path id="Path_1172" d="M546.045 556.732h-69.353l.309-1.481h69.353z" class="cls-32" transform="translate(-476.692 -555.251)"/>
                <path id="Rectangle_1619" d="M0 0H69.353V1.481H0z" class="cls-32" transform="translate(.308 15.618)"/>
            </g>
            <path id="Rectangle_1620" d="M0 0H69.353V1.481H0z" class="cls-35" transform="translate(.308 203.464)"/>
            <path id="Rectangle_1621" d="M0 0H69.353V1.481H0z" class="cls-35" transform="translate(.308 218.92)"/>
        </g>
        <g id="land">
            <g id="road" fill="none" stroke-miterlimit="10">
                <path id="Path_1159" stroke="#d8f3f7" stroke-width="60px" d="M1443.1 739.074h-89.25a25.175 25.175 0 0 1-25.174-25.174V512.506a25.174 25.174 0 0 0-25.174-25.174h-195.47a25.174 25.174 0 0 1-25.174-25.174 25.174 25.174 0 0 0-25.174-25.174H913.527a27.206 27.206 0 0 0-27.207 27.206v107.647a27.206 27.206 0 0 1-27.207 27.207H798" transform="translate(-14.271 -1.514)"/>
                <path id="Path_1160" stroke="#fff" stroke-dasharray="20 20" stroke-width="3px" d="M1443.1 739.074h-89.25a25.175 25.175 0 0 1-25.174-25.174V512.506a25.174 25.174 0 0 0-25.174-25.174h-195.47a25.174 25.174 0 0 1-25.174-25.174 25.174 25.174 0 0 0-25.174-25.174H913.527a27.206 27.206 0 0 0-27.207 27.206v107.647a27.206 27.206 0 0 1-27.207 27.207H798" transform="translate(-14.271 -1.514)"/>
            </g>
            <g id="bghouse">
                <g id="Group_1124" transform="translate(950.803 503.321)">
                    <path id="Path_1162" d="M968.252 696.706V559.6l39.761-53.472L1046.4 559.6v136.83z" class="cls-38" transform="translate(-968.252 -506.126)"/>
                    <path id="Rectangle_1585" d="M0 0H17.977V31.689H0z" class="cls-39" transform="translate(29.669 62.407)"/>
                    <path id="Rectangle_1586" d="M0 0H17.977V31.689H0z" class="cls-39" transform="translate(29.669 113.272)"/>
                    <path id="Rectangle_1587" d="M0 0H17.977V31.689H0z" class="cls-39" transform="translate(29.669 164.083)"/>
                </g>
                <g id="Group_1125" transform="translate(896.582 563.325)">
                    <path id="Path_1163" d="M913 699.439v-95.085l27.575-37.083 26.625 37.083v94.893z" class="cls-38" transform="translate(-913 -567.271)"/>
                    <path id="Rectangle_1588" d="M0 0H12.467V21.976H0z" class="cls-39" transform="translate(20.575 43.279)"/>
                    <path id="Rectangle_1589" d="M0 0H12.467V21.976H0z" class="cls-39" transform="translate(20.575 78.555)"/>
                    <path id="Rectangle_1590" d="M0 0H12.467V21.976H0z" class="cls-39" transform="translate(20.575 113.792)"/>
                </g>
            </g>
            <path id="Path_2005" fill="none" stroke="#d8f3f7" stroke-width="60px" d="M0 0h238.542" transform="translate(1190.584 816.724)"/>
            <g id="warehouse" transform="translate(976.383 574.627)">
                <path id="Path_1173" fill="#195d8f" fill-rule="evenodd" d="M1277.605 581.217v132.511h-136.544V581.614z" transform="translate(-997.057 -578.833)"/>
                <path id="Rectangle_1622" d="M0 0H96.388V63.886H0z" class="cls-39" transform="translate(164.083 65.263)"/>
                <path id="Rectangle_1623" d="M0 0H136.543V132.113H0z" class="cls-32" transform="translate(7.461 2.781)"/>
                <path id="Rectangle_1624" d="M0 0H96.388V63.886H0z" class="cls-39" transform="translate(27.538 65.263)"/>
                <g id="Group_1148" transform="translate(47.342 41.428)">
                    <path id="Rectangle_1625" d="M0 0H9.535V9.535H0z" class="cls-39"/>
                    <path id="Rectangle_1626" d="M0 0H9.535V9.535H0z" class="cls-39" transform="translate(23.624)"/>
                    <path id="Rectangle_1627" d="M0 0H9.535V9.535H0z" class="cls-39" transform="translate(47.248)"/>
                </g>
                <g id="Group_1149" transform="translate(183.885 41.428)">
                    <path id="Rectangle_1628" d="M0 0H9.535V9.535H0z" class="cls-39"/>
                    <path id="Rectangle_1629" d="M0 0H9.535V9.535H0z" class="cls-39" transform="translate(23.624)"/>
                    <path id="Rectangle_1630" d="M0 0H9.535V9.535H0z" class="cls-39" transform="translate(47.248)"/>
                </g>
                <g id="Group_1150" transform="translate(42.355 114.934)">
                    <path id="Rectangle_1631" d="M0 0H19.268V14.451H0z" class="cls-32"/>
                    <path id="Path_1174" d="M1049.916 695.908v3.211h-5.62v-3.211" class="cls-42" transform="translate(-1037.606 -695.908)"/>
                </g>
                <g id="Group_1151" transform="translate(42.355 86.032)">
                    <path id="Rectangle_1632" d="M0 0H19.268V14.451H0z" class="cls-35"/>
                    <path id="Path_1175" d="M1049.916 666.456v3.211h-5.62v-3.211" class="cls-42" transform="translate(-1037.606 -666.456)"/>
                </g>
                <g id="Group_1152" transform="translate(42.355 100.483)">
                    <path id="Rectangle_1633" d="M0 0H19.268V14.451H0z" class="cls-32"/>
                    <path id="Path_1176" d="M1049.916 681.182v3.211h-5.62v-3.211" class="cls-42" transform="translate(-1037.606 -681.182)"/>
                </g>
                <g id="Group_1153" transform="translate(61.623 100.491)">
                    <path id="Rectangle_1634" d="M0 0H19.268V14.451H0z" class="cls-32"/>
                    <path id="Path_1177" d="M1069.551 681.19v3.21h-5.62v-3.21" class="cls-42" transform="translate(-1057.24 -681.19)"/>
                </g>
                <g id="Group_1154" transform="translate(61.623 114.942)">
                    <path id="Rectangle_1635" d="M0 0H19.268V14.451H0z" class="cls-32"/>
                    <path id="Path_1178" d="M1069.551 695.915v3.211h-5.62v-3.211" class="cls-42" transform="translate(-1057.24 -695.915)"/>
                </g>
                <g id="Group_1155" transform="translate(80.89 114.942)">
                    <path id="Rectangle_1636" d="M0 0H19.268V14.451H0z" class="cls-32"/>
                    <path id="Path_1179" d="M1089.185 695.915v3.211h-5.62v-3.211" class="cls-42" transform="translate(-1076.875 -695.915)"/>
                </g>
                <g id="Group_1156" transform="translate(80.882 86.004)">
                    <path id="Rectangle_1637" d="M0 0H19.268V14.451H0z" class="cls-32"/>
                    <path id="Path_1180" d="M1089.177 666.428v3.211h-5.62v-3.211" class="cls-42" transform="translate(-1076.866 -666.428)"/>
                </g>
                <g id="Group_1157" transform="translate(80.921 71.591)">
                    <path id="Rectangle_1638" d="M0 0H19.268V14.451H0z" class="cls-32"/>
                    <path id="Path_1181" d="M1089.216 651.741v3.211h-5.62v-3.211" class="cls-42" transform="translate(-1076.906 -651.741)"/>
                </g>
                <g id="Group_1158" transform="translate(80.89 100.491)">
                    <path id="Rectangle_1639" d="M0 0H19.268V14.451H0z" class="cls-32"/>
                    <path id="Path_1182" d="M1089.185 681.19v3.21h-5.62v-3.21" class="cls-42" transform="translate(-1076.875 -681.19)"/>
                </g>
                <g id="Group_1161" transform="translate(104.918 100.483)">
                    <g id="Group_1159" transform="translate(0 14.451)">
                        <path id="Rectangle_1640" d="M0 0H19.268V14.451H0z" class="cls-28"/>
                        <path id="Path_1183" d="M1113.669 695.908v3.211h-5.62v-3.211" class="cls-42" transform="translate(-1101.359 -695.908)"/>
                    </g>
                    <g id="Group_1160">
                        <path id="Rectangle_1641" d="M0 0H19.268V14.451H0z" class="cls-28"/>
                        <path id="Path_1184" fill="#e84040" stroke="#fff" stroke-miterlimit="10" stroke-width="0.94px" d="M1113.669 681.182v3.211h-5.62v-3.211" transform="translate(-1101.359 -681.182)"/>
                    </g>
                    <path id="Line_1364" d="M0 0L19.268 0" class="cls-42" transform="translate(0 14.585)"/>
                </g>
                <path id="Line_1365" d="M0 0L19.268 0" class="cls-42" transform="translate(42.355 100.617)"/>
                <path id="Line_1366" d="M0 0L19.268 0" class="cls-42" transform="translate(80.878 100.617)"/>
                <path id="Line_1367" d="M0 0L19.268 0" class="cls-42" transform="translate(80.917 85.749)"/>
                <path id="Line_1368" d="M0 0L19.268 0" class="cls-42" transform="translate(42.355 115.068)"/>
                <path id="Line_1369" d="M0 0L0 29.022" class="cls-42" transform="translate(81.024 100.409)"/>
                <path id="Line_1370" d="M0 0L0 29.113" class="cls-42" transform="translate(61.756 100.321)"/>
                <path id="Line_1371" d="M0 0L38.469 0" class="cls-42" transform="translate(61.69 114.875)"/>
                <g id="Group_1162" transform="translate(164.096 114.934)">
                    <path id="Rectangle_1642" d="M0 0H19.268V14.451H0z" class="cls-32"/>
                    <path id="Path_1185" d="M1173.973 695.908v3.211h-5.62v-3.211" class="cls-42" transform="translate(-1161.663 -695.908)"/>
                </g>
                <g id="Group_1163" transform="translate(164.096 86.032)">
                    <path id="Rectangle_1643" d="M0 0H19.268V14.451H0z" class="cls-32"/>
                    <path id="Path_1186" d="M1173.973 666.456v3.211h-5.62v-3.211" class="cls-42" transform="translate(-1161.663 -666.456)"/>
                </g>
                <g id="Group_1164" transform="translate(164.096 100.483)">
                    <path id="Rectangle_1644" d="M0 0H19.268V14.451H0z" class="cls-32"/>
                    <path id="Path_1187" d="M1173.973 681.182v3.211h-5.62v-3.211" class="cls-42" transform="translate(-1161.663 -681.182)"/>
                </g>
                <g id="Group_1165" transform="translate(183.364 100.491)">
                    <path id="Rectangle_1645" d="M0 0H19.268V14.451H0z" class="cls-28"/>
                    <path id="Path_1188" d="M1193.607 681.19v3.21h-5.62v-3.21" class="cls-42" transform="translate(-1181.297 -681.19)"/>
                </g>
                <g id="Group_1166" transform="translate(183.364 114.942)">
                    <path id="Rectangle_1646" d="M0 0H19.268V14.451H0z" class="cls-28"/>
                    <path id="Path_1189" d="M1193.607 695.915v3.211h-5.62v-3.211" class="cls-42" transform="translate(-1181.297 -695.915)"/>
                </g>
                <g id="Group_1167" transform="translate(202.632 114.942)">
                    <path id="Rectangle_1647" d="M0 0H19.268V14.451H0z" class="cls-32"/>
                    <path id="Path_1190" d="M1213.241 695.915v3.211h-5.62v-3.211" class="cls-42" transform="translate(-1200.932 -695.915)"/>
                </g>
                <g id="Group_1168" transform="translate(202.624 86.004)">
                    <path id="Rectangle_1648" d="M0 0H19.268V14.451H0z" class="cls-28"/>
                    <path id="Path_1191" d="M1213.233 666.428v3.211h-5.62v-3.211" class="cls-42" transform="translate(-1200.923 -666.428)"/>
                </g>
                <g id="Group_1169" transform="translate(202.663 71.591)">
                    <path id="Rectangle_1649" d="M0 0H19.268V14.451H0z" class="cls-28"/>
                    <path id="Path_1192" d="M1213.273 651.741v3.211h-5.62v-3.211" class="cls-42" transform="translate(-1200.963 -651.741)"/>
                </g>
                <g id="Group_1170" transform="translate(202.632 100.491)">
                    <path id="Rectangle_1650" d="M0 0H19.268V14.451H0z" class="cls-28"/>
                    <path id="Path_1193" d="M1213.241 681.19v3.21h-5.62v-3.21" class="cls-42" transform="translate(-1200.932 -681.19)"/>
                </g>
                <path id="Line_1372" d="M0 0L19.268 0" class="cls-42" transform="translate(164.096 100.617)"/>
                <path id="Line_1373" d="M0 0L19.268 0" class="cls-42" transform="translate(202.62 100.617)"/>
                <path id="Line_1374" d="M0 0L19.268 0" class="cls-42" transform="translate(202.659 85.749)"/>
                <path id="Line_1375" d="M0 0L19.268 0" class="cls-42" transform="translate(164.096 115.068)"/>
                <path id="Line_1376" d="M0 0L0 29.022" class="cls-42" transform="translate(202.766 100.409)"/>
                <path id="Line_1377" d="M0 0L0 29.113" class="cls-42" transform="translate(183.498 100.321)"/>
                <path id="Line_1378" d="M0 0L38.469 0" class="cls-42" transform="translate(183.431 114.875)"/>
                <g id="Group_1171" transform="translate(221.926 100.491)">
                    <path id="Rectangle_1651" d="M0 0H19.268V14.451H0z" class="cls-35"/>
                    <path id="Path_1194" d="M1232.9 681.19v3.21h-5.62v-3.21" class="cls-42" transform="translate(-1220.593 -681.19)"/>
                </g>
                <g id="Group_1172" transform="translate(221.926 114.942)">
                    <path id="Rectangle_1652" d="M0 0H19.268V14.451H0z" class="cls-32"/>
                    <path id="Path_1195" d="M1232.9 695.915v3.211h-5.62v-3.211" class="cls-42" transform="translate(-1220.593 -695.915)"/>
                </g>
                <g id="Group_1173" transform="translate(241.194 114.942)">
                    <path id="Rectangle_1653" d="M0 0H19.268V14.451H0z" class="cls-32"/>
                    <path id="Path_1196" d="M1252.537 695.915v3.211h-5.62v-3.211" class="cls-42" transform="translate(-1240.227 -695.915)"/>
                </g>
                <g id="Group_1174" transform="translate(241.186 86.004)">
                    <path id="Rectangle_1654" d="M0 0H19.268V14.451H0z" class="cls-32"/>
                    <path id="Path_1197" d="M1252.529 666.428v3.211h-5.62v-3.211" class="cls-42" transform="translate(-1240.219 -666.428)"/>
                </g>
                <g id="Group_1175" transform="translate(241.225 71.591)">
                    <path id="Rectangle_1655" d="M0 0H19.268V14.451H0z" class="cls-28"/>
                    <path id="Path_1198" d="M1252.568 651.741v3.211h-5.62v-3.211" class="cls-42" transform="translate(-1240.259 -651.741)"/>
                </g>
                <g id="Group_1176" transform="translate(241.194 100.491)">
                    <path id="Rectangle_1656" d="M0 0H19.268V14.451H0z" class="cls-28"/>
                    <path id="Path_1199" d="M1252.537 681.19v3.21h-5.62v-3.21" class="cls-42" transform="translate(-1240.227 -681.19)"/>
                </g>
                <path id="Line_1379" d="M0 0L19.268 0" class="cls-42" transform="translate(241.182 100.617)"/>
                <path id="Line_1380" d="M0 0L19.268 0" class="cls-42" transform="translate(241.221 85.749)"/>
                <path id="Line_1381" d="M0 0L0 29.022" class="cls-42" transform="translate(241.328 100.409)"/>
                <path id="Line_1382" d="M0 0L38.469 0" class="cls-42" transform="translate(221.993 114.875)"/>
                <path id="Line_1383" d="M0 0L0 130.818" class="cls-42" transform="translate(144.286 4.172)"/>
                <path id="Line_1384" d="M0 0L0 29.022" class="cls-42" transform="translate(221.935 100.409)"/>
                <path id="Rectangle_1657" d="M0 0H289.623V10.727H0z" class="cls-35"/>
            </g>
            <g id="truck" transform="translate(1124.209 445.094)">
                <path id="Path_1200" d="M1212.613 451.356h19.623l7.925 14.34 15.095 6.038v15.849h-42.643z" class="cls-32" transform="translate(-1146.22 -446.877)"/>
                <path id="Path_1201" d="M1145.035 493.178h107.39l1.57-4.906h-108.96z" class="cls-32" transform="translate(-1144.958 -447.566)"/>
                <path id="Rectangle_1658" d="M0 0H73.477V6.038H0z" class="cls-32" transform="translate(.076 35.801)"/>
                <path id="Rectangle_1659" d="M0 0H20.755V4.151H0z" class="cls-35" transform="translate(66.393 .329)"/>
                <path id="Path_1202" d="M1240.23 465.679l-20.887-.119v-11.425h14.5z" class="cls-39" transform="translate(-1146.345 -446.928)"/>
                <path id="Rectangle_1660" d="M0 0H7.17V2.642H0z" class="cls-28" transform="translate(102.055 28.443)"/>
                <circle id="Ellipse_201" cx="7.72" cy="7.72" r="7.72" class="cls-44" transform="translate(8.875 39.764)"/>
                <circle id="Ellipse_202" cx="7.72" cy="7.72" r="7.72" class="cls-44" transform="translate(28.12 39.764)"/>
                <circle id="Ellipse_203" cx="7.72" cy="7.72" r="7.72" class="cls-44" transform="translate(79.413 39.764)"/>
                <path id="Rectangle_1661" d="M0 0H6.793V2.642H0z" class="cls-35" transform="translate(73.186 24.103)"/>
                <path id="Line_1385" fill="none" stroke="#277aa9" stroke-miterlimit="10" d="M0 0L0 33.35" transform="translate(72.997 7.357)"/>
                <path id="Rectangle_1662" d="M0 0H63.783V35.347H0z" class="cls-46" transform="rotate(-180 31.892 17.673)"/>
            </g>
            <g id="house" transform="translate(902.305 361.691)">
                <path id="Path_1217" d="M972.416 376.223h-51.454l-2.13-4h55.714z" class="cls-32" transform="translate(-918.832 -361.996)"/>
                <path id="Rectangle_1664" d="M0 0H51.54V51.54H0z" class="cls-46" transform="translate(31.52 4.004)"/>
                <path id="Rectangle_1665" d="M0 0H30.056V41.642H0z" class="cls-46" transform="translate(1.89 13.902)"/>
                <path id="Rectangle_1666" d="M0 0H6.986V6.986H0z" class="cls-39" transform="translate(7.838 29.561)"/>
                <path id="Rectangle_1667" d="M0 0H6.986V6.986H0z" class="cls-39" transform="translate(19.083 29.561)"/>
                <path id="Rectangle_1668" d="M0 0H6.986V6.986H0z" class="cls-39" transform="translate(7.838 40.465)"/>
                <path id="Rectangle_1669" d="M0 0H6.986V6.986H0z" class="cls-39" transform="translate(19.083 40.465)"/>
                <path id="Rectangle_1670" d="M0 0H11.841V6.986H0z" class="cls-39" transform="translate(35.78 20.701)"/>
                <path id="Rectangle_1671" d="M0 0H11.841V6.986H0z" class="cls-39" transform="translate(51.284 20.701)"/>
                <path id="Rectangle_1672" d="M0 0H11.841V6.986H0z" class="cls-39" transform="translate(66.874 20.701)"/>
                <path id="Rectangle_1673" d="M0 0H11.841V6.986H0z" class="cls-39" transform="translate(35.78 9.797)"/>
                <path id="Rectangle_1674" d="M0 0H11.841V6.986H0z" class="cls-39" transform="translate(51.284 9.797)"/>
                <path id="Rectangle_1675" d="M0 0H11.841V6.986H0z" class="cls-39" transform="translate(66.874 9.797)"/>
                <path id="Rectangle_1676" d="M0 0H11.841V6.986H0z" class="cls-39" transform="translate(35.78 31.605)"/>
                <path id="Rectangle_1677" d="M0 0H11.841V6.986H0z" class="cls-39" transform="translate(51.284 31.605)"/>
                <path id="Rectangle_1678" d="M0 0H11.841V6.986H0z" class="cls-39" transform="translate(66.874 31.605)"/>
                <path id="Rectangle_1679" d="M0 0H22.49V11.415H0z" class="cls-39" transform="translate(46.002 44.128)"/>
                <path id="Path_1218" d="M1002.366 365.806h-51.455l-2.13-4h55.719z" class="cls-32" transform="translate(-919.391 -361.802)"/>
            </g>
            <g id="tree">
                <g id="Group_1199" transform="translate(1031.432 411.203)">
                    <path id="Path_1241" d="M1060.334 454.806c5.376 0 9.734-9.525 9.734-21.274s-4.358-21.275-9.734-21.275" class="cls-35" transform="translate(-1050.6 -412.256)"/>
                    <path id="Path_1242" d="M1060.149 412.256c-5.376 0-9.734 9.525-9.734 21.275s4.358 21.274 9.734 21.274" class="cls-35" transform="translate(-1050.415 -412.256)"/>
                    <path id="Path_1243" d="M1061.487 457.455c-.025-3.358-.109-6.717-.194-10.075-.1-3.358-.208-6.717-.373-10.075l-.248-5.038c-.111-1.679-.2-3.358-.33-5.037-.134 1.679-.219 3.358-.329 5.037l-.249 5.038c-.165 3.358-.269 6.717-.373 10.075-.066 2.56-.13 5.121-.168 7.681q-.018 1.2-.026 2.394l-.034 5.038c.018 1.679.008 3.358.048 5.037h2.263c.04-1.679.031-3.358.048-5.037z" class="cls-32" transform="translate(-1050.578 -412.535)"/>
                    <path id="Path_1244" d="M1060.131 434.978c.9-.37 1.818-.7 2.725-1.053.919-.327 1.83-.673 2.758-.981-.845.491-1.708.944-2.561 1.417-.865.447-1.72.916-2.593 1.345z" class="cls-32" transform="translate(-1050.596 -412.642)"/>
                    <path id="Path_1245" d="M1060.131 449.006c.9-.37 1.818-.7 2.725-1.053.919-.326 1.83-.673 2.758-.981-.845.492-1.708.944-2.561 1.417-.865.448-1.72.916-2.593 1.345z" class="cls-32" transform="translate(-1050.596 -412.904)"/>
                    <path id="Path_1246" d="M1060.267 441.832c1.259-.554 2.535-1.072 3.8-1.608 1.28-.512 2.549-1.044 3.836-1.538-1.2.675-2.422 1.312-3.633 1.97-1.222.633-2.435 1.286-3.665 1.9z" class="cls-32" transform="translate(-1050.599 -412.749)"/>
                    <path id="Path_1247" d="M1060.041 435.706c-.872-.43-1.728-.9-2.593-1.345-.854-.473-1.716-.926-2.561-1.417.927.308 1.838.655 2.758.981.908.352 1.825.683 2.725 1.053z" class="cls-32" transform="translate(-1050.499 -412.642)"/>
                    <path id="Path_1248" d="M1059.94 449.734c-.872-.43-1.728-.9-2.593-1.345-.854-.473-1.716-.925-2.561-1.417.927.308 1.838.656 2.757.981.908.352 1.825.683 2.725 1.053z" class="cls-32" transform="translate(-1050.497 -412.904)"/>
                    <path id="Path_1249" d="M1059.752 442.555c-1.231-.614-2.443-1.267-3.665-1.9-1.211-.658-2.431-1.294-3.633-1.97 1.287.494 2.556 1.025 3.836 1.538 1.267.537 2.543 1.054 3.8 1.608z" class="cls-32" transform="translate(-1050.453 -412.749)"/>
                </g>
                <g id="Group_1200" transform="translate(1372.84 637.48)">
                    <path id="Path_1250" d="M1411.131 697.811c6.945 0 12.576-12.307 12.576-27.488s-5.631-27.487-12.576-27.487" class="cls-35" transform="translate(-1398.555 -642.836)"/>
                    <path id="Path_1251" d="M1410.892 642.836c-6.946 0-12.576 12.307-12.576 27.487s5.63 27.488 12.576 27.488" class="cls-35" transform="translate(-1398.316 -642.836)"/>
                    <path id="Path_1252" d="M1412.621 701.233c-.032-4.339-.14-8.678-.251-13.017-.134-4.339-.269-8.678-.482-13.017l-.322-6.508c-.142-2.17-.252-4.339-.425-6.509-.173 2.17-.283 4.339-.425 6.509l-.322 6.508c-.213 4.339-.347 8.679-.482 13.017-.084 3.308-.168 6.616-.217 9.924q-.022 1.547-.034 3.093l-.043 6.509c.021 2.17.009 4.339.061 6.509h2.924c.052-2.17.039-4.339.061-6.509z" class="cls-32" transform="translate(-1398.527 -643.197)"/>
                    <path id="Path_1253" d="M1410.869 672.194c1.163-.478 2.348-.906 3.521-1.361 1.188-.421 2.364-.869 3.563-1.268-1.092.635-2.207 1.22-3.309 1.831-1.118.578-2.224 1.182-3.351 1.738z" class="cls-32" transform="translate(-1398.55 -643.335)"/>
                    <path id="Path_1254" d="M1410.869 690.318c1.163-.478 2.348-.906 3.521-1.36 1.188-.422 2.364-.87 3.563-1.269-1.092.635-2.207 1.22-3.309 1.831-1.118.578-2.224 1.184-3.351 1.738z" class="cls-32" transform="translate(-1398.55 -643.673)"/>
                    <path id="Path_1255" d="M1411.045 681.049c1.626-.716 3.275-1.385 4.911-2.078 1.653-.661 3.292-1.349 4.956-1.987-1.553.873-3.129 1.7-4.693 2.546-1.58.817-3.146 1.66-4.736 2.454z" class="cls-32" transform="translate(-1398.554 -643.473)"/>
                    <path id="Path_1256" d="M1410.753 673.134c-1.129-.555-2.234-1.16-3.351-1.738-1.1-.611-2.217-1.2-3.309-1.831 1.2.4 2.375.847 3.563 1.268 1.173.455 2.358.883 3.521 1.361z" class="cls-32" transform="translate(-1398.424 -643.335)"/>
                    <path id="Path_1257" d="M1410.622 691.258c-1.128-.554-2.234-1.16-3.35-1.738-1.1-.611-2.218-1.2-3.309-1.831 1.2.4 2.375.847 3.562 1.269 1.174.454 2.358.882 3.521 1.36z" class="cls-32" transform="translate(-1398.421 -643.673)"/>
                    <path id="Path_1258" d="M1410.38 681.983c-1.591-.794-3.157-1.637-4.736-2.454-1.564-.849-3.14-1.672-4.693-2.546 1.662.638 3.3 1.326 4.955 1.987 1.637.694 3.286 1.362 4.913 2.078z" class="cls-32" transform="translate(-1398.365 -643.473)"/>
                </g>
                <g id="Group_1201" transform="translate(1316.209 408.67)">
                    <path id="Path_1259" d="M1355.3 473.919c-8.117 0-14.7-14.381-14.7-32.122s6.58-32.122 14.7-32.122" class="cls-46" transform="translate(-1340.608 -409.675)"/>
                    <path id="Path_1260" d="M1355.584 409.675c8.116 0 14.7 14.381 14.7 32.122s-6.58 32.122-14.7 32.122" class="cls-35" transform="translate(-1340.888 -409.675)"/>
                    <path id="Path_1261" d="M1353.775 477.918c.037-5.071.164-10.141.293-15.212.157-5.071.314-10.142.563-15.213l.375-7.606c.168-2.535.3-5.071.5-7.606.2 2.536.33 5.072.5 7.606l.376 7.606c.249 5.071.406 10.142.563 15.213.1 3.865.2 7.731.253 11.6q.026 1.808.04 3.615l.051 7.607c-.026 2.535-.011 5.071-.072 7.605h-3.417c-.061-2.535-.046-5.071-.072-7.605z" class="cls-32" transform="translate(-1340.853 -410.097)"/>
                    <path id="Path_1262" d="M1355.732 443.983c-1.358-.558-2.743-1.059-4.115-1.591-1.388-.493-2.763-1.017-4.163-1.482 1.276.742 2.578 1.425 3.867 2.139 1.306.676 2.6 1.383 3.916 2.031z" class="cls-32" transform="translate(-1340.736 -410.258)"/>
                    <path id="Path_1263" d="M1355.732 465.163c-1.358-.558-2.743-1.059-4.115-1.591-1.388-.493-2.763-1.017-4.163-1.482 1.276.742 2.578 1.425 3.867 2.139 1.306.676 2.6 1.383 3.916 2.032z" class="cls-32" transform="translate(-1340.736 -410.653)"/>
                    <path id="Path_1264" d="M1355.465 454.331c-1.9-.838-3.827-1.618-5.74-2.43-1.931-.772-3.848-1.576-5.791-2.322 1.814 1.021 3.656 1.982 5.484 2.974 1.846.955 3.676 1.94 5.535 2.868z" class="cls-32" transform="translate(-1340.67 -410.42)"/>
                    <path id="Path_1265" d="M1355.867 445.081c1.318-.649 2.609-1.355 3.916-2.031 1.289-.714 2.591-1.4 3.868-2.139-1.4.465-2.775.989-4.164 1.482-1.371.532-2.756 1.032-4.115 1.591z" class="cls-32" transform="translate(-1340.884 -410.258)"/>
                    <path id="Path_1266" d="M1356.021 466.262c1.318-.65 2.609-1.356 3.916-2.032 1.288-.714 2.591-1.4 3.866-2.139-1.4.465-2.775.989-4.163 1.482-1.371.532-2.756 1.032-4.115 1.591z" class="cls-32" transform="translate(-1340.886 -410.653)"/>
                    <path id="Path_1267" d="M1356.242 455.422c1.859-.928 3.689-1.914 5.535-2.868 1.827-.992 3.669-1.954 5.484-2.974-1.943.746-3.859 1.55-5.79 2.322-1.914.812-3.841 1.592-5.741 2.43z" class="cls-32" transform="translate(-1340.89 -410.42)"/>
                </g>
                <g id="Group_1202" transform="translate(873.314 355.852)">
                    <path id="Path_1268" d="M900.123 403.2c-5.982 0-10.832-10.6-10.832-23.677s4.85-23.676 10.832-23.676" class="cls-46" transform="translate(-889.291 -355.852)"/>
                    <path id="Path_1269" d="M900.329 355.852c5.982 0 10.832 10.6 10.832 23.676s-4.85 23.677-10.832 23.677" class="cls-35" transform="translate(-889.497 -355.852)"/>
                    <path id="Path_1270" d="M899 406.152c.026-3.738.121-7.475.216-11.213.116-3.738.232-7.475.415-11.213l.277-5.606c.123-1.868.217-3.737.366-5.606.149 1.869.243 3.738.367 5.606l.277 5.606c.183 3.738.3 7.475.415 11.213.073 2.849.144 5.7.185 8.547q.021 1.332.03 2.665l.037 5.606c-.019 1.868-.008 3.738-.052 5.606h-2.519c-.045-1.868-.034-3.738-.053-5.606z" class="cls-32" transform="translate(-889.471 -356.163)"/>
                    <path id="Path_1271" d="M900.438 381.139c-1-.412-2.022-.78-3.032-1.173-1.023-.363-2.036-.749-3.069-1.092.94.547 1.9 1.051 2.85 1.577.963.5 1.915 1.02 2.886 1.5z" class="cls-32" transform="translate(-889.385 -356.282)"/>
                    <path id="Path_1272" d="M900.438 396.75c-1-.411-2.022-.78-3.032-1.172-1.023-.363-2.036-.75-3.069-1.092.94.547 1.9 1.05 2.85 1.576.963.5 1.915 1.02 2.886 1.5z" class="cls-32" transform="translate(-889.385 -356.573)"/>
                    <path id="Path_1273" d="M900.241 388.766c-1.4-.618-2.821-1.193-4.231-1.791-1.424-.569-2.836-1.162-4.269-1.711 1.338.752 2.7 1.461 4.042 2.192 1.36.7 2.709 1.43 4.079 2.114z" class="cls-32" transform="translate(-889.337 -356.401)"/>
                    <path id="Path_1274" d="M900.538 381.949c.971-.478 1.923-1 2.886-1.5.95-.526 1.91-1.03 2.851-1.577-1.032.343-2.046.729-3.07 1.092-1.01.393-2.031.761-3.032 1.173z" class="cls-32" transform="translate(-889.494 -356.282)"/>
                    <path id="Path_1275" d="M900.651 397.56c.971-.478 1.923-1 2.886-1.5.949-.526 1.91-1.029 2.85-1.576-1.032.342-2.045.729-3.069 1.092-1.011.392-2.031.761-3.033 1.172z" class="cls-32" transform="translate(-889.496 -356.573)"/>
                    <path id="Path_1276" d="M900.815 389.57c1.369-.684 2.719-1.41 4.079-2.114 1.346-.731 2.7-1.441 4.042-2.192-1.433.55-2.846 1.142-4.269 1.711-1.409.6-2.83 1.173-4.231 1.791z" class="cls-32" transform="translate(-889.499 -356.401)"/>
                </g>
            </g>
        </g>
        <g id="air">
            <g id="Group_1179" transform="translate(161.676 369.471)">
                <path id="Path_1203" d="M164.117 391.491s.211-12.095 14.367-10.775c0 0 1.479-10.775 11.409-10.986a9.394 9.394 0 0 1 6.338 2.958 14.6 14.6 0 0 1 3.316-1.382 10.885 10.885 0 0 1 13.776 9.227c.014.142.022.275.022.4a17.605 17.605 0 0 1 2.4 0 9.387 9.387 0 0 1 8.855 9.667c-.012.23-.032.458-.062.683z" class="cls-47" transform="translate(-164.117 -369.73)"/>
                <path id="Path_1204" d="M234.358 391.293s.992-6.447 6.7-6.7c0 0 5.517-.619 7.687 6.7z" class="cls-48" transform="translate(-165.428 -370.007)"/>
            </g>
            <g id="Group_1180" transform="translate(33.359 561.012)">
                <path id="Path_1205" d="M33.36 584.535s.211-10.906 14.367-9.715c0 0 1.479-9.715 11.409-9.906a9.86 9.86 0 0 1 6.338 2.667 15.441 15.441 0 0 1 3.316-1.246c6.4-1.648 13.123 2.349 13.776 8.319a3.372 3.372 0 0 1 .022.356 19.54 19.54 0 0 1 2.4 0c5.053.3 16.528 4.154 16.263 8.713q-.018.312-.063.616z" class="cls-48" transform="translate(-33.36 -564.914)"/>
                <path id="Path_1206" d="M62.719 585.2s.177-7.444 12.034-6.632c0 0 1.238-6.631 9.557-6.76a9.287 9.287 0 0 1 5.309 1.82 14.854 14.854 0 0 1 2.777-.851c5.358-1.125 10.993 1.6 11.54 5.678a1.843 1.843 0 0 1 .019.243 20.109 20.109 0 0 1 2.012 0c4.232.2 13.844 2.836 13.622 5.948a3.985 3.985 0 0 1-.052.42z" class="cls-47" transform="translate(-33.908 -565.043)"/>
            </g>
            <path id="Path_1277" d="M322.739 526.67s12.343 1.388 13.013 10.145c0 0 3.753-6.335 10.87-3.236" class="cls-49" transform="translate(-5.402 -3.188)"/>
            <path id="Path_1278" d="M47.715 378.76s11.872-3.654 15.981 4.109c0 0 .914-7.305 8.675-7.305" class="cls-49" transform="translate(-.27 -.368)"/>
        </g>
        <g id="people" transform="translate(1059.631 691.984)">
            <path id="Path_1283" d="M1146.576 823.246h12.33c.594-.723.375-3.394.286-4.266l-.031-.279s-4.211-3.368-4.789-.789c-.018.081-.039.16-.063.238-.728 2.412-4 3.508-5.884 3.813a2.139 2.139 0 0 0-1.849 1.283z" class="cls-50" transform="translate(-1080.408 -700.59)"/>
            <path id="Path_1284" d="M1148.826 752.773s.639 7.977 1.391 17.566c1.022 13.026 2.249 29.026 2.371 32.057.21 5.263 1.053 13.683 1.053 13.683s2 2 6 1.157a137.674 137.674 0 0 0 4.583-24.736c.017-.208.032-.418.048-.628.947-12.945 2.42-40.2 2.42-40.2z" class="cls-50" transform="translate(-1080.45 -699.371)"/>
            <path id="Path_1285" d="M1156.969 758.4s.982 3.44.776 4.285-1.656 4.011-1.409 5.051a11.129 11.129 0 0 0 2.287 3.646c.979.837 1.179-2.124.553-3.7a.868.868 0 0 1 .025-.7 6.846 6.846 0 0 0 .847-2.8 51.92 51.92 0 0 1 .7-6.058z" class="cls-51" transform="translate(-1080.59 -699.492)"/>
            <g id="Group_1203" transform="translate(33.812 60.472)">
                <path id="Path_1286" d="M1113.641 768.132l.967 6.777a3.715 3.715 0 0 0 2.184 2.87 3.629 3.629 0 0 0 1.2.3 3.576 3.576 0 0 0 .8-.026l13.409-1.9a3.72 3.72 0 0 0 3.148-4.2l-.966-6.777a3.719 3.719 0 0 0-4.2-3.148l-3.29.462-.205-1.445a1.226 1.226 0 0 0-1.385-1.039l-.582.083-3.232.46-.8.115a1.223 1.223 0 0 0-1.039 1.384l.206 1.447-3.079.438c-.123.018-.24.041-.357.07a3.722 3.722 0 0 0-2.561 2.236 3.688 3.688 0 0 0-.218 1.893zm12.509-5.529l-5.523.787-.205-1.446a.457.457 0 0 1 .388-.516l1.387-.2 2.544-.364.687-.1a.5.5 0 0 1 .137 0 .458.458 0 0 1 .38.386z" class="cls-32" transform="translate(-1113.605 -759.999)"/>
            </g>
            <path id="Path_1287" d="M1123.461 756.911a5.346 5.346 0 0 1-.148-1.726l-2.279.264.079 1.555c-.466 1.484-.475 1.51.748 2.922 1.06 1.225.2 1.829.863 2.766s1.573-.359 1.573-.359c1.3-2.176 1.15-2.73.481-3.595z" class="cls-52" transform="translate(-1079.928 -699.437)"/>
            <path id="Path_1288" fill="#b23030" d="M1121.985 755.948a9.715 9.715 0 0 0 1.415-1.71s-5.974-8.334-6.449-9.191-3.634-14.34-3.634-14.34l-9.748-2.549s7.281 17.438 8.529 19.584c2.062 3.547 8.518 9.014 8.518 9.014a4.066 4.066 0 0 0 1.369-.808z" transform="translate(-1079.606 -698.933)"/>
            <g id="Group_1204" transform="translate(0 57.114)">
                <path id="Path_1289" d="M1087.777 823.657h-4.869a2.952 2.952 0 0 1-1.333-2.232c-.237-1.568-2-2.424-2.376-3.707s1.568-3.088 1.568-3.088l.326-.421.339-.436 3.233.762s.079.769.129 1.75c.034.708.053 1.525.014 2.242-.1 1.71.478 3.553 2 3.886 1.122.246 1.072.913.969 1.244z" class="cls-54" transform="translate(-1079.15 -757.645)"/>
                <path id="Path_1290" d="M1116.521 823.737h-11.136c-.536-.654-.339-3.066-.257-3.853l.027-.251s3.8-3.042 4.326-.712c.016.073.035.144.056.215.658 2.179 3.61 3.168 5.315 3.443a1.932 1.932 0 0 1 1.669 1.158z" class="cls-54" transform="translate(-1079.633 -757.724)"/>
                <path id="Path_1291" d="M1114.271 760.481s-.578 7.2-1.256 15.864c-.922 11.764-2.032 26.215-2.141 28.952-.19 4.754-.952 12.358-.952 12.358s-1.8 1.807-5.418 1.045a124.475 124.475 0 0 1-4.139-22.339l-.042-.568c-.856-11.692-2.186-36.31-2.186-36.31z" class="cls-30" transform="translate(-1079.504 -756.631)"/>
                <path id="Path_1292" fill="#0c2f44" d="M1114.271 760.481s-.578 7.2-1.256 15.864l-12.65 20.016-.042-.568c-.856-11.692-2.186-36.31-2.186-36.31z" transform="translate(-1079.504 -756.631)"/>
                <path id="Path_1293" d="M1111.311 761.283s-10.409 26.092-17.253 38.354-8.982 15.684-8.982 15.684-3.921-1.568-4.278-2.638c0 0 2.617-23.672 7.2-29.442 2.59-3.261 5.632-13.047 5.775-16.469s.926-10.194.926-10.194z" class="cls-30" transform="translate(-1079.181 -756.577)"/>
            </g>
            <path id="Path_1294" d="M1109.039 722.4c-4.067 1.284-11.1-2.181-11.1-2.181a10.589 10.589 0 0 0 3.554-8.666l3.145 2.535 2.136 1.721a25.607 25.607 0 0 1-.242 2.793c-.062.468-.138.989-.236 1.559a9.727 9.727 0 0 1 2.743 2.239z" class="cls-52" transform="translate(-1079.5 -698.623)"/>
            <path id="Path_1295" d="M1106.836 715.861a25.607 25.607 0 0 1-.242 2.793c-2.367-.406-5.052-4.232-5.052-4.232a7.536 7.536 0 0 1 3.158-.283z" class="cls-51" transform="translate(-1079.568 -698.67)"/>
            <path id="Path_1296" d="M1108.052 715.586s-6.718 1.116-7.349-3.078-1.922-6.875 2.34-7.765 5.339.585 5.889 1.933.851 8.511-.88 8.91z" class="cls-52" transform="translate(-1079.539 -698.491)"/>
            <path id="Path_1297" d="M1114.645 760.32a.655.655 0 0 1-.427.163c-1.528-.021-5.982.828-9.751.441a28.09 28.09 0 0 1-9.009-2.6c-.4-.18-1.324-.672-1.3-1.121.014-.491.062-1.2.124-2.1a112.426 112.426 0 0 0 .223-14.663c-.066-1.152-.1-2.294-.1-3.419-.03-8.384 1.631-15.756 4.972-18.252.286-.2 2.037.652 3.646 1.446a6.665 6.665 0 0 0 4.38.53l1.4 1.242a14.038 14.038 0 0 1 4.4 7.026 78.983 78.983 0 0 1 1.324 13.036c.1 2.362.184 4.746.205 7.007v.081c.02.225.02.469.02.694.077 5.804-.005 10.408-.107 10.489z" class="cls-28" transform="translate(-1079.43 -698.757)"/>
            <path id="Path_1298" d="M1100.679 712.045s.69-.115.579-1.065-.11-2.19.661-1.96.811.85 1.129.489.323-1.881 2.62-1.987 3.231.694 4.3.224 1.126-2.086 1.126-2.086a1.839 1.839 0 0 1-.764.76s1.782-2.438-.281-4.109-4.168-.577-5.362-.505c-2.631.159-4.331.317-5.19 2.046s-.506 6.53 1.182 8.193z" class="cls-50" transform="translate(-1079.521 -698.433)"/>
            <path id="Path_1299" d="M1133.478 743.313a51.45 51.45 0 0 0-5.445-.866 11.2 11.2 0 0 0-3.511 1.51c-.03.222.1.4.576.418s2.021-.221 1.927-.029-4.545 1.187-4.57 2.089 2.469 2.51 4.543 2.568 6.083-2.454 6.432-2.495c2.953-.334.048-3.195.048-3.195z" class="cls-51" transform="translate(-1079.958 -699.199)"/>
            <g id="Group_1205" transform="translate(51.067 21.153)">
                <path id="Path_1300" d="M1159.131 732.521a38.819 38.819 0 0 1-4.144 4.67 17.991 17.991 0 0 1-2.365 1.549c-6.654 3.755-19.45 7.565-19.45 7.565l-.024-.019a5.571 5.571 0 0 1-1.6-1.921 2.218 2.218 0 0 1-.242-1.917.856.856 0 0 1 .192-.283s15.334-9.8 16.561-10.821c.695-.579 3.214-6.443 5.266-11.414q.43.624.833 1.267a43.374 43.374 0 0 1 4.973 11.324z" class="cls-35" transform="translate(-1131.188 -719.932)"/>
            </g>
            <g id="Group_1208" transform="translate(15.049 20.677)">
                <path id="Path_1301" fill="#b23030" d="M1114.539 760.3c-3.577-3.75-17.621-18.976-20.054-23.633a33.382 33.382 0 0 1 .257-4.254c.006-.022.406 1.021.412 1a65.312 65.312 0 0 1 3.438-9.334c2.2 3.139 14.8 16.653 14.892 17.816.017.207.033.414.052.622.171 2.164.331 4.335.459 6.456q.041.664.076 1.319l.023.435c.014.257.026.512.038.766l.05.315a7.27 7.27 0 0 1 .019.746c.148 2.869.262 5.521.338 7.746z" opacity="0.38" transform="translate(-1094.485 -719.533)"/>
                <g id="Group_1207" transform="translate(.08)">
                    <path id="Path_1302" d="M1118.976 743.615a51.459 51.459 0 0 1 5.509.232 11.2 11.2 0 0 1 3.142 2.177c-.015.224-.181.371-.648.3s-1.937-.616-1.883-.411 4.219 2.065 4.065 2.954-2.917 1.971-4.962 1.617-5.476-3.612-5.809-3.72c-2.828-.92.586-3.149.586-3.149z" class="cls-52" transform="translate(-1094.99 -719.898)"/>
                    <g id="Group_1206">
                        <path id="Path_1303" d="M1119.413 744.789a5.59 5.59 0 0 1-1.376 1.556 3.9 3.9 0 0 1-.377.266 148.1 148.1 0 0 1-15.8-7.054 28.635 28.635 0 0 1-5.337-3.541 7.159 7.159 0 0 1-1.959-1.947c0-4.935 1.512-7.638 2.856-10.536q.989-2.133 2.128-4.087c.265.789.538 1.6.813 2.394 1.454 4.243 2.945 8.311 3.476 8.818 1.153 1.1 15.777 11.936 15.777 11.936a1.02 1.02 0 0 1 .24.577 2.563 2.563 0 0 1-.441 1.618z" class="cls-28" transform="translate(-1094.566 -719.447)"/>
                    </g>
                </g>
            </g>
            <g id="Group_1209" transform="translate(67.674 2.719)">
                <path id="Path_1304" d="M1153.668 719.553c3.824.988 10.164-2.554 10.164-2.554a9.387 9.387 0 0 1-3.374-5.288c-.046-.184-.087-.371-.126-.563l-1.964-.416-2.92 2.616a25.189 25.189 0 0 0 .432 2.954q.094.49.22 1.048a9.027 9.027 0 0 0-2.432 2.203z" class="cls-52" transform="translate(-1148.215 -701.326)"/>
                <path id="Path_1305" d="M1167.777 735.494c-.548 7.367.173 18.572-.448 20.512-.537 1.674-6.647.679-9.085.12-.9-.207-2-.5-3.126-.852-3.15-.975-6.583-2.368-6.951-3.4a1.015 1.015 0 0 1-.034-.12.962.962 0 0 1 .007-.433 7.383 7.383 0 0 0 .652-2.4c.063-1.457.053-3.173.108-5.018 0-.208.006-.435.028-.642v-.194c.052-2.057.16-4.221.285-6.366.079-1.347.171-2.682.277-3.96a52.847 52.847 0 0 1 1.135-8.09 12.994 12.994 0 0 1 4.173-6.442l1.163-1a6.723 6.723 0 0 0 4.218-.562c1.5-.712 2.02-1.224 2.282-1.031 3.469 2.675 5.963 10.872 5.316 19.878z" class="cls-35" transform="translate(-1148.111 -701.417)"/>
                <path id="Path_1306" d="M1155.482 713.347a25.189 25.189 0 0 0 .432 2.954 7.743 7.743 0 0 0 4.578-4.591c-.046-.184-.087-.371-.126-.563l-1.964-.416z" class="cls-51" transform="translate(-1148.249 -701.326)"/>
                <path id="Path_1307" d="M1155.025 714.865s6.22-1.038 5.514-4.9-.379-6.6-4.381-6.1-4.5 2.115-4.579 3.461 1.81 7.709 3.446 7.539z" class="cls-52" transform="translate(-1148.176 -701.197)"/>
                <path id="Path_1308" d="M1160.375 711.531a2.941 2.941 0 0 0-.747-2.085s.285-1.329-.24-1.548-.636.9-.876.722a5.358 5.358 0 0 1-1.775-2.234c-.459-1.227-4.67.259-5.161.481s-2.069-.59-2.375-1.247a9.214 9.214 0 0 0 1.271-1.227c.395-.526 3.154-4.075 7.01-3.067s4.382 2.848 4.163 4.425.308 5.249-1.27 5.78z" class="cls-30" transform="translate(-1148.131 -701.147)"/>
            </g>
            <path id="Path_1309" fill="#00c1d5" d="M1155.3 755.42c-3.291-1.02-6.877-2.475-7.262-3.554a.949.949 0 0 1-.035-.125c0-.151 0-.3.007-.452a7.718 7.718 0 0 0 .681-2.51c.065-1.522.055-3.315.112-5.242 0-.217.006-.453.03-.67v-.203l13.3-16.951s8.953 18.624-6.833 29.707z" opacity="0.63" transform="translate(-1080.435 -698.887)"/>
            <path id="Path_1310" d="M1158.813 761.579a10.943 10.943 0 0 1-2.284-1.054s2.021-11.441 2.087-12.548-3.313-16.43-3.313-16.43l8.71-7.378s1.1 21.381.879 24.185c-.369 4.632-4.286 13.379-4.286 13.379a4.6 4.6 0 0 1-1.793-.154z" class="cls-35" transform="translate(-1080.571 -698.858)"/>
            <path id="Path_1311" d="M1150.72 704.347a5.285 5.285 0 0 1 10.481-1.37" class="cls-35" transform="translate(-1080.485 -698.377)"/>
            <rect id="Rectangle_1696" width="14.244" height="1.113" class="cls-35" rx=".499" transform="rotate(-7.446 81.294 -509.45)"/>
        </g>
        <g id="sea">
            <g id="Group_1741">
                <g id="kv-ship-s" transform="translate(68.566 669.249)">
                    <g id="Group_1185" transform="translate(5.044 1.722)">
                        <path id="Path_1215" d="M74.378 723.37l21.69-46.407 22.447 46.407z" class="cls-35" transform="translate(-74.378 -676.964)"/>
                    </g>
                    <path id="Path_1216" d="M118.418 731.441H74.282l-5.044-7.188h54.225z" class="cls-58" transform="translate(-69.237 -676.125)"/>
                    <path id="Line_1386" fill="none" stroke="#277aa9" stroke-linecap="round" stroke-miterlimit="10" stroke-width="3px" d="M0 0L0 48.251" transform="translate(26.778)"/>
                </g>
                <path id="Path_1280" d="M176.558 798.995s-7.492 8.709-11.024 15.481c0 0 11.008 6.215 20.9.817l-.457-12.961s12.267-.883 16.781-14.229c0 0-2.944 2.65-8.538 1.766-5.79-.883-10.991 2.453-10.991 2.453s.294-4.122-2.944-6.379a11.4 11.4 0 0 1-5-8.243s-7.461 9.224 1.273 21.295z" class="cls-30" transform="translate(-2.467 -7.873)"/>
                <g id="Group_1221" transform="translate(325.164 782.061)">
                    <path id="Path_1312" d="M330.715 811.791h51.607l4.994 8.657h126.256l-3.065 8.99H339.773z" class="cls-30" transform="translate(-330.715 -790.57)"/>
                    <path id="Path_1313" d="M349.112 829.772l4.571 9.752h153.792l3.375-9.752z" class="cls-30" transform="translate(-331.059 -790.906)"/>
                    <g id="Group_1220" transform="translate(14.825)">
                        <path id="Rectangle_1697" d="M0 0H22.307V10.987H0z" class="cls-58" transform="rotate(-180 11.153 10.65)"/>
                        <path id="Rectangle_1698" d="M0 0H3.163V7.408H0z" class="cls-39" transform="rotate(-180 9.842 9.693)"/>
                        <path id="Rectangle_1699" d="M0 0H3.163V7.408H0z" class="cls-39" transform="rotate(-180 6.284 9.693)"/>
                        <path id="Rectangle_1700" d="M0 0H3.163V7.408H0z" class="cls-39" transform="rotate(-180 2.726 9.693)"/>
                        <circle id="Ellipse_215" cx="2.767" cy="2.767" r="2.767" class="cls-39" transform="translate(1.045 26.653)"/>
                        <circle id="Ellipse_216" cx="2.767" cy="2.767" r="2.767" class="cls-39" transform="translate(13.567 26.653)"/>
                        <circle id="Ellipse_217" cx="2.767" cy="2.767" r="2.767" class="cls-39" transform="translate(26.089 26.653)"/>
                        <g id="Group_1213" transform="translate(105.162 15.325)">
                            <g id="Group_1211" transform="translate(1.11 .083)">
                                <path id="Rectangle_1701" d="M0 0H57.418V14.497H0z" class="cls-28"/>
                            </g>
                            <g id="Group_1212" transform="translate(4.853)">
                                <path id="Line_1389" d="M0 0L0 14.527" class="cls-29" transform="translate(49.923)"/>
                                <path id="Line_1390" d="M0 0L0 14.527" class="cls-29" transform="translate(45.384)"/>
                                <path id="Line_1391" d="M0 0L0 14.527" class="cls-29" transform="translate(40.846)"/>
                                <path id="Line_1392" d="M0 0L0 14.527" class="cls-29" transform="translate(36.307)"/>
                                <path id="Line_1393" d="M0 0L0 14.527" class="cls-29" transform="translate(31.769)"/>
                                <path id="Line_1394" d="M0 0L0 14.527" class="cls-29" transform="translate(27.231)"/>
                                <path id="Line_1395" d="M0 0L0 14.527" class="cls-29" transform="translate(22.692)"/>
                                <path id="Line_1396" d="M0 0L0 14.527" class="cls-29" transform="translate(18.154)"/>
                                <path id="Line_1397" d="M0 0L0 14.527" class="cls-29" transform="translate(13.615)"/>
                                <path id="Line_1398" d="M0 0L0 14.527" class="cls-29" transform="translate(9.077)"/>
                                <path id="Line_1399" d="M0 0L0 14.527" class="cls-29" transform="translate(4.538)"/>
                                <path id="Line_1400" d="M0 0L0 14.527" class="cls-29"/>
                            </g>
                            <path id="Rectangle_1702" d="M0 0H59.442V1.269H0z" class="cls-28" transform="rotate(-180 29.721 .683)"/>
                            <path id="Rectangle_1703" d="M0 0H59.442V1.269H0z" class="cls-28" transform="rotate(-180 29.721 7.306)"/>
                        </g>
                        <g id="Group_1216" transform="translate(42.661 15.325)">
                            <g id="Group_1214" transform="translate(1.11 .083)">
                                <path id="Rectangle_1704" d="M0 0H57.418V14.497H0z" class="cls-35"/>
                            </g>
                            <g id="Group_1215" transform="translate(4.854)">
                                <path id="Line_1401" d="M0 0L0 14.527" class="cls-29" transform="translate(49.923)"/>
                                <path id="Line_1402" d="M0 0L0 14.527" class="cls-29" transform="translate(45.384)"/>
                                <path id="Line_1403" d="M0 0L0 14.527" class="cls-29" transform="translate(40.846)"/>
                                <path id="Line_1404" d="M0 0L0 14.527" class="cls-29" transform="translate(36.307)"/>
                                <path id="Line_1405" d="M0 0L0 14.527" class="cls-29" transform="translate(31.769)"/>
                                <path id="Line_1406" d="M0 0L0 14.527" class="cls-29" transform="translate(27.231)"/>
                                <path id="Line_1407" d="M0 0L0 14.527" class="cls-29" transform="translate(22.692)"/>
                                <path id="Line_1408" d="M0 0L0 14.527" class="cls-29" transform="translate(18.154)"/>
                                <path id="Line_1409" d="M0 0L0 14.527" class="cls-29" transform="translate(13.615)"/>
                                <path id="Line_1410" d="M0 0L0 14.527" class="cls-29" transform="translate(9.077)"/>
                                <path id="Line_1411" d="M0 0L0 14.527" class="cls-29" transform="translate(4.538)"/>
                                <path id="Line_1412" d="M0 0L0 14.527" class="cls-29"/>
                            </g>
                            <path id="Rectangle_1705" d="M0 0H59.442V1.269H0z" class="cls-35" transform="rotate(-180 29.721 .683)"/>
                            <path id="Rectangle_1706" d="M0 0H59.442V1.269H0z" class="cls-35" transform="rotate(-180 29.721 7.306)"/>
                        </g>
                        <g id="Group_1219" transform="translate(74.605)">
                            <g id="Group_1217" transform="translate(1.11 .083)">
                                <path id="Rectangle_1707" d="M0 0H57.418V14.497H0z" class="cls-30"/>
                            </g>
                            <g id="Group_1218" transform="translate(4.854)">
                                <path id="Line_1413" d="M0 0L0 14.527" class="cls-29" transform="translate(49.923)"/>
                                <path id="Line_1414" d="M0 0L0 14.527" class="cls-29" transform="translate(45.384)"/>
                                <path id="Line_1415" d="M0 0L0 14.527" class="cls-29" transform="translate(40.846)"/>
                                <path id="Line_1416" d="M0 0L0 14.527" class="cls-29" transform="translate(36.307)"/>
                                <path id="Line_1417" d="M0 0L0 14.527" class="cls-29" transform="translate(31.769)"/>
                                <path id="Line_1418" d="M0 0L0 14.527" class="cls-29" transform="translate(27.231)"/>
                                <path id="Line_1419" d="M0 0L0 14.527" class="cls-29" transform="translate(22.692)"/>
                                <path id="Line_1420" d="M0 0L0 14.527" class="cls-29" transform="translate(18.154)"/>
                                <path id="Line_1421" d="M0 0L0 14.527" class="cls-29" transform="translate(13.615)"/>
                                <path id="Line_1422" d="M0 0L0 14.527" class="cls-29" transform="translate(9.077)"/>
                                <path id="Line_1423" d="M0 0L0 14.527" class="cls-29" transform="translate(4.538)"/>
                                <path id="Line_1424" d="M0 0L0 14.527" class="cls-29"/>
                            </g>
                            <path id="Rectangle_1708" d="M0 0H59.442V1.269H0z" class="cls-30" transform="rotate(-180 29.721 .683)"/>
                            <path id="Rectangle_1709" d="M0 0H59.442V1.269H0z" class="cls-30" transform="rotate(-180 29.721 7.306)"/>
                        </g>
                        <path id="Rectangle_1710" d="M0 0H7.993V5.226H0z" class="cls-58" transform="rotate(-180 7.44 5.294)"/>
                        <path id="Line_1425" fill="none" stroke="#00bdd0" stroke-miterlimit="10" d="M99.147 0L0 0" transform="translate(66.528 34.262)"/>
                    </g>
                </g>
            </g>
        </g>
    </g>
</svg>
