<svg xmlns="http://www.w3.org/2000/svg" width="186.992" height="340.569" viewBox="0 0 186.992 340.569">
    <defs>
        <style>
            .cls-1{fill:#195d8f}.cls-2{fill:#fff}.cls-3{fill:#0d395a}.cls-5{fill:#e84040}.cls-7{fill:#eea886}.cls-8{fill:#0f264c}.cls-9{fill:#00c1d5}
        </style>
    </defs>
    <g id="pic-whyuse-1" transform="translate(-190.226 -314.731)">
        <g id="Group_1249" data-name="Group 1249" transform="translate(291.392 458.693)">
            <g id="Group_1246" data-name="Group 1246">
                <g id="Group_1245" data-name="Group 1245">
                    <path id="Path_1233" d="M261.568 374.717s8.854 22.538 8.861 44.257c.007 29.944-12.243 57.913-12.243 57.913s15.465 31.588-6.121 79.958h-8.7s2.256-50.015 0-85.553-4.834-51-4.834-51L214.046 483.8s4.834 12.5 2.256 25.007-12.565 44.093-12.565 44.093l-9.346-.657s5.156-57.584 6.121-74.038 16.271-101.181 16.271-101.181z" class="cls-1" data-name="Path 1233" transform="translate(-194.391 -374.717)"/>
                </g>
            </g>
            <g id="Group_1248" data-name="Group 1248" transform="translate(40.679 15.168)">
                <g id="Group_1247" data-name="Group 1247">
                    <path id="Path_1234" d="M214.038 548.015c1.593-23.594.016-84.96 0-85.577l-4.834-51.02-3.224-30.381-.479.053 3.222 30.378 4.831 51c.016.6 1.593 61.94 0 85.512z" class="cls-2" data-name="Path 1234" transform="translate(-205.503 -381.037)"/>
                </g>
            </g>
        </g>
        <g id="Group_1254" data-name="Group 1254" transform="translate(265.778 636.216)">
            <g id="Group_1251" data-name="Group 1251" transform="translate(68.949 4.605)">
                <g id="Group_1250" data-name="Group 1250">
                    <path id="Path_1235" d="M205.79 450.606a7.355 7.355 0 0 0-1.128 6.417l-4.512 8.061h19.171l-4.831-14.479z" class="cls-3" data-name="Path 1235" transform="translate(-200.15 -450.606)"/>
                </g>
            </g>
            <g id="Group_1253" data-name="Group 1253">
                <g id="Group_1252" data-name="Group 1252">
                    <path id="Path_1236" d="M257.732 449.345l-.806 15.3h-34.154s23.36-10.034 25.614-15.957z" class="cls-3" data-name="Path 1236" transform="translate(-222.772 -448.687)"/>
                </g>
            </g>
        </g>
        <g id="Group_1271" data-name="Group 1271" transform="translate(207.987 363.927)">
            <g id="Group_1256" data-name="Group 1256" transform="translate(70.296 18.673)">
                <g id="Group_1255" data-name="Group 1255">
                    <path id="Path_1237" fill="#c42b2b" d="M217.8 343.011h34.132v33.563l-8.216 12.093H217.8z" data-name="Path 1237" transform="translate(-217.802 -343.011)"/>
                </g>
            </g>
            <g id="Group_1258" data-name="Group 1258" transform="translate(96.212 18.673)">
                <g id="Group_1257" data-name="Group 1257">
                    <path id="Path_1238" d="M217.8 388.667v-36.278l8.216-9.378v34.235z" class="cls-5" data-name="Path 1238" transform="translate(-217.802 -343.011)"/>
                </g>
            </g>
            <g id="Group_1260" data-name="Group 1260" transform="translate(70.296 18.673)">
                <g id="Group_1259" data-name="Group 1259">
                    <path id="Path_1239" d="M217.8 343.011h34.132l-8.216 9.378H217.8z" class="cls-5" data-name="Path 1239" transform="translate(-217.802 -343.011)"/>
                </g>
            </g>
            <g id="Group_1262" data-name="Group 1262" transform="translate(96.032 18.509)">
                <g id="Group_1261" data-name="Group 1261">
                    <path id="Path_1263" fill="#fb9649" d="M0 12.472l.488.005L.358.01-.13.005z" data-name="Path 1263" transform="rotate(-138.18 1.968 4.762)"/>
                </g>
            </g>
            <g id="Group_1264" data-name="Group 1264">
                <g id="Group_1263" data-name="Group 1263">
                    <path id="Path_1240" d="M229.391 350.861c2.578-4.774 17.923-8.952 23.682-15.631l16.724 4.286s5.022 4.27 9.212 6.079 14.337 3.453 15.949 13.161 0 44.423 0 44.423a19.431 19.431 0 0 1 3.229-3.622h17.258c-2.183 5-7.4 15.924-13.721 21.883-8.377 7.9-16.915 9.213-16.915 9.213l2.254 14.536a62.705 62.705 0 0 1-29.318 4.713c-16.111-1.481-22.07-8.39-22.07-8.39s6.121-25.5 6.443-28.958c0 0-15.627-2.962-18.527-6.086s3.222-50.836 5.8-55.607z" class="cls-1" data-name="Path 1240" transform="translate(-222.829 -335.23)"/>
                </g>
            </g>
            <g id="Group_1266" data-name="Group 1266" transform="translate(9.382 31.999)">
                <g id="Group_1265" data-name="Group 1265">
                    <path id="Path_1241" d="M263.783 394.137a.243.243 0 0 0 .24-.228c1.438-19.252-9.574-44.941-9.684-45.2a.241.241 0 0 0-.32-.127.249.249 0 0 0-.122.326c.11.257 11.073 25.833 9.644 44.96a.248.248 0 0 0 .223.266z" class="cls-2" data-name="Path 1241" transform="translate(-253.876 -348.563)"/>
                </g>
            </g>
            <g id="Group_1268" data-name="Group 1268" transform="translate(54.004 38.087)">
                <g id="Group_1267" data-name="Group 1267">
                    <path id="Path_1242" d="M243.74 408.684a.234.234 0 0 0 .188-.094.249.249 0 0 0-.04-.348c-.045-.036-4.467-3.677-6.356-12.2-1.906-8.592-1.13-44.332-1.123-44.692a.241.241 0 0 0-.235-.252.237.237 0 0 0-.247.242c-.009.36-.785 36.16 1.133 44.809 1.932 8.707 6.345 12.331 6.53 12.48a.235.235 0 0 0 .15.055z" class="cls-2" data-name="Path 1242" transform="translate(-235.763 -351.1)"/>
                </g>
            </g>
            <g id="Group_1270" data-name="Group 1270" transform="translate(71.082 67.931)">
                <g id="Group_1269" data-name="Group 1269">
                    <path id="Path_1264" d="M0 11.71h.483L.466 0h-.483z" class="cls-2" data-name="Path 1264" transform="rotate(-175.971 .439 5.85)"/>
                </g>
            </g>
        </g>
        <g id="Group_1280" data-name="Group 1280" transform="translate(190.226 465.968)">
            <g id="Group_1273" data-name="Group 1273" transform="translate(4.267)">
                <g id="Group_1272" data-name="Group 1272">
                    <path id="Path_1243" d="M312.476 385.667c2.256 34.821-6.443 170.309-6.443 170.309H295.1l-10.09-127.343-38.905 122.654-11.357-.742s25.132-118.458 26.34-126.845-4.592-30.354 0-41.706 51.388 3.673 51.388 3.673z" class="cls-3" data-name="Path 1243" transform="translate(-234.748 -377.748)"/>
                </g>
            </g>
            <g id="Group_1275" data-name="Group 1275" transform="translate(49.455 24.725)">
                <g id="Group_1274" data-name="Group 1274">
                    <path id="Path_1244" d="M257.364 541.8h.019a.244.244 0 0 0 .221-.267l-10.089-127.344c-.047-.187-3.88-14.469-4.834-25.912a.241.241 0 0 0-.261-.226.245.245 0 0 0-.221.266c.956 11.488 4.8 25.814 4.841 25.958l10.081 127.3a.245.245 0 0 0 .243.225z" class="cls-2" data-name="Path 1244" transform="translate(-242.199 -388.051)"/>
                </g>
            </g>
            <g id="Group_1277" data-name="Group 1277" transform="translate(64.619 174.854)">
                <g id="Group_1276" data-name="Group 1276">
                    <path id="Path_1245" d="M229.474 453.979l11.146-3.373 19 11.352h-30.146z" class="cls-1" data-name="Path 1245" transform="translate(-229.474 -450.606)"/>
                </g>
            </g>
            <g id="Group_1279" data-name="Group 1279" transform="translate(0 172.139)">
                <g id="Group_1278" data-name="Group 1278">
                    <path id="Path_1246" d="M279.747 455.564h-17.316a9.816 9.816 0 0 1 9.181-6.089 7.9 7.9 0 0 1 8.135 6.089z" class="cls-1" data-name="Path 1246" transform="translate(-262.431 -449.475)"/>
                </g>
            </g>
        </g>
        <g id="Group_1289" data-name="Group 1289" transform="translate(238.232 314.731)">
            <g id="Group_1282" data-name="Group 1282" transform="translate(0 21.061)">
                <g id="Group_1281" data-name="Group 1281">
                    <path id="Path_1247" d="M270.1 323.507c-.162 5.429-1.91 16.156-5.962 20.731-6.121 6.909-10.953.986-12.565 9.871-1.217 6.713-17.077 4.442-17.558-2.467 0 0 2.094-8.227 1.932-11.846a74.294 74.294 0 0 1 .968-10.694l20.78-5.594z" class="cls-7" data-name="Path 1247" transform="translate(-234.015 -323.507)"/>
                </g>
            </g>
            <g id="Group_1284" data-name="Group 1284" transform="translate(.479 17.276)">
                <g id="Group_1283" data-name="Group 1283">
                    <path id="Path_1248" d="M265.289 327.2s-3.866 1.975-5.315 5.429c0 0-.968-5.923-3.868-4.277s-4.35 6.252-3.7 8.556a3.875 3.875 0 0 0 2.094 2.8s-6.121 9.873-11.761 8.556-7.087-7.118-7.731-10.468.806-15.856.806-15.856l32.7 3.785z" class="cls-8" data-name="Path 1248" transform="translate(-234.838 -321.93)"/>
                </g>
            </g>
            <g id="Group_1286" data-name="Group 1286" transform="translate(1.45)">
                <g id="Group_1285" data-name="Group 1285">
                    <path id="Path_1249" d="M233.936 332.008s3.382-20.071 20.458-16.946 14.177 20.731 14.177 20.731-17.721 1.317-34.635-3.785z" class="cls-9" data-name="Path 1249" transform="translate(-233.936 -314.731)"/>
                </g>
            </g>
            <g id="Group_1288" data-name="Group 1288" transform="translate(36.085 17.276)">
                <g id="Group_1287" data-name="Group 1287">
                    <path id="Path_1250" d="M225.926 325.715l19.008.154s-.16-2.95-2.578-3.938h-16.244z" class="cls-9" data-name="Path 1250" transform="translate(-225.926 -321.93)"/>
                </g>
            </g>
        </g>
        <g id="Group_1320" data-name="Group 1320" transform="translate(311.795 327.474)">
            <g id="Group_1291" data-name="Group 1291" transform="translate(3.766)">
                <g id="Group_1290" data-name="Group 1290">
                    <path id="Path_1251" d="M247.161 396.143s2.254-4.605.966-7.4-3.222-6.086-1.934-10.365-9.181-10.526-9.181-17.275c0-10.2 10.309-20.894 0-33.892s-29.31-5.386-31.254 0c-2.254 6.252-8.375 8.061-8.215 12.5s4.331 16.4 2.74 22.706c-2.578 10.2-10.471 19.413-6.446 26.488s53.324 7.238 53.324 7.238z" class="cls-8" data-name="Path 1251" transform="translate(-192.714 -320.041)"/>
                </g>
            </g>
            <g id="Group_1304" data-name="Group 1304" transform="translate(0 55.127)">
                <g id="Group_1293" data-name="Group 1293" transform="translate(1.989)">
                    <g id="Group_1292" data-name="Group 1292">
                        <path id="Path_1252" d="M192 388.5c-2.387-10.169 0-14.313 0-14.313l-.573-12.713a10.076 10.076 0 0 1 4.937-9.168l15.93-9.3 12.929.617s13.491 5.059 17.681 10 7.571 27.969 9.021 37.345 3.866 17.769-2.1 20.731-19.008-4.277-19.008-4.277l4.188 11.68c-20.62 8.061-44.785 2.3-44.785 2.3s4.68-20.56 1.78-32.902zm45.748 6.581l-.806-14.479s-5.478 6.089-6.928 12.012z" class="cls-9" data-name="Path 1252" transform="translate(-190.226 -343.011)"/>
                    </g>
                </g>
                <g id="Group_1295" data-name="Group 1295" transform="translate(20.206 45.332)">
                    <g id="Group_1294" data-name="Group 1294">
                        <path id="Path_1253" d="M215.835 381.212l.16-.466s-6.927-2.47-12.887-4.608c-5.576-2-5.64-3.523-5.64-3.537v-.127l-.1-.086-3.212-2.345 3.823-7.5 4.74 2.261.108-.07c.014 0 1.715-.9 8.847.689 7.3 1.62 18.839 7.327 18.954 7.385a.238.238 0 0 0 .322-.115.248.248 0 0 0-.11-.329c-.117-.058-11.71-5.791-19.062-7.423-6.42-1.425-8.565-.886-9.071-.689l-4.944-2.354-4.23 8.3 3.467 2.523c.087.5.8 2.033 5.952 3.883 5.956 2.139 12.883 4.608 12.883 4.608z" class="cls-2" data-name="Path 1253" transform="translate(-193.535 -361.9)"/>
                    </g>
                </g>
                <g id="Group_1297" data-name="Group 1297" transform="translate(47.499 25.007)">
                    <g id="Group_1296" data-name="Group 1296">
                        <path id="Path_1254" d="M198.908 380.742h.016a.245.245 0 0 0 .223-.264l-1.772-26.817a.241.241 0 0 0-.256-.23.246.246 0 0 0-.226.264l1.772 26.817a.246.246 0 0 0 .243.23z" class="cls-2" data-name="Path 1254" transform="translate(-196.894 -353.431)"/>
                    </g>
                </g>
                <g id="Group_1299" data-name="Group 1299" transform="translate(3.524 16.785)">
                    <g id="Group_1298" data-name="Group 1298">
                        <path id="Path_1255" d="M213.4 364.645a.247.247 0 0 0 .226-.158c.016-.041 1.612-4.212 7.517-14.107a.249.249 0 0 0-.08-.338.24.24 0 0 0-.334.082c-5.934 9.943-7.538 14.145-7.555 14.186a.25.25 0 0 0 .139.319.279.279 0 0 0 .087.016z" class="cls-2" data-name="Path 1255" transform="translate(-213.154 -350.005)"/>
                    </g>
                </g>
                <g id="Group_1301" data-name="Group 1301" transform="translate(0 38.497)">
                    <g id="Group_1300" data-name="Group 1300">
                        <path id="Path_1256" d="M231.88 367.188l-6.812-5.913-6.827-2.222-1.69 1.421-7.614-.742a1.444 1.444 0 0 0-1.086 1.018c-.181.833 1.086 1.759 1.086 1.759l8.4.926a31.226 31.226 0 0 0 .181 3.454c.181 1.174-.423 2.1.484 2.9s5.135 2.407 6.7 2.285 4.03 1.282 4.03 1.282z" class="cls-7" data-name="Path 1256" transform="translate(-207.834 -359.052)"/>
                    </g>
                </g>
                <g id="Group_1303" data-name="Group 1303" transform="translate(8.664 39.675)">
                    <g id="Group_1302" data-name="Group 1302">
                        <path id="Path_1265" fill="#fdc585" d="M0 .512l4.27.019V.038L0 .019z" data-name="Path 1265" transform="rotate(-167.707 2.158 .49)"/>
                    </g>
                </g>
            </g>
            <g id="Group_1319" data-name="Group 1319" transform="translate(12.332 17.244)">
                <g id="Group_1306" data-name="Group 1306">
                    <g id="Group_1305" data-name="Group 1305">
                        <path id="Path_1257" d="M200.418 327.226c-2.538 8.021-.968 18.139.6 22.581s5.8 8.762 7.611 8.885a8.427 8.427 0 0 0 3.5-.617l-1.33 7.034s3.746 5.182 12.929.617l3.02-19.128s4.23.372 4.592-6.293-4.834-3.084-5.316-1.356c0 0-2.054-1.481-3.5-.494s-1.572-4.073-5.438-4.073-10.633.494-13.653-3.331z" class="cls-7" data-name="Path 1257" transform="translate(-199.079 -327.226)"/>
                    </g>
                </g>
                <g id="Group_1318" data-name="Group 1318" transform="translate(12.871 26.423)">
                    <g id="Group_1317" data-name="Group 1317">
                        <path id="Path_1262" fill="#41415b" d="M204.7 342.851a.2.2 0 0 0 .073-.014c.2-.086 4.775-2.143 6.357-4.3a.188.188 0 0 0-.035-.264.184.184 0 0 0-.261.036c-1.525 2.076-6.161 4.157-6.209 4.176a.2.2 0 0 0-.1.252.188.188 0 0 0 .175.114z" data-name="Path 1262" transform="translate(-204.51 -338.236)"/>
                    </g>
                </g>
            </g>
        </g>
    </g>
</svg>
